%TF.GenerationSoftware,KiCad,Pcbnew,9.0.0*%
%TF.CreationDate,2025-03-30T17:52:02-07:00*%
%TF.ProjectId,Caliper_Clock,43616c69-7065-4725-9f43-6c6f636b2e6b,rev?*%
%TF.SameCoordinates,Original*%
%TF.FileFunction,Legend,Top*%
%TF.FilePolarity,Positive*%
%FSLAX46Y46*%
G04 Gerber Fmt 4.6, Leading zero omitted, Abs format (unit mm)*
G04 Created by KiCad (PCBNEW 9.0.0) date 2025-03-30 17:52:02*
%MOMM*%
%LPD*%
G01*
G04 APERTURE LIST*
%ADD10C,0.052916*%
%ADD11C,0.079374*%
%ADD12C,0.000000*%
%ADD13C,0.150000*%
%ADD14C,0.120000*%
%ADD15C,0.200000*%
%ADD16C,0.400000*%
G04 APERTURE END LIST*
D10*
X166089095Y-93667831D02*
X165970561Y-93759906D01*
X165917645Y-93577873D01*
X166089095Y-93667831D01*
G36*
X166089095Y-93667831D02*
G01*
X165970561Y-93759906D01*
X165917645Y-93577873D01*
X166089095Y-93667831D01*
G37*
D11*
X166369916Y-93595938D02*
X166374280Y-93596256D01*
X166378677Y-93596816D01*
X166383109Y-93597613D01*
X166387576Y-93598644D01*
X166392080Y-93599906D01*
X166396622Y-93601394D01*
X166401204Y-93603107D01*
X166410488Y-93607189D01*
X166419944Y-93612123D01*
X166429579Y-93617883D01*
X166439403Y-93624439D01*
X166443235Y-93627441D01*
X166446795Y-93630877D01*
X166450082Y-93634732D01*
X166453097Y-93638987D01*
X166455840Y-93643625D01*
X166458311Y-93648628D01*
X166462438Y-93659662D01*
X166465480Y-93671948D01*
X166467438Y-93685347D01*
X166468315Y-93699720D01*
X166468110Y-93714927D01*
X166466827Y-93730828D01*
X166464466Y-93747284D01*
X166461029Y-93764156D01*
X166456518Y-93781304D01*
X166450934Y-93798588D01*
X166444279Y-93815869D01*
X166436554Y-93833008D01*
X166427761Y-93849864D01*
X166419888Y-93863433D01*
X166412153Y-93876360D01*
X166404570Y-93888648D01*
X166397152Y-93900300D01*
X166389915Y-93911320D01*
X166382871Y-93921711D01*
X166376035Y-93931475D01*
X166369421Y-93940616D01*
X166363042Y-93949137D01*
X166356913Y-93957041D01*
X166351047Y-93964331D01*
X166345459Y-93971010D01*
X166340163Y-93977082D01*
X166335172Y-93982549D01*
X166330500Y-93987414D01*
X166326161Y-93991681D01*
X166315084Y-94001566D01*
X166299256Y-94014799D01*
X166278592Y-94030562D01*
X166266419Y-94039137D01*
X166253004Y-94048037D01*
X166238336Y-94057161D01*
X166222405Y-94066405D01*
X166205200Y-94075668D01*
X166186709Y-94084847D01*
X166166923Y-94093841D01*
X166145829Y-94102545D01*
X166123418Y-94110860D01*
X166099678Y-94118681D01*
X166057764Y-94131017D01*
X166037582Y-94136429D01*
X166017971Y-94141171D01*
X165998975Y-94145119D01*
X165980634Y-94148149D01*
X165962991Y-94150137D01*
X165954444Y-94150702D01*
X165946087Y-94150960D01*
X165937926Y-94150896D01*
X165929965Y-94150493D01*
X165922210Y-94149737D01*
X165914666Y-94148612D01*
X165907338Y-94147102D01*
X165900232Y-94145193D01*
X165893352Y-94142868D01*
X165886705Y-94140112D01*
X165880294Y-94136910D01*
X165874127Y-94133245D01*
X165868206Y-94129104D01*
X165862539Y-94124469D01*
X165857130Y-94119325D01*
X165851984Y-94113658D01*
X165847106Y-94107451D01*
X165842503Y-94100689D01*
X165837686Y-94092538D01*
X165833238Y-94083653D01*
X165829280Y-94074165D01*
X165825933Y-94064210D01*
X165824527Y-94059098D01*
X165823318Y-94053919D01*
X165822323Y-94048690D01*
X165821555Y-94043428D01*
X165821032Y-94038148D01*
X165820766Y-94032868D01*
X165820775Y-94027604D01*
X165821072Y-94022373D01*
X165821673Y-94017191D01*
X165822593Y-94012076D01*
X165823846Y-94007044D01*
X165825450Y-94002111D01*
X165827417Y-93997295D01*
X165829764Y-93992612D01*
X165832506Y-93988078D01*
X165835657Y-93983710D01*
X165839233Y-93979526D01*
X165843249Y-93975541D01*
X165847719Y-93971772D01*
X165852660Y-93968236D01*
X165858087Y-93964950D01*
X165864013Y-93961930D01*
X165870455Y-93959193D01*
X165877428Y-93956756D01*
X165944797Y-93934979D01*
X165973255Y-93925583D01*
X165998673Y-93916886D01*
X166021388Y-93908667D01*
X166041734Y-93900704D01*
X166060046Y-93892774D01*
X166068544Y-93888753D01*
X166076659Y-93884657D01*
X166084433Y-93880459D01*
X166091908Y-93876131D01*
X166099125Y-93871645D01*
X166106127Y-93866973D01*
X166112955Y-93862089D01*
X166119652Y-93856963D01*
X166126258Y-93851569D01*
X166132817Y-93845879D01*
X166139369Y-93839865D01*
X166145957Y-93833499D01*
X166159408Y-93819601D01*
X166173503Y-93803963D01*
X166188578Y-93786364D01*
X166199058Y-93773502D01*
X166208372Y-93761448D01*
X166216669Y-93750120D01*
X166224098Y-93739434D01*
X166230808Y-93729306D01*
X166236947Y-93719652D01*
X166248109Y-93701433D01*
X166258775Y-93684107D01*
X166264294Y-93675569D01*
X166270136Y-93667004D01*
X166276449Y-93658327D01*
X166283381Y-93649455D01*
X166291083Y-93640303D01*
X166299703Y-93630789D01*
X166303678Y-93626475D01*
X166307667Y-93622462D01*
X166311670Y-93618746D01*
X166315690Y-93615323D01*
X166319726Y-93612190D01*
X166323781Y-93609344D01*
X166327855Y-93606780D01*
X166331949Y-93604496D01*
X166336065Y-93602488D01*
X166340204Y-93600752D01*
X166344368Y-93599285D01*
X166348556Y-93598084D01*
X166352771Y-93597145D01*
X166357013Y-93596464D01*
X166361284Y-93596038D01*
X166365584Y-93595864D01*
X166369916Y-93595938D01*
D12*
G36*
X166233594Y-93398029D02*
G01*
X166235048Y-93398110D01*
X166236482Y-93398265D01*
X166237894Y-93398493D01*
X166239284Y-93398791D01*
X166240649Y-93399159D01*
X166241987Y-93399594D01*
X166243297Y-93400094D01*
X166244576Y-93400658D01*
X166245823Y-93401283D01*
X166247036Y-93401968D01*
X166248213Y-93402712D01*
X166249352Y-93403512D01*
X166250452Y-93404366D01*
X166251510Y-93405273D01*
X166252525Y-93406231D01*
X166253495Y-93407238D01*
X166254418Y-93408292D01*
X166255292Y-93409391D01*
X166256115Y-93410534D01*
X166256886Y-93411718D01*
X166257603Y-93412943D01*
X166258264Y-93414206D01*
X166258866Y-93415505D01*
X166259409Y-93416838D01*
X166259891Y-93418204D01*
X166260308Y-93419601D01*
X166260661Y-93421027D01*
X166260946Y-93422480D01*
X166261162Y-93423958D01*
X166261307Y-93425460D01*
X166261380Y-93426983D01*
X166261378Y-93428509D01*
X166261303Y-93430016D01*
X166261156Y-93431503D01*
X166260939Y-93432967D01*
X166260653Y-93434408D01*
X166260301Y-93435823D01*
X166259884Y-93437210D01*
X166259404Y-93438567D01*
X166258862Y-93439893D01*
X166258261Y-93441185D01*
X166257602Y-93442441D01*
X166256887Y-93443660D01*
X166256118Y-93444841D01*
X166255296Y-93445979D01*
X166254423Y-93447075D01*
X166253501Y-93448126D01*
X166252532Y-93449130D01*
X166251517Y-93450085D01*
X166250459Y-93450990D01*
X166249358Y-93451842D01*
X166248217Y-93452640D01*
X166247037Y-93453381D01*
X166245821Y-93454064D01*
X166244569Y-93454687D01*
X166243284Y-93455247D01*
X166241968Y-93455744D01*
X166240622Y-93456175D01*
X166239247Y-93456538D01*
X166237847Y-93456831D01*
X166236421Y-93457053D01*
X166234973Y-93457201D01*
X166233504Y-93457274D01*
X166232033Y-93457270D01*
X166230580Y-93457189D01*
X166229146Y-93457034D01*
X166227733Y-93456806D01*
X166226343Y-93456508D01*
X166224978Y-93456140D01*
X166223640Y-93455705D01*
X166222330Y-93455205D01*
X166221051Y-93454641D01*
X166219804Y-93454016D01*
X166218591Y-93453330D01*
X166217414Y-93452587D01*
X166216275Y-93451787D01*
X166215175Y-93450933D01*
X166214117Y-93450026D01*
X166213102Y-93449068D01*
X166212132Y-93448061D01*
X166211210Y-93447007D01*
X166210335Y-93445908D01*
X166209512Y-93444765D01*
X166208741Y-93443580D01*
X166208024Y-93442356D01*
X166207363Y-93441093D01*
X166206761Y-93439794D01*
X166206218Y-93438461D01*
X166205737Y-93437095D01*
X166205319Y-93435698D01*
X166204967Y-93434272D01*
X166204682Y-93432819D01*
X166204465Y-93431341D01*
X166204320Y-93429839D01*
X166204247Y-93428315D01*
X166204249Y-93426790D01*
X166204324Y-93425283D01*
X166204471Y-93423796D01*
X166204688Y-93422331D01*
X166204974Y-93420891D01*
X166205326Y-93419476D01*
X166205743Y-93418089D01*
X166206223Y-93416732D01*
X166206765Y-93415406D01*
X166207366Y-93414114D01*
X166208025Y-93412857D01*
X166208740Y-93411638D01*
X166209509Y-93410458D01*
X166210331Y-93409319D01*
X166211204Y-93408223D01*
X166212126Y-93407172D01*
X166213095Y-93406168D01*
X166214110Y-93405213D01*
X166215169Y-93404309D01*
X166216269Y-93403456D01*
X166217410Y-93402659D01*
X166218590Y-93401918D01*
X166219807Y-93401235D01*
X166221058Y-93400612D01*
X166222343Y-93400051D01*
X166223659Y-93399555D01*
X166225006Y-93399124D01*
X166226380Y-93398761D01*
X166227781Y-93398468D01*
X166229206Y-93398246D01*
X166230654Y-93398098D01*
X166232123Y-93398025D01*
X166233594Y-93398029D01*
G37*
G36*
X165691585Y-93792751D02*
G01*
X165693052Y-93792861D01*
X165694502Y-93793041D01*
X165695934Y-93793291D01*
X165697345Y-93793608D01*
X165698733Y-93793991D01*
X165700095Y-93794438D01*
X165701430Y-93794947D01*
X165702736Y-93795516D01*
X165704010Y-93796145D01*
X165705251Y-93796830D01*
X165706455Y-93797570D01*
X165707622Y-93798364D01*
X165708749Y-93799210D01*
X165709833Y-93800105D01*
X165710873Y-93801049D01*
X165711866Y-93802039D01*
X165712811Y-93803074D01*
X165713705Y-93804153D01*
X165714546Y-93805272D01*
X165715332Y-93806431D01*
X165716061Y-93807628D01*
X165716730Y-93808860D01*
X165717338Y-93810127D01*
X165717883Y-93811427D01*
X165718362Y-93812757D01*
X165718773Y-93814117D01*
X165719114Y-93815504D01*
X165719383Y-93816916D01*
X165719578Y-93818352D01*
X165719696Y-93819811D01*
X165719736Y-93821289D01*
X165719699Y-93822771D01*
X165719590Y-93824238D01*
X165719409Y-93825689D01*
X165719160Y-93827121D01*
X165718842Y-93828531D01*
X165718460Y-93829919D01*
X165718013Y-93831282D01*
X165717504Y-93832617D01*
X165716934Y-93833923D01*
X165716306Y-93835197D01*
X165715621Y-93836437D01*
X165714881Y-93837642D01*
X165714087Y-93838808D01*
X165713241Y-93839935D01*
X165712346Y-93841019D01*
X165711402Y-93842059D01*
X165710412Y-93843053D01*
X165709376Y-93843997D01*
X165708298Y-93844891D01*
X165707179Y-93845732D01*
X165706020Y-93846518D01*
X165704823Y-93847247D01*
X165703590Y-93847917D01*
X165702323Y-93848525D01*
X165701024Y-93849070D01*
X165699693Y-93849548D01*
X165698334Y-93849959D01*
X165696947Y-93850301D01*
X165695534Y-93850570D01*
X165694098Y-93850764D01*
X165692640Y-93850883D01*
X165691161Y-93850923D01*
X165689679Y-93850886D01*
X165688212Y-93850776D01*
X165686762Y-93850596D01*
X165685330Y-93850346D01*
X165683919Y-93850029D01*
X165682532Y-93849646D01*
X165681169Y-93849199D01*
X165679834Y-93848690D01*
X165678528Y-93848121D01*
X165677254Y-93847493D01*
X165676013Y-93846808D01*
X165674809Y-93846067D01*
X165673642Y-93845273D01*
X165672516Y-93844428D01*
X165671431Y-93843532D01*
X165670391Y-93842588D01*
X165669398Y-93841598D01*
X165668453Y-93840563D01*
X165667559Y-93839485D01*
X165666718Y-93838365D01*
X165665932Y-93837206D01*
X165665203Y-93836010D01*
X165664534Y-93834777D01*
X165663926Y-93833510D01*
X165663381Y-93832210D01*
X165662902Y-93830880D01*
X165662491Y-93829520D01*
X165662150Y-93828133D01*
X165661881Y-93826721D01*
X165661686Y-93825285D01*
X165661568Y-93823826D01*
X165661528Y-93822348D01*
X165661565Y-93820866D01*
X165661674Y-93819399D01*
X165661855Y-93817948D01*
X165662105Y-93816517D01*
X165662422Y-93815106D01*
X165662805Y-93813718D01*
X165663251Y-93812355D01*
X165663760Y-93811020D01*
X165664330Y-93809714D01*
X165664958Y-93808440D01*
X165665643Y-93807200D01*
X165666383Y-93805995D01*
X165667177Y-93804829D01*
X165668023Y-93803702D01*
X165668918Y-93802618D01*
X165669862Y-93801578D01*
X165670853Y-93800585D01*
X165671888Y-93799640D01*
X165672966Y-93798746D01*
X165674085Y-93797905D01*
X165675244Y-93797119D01*
X165676441Y-93796390D01*
X165677674Y-93795720D01*
X165678941Y-93795112D01*
X165680240Y-93794568D01*
X165681571Y-93794089D01*
X165682930Y-93793678D01*
X165684317Y-93793336D01*
X165685730Y-93793067D01*
X165687166Y-93792873D01*
X165688624Y-93792754D01*
X165690103Y-93792714D01*
X165691585Y-93792751D01*
G37*
X166060475Y-93056429D02*
X166095300Y-93058271D01*
X166129660Y-93061839D01*
X166163511Y-93067092D01*
X166196808Y-93073987D01*
X166229508Y-93082483D01*
X166261566Y-93092537D01*
X166292938Y-93104107D01*
X166323581Y-93117151D01*
X166353450Y-93131627D01*
X166382502Y-93147493D01*
X166410692Y-93164706D01*
X166437976Y-93183225D01*
X166464311Y-93203006D01*
X166489652Y-93224009D01*
X166513955Y-93246191D01*
X166537177Y-93269510D01*
X166559273Y-93293923D01*
X166580199Y-93319389D01*
X166599912Y-93345866D01*
X166618367Y-93373310D01*
X166635520Y-93401681D01*
X166651327Y-93430936D01*
X166665744Y-93461032D01*
X166678728Y-93491929D01*
X166690233Y-93523583D01*
X166700217Y-93555952D01*
X166708635Y-93588994D01*
X166715443Y-93622668D01*
X166720597Y-93656931D01*
X166724054Y-93691740D01*
X166725768Y-93727055D01*
X166725701Y-93762410D01*
X166723870Y-93797343D01*
X166720318Y-93831809D01*
X166715086Y-93865763D01*
X166708216Y-93899162D01*
X166699752Y-93931961D01*
X166689733Y-93964117D01*
X166678203Y-93995585D01*
X166665204Y-94026320D01*
X166650776Y-94056280D01*
X166634964Y-94085419D01*
X166617808Y-94113693D01*
X166599350Y-94141059D01*
X166579633Y-94167473D01*
X166558698Y-94192889D01*
X166536588Y-94217264D01*
X166513345Y-94240554D01*
X166489010Y-94262715D01*
X166463625Y-94283702D01*
X166437233Y-94303472D01*
X166409875Y-94321980D01*
X166381595Y-94339182D01*
X166352432Y-94355033D01*
X166322430Y-94369491D01*
X166291631Y-94382510D01*
X166260076Y-94394047D01*
X166227808Y-94404057D01*
X166194868Y-94412496D01*
X166161299Y-94419320D01*
X166127143Y-94424485D01*
X166092441Y-94427947D01*
X166057236Y-94429662D01*
X166021989Y-94429589D01*
X165987163Y-94427748D01*
X165952803Y-94424180D01*
X165918952Y-94418927D01*
X165885655Y-94412031D01*
X165852956Y-94403535D01*
X165820898Y-94393481D01*
X165789526Y-94381911D01*
X165758883Y-94368867D01*
X165729013Y-94354391D01*
X165699962Y-94338526D01*
X165671772Y-94321313D01*
X165644487Y-94302794D01*
X165618152Y-94283012D01*
X165592811Y-94262009D01*
X165568508Y-94239827D01*
X165545286Y-94216509D01*
X165523190Y-94192095D01*
X165502264Y-94166629D01*
X165482551Y-94140153D01*
X165464097Y-94112708D01*
X165446944Y-94084338D01*
X165431137Y-94055083D01*
X165416719Y-94024986D01*
X165403736Y-93994090D01*
X165392230Y-93962436D01*
X165382246Y-93930067D01*
X165373828Y-93897024D01*
X165367020Y-93863350D01*
X165361866Y-93829088D01*
X165358410Y-93794278D01*
X165356696Y-93758964D01*
X165356763Y-93723608D01*
X165358593Y-93688675D01*
X165362146Y-93654210D01*
X165367378Y-93620255D01*
X165374247Y-93586856D01*
X165382712Y-93554057D01*
X165392730Y-93521902D01*
X165404260Y-93490434D01*
X165417260Y-93459698D01*
X165431687Y-93429739D01*
X165447500Y-93400600D01*
X165464656Y-93372325D01*
X165483113Y-93344959D01*
X165502830Y-93318546D01*
X165523765Y-93293130D01*
X165545875Y-93268754D01*
X165569119Y-93245464D01*
X165593454Y-93223303D01*
X165618838Y-93202316D01*
X165645230Y-93182547D01*
X165672588Y-93164039D01*
X165700869Y-93146837D01*
X165730031Y-93130985D01*
X165760033Y-93116528D01*
X165790833Y-93103509D01*
X165822387Y-93091972D01*
X165854655Y-93081962D01*
X165887595Y-93073523D01*
X165921164Y-93066698D01*
X165955321Y-93061533D01*
X165990023Y-93058071D01*
X166025228Y-93056357D01*
X166060475Y-93056429D01*
X165500000Y-90700000D02*
X165510064Y-90700434D01*
X165520114Y-90701137D01*
X165530149Y-90702107D01*
X165540167Y-90703340D01*
X165550166Y-90704834D01*
X165560145Y-90706586D01*
X165570102Y-90708591D01*
X165580036Y-90710848D01*
X165613462Y-90720529D01*
X165646634Y-90733016D01*
X165679503Y-90748185D01*
X165712022Y-90765908D01*
X165744140Y-90786060D01*
X165775810Y-90808514D01*
X165837608Y-90859825D01*
X165897024Y-90918831D01*
X165953669Y-90984524D01*
X166007151Y-91055894D01*
X166057080Y-91131932D01*
X166103065Y-91211629D01*
X166144715Y-91293975D01*
X166181640Y-91377961D01*
X166213449Y-91462579D01*
X166239751Y-91546818D01*
X166260156Y-91629669D01*
X166274273Y-91710124D01*
X166281712Y-91787173D01*
X166288593Y-91951096D01*
X166292113Y-92095859D01*
X166292781Y-92223630D01*
X166291104Y-92336580D01*
X166287592Y-92436880D01*
X166282754Y-92526700D01*
X166271128Y-92683581D01*
X166270875Y-92691783D01*
X166271284Y-92699712D01*
X166272323Y-92707355D01*
X166273960Y-92714698D01*
X166276163Y-92721731D01*
X166278900Y-92728439D01*
X166282138Y-92734809D01*
X166285846Y-92740830D01*
X166289991Y-92746488D01*
X166294540Y-92751771D01*
X166299463Y-92756665D01*
X166304726Y-92761158D01*
X166310298Y-92765237D01*
X166316146Y-92768889D01*
X166322239Y-92772102D01*
X166328543Y-92774862D01*
X166335027Y-92777158D01*
X166341659Y-92778975D01*
X166348406Y-92780302D01*
X166355237Y-92781125D01*
X166362119Y-92781433D01*
X166369020Y-92781211D01*
X166375907Y-92780447D01*
X166382749Y-92779129D01*
X166389514Y-92777243D01*
X166396169Y-92774777D01*
X166402682Y-92771718D01*
X166409022Y-92768053D01*
X166415155Y-92763770D01*
X166421049Y-92758855D01*
X166426674Y-92753297D01*
X166431995Y-92747081D01*
X166499406Y-92663522D01*
X166574010Y-92577483D01*
X166614831Y-92533688D01*
X166658437Y-92489459D01*
X166705156Y-92444859D01*
X166755316Y-92399948D01*
X166809246Y-92354789D01*
X166867276Y-92309444D01*
X166929733Y-92263975D01*
X166996947Y-92218443D01*
X167069245Y-92172912D01*
X167146957Y-92127443D01*
X167230411Y-92082098D01*
X167319937Y-92036939D01*
X167380026Y-92008857D01*
X167438079Y-91984069D01*
X167494133Y-91962464D01*
X167548223Y-91943930D01*
X167600383Y-91928357D01*
X167650651Y-91915635D01*
X167699062Y-91905652D01*
X167745651Y-91898298D01*
X167790454Y-91893461D01*
X167833507Y-91891031D01*
X167874846Y-91890897D01*
X167914505Y-91892948D01*
X167952521Y-91897074D01*
X167988929Y-91903162D01*
X168023766Y-91911104D01*
X168057066Y-91920787D01*
X168088865Y-91932101D01*
X168119199Y-91944936D01*
X168148104Y-91959179D01*
X168175616Y-91974721D01*
X168201769Y-91991450D01*
X168226599Y-92009256D01*
X168250144Y-92028028D01*
X168272436Y-92047655D01*
X168293514Y-92068026D01*
X168313412Y-92089030D01*
X168332165Y-92110557D01*
X168349810Y-92132495D01*
X168381918Y-92177163D01*
X168410020Y-92222148D01*
X168424569Y-92249003D01*
X168437467Y-92276554D01*
X168448721Y-92304752D01*
X168458343Y-92333547D01*
X168466342Y-92362893D01*
X168472727Y-92392739D01*
X168477509Y-92423038D01*
X168480697Y-92453741D01*
X168482300Y-92484798D01*
X168482328Y-92516162D01*
X168480791Y-92547783D01*
X168477699Y-92579614D01*
X168473062Y-92611605D01*
X168466888Y-92643708D01*
X168459188Y-92675874D01*
X168449972Y-92708055D01*
X168439249Y-92740201D01*
X168427028Y-92772265D01*
X168413320Y-92804198D01*
X168398134Y-92835950D01*
X168381480Y-92867474D01*
X168363368Y-92898720D01*
X168343807Y-92929640D01*
X168322807Y-92960186D01*
X168300377Y-92990309D01*
X168276528Y-93019960D01*
X168251269Y-93049090D01*
X168224609Y-93077651D01*
X168196559Y-93105594D01*
X168167128Y-93132871D01*
X168136325Y-93159433D01*
X168104161Y-93185231D01*
X168031024Y-93240467D01*
X167959248Y-93292354D01*
X167888831Y-93341017D01*
X167819768Y-93386579D01*
X167752057Y-93429164D01*
X167685694Y-93468897D01*
X167620677Y-93505902D01*
X167557003Y-93540302D01*
X167494669Y-93572221D01*
X167433670Y-93601784D01*
X167374005Y-93629115D01*
X167315670Y-93654337D01*
X167258662Y-93677575D01*
X167202978Y-93698953D01*
X167095570Y-93736623D01*
X167090485Y-93738582D01*
X167085746Y-93740871D01*
X167081352Y-93743469D01*
X167077301Y-93746352D01*
X167073594Y-93749498D01*
X167070227Y-93752884D01*
X167067201Y-93756488D01*
X167064515Y-93760286D01*
X167062166Y-93764257D01*
X167060154Y-93768377D01*
X167058477Y-93772623D01*
X167057135Y-93776974D01*
X167056126Y-93781406D01*
X167055450Y-93785896D01*
X167055104Y-93790423D01*
X167055089Y-93794963D01*
X167055402Y-93799494D01*
X167056042Y-93803993D01*
X167057009Y-93808437D01*
X167058301Y-93812804D01*
X167059917Y-93817071D01*
X167061856Y-93821215D01*
X167064116Y-93825214D01*
X167066697Y-93829045D01*
X167069598Y-93832685D01*
X167072816Y-93836112D01*
X167076352Y-93839303D01*
X167080203Y-93842235D01*
X167084370Y-93844886D01*
X167088849Y-93847232D01*
X167093642Y-93849252D01*
X167098745Y-93850923D01*
X167170794Y-93872599D01*
X167236690Y-93894507D01*
X167297275Y-93916851D01*
X167353390Y-93939839D01*
X167405877Y-93963677D01*
X167455579Y-93988570D01*
X167503336Y-94014726D01*
X167549992Y-94042349D01*
X167596386Y-94071647D01*
X167643363Y-94102825D01*
X167742426Y-94171647D01*
X167853917Y-94250466D01*
X167984570Y-94340931D01*
X168032766Y-94375164D01*
X168078910Y-94410912D01*
X168122968Y-94448060D01*
X168164910Y-94486491D01*
X168204705Y-94526091D01*
X168242319Y-94566743D01*
X168277723Y-94608332D01*
X168310884Y-94650741D01*
X168341771Y-94693857D01*
X168370351Y-94737562D01*
X168396595Y-94781741D01*
X168420469Y-94826278D01*
X168441943Y-94871058D01*
X168460984Y-94915965D01*
X168477562Y-94960883D01*
X168491644Y-95005697D01*
X168503199Y-95050290D01*
X168512196Y-95094548D01*
X168518602Y-95138354D01*
X168522387Y-95181593D01*
X168523519Y-95224149D01*
X168521965Y-95265906D01*
X168517695Y-95306749D01*
X168510677Y-95346563D01*
X168500880Y-95385230D01*
X168488271Y-95422636D01*
X168472819Y-95458665D01*
X168454493Y-95493202D01*
X168433260Y-95526130D01*
X168409090Y-95557333D01*
X168381951Y-95586697D01*
X168351812Y-95614106D01*
X168315903Y-95640377D01*
X168277383Y-95661803D01*
X168236471Y-95678623D01*
X168193390Y-95691079D01*
X168148361Y-95699409D01*
X168101606Y-95703854D01*
X168053346Y-95704653D01*
X168003802Y-95702047D01*
X167953196Y-95696275D01*
X167901750Y-95687577D01*
X167849685Y-95676193D01*
X167797222Y-95662363D01*
X167691991Y-95628326D01*
X167587827Y-95587383D01*
X167486504Y-95541454D01*
X167389793Y-95492460D01*
X167299466Y-95442317D01*
X167217295Y-95392947D01*
X167145052Y-95346268D01*
X167084509Y-95304200D01*
X167037438Y-95268662D01*
X167005611Y-95241573D01*
X166886322Y-95128389D01*
X166784519Y-95030633D01*
X166698542Y-94946669D01*
X166626728Y-94874860D01*
X166567416Y-94813567D01*
X166518944Y-94761155D01*
X166498253Y-94737767D01*
X166479649Y-94715986D01*
X166462924Y-94695606D01*
X166447870Y-94676422D01*
X166444701Y-94672621D01*
X166441355Y-94669150D01*
X166437849Y-94666006D01*
X166434198Y-94663187D01*
X166430419Y-94660688D01*
X166426527Y-94658505D01*
X166422538Y-94656635D01*
X166418468Y-94655074D01*
X166414333Y-94653818D01*
X166410149Y-94652864D01*
X166405931Y-94652209D01*
X166401696Y-94651847D01*
X166397459Y-94651776D01*
X166393237Y-94651993D01*
X166389045Y-94652492D01*
X166384899Y-94653271D01*
X166380815Y-94654326D01*
X166376809Y-94655654D01*
X166372897Y-94657250D01*
X166369094Y-94659111D01*
X166365417Y-94661233D01*
X166361882Y-94663612D01*
X166358504Y-94666246D01*
X166355299Y-94669130D01*
X166352283Y-94672260D01*
X166349472Y-94675633D01*
X166346882Y-94679245D01*
X166344529Y-94683093D01*
X166342429Y-94687172D01*
X166340597Y-94691480D01*
X166339050Y-94696011D01*
X166337803Y-94700764D01*
X166325563Y-94749871D01*
X166310278Y-94802213D01*
X166291955Y-94857603D01*
X166270599Y-94915854D01*
X166246217Y-94976777D01*
X166218815Y-95040185D01*
X166188399Y-95105891D01*
X166154976Y-95173707D01*
X166118551Y-95243445D01*
X166079132Y-95314918D01*
X166036723Y-95387938D01*
X165991331Y-95462318D01*
X165942963Y-95537870D01*
X165891625Y-95614406D01*
X165837322Y-95691739D01*
X165780062Y-95769681D01*
X165730749Y-95831465D01*
X165677215Y-95891437D01*
X165619976Y-95949049D01*
X165559548Y-96003754D01*
X165496447Y-96055006D01*
X165431190Y-96102256D01*
X165364292Y-96144957D01*
X165296271Y-96182563D01*
X165227642Y-96214526D01*
X165158921Y-96240298D01*
X165124688Y-96250692D01*
X165090625Y-96259333D01*
X165056798Y-96266153D01*
X165023271Y-96271083D01*
X164990107Y-96274055D01*
X164957373Y-96275001D01*
X164925132Y-96273852D01*
X164893449Y-96270539D01*
X164862388Y-96264995D01*
X164832015Y-96257151D01*
X164802393Y-96246939D01*
X164773587Y-96234289D01*
X164744076Y-96218103D01*
X164716258Y-96199378D01*
X164690118Y-96178219D01*
X164665643Y-96154728D01*
X164642820Y-96129010D01*
X164621635Y-96101167D01*
X164602076Y-96071304D01*
X164584128Y-96039523D01*
X164553015Y-95970623D01*
X164528188Y-95895296D01*
X164509540Y-95814369D01*
X164496965Y-95728671D01*
X164490355Y-95639028D01*
X164489604Y-95546269D01*
X164494604Y-95451222D01*
X164505249Y-95354715D01*
X164521432Y-95257575D01*
X164543046Y-95160631D01*
X164569983Y-95064710D01*
X164602137Y-94970639D01*
X164630031Y-94900235D01*
X164659597Y-94833403D01*
X164690620Y-94770019D01*
X164722886Y-94709959D01*
X164756181Y-94653098D01*
X164790292Y-94599313D01*
X164825005Y-94548480D01*
X164860105Y-94500475D01*
X164895379Y-94455173D01*
X164930613Y-94412451D01*
X164965592Y-94372185D01*
X165000103Y-94334250D01*
X165033932Y-94298523D01*
X165066865Y-94264880D01*
X165129186Y-94203348D01*
X165132348Y-94200104D01*
X165135093Y-94196737D01*
X165137434Y-94193262D01*
X165139381Y-94189699D01*
X165140947Y-94186065D01*
X165142144Y-94182379D01*
X165142982Y-94178659D01*
X165143474Y-94174922D01*
X165143631Y-94171186D01*
X165143465Y-94167470D01*
X165142987Y-94163792D01*
X165142209Y-94160169D01*
X165141143Y-94156620D01*
X165139800Y-94153162D01*
X165138192Y-94149815D01*
X165136330Y-94146595D01*
X165134227Y-94143520D01*
X165131893Y-94140610D01*
X165129341Y-94137881D01*
X165126582Y-94135352D01*
X165123627Y-94133041D01*
X165120489Y-94130965D01*
X165117179Y-94129144D01*
X165113708Y-94127594D01*
X165110089Y-94126334D01*
X165106332Y-94125383D01*
X165102450Y-94124757D01*
X165098453Y-94124475D01*
X165094355Y-94124555D01*
X165090165Y-94125015D01*
X165085897Y-94125873D01*
X165081561Y-94127148D01*
X164955388Y-94173301D01*
X164888866Y-94196669D01*
X164817507Y-94219355D01*
X164739401Y-94240702D01*
X164697222Y-94250667D01*
X164652639Y-94260051D01*
X164605414Y-94268772D01*
X164555309Y-94276747D01*
X164502085Y-94283894D01*
X164445503Y-94290131D01*
X164387583Y-94295220D01*
X164330150Y-94298785D01*
X164273272Y-94300831D01*
X164217015Y-94301368D01*
X164161444Y-94300400D01*
X164106626Y-94297935D01*
X164052628Y-94293981D01*
X163999515Y-94288543D01*
X163947354Y-94281630D01*
X163896211Y-94273248D01*
X163846153Y-94263404D01*
X163797245Y-94252105D01*
X163749554Y-94239359D01*
X163703147Y-94225171D01*
X163658089Y-94209549D01*
X163614447Y-94192500D01*
X163572287Y-94174031D01*
X163531675Y-94154149D01*
X163492678Y-94132860D01*
X163455362Y-94110173D01*
X163419793Y-94086094D01*
X163386038Y-94060629D01*
X163354162Y-94033786D01*
X163324232Y-94005572D01*
X163296315Y-93975993D01*
X163270476Y-93945058D01*
X163246782Y-93912772D01*
X163225299Y-93879142D01*
X163206093Y-93844177D01*
X163189231Y-93807882D01*
X163174779Y-93770264D01*
X163162803Y-93731331D01*
X163157777Y-93709315D01*
X163154540Y-93687153D01*
X163152999Y-93664888D01*
X163153057Y-93642568D01*
X163154620Y-93620236D01*
X163157592Y-93597939D01*
X163161878Y-93575722D01*
X163167384Y-93553630D01*
X163174013Y-93531709D01*
X163181671Y-93510004D01*
X163190263Y-93488559D01*
X163199694Y-93467422D01*
X163209868Y-93446636D01*
X163220690Y-93426247D01*
X163232065Y-93406302D01*
X163243898Y-93386844D01*
X163268557Y-93349573D01*
X163293906Y-93314798D01*
X163319184Y-93282883D01*
X163343629Y-93254188D01*
X163366481Y-93229078D01*
X163386978Y-93207915D01*
X163404358Y-93191062D01*
X163417861Y-93178881D01*
X163461905Y-93145789D01*
X163513434Y-93115557D01*
X163571796Y-93088168D01*
X163636341Y-93063605D01*
X163706417Y-93041852D01*
X163781374Y-93022891D01*
X163860560Y-93006704D01*
X163943324Y-92993276D01*
X164029015Y-92982588D01*
X164116981Y-92974625D01*
X164206573Y-92969368D01*
X164297138Y-92966801D01*
X164388025Y-92966907D01*
X164478584Y-92969668D01*
X164568163Y-92975068D01*
X164656111Y-92983089D01*
X164958795Y-93014178D01*
X164998437Y-93019315D01*
X165038600Y-93025803D01*
X165086750Y-93034847D01*
X165150353Y-93047648D01*
X165157232Y-93049368D01*
X165165534Y-93051666D01*
X165170813Y-93053219D01*
X165176811Y-93055056D01*
X165187070Y-93057685D01*
X165197193Y-93059441D01*
X165207155Y-93060358D01*
X165216933Y-93060468D01*
X165226501Y-93059804D01*
X165235836Y-93058400D01*
X165244912Y-93056288D01*
X165253706Y-93053502D01*
X165262193Y-93050073D01*
X165270348Y-93046036D01*
X165278148Y-93041423D01*
X165285567Y-93036267D01*
X165292582Y-93030600D01*
X165299168Y-93024457D01*
X165305301Y-93017869D01*
X165310955Y-93010871D01*
X165316107Y-93003494D01*
X165320733Y-92995771D01*
X165324807Y-92987737D01*
X165328306Y-92979423D01*
X165331205Y-92970862D01*
X165333479Y-92962088D01*
X165335105Y-92953133D01*
X165336057Y-92944030D01*
X165336312Y-92934813D01*
X165335845Y-92925514D01*
X165334631Y-92916166D01*
X165332647Y-92906803D01*
X165329867Y-92897456D01*
X165326267Y-92888159D01*
X165321824Y-92878946D01*
X165316511Y-92869848D01*
X165250080Y-92760244D01*
X165181938Y-92637345D01*
X165148054Y-92571065D01*
X165114738Y-92501647D01*
X165082321Y-92429153D01*
X165051134Y-92353646D01*
X165021511Y-92275187D01*
X164993782Y-92193838D01*
X164968279Y-92109661D01*
X164945334Y-92022718D01*
X164925279Y-91933072D01*
X164908445Y-91840784D01*
X164895165Y-91745917D01*
X164885770Y-91648531D01*
X164881400Y-91565004D01*
X164881125Y-91482956D01*
X164885144Y-91402774D01*
X164888826Y-91363504D01*
X164893657Y-91324847D01*
X164899662Y-91286849D01*
X164906865Y-91249561D01*
X164915292Y-91213030D01*
X164924967Y-91177304D01*
X164935916Y-91142433D01*
X164948163Y-91108465D01*
X164961734Y-91075447D01*
X164976654Y-91043429D01*
X164992947Y-91012459D01*
X165010639Y-90982586D01*
X165029754Y-90953857D01*
X165050318Y-90926322D01*
X165072355Y-90900029D01*
X165095891Y-90875026D01*
X165120950Y-90851361D01*
X165147558Y-90829084D01*
X165175740Y-90808242D01*
X165205520Y-90788884D01*
X165236923Y-90771059D01*
X165269976Y-90754814D01*
X165304701Y-90740199D01*
X165341126Y-90727262D01*
X165379273Y-90716051D01*
X165419170Y-90706615D01*
X165429290Y-90704779D01*
X165439408Y-90703237D01*
X165449524Y-90701987D01*
X165459634Y-90701025D01*
X165469739Y-90700349D01*
X165479836Y-90699955D01*
X165489923Y-90699839D01*
X165500000Y-90700000D01*
D13*
X152154819Y-102461904D02*
X152964342Y-102461904D01*
X152964342Y-102461904D02*
X153059580Y-102414285D01*
X153059580Y-102414285D02*
X153107200Y-102366666D01*
X153107200Y-102366666D02*
X153154819Y-102271428D01*
X153154819Y-102271428D02*
X153154819Y-102080952D01*
X153154819Y-102080952D02*
X153107200Y-101985714D01*
X153107200Y-101985714D02*
X153059580Y-101938095D01*
X153059580Y-101938095D02*
X152964342Y-101890476D01*
X152964342Y-101890476D02*
X152154819Y-101890476D01*
X153154819Y-100890476D02*
X153154819Y-101461904D01*
X153154819Y-101176190D02*
X152154819Y-101176190D01*
X152154819Y-101176190D02*
X152297676Y-101271428D01*
X152297676Y-101271428D02*
X152392914Y-101366666D01*
X152392914Y-101366666D02*
X152440533Y-101461904D01*
X162539580Y-100691666D02*
X162587200Y-100739285D01*
X162587200Y-100739285D02*
X162634819Y-100882142D01*
X162634819Y-100882142D02*
X162634819Y-100977380D01*
X162634819Y-100977380D02*
X162587200Y-101120237D01*
X162587200Y-101120237D02*
X162491961Y-101215475D01*
X162491961Y-101215475D02*
X162396723Y-101263094D01*
X162396723Y-101263094D02*
X162206247Y-101310713D01*
X162206247Y-101310713D02*
X162063390Y-101310713D01*
X162063390Y-101310713D02*
X161872914Y-101263094D01*
X161872914Y-101263094D02*
X161777676Y-101215475D01*
X161777676Y-101215475D02*
X161682438Y-101120237D01*
X161682438Y-101120237D02*
X161634819Y-100977380D01*
X161634819Y-100977380D02*
X161634819Y-100882142D01*
X161634819Y-100882142D02*
X161682438Y-100739285D01*
X161682438Y-100739285D02*
X161730057Y-100691666D01*
X162634819Y-99739285D02*
X162634819Y-100310713D01*
X162634819Y-100024999D02*
X161634819Y-100024999D01*
X161634819Y-100024999D02*
X161777676Y-100120237D01*
X161777676Y-100120237D02*
X161872914Y-100215475D01*
X161872914Y-100215475D02*
X161920533Y-100310713D01*
X152354819Y-92466666D02*
X151878628Y-92799999D01*
X152354819Y-93038094D02*
X151354819Y-93038094D01*
X151354819Y-93038094D02*
X151354819Y-92657142D01*
X151354819Y-92657142D02*
X151402438Y-92561904D01*
X151402438Y-92561904D02*
X151450057Y-92514285D01*
X151450057Y-92514285D02*
X151545295Y-92466666D01*
X151545295Y-92466666D02*
X151688152Y-92466666D01*
X151688152Y-92466666D02*
X151783390Y-92514285D01*
X151783390Y-92514285D02*
X151831009Y-92561904D01*
X151831009Y-92561904D02*
X151878628Y-92657142D01*
X151878628Y-92657142D02*
X151878628Y-93038094D01*
X151450057Y-92085713D02*
X151402438Y-92038094D01*
X151402438Y-92038094D02*
X151354819Y-91942856D01*
X151354819Y-91942856D02*
X151354819Y-91704761D01*
X151354819Y-91704761D02*
X151402438Y-91609523D01*
X151402438Y-91609523D02*
X151450057Y-91561904D01*
X151450057Y-91561904D02*
X151545295Y-91514285D01*
X151545295Y-91514285D02*
X151640533Y-91514285D01*
X151640533Y-91514285D02*
X151783390Y-91561904D01*
X151783390Y-91561904D02*
X152354819Y-92133332D01*
X152354819Y-92133332D02*
X152354819Y-91514285D01*
X153583333Y-93704819D02*
X153250000Y-93228628D01*
X153011905Y-93704819D02*
X153011905Y-92704819D01*
X153011905Y-92704819D02*
X153392857Y-92704819D01*
X153392857Y-92704819D02*
X153488095Y-92752438D01*
X153488095Y-92752438D02*
X153535714Y-92800057D01*
X153535714Y-92800057D02*
X153583333Y-92895295D01*
X153583333Y-92895295D02*
X153583333Y-93038152D01*
X153583333Y-93038152D02*
X153535714Y-93133390D01*
X153535714Y-93133390D02*
X153488095Y-93181009D01*
X153488095Y-93181009D02*
X153392857Y-93228628D01*
X153392857Y-93228628D02*
X153011905Y-93228628D01*
X154440476Y-92704819D02*
X154250000Y-92704819D01*
X154250000Y-92704819D02*
X154154762Y-92752438D01*
X154154762Y-92752438D02*
X154107143Y-92800057D01*
X154107143Y-92800057D02*
X154011905Y-92942914D01*
X154011905Y-92942914D02*
X153964286Y-93133390D01*
X153964286Y-93133390D02*
X153964286Y-93514342D01*
X153964286Y-93514342D02*
X154011905Y-93609580D01*
X154011905Y-93609580D02*
X154059524Y-93657200D01*
X154059524Y-93657200D02*
X154154762Y-93704819D01*
X154154762Y-93704819D02*
X154345238Y-93704819D01*
X154345238Y-93704819D02*
X154440476Y-93657200D01*
X154440476Y-93657200D02*
X154488095Y-93609580D01*
X154488095Y-93609580D02*
X154535714Y-93514342D01*
X154535714Y-93514342D02*
X154535714Y-93276247D01*
X154535714Y-93276247D02*
X154488095Y-93181009D01*
X154488095Y-93181009D02*
X154440476Y-93133390D01*
X154440476Y-93133390D02*
X154345238Y-93085771D01*
X154345238Y-93085771D02*
X154154762Y-93085771D01*
X154154762Y-93085771D02*
X154059524Y-93133390D01*
X154059524Y-93133390D02*
X154011905Y-93181009D01*
X154011905Y-93181009D02*
X153964286Y-93276247D01*
X151144819Y-108033333D02*
X151859104Y-108033333D01*
X151859104Y-108033333D02*
X152001961Y-108080952D01*
X152001961Y-108080952D02*
X152097200Y-108176190D01*
X152097200Y-108176190D02*
X152144819Y-108319047D01*
X152144819Y-108319047D02*
X152144819Y-108414285D01*
X151240057Y-107604761D02*
X151192438Y-107557142D01*
X151192438Y-107557142D02*
X151144819Y-107461904D01*
X151144819Y-107461904D02*
X151144819Y-107223809D01*
X151144819Y-107223809D02*
X151192438Y-107128571D01*
X151192438Y-107128571D02*
X151240057Y-107080952D01*
X151240057Y-107080952D02*
X151335295Y-107033333D01*
X151335295Y-107033333D02*
X151430533Y-107033333D01*
X151430533Y-107033333D02*
X151573390Y-107080952D01*
X151573390Y-107080952D02*
X152144819Y-107652380D01*
X152144819Y-107652380D02*
X152144819Y-107033333D01*
X152309819Y-99416666D02*
X151833628Y-99749999D01*
X152309819Y-99988094D02*
X151309819Y-99988094D01*
X151309819Y-99988094D02*
X151309819Y-99607142D01*
X151309819Y-99607142D02*
X151357438Y-99511904D01*
X151357438Y-99511904D02*
X151405057Y-99464285D01*
X151405057Y-99464285D02*
X151500295Y-99416666D01*
X151500295Y-99416666D02*
X151643152Y-99416666D01*
X151643152Y-99416666D02*
X151738390Y-99464285D01*
X151738390Y-99464285D02*
X151786009Y-99511904D01*
X151786009Y-99511904D02*
X151833628Y-99607142D01*
X151833628Y-99607142D02*
X151833628Y-99988094D01*
X151643152Y-98559523D02*
X152309819Y-98559523D01*
X151262200Y-98797618D02*
X151976485Y-99035713D01*
X151976485Y-99035713D02*
X151976485Y-98416666D01*
X158083333Y-90704819D02*
X157750000Y-90228628D01*
X157511905Y-90704819D02*
X157511905Y-89704819D01*
X157511905Y-89704819D02*
X157892857Y-89704819D01*
X157892857Y-89704819D02*
X157988095Y-89752438D01*
X157988095Y-89752438D02*
X158035714Y-89800057D01*
X158035714Y-89800057D02*
X158083333Y-89895295D01*
X158083333Y-89895295D02*
X158083333Y-90038152D01*
X158083333Y-90038152D02*
X158035714Y-90133390D01*
X158035714Y-90133390D02*
X157988095Y-90181009D01*
X157988095Y-90181009D02*
X157892857Y-90228628D01*
X157892857Y-90228628D02*
X157511905Y-90228628D01*
X159035714Y-90704819D02*
X158464286Y-90704819D01*
X158750000Y-90704819D02*
X158750000Y-89704819D01*
X158750000Y-89704819D02*
X158654762Y-89847676D01*
X158654762Y-89847676D02*
X158559524Y-89942914D01*
X158559524Y-89942914D02*
X158464286Y-89990533D01*
X135404819Y-101442856D02*
X134404819Y-101442856D01*
X134881009Y-101442856D02*
X134881009Y-100871428D01*
X135404819Y-100871428D02*
X134404819Y-100871428D01*
X134404819Y-100538094D02*
X134404819Y-99966666D01*
X135404819Y-100252380D02*
X134404819Y-100252380D01*
X135404819Y-99109523D02*
X135404819Y-99680951D01*
X135404819Y-99395237D02*
X134404819Y-99395237D01*
X134404819Y-99395237D02*
X134547676Y-99490475D01*
X134547676Y-99490475D02*
X134642914Y-99585713D01*
X134642914Y-99585713D02*
X134690533Y-99680951D01*
X141358333Y-108539580D02*
X141310714Y-108587200D01*
X141310714Y-108587200D02*
X141167857Y-108634819D01*
X141167857Y-108634819D02*
X141072619Y-108634819D01*
X141072619Y-108634819D02*
X140929762Y-108587200D01*
X140929762Y-108587200D02*
X140834524Y-108491961D01*
X140834524Y-108491961D02*
X140786905Y-108396723D01*
X140786905Y-108396723D02*
X140739286Y-108206247D01*
X140739286Y-108206247D02*
X140739286Y-108063390D01*
X140739286Y-108063390D02*
X140786905Y-107872914D01*
X140786905Y-107872914D02*
X140834524Y-107777676D01*
X140834524Y-107777676D02*
X140929762Y-107682438D01*
X140929762Y-107682438D02*
X141072619Y-107634819D01*
X141072619Y-107634819D02*
X141167857Y-107634819D01*
X141167857Y-107634819D02*
X141310714Y-107682438D01*
X141310714Y-107682438D02*
X141358333Y-107730057D01*
X141739286Y-107730057D02*
X141786905Y-107682438D01*
X141786905Y-107682438D02*
X141882143Y-107634819D01*
X141882143Y-107634819D02*
X142120238Y-107634819D01*
X142120238Y-107634819D02*
X142215476Y-107682438D01*
X142215476Y-107682438D02*
X142263095Y-107730057D01*
X142263095Y-107730057D02*
X142310714Y-107825295D01*
X142310714Y-107825295D02*
X142310714Y-107920533D01*
X142310714Y-107920533D02*
X142263095Y-108063390D01*
X142263095Y-108063390D02*
X141691667Y-108634819D01*
X141691667Y-108634819D02*
X142310714Y-108634819D01*
X131524819Y-105841666D02*
X131048628Y-106174999D01*
X131524819Y-106413094D02*
X130524819Y-106413094D01*
X130524819Y-106413094D02*
X130524819Y-106032142D01*
X130524819Y-106032142D02*
X130572438Y-105936904D01*
X130572438Y-105936904D02*
X130620057Y-105889285D01*
X130620057Y-105889285D02*
X130715295Y-105841666D01*
X130715295Y-105841666D02*
X130858152Y-105841666D01*
X130858152Y-105841666D02*
X130953390Y-105889285D01*
X130953390Y-105889285D02*
X131001009Y-105936904D01*
X131001009Y-105936904D02*
X131048628Y-106032142D01*
X131048628Y-106032142D02*
X131048628Y-106413094D01*
X130524819Y-105508332D02*
X130524819Y-104841666D01*
X130524819Y-104841666D02*
X131524819Y-105270237D01*
X135274819Y-105841666D02*
X134798628Y-106174999D01*
X135274819Y-106413094D02*
X134274819Y-106413094D01*
X134274819Y-106413094D02*
X134274819Y-106032142D01*
X134274819Y-106032142D02*
X134322438Y-105936904D01*
X134322438Y-105936904D02*
X134370057Y-105889285D01*
X134370057Y-105889285D02*
X134465295Y-105841666D01*
X134465295Y-105841666D02*
X134608152Y-105841666D01*
X134608152Y-105841666D02*
X134703390Y-105889285D01*
X134703390Y-105889285D02*
X134751009Y-105936904D01*
X134751009Y-105936904D02*
X134798628Y-106032142D01*
X134798628Y-106032142D02*
X134798628Y-106413094D01*
X134274819Y-104936904D02*
X134274819Y-105413094D01*
X134274819Y-105413094D02*
X134751009Y-105460713D01*
X134751009Y-105460713D02*
X134703390Y-105413094D01*
X134703390Y-105413094D02*
X134655771Y-105317856D01*
X134655771Y-105317856D02*
X134655771Y-105079761D01*
X134655771Y-105079761D02*
X134703390Y-104984523D01*
X134703390Y-104984523D02*
X134751009Y-104936904D01*
X134751009Y-104936904D02*
X134846247Y-104889285D01*
X134846247Y-104889285D02*
X135084342Y-104889285D01*
X135084342Y-104889285D02*
X135179580Y-104936904D01*
X135179580Y-104936904D02*
X135227200Y-104984523D01*
X135227200Y-104984523D02*
X135274819Y-105079761D01*
X135274819Y-105079761D02*
X135274819Y-105317856D01*
X135274819Y-105317856D02*
X135227200Y-105413094D01*
X135227200Y-105413094D02*
X135179580Y-105460713D01*
X152284819Y-96241666D02*
X151808628Y-96574999D01*
X152284819Y-96813094D02*
X151284819Y-96813094D01*
X151284819Y-96813094D02*
X151284819Y-96432142D01*
X151284819Y-96432142D02*
X151332438Y-96336904D01*
X151332438Y-96336904D02*
X151380057Y-96289285D01*
X151380057Y-96289285D02*
X151475295Y-96241666D01*
X151475295Y-96241666D02*
X151618152Y-96241666D01*
X151618152Y-96241666D02*
X151713390Y-96289285D01*
X151713390Y-96289285D02*
X151761009Y-96336904D01*
X151761009Y-96336904D02*
X151808628Y-96432142D01*
X151808628Y-96432142D02*
X151808628Y-96813094D01*
X151284819Y-95908332D02*
X151284819Y-95289285D01*
X151284819Y-95289285D02*
X151665771Y-95622618D01*
X151665771Y-95622618D02*
X151665771Y-95479761D01*
X151665771Y-95479761D02*
X151713390Y-95384523D01*
X151713390Y-95384523D02*
X151761009Y-95336904D01*
X151761009Y-95336904D02*
X151856247Y-95289285D01*
X151856247Y-95289285D02*
X152094342Y-95289285D01*
X152094342Y-95289285D02*
X152189580Y-95336904D01*
X152189580Y-95336904D02*
X152237200Y-95384523D01*
X152237200Y-95384523D02*
X152284819Y-95479761D01*
X152284819Y-95479761D02*
X152284819Y-95765475D01*
X152284819Y-95765475D02*
X152237200Y-95860713D01*
X152237200Y-95860713D02*
X152189580Y-95908332D01*
D14*
%TO.C,U1*%
X153640000Y-99100000D02*
X153640000Y-101050000D01*
X153640000Y-99100000D02*
X153640000Y-97150000D01*
X158760000Y-99100000D02*
X158760000Y-101050000D01*
X158760000Y-99100000D02*
X158760000Y-97150000D01*
X153735000Y-101800000D02*
X153405000Y-102040000D01*
X153405000Y-101560000D01*
X153735000Y-101800000D01*
G36*
X153735000Y-101800000D02*
G01*
X153405000Y-102040000D01*
X153405000Y-101560000D01*
X153735000Y-101800000D01*
G37*
%TO.C,CL_2*%
D15*
X170000000Y-93500000D02*
X177000000Y-93500000D01*
X177000000Y-107400000D01*
X170000000Y-107400000D01*
X170000000Y-93500000D01*
D16*
%TO.C,CL_1*%
X168112500Y-98500000D02*
X171648034Y-94964466D01*
X168112500Y-102500000D02*
X171648034Y-106035534D01*
D15*
X168112500Y-98500000D02*
X163612500Y-98500000D01*
X163612500Y-102500000D01*
X168112500Y-102500000D01*
X168112500Y-98500000D01*
D14*
%TO.C,C1*%
X161260000Y-100384420D02*
X161260000Y-100665580D01*
X160240000Y-100384420D02*
X160240000Y-100665580D01*
%TO.C,R2*%
X149877500Y-93112258D02*
X149877500Y-92637742D01*
X150922500Y-93112258D02*
X150922500Y-92637742D01*
%TO.C,R6*%
X156412258Y-92727500D02*
X155937742Y-92727500D01*
X156412258Y-93772500D02*
X155937742Y-93772500D01*
%TO.C,J2*%
X153130000Y-106370000D02*
X154460000Y-106370000D01*
X153130000Y-107700000D02*
X153130000Y-106370000D01*
X155730000Y-106370000D02*
X168490000Y-106370000D01*
X155730000Y-109030000D02*
X155730000Y-106370000D01*
X155730000Y-109030000D02*
X168490000Y-109030000D01*
X168490000Y-109030000D02*
X168490000Y-106370000D01*
%TO.C,R4*%
X149902500Y-99012742D02*
X149902500Y-99487258D01*
X150947500Y-99012742D02*
X150947500Y-99487258D01*
%TO.C,R1*%
X156412258Y-90977500D02*
X155937742Y-90977500D01*
X156412258Y-92022500D02*
X155937742Y-92022500D01*
%TO.C,HT1*%
X137190000Y-96690000D02*
X137640000Y-96690000D01*
X137190000Y-97140000D02*
X137190000Y-96690000D01*
X137190000Y-103460000D02*
X137190000Y-103910000D01*
X137190000Y-103910000D02*
X137640000Y-103910000D01*
X144410000Y-96690000D02*
X143960000Y-96690000D01*
X144410000Y-97140000D02*
X144410000Y-96690000D01*
X144410000Y-103460000D02*
X144410000Y-103910000D01*
X144410000Y-103910000D02*
X143960000Y-103910000D01*
X137640000Y-104500000D02*
X137170000Y-104840000D01*
X137170000Y-104160000D01*
X137640000Y-104500000D01*
G36*
X137640000Y-104500000D02*
G01*
X137170000Y-104840000D01*
X137170000Y-104160000D01*
X137640000Y-104500000D01*
G37*
%TO.C,C2*%
X141665580Y-106240000D02*
X141384420Y-106240000D01*
X141665580Y-107260000D02*
X141384420Y-107260000D01*
%TO.C,R7*%
X131977500Y-105912258D02*
X131977500Y-105437742D01*
X133022500Y-105912258D02*
X133022500Y-105437742D01*
%TO.C,R5*%
X135727500Y-105912258D02*
X135727500Y-105437742D01*
X136772500Y-105912258D02*
X136772500Y-105437742D01*
%TO.C,R3*%
X149877500Y-95837742D02*
X149877500Y-96312258D01*
X150922500Y-95837742D02*
X150922500Y-96312258D01*
%TD*%
M02*
