M48
; DRILL file {KiCad 9.0.0} date 2025-03-31T21:31:41-0700
; FORMAT={-:-/ absolute / metric / decimal}
; #@! TF.CreationDate,2025-03-31T21:31:41-07:00
; #@! TF.GenerationSoftware,Kicad,Pcbnew,9.0.0
; #@! TF.FileFunction,Plated,1,2,PTH
FMAT,2
METRIC
; #@! TA.AperFunction,Plated,PTH,ViaDrill
T1C0.300
; #@! TA.AperFunction,Plated,PTH,ComponentDrill
T2C0.500
; #@! TA.AperFunction,Plated,PTH,ComponentDrill
T3C0.600
; #@! TA.AperFunction,Plated,PTH,ComponentDrill
T4C1.000
%
G90
G05
T1
X134.0Y-104.0
X134.25Y-105.25
X134.75Y-98.0
X134.75Y-99.0
X134.75Y-100.0
X135.25Y-93.0
X135.25Y-97.5
X135.25Y-98.5
X135.25Y-99.5
X136.25Y-93.0
X137.25Y-93.0
X138.0Y-106.0
X138.25Y-93.0
X138.7Y-111.899
X138.75Y-106.0
X138.75Y-110.5
X139.25Y-93.0
X139.55Y-106.7
X140.25Y-93.0
X143.592Y-89.787
X144.0Y-106.5
X144.0Y-108.25
X145.0Y-105.75
X146.75Y-97.0
X146.75Y-99.75
X147.75Y-98.0
X148.25Y-102.0
X148.25Y-103.75
X149.0Y-102.5
X149.0Y-103.75
X151.5Y-105.65
X151.75Y-92.5
X153.2Y-110.6
X153.5Y-105.0
X155.1Y-104.6
X155.3Y-91.8
X157.1Y-105.6
X159.0Y-102.6
X159.7Y-98.22
X160.5Y-97.499
X161.0Y-98.3
X163.3Y-104.8
T4
X154.46Y-107.7
X157.0Y-107.7
X159.54Y-107.7
X162.08Y-107.7
X164.62Y-107.7
X167.16Y-107.7
T2
G00X164.35Y-98.875
M15
G01X165.15Y-98.875
M16
G05
G00X164.35Y-102.175
M15
G01X165.15Y-102.175
M16
G05
T3
G00X172.9Y-95.1
M15
G01X174.1Y-95.1
M16
G05
G00X172.9Y-105.8
M15
G01X174.1Y-105.8
M16
G05
M30
