%TF.GenerationSoftware,KiCad,Pcbnew,9.0.6*%
%TF.CreationDate,2026-06-02T22:12:54-04:00*%
%TF.ProjectId,Caliper_Clock_V3,43616c69-7065-4725-9f43-6c6f636b5f56,rev?*%
%TF.SameCoordinates,Original*%
%TF.FileFunction,Copper,L2,Bot*%
%TF.FilePolarity,Positive*%
%FSLAX46Y46*%
G04 Gerber Fmt 4.6, Leading zero omitted, Abs format (unit mm)*
G04 Created by KiCad (PCBNEW 9.0.6) date 2026-06-02 22:12:54*
%MOMM*%
%LPD*%
G01*
G04 APERTURE LIST*
%TA.AperFunction,ComponentPad*%
%ADD10O,1.800000X0.900000*%
%TD*%
%TA.AperFunction,ComponentPad*%
%ADD11O,2.000000X0.600000*%
%TD*%
%TA.AperFunction,ComponentPad*%
%ADD12R,1.700000X1.700000*%
%TD*%
%TA.AperFunction,ComponentPad*%
%ADD13C,1.700000*%
%TD*%
%TA.AperFunction,ViaPad*%
%ADD14C,0.600000*%
%TD*%
%TA.AperFunction,Conductor*%
%ADD15C,0.200000*%
%TD*%
%TA.AperFunction,Conductor*%
%ADD16C,0.400000*%
%TD*%
G04 APERTURE END LIST*
D10*
%TO.P,CL_1,2*%
%TO.N,N/C*%
X137250000Y-86350000D03*
%TO.P,CL_1,1*%
X137250000Y-89650000D03*
%TD*%
D11*
%TO.P,CL_2,3*%
%TO.N,N/C*%
X146000000Y-93187500D03*
X146000000Y-82487500D03*
%TD*%
D12*
%TO.P,J2,1,Pin_1*%
%TO.N,+3V0*%
X96500000Y-92750000D03*
D13*
%TO.P,J2,2,Pin_2*%
%TO.N,/RST_n*%
X96500000Y-90210000D03*
%TO.P,J2,3,Pin_3*%
%TO.N,/TEST_SBWTCK*%
X96500000Y-87670000D03*
%TO.P,J2,4,Pin_4*%
%TO.N,GND*%
X96500000Y-85130000D03*
%TD*%
D14*
%TO.N,+BATT*%
X139800000Y-81600000D03*
X135400000Y-83800000D03*
%TO.N,GND*%
X134000000Y-81600000D03*
%TO.N,/LCD_COM3*%
X98800000Y-84400000D03*
%TO.N,/LCD_COM2*%
X101800000Y-85200000D03*
%TO.N,/LCD_COM1*%
X100700000Y-84200000D03*
%TO.N,/LCD_COM0*%
X99700000Y-83399997D03*
%TO.N,/LCD_COM2*%
X118800000Y-91200000D03*
%TO.N,/LCD_COM3*%
X117800000Y-91700000D03*
%TO.N,/LCD_COM1*%
X119700000Y-90500000D03*
%TO.N,/LCD_COM0*%
X120600000Y-90000000D03*
%TO.N,+3V0*%
X128000000Y-85100000D03*
X122000000Y-89400000D03*
X116700000Y-89300000D03*
X102000000Y-89400000D03*
%TO.N,/RST_n*%
X124500000Y-88600000D03*
X122500000Y-88400000D03*
X116700000Y-88400000D03*
X101000000Y-88400000D03*
%TO.N,/TEST_SBWTCK*%
X124500000Y-87700000D03*
X123100000Y-87700000D03*
X116700000Y-87599997D03*
X100200000Y-87700000D03*
%TO.N,GND*%
X103400000Y-97500000D03*
%TO.N,/BTN_HOUR*%
X110000000Y-97200000D03*
X121000000Y-81400000D03*
%TO.N,GND*%
X98621000Y-90121000D03*
%TO.N,+BATT*%
X139500000Y-86000000D03*
X139500000Y-84000000D03*
%TO.N,+3V0*%
X131500000Y-84500000D03*
X136500000Y-84000000D03*
%TD*%
D15*
%TO.N,+BATT*%
X137600000Y-81600000D02*
X139800000Y-81600000D01*
X135400000Y-83800000D02*
X137600000Y-81600000D01*
%TO.N,/LCD_COM3*%
X100500000Y-86100000D02*
X116049946Y-86100000D01*
X116049946Y-86100000D02*
X117800000Y-87850054D01*
X98800000Y-84400000D02*
X100500000Y-86100000D01*
X117800000Y-87850054D02*
X117800000Y-91700000D01*
%TO.N,/LCD_COM2*%
X101800000Y-85200000D02*
X115717046Y-85200000D01*
X115717046Y-85200000D02*
X118800000Y-88282954D01*
X118800000Y-88282954D02*
X118800000Y-91200000D01*
%TO.N,/LCD_COM1*%
X115284146Y-84200000D02*
X119700000Y-88615854D01*
X119700000Y-88615854D02*
X119700000Y-90500000D01*
X100700000Y-84200000D02*
X115284146Y-84200000D01*
%TO.N,/LCD_COM0*%
X99700000Y-83399997D02*
X99800003Y-83500000D01*
X99800003Y-83500000D02*
X115151246Y-83500000D01*
X115151246Y-83500000D02*
X120600000Y-88948754D01*
X120600000Y-88948754D02*
X120600000Y-90000000D01*
%TO.N,/BTN_HOUR*%
X121000000Y-81400000D02*
X121300000Y-81700000D01*
X120899000Y-92301000D02*
X119099000Y-92301000D01*
X121300000Y-81700000D02*
X121300000Y-91900000D01*
X118400000Y-93000000D02*
X115700000Y-93000000D01*
X121300000Y-91900000D02*
X120899000Y-92301000D01*
X119099000Y-92301000D02*
X118400000Y-93000000D01*
X115700000Y-93000000D02*
X111500000Y-97200000D01*
X111500000Y-97200000D02*
X110000000Y-97200000D01*
%TO.N,+3V0*%
X122000000Y-89400000D02*
X122000000Y-88749943D01*
X123900000Y-85100000D02*
X128000000Y-85100000D01*
X122000000Y-88749943D02*
X121899000Y-88648943D01*
X121899000Y-88648943D02*
X121899000Y-88151057D01*
X122000000Y-88050057D02*
X122000000Y-87000000D01*
X121899000Y-88151057D02*
X122000000Y-88050057D01*
X122000000Y-87000000D02*
X123900000Y-85100000D01*
%TO.N,/TEST_SBWTCK*%
X100200000Y-87700000D02*
X116599997Y-87700000D01*
X116599997Y-87700000D02*
X116700000Y-87599997D01*
%TO.N,/RST_n*%
X101000000Y-88400000D02*
X116700000Y-88400000D01*
%TO.N,+3V0*%
X116600000Y-89400000D02*
X116700000Y-89300000D01*
X102000000Y-89400000D02*
X116600000Y-89400000D01*
%TO.N,/RST_n*%
X122700000Y-88600000D02*
X124500000Y-88600000D01*
X122500000Y-88400000D02*
X122700000Y-88600000D01*
%TO.N,/TEST_SBWTCK*%
X123100000Y-87700000D02*
X124500000Y-87700000D01*
%TO.N,GND*%
X98621000Y-92721000D02*
X103400000Y-97500000D01*
X98621000Y-90121000D02*
X98621000Y-92721000D01*
X98621000Y-90121000D02*
X98621000Y-87251000D01*
X98621000Y-87251000D02*
X96500000Y-85130000D01*
D16*
%TO.N,+BATT*%
X139500000Y-84000000D02*
X139500000Y-86000000D01*
%TO.N,+3V0*%
X136000000Y-84500000D02*
X131500000Y-84500000D01*
X136500000Y-84000000D02*
X136000000Y-84500000D01*
%TD*%
M02*
