%TF.GenerationSoftware,KiCad,Pcbnew,9.0.6*%
%TF.CreationDate,2026-06-02T22:12:54-04:00*%
%TF.ProjectId,Caliper_Clock_V3,43616c69-7065-4725-9f43-6c6f636b5f56,rev?*%
%TF.SameCoordinates,Original*%
%TF.FileFunction,Legend,Bot*%
%TF.FilePolarity,Positive*%
%FSLAX46Y46*%
G04 Gerber Fmt 4.6, Leading zero omitted, Abs format (unit mm)*
G04 Created by KiCad (PCBNEW 9.0.6) date 2026-06-02 22:12:54*
%MOMM*%
%LPD*%
G01*
G04 APERTURE LIST*
%ADD10C,0.100000*%
%ADD11O,1.800000X0.900000*%
%ADD12O,2.000000X0.600000*%
%ADD13R,1.700000X1.700000*%
%ADD14C,1.700000*%
G04 APERTURE END LIST*
D10*
G36*
X133272204Y-76069508D02*
G01*
X133301180Y-76075640D01*
X133321660Y-76084094D01*
X133338876Y-76095727D01*
X133362440Y-76126056D01*
X133376103Y-76170278D01*
X133379649Y-76218763D01*
X133379649Y-77011697D01*
X133377665Y-77048637D01*
X133371595Y-77079919D01*
X133363258Y-77101890D01*
X133351838Y-77120205D01*
X133338621Y-77133856D01*
X133322665Y-77144671D01*
X133281234Y-77158376D01*
X133238232Y-77161723D01*
X132892445Y-77161723D01*
X132844720Y-77159783D01*
X132800258Y-77154021D01*
X132760855Y-77145008D01*
X132724600Y-77132649D01*
X132692840Y-77117710D01*
X132664122Y-77099823D01*
X132639232Y-77079715D01*
X132617334Y-77056955D01*
X132583120Y-77004443D01*
X132561194Y-76941755D01*
X132552327Y-76867780D01*
X132552215Y-76857885D01*
X132552808Y-76845245D01*
X132690823Y-76845245D01*
X132692769Y-76879838D01*
X132698576Y-76911314D01*
X132707439Y-76937834D01*
X132719586Y-76961547D01*
X132734265Y-76981588D01*
X132751888Y-76998976D01*
X132795670Y-77025566D01*
X132852956Y-77041507D01*
X132907833Y-77045525D01*
X133204649Y-77045525D01*
X133221477Y-77043571D01*
X133234219Y-77037709D01*
X133246868Y-77018931D01*
X133249406Y-76998996D01*
X133249406Y-76643501D01*
X132910642Y-76643501D01*
X132870921Y-76645450D01*
X132834983Y-76651276D01*
X132805275Y-76660048D01*
X132778878Y-76672060D01*
X132757160Y-76686258D01*
X132738440Y-76703268D01*
X132710745Y-76744370D01*
X132694685Y-76796855D01*
X132690823Y-76845245D01*
X132552808Y-76845245D01*
X132554167Y-76816267D01*
X132560011Y-76777861D01*
X132568993Y-76744848D01*
X132581358Y-76714682D01*
X132596311Y-76688550D01*
X132614327Y-76665043D01*
X132658693Y-76626498D01*
X132715869Y-76597896D01*
X132767821Y-76583295D01*
X132731335Y-76569339D01*
X132699132Y-76552569D01*
X132673470Y-76534731D01*
X132651304Y-76514374D01*
X132633414Y-76492565D01*
X132618641Y-76468319D01*
X132598329Y-76412161D01*
X132590958Y-76349188D01*
X132724467Y-76349188D01*
X132726404Y-76380380D01*
X132732143Y-76408944D01*
X132741057Y-76433617D01*
X132753240Y-76455689D01*
X132768112Y-76474533D01*
X132785897Y-76490729D01*
X132829917Y-76514813D01*
X132886399Y-76527314D01*
X132914855Y-76528646D01*
X133249406Y-76528646D01*
X133249406Y-76228593D01*
X133247467Y-76212073D01*
X133241704Y-76199027D01*
X133233712Y-76190813D01*
X133222985Y-76185658D01*
X133208862Y-76183775D01*
X132917663Y-76183775D01*
X132878609Y-76185725D01*
X132843884Y-76191563D01*
X132816224Y-76200177D01*
X132792156Y-76211941D01*
X132773073Y-76225647D01*
X132757114Y-76242036D01*
X132735079Y-76281593D01*
X132724983Y-76332823D01*
X132724467Y-76349188D01*
X132590958Y-76349188D01*
X132590112Y-76341956D01*
X132590012Y-76332397D01*
X132591953Y-76295827D01*
X132597724Y-76261728D01*
X132606809Y-76231340D01*
X132619293Y-76203348D01*
X132634714Y-76178355D01*
X132653252Y-76155758D01*
X132699467Y-76117933D01*
X132758955Y-76089796D01*
X132833392Y-76072389D01*
X132907833Y-76067515D01*
X133238232Y-76067515D01*
X133272204Y-76069508D01*
G37*
G36*
X132359385Y-77011880D02*
G01*
X132357408Y-77048205D01*
X132351385Y-77079064D01*
X132343035Y-77101047D01*
X132331612Y-77119413D01*
X132318344Y-77133206D01*
X132302347Y-77144162D01*
X132260901Y-77158158D01*
X132216564Y-77161723D01*
X131678986Y-77161723D01*
X131664097Y-77159855D01*
X131651266Y-77154596D01*
X131631534Y-77134899D01*
X131621900Y-77104413D01*
X131621589Y-77097365D01*
X131623512Y-77079760D01*
X131629159Y-77064309D01*
X131637708Y-77052274D01*
X131649238Y-77043174D01*
X131662718Y-77037726D01*
X131678587Y-77035756D01*
X131678986Y-77035755D01*
X132174555Y-77035755D01*
X132191909Y-77033812D01*
X132205817Y-77028024D01*
X132214986Y-77019890D01*
X132221264Y-77008924D01*
X132224991Y-76986601D01*
X132224991Y-76118745D01*
X132226885Y-76101650D01*
X132232331Y-76087599D01*
X132251446Y-76068829D01*
X132282280Y-76060110D01*
X132292158Y-76059699D01*
X132312505Y-76061690D01*
X132330220Y-76067810D01*
X132342527Y-76076377D01*
X132351829Y-76088193D01*
X132357246Y-76101867D01*
X132359369Y-76118439D01*
X132359385Y-76120150D01*
X132359385Y-77011880D01*
G37*
G36*
X131097173Y-76061727D02*
G01*
X131118643Y-76068108D01*
X131135000Y-76077312D01*
X131149355Y-76090275D01*
X131170167Y-76125706D01*
X131550942Y-77082955D01*
X131555155Y-77106707D01*
X131547950Y-77133115D01*
X131526681Y-77155161D01*
X131506123Y-77163982D01*
X131478157Y-77169539D01*
X131461519Y-77167504D01*
X131446575Y-77161077D01*
X131435733Y-77151796D01*
X131427068Y-77138693D01*
X131423569Y-77130277D01*
X131315736Y-76841277D01*
X130831341Y-76841277D01*
X130720760Y-77130460D01*
X130713572Y-77144561D01*
X130703881Y-77155449D01*
X130678103Y-77168019D01*
X130663363Y-77169539D01*
X130638145Y-77165387D01*
X130621464Y-77159209D01*
X130607172Y-77149752D01*
X130596683Y-77138121D01*
X130589957Y-77124220D01*
X130587770Y-77109516D01*
X130593387Y-77085764D01*
X130736974Y-76723735D01*
X130873351Y-76723735D01*
X131273726Y-76723735D01*
X131115579Y-76317742D01*
X131077873Y-76204331D01*
X131072165Y-76183286D01*
X131035036Y-76299510D01*
X131028750Y-76316338D01*
X130873351Y-76723735D01*
X130736974Y-76723735D01*
X130974162Y-76125706D01*
X130983826Y-76105726D01*
X130995865Y-76089682D01*
X131025414Y-76068775D01*
X131063945Y-76059993D01*
X131073569Y-76059699D01*
X131097173Y-76061727D01*
G37*
G36*
X130039017Y-76531516D02*
G01*
X129677843Y-76167533D01*
X129665823Y-76145762D01*
X129663860Y-76129736D01*
X129671443Y-76097318D01*
X129687613Y-76076552D01*
X129714530Y-76062237D01*
X129733836Y-76059699D01*
X129749768Y-76061709D01*
X129765028Y-76067959D01*
X129777250Y-76077957D01*
X130284054Y-76607109D01*
X130284054Y-76118501D01*
X130285943Y-76101481D01*
X130291354Y-76087490D01*
X130310382Y-76068697D01*
X130340832Y-76060061D01*
X130349816Y-76059699D01*
X130370719Y-76061672D01*
X130388549Y-76067667D01*
X130400810Y-76076036D01*
X130409921Y-76087481D01*
X130415141Y-76100719D01*
X130417042Y-76116649D01*
X130417044Y-76117280D01*
X130417044Y-77112020D01*
X130415150Y-77128079D01*
X130409706Y-77141558D01*
X130390117Y-77160379D01*
X130358534Y-77169201D01*
X130349816Y-77169539D01*
X130330236Y-77167593D01*
X130313276Y-77161785D01*
X130300856Y-77153351D01*
X130291535Y-77141895D01*
X130286093Y-77128677D01*
X130284059Y-77112942D01*
X130284054Y-77112020D01*
X130284054Y-76775331D01*
X130131463Y-76619565D01*
X129735240Y-77147130D01*
X129713020Y-77163765D01*
X129686270Y-77169539D01*
X129668600Y-77167490D01*
X129652287Y-77160964D01*
X129644260Y-77155556D01*
X129630888Y-77142847D01*
X129620776Y-77127901D01*
X129613424Y-77099563D01*
X129615378Y-77084791D01*
X129621240Y-77070519D01*
X129626064Y-77063171D01*
X130039017Y-76531516D01*
G37*
G36*
X129318684Y-76649790D02*
G01*
X128841250Y-76649790D01*
X128826431Y-76647917D01*
X128813657Y-76642618D01*
X128794592Y-76622922D01*
X128786688Y-76593020D01*
X128786662Y-76591050D01*
X128788591Y-76572961D01*
X128794274Y-76557400D01*
X128802676Y-76545803D01*
X128814001Y-76537240D01*
X128841250Y-76530844D01*
X129318684Y-76530844D01*
X129318684Y-76238729D01*
X129316675Y-76219364D01*
X129310429Y-76204940D01*
X129302447Y-76197040D01*
X129291556Y-76191935D01*
X129271057Y-76189331D01*
X128778236Y-76189331D01*
X128762386Y-76187447D01*
X128749071Y-76182071D01*
X128730402Y-76162687D01*
X128722355Y-76132267D01*
X128722243Y-76127721D01*
X128724180Y-76109655D01*
X128729923Y-76094098D01*
X128738372Y-76082593D01*
X128749812Y-76074056D01*
X128778236Y-76067515D01*
X129307449Y-76067515D01*
X129341479Y-76069508D01*
X129370608Y-76075642D01*
X129391303Y-76084121D01*
X129408749Y-76095795D01*
X129432688Y-76126192D01*
X129446604Y-76170283D01*
X129450270Y-76218946D01*
X129450270Y-77011880D01*
X129448293Y-77048205D01*
X129442269Y-77079064D01*
X129433920Y-77101047D01*
X129422497Y-77119413D01*
X129409228Y-77133206D01*
X129393232Y-77144162D01*
X129351786Y-77158158D01*
X129307449Y-77161723D01*
X128765657Y-77161723D01*
X128750179Y-77159849D01*
X128737107Y-77154543D01*
X128718219Y-77135187D01*
X128709807Y-77105096D01*
X128709665Y-77100174D01*
X128711601Y-77082085D01*
X128717344Y-77066524D01*
X128725788Y-77055031D01*
X128737219Y-77046505D01*
X128765657Y-77039968D01*
X129266844Y-77039968D01*
X129286192Y-77037932D01*
X129301717Y-77031495D01*
X129310556Y-77023253D01*
X129316319Y-77011899D01*
X129318684Y-76995027D01*
X129318684Y-76649790D01*
G37*
G36*
X127346423Y-76524738D02*
G01*
X127942803Y-76524738D01*
X127942803Y-76117158D01*
X127944688Y-76101029D01*
X127950066Y-76087634D01*
X127969333Y-76069002D01*
X128000379Y-76060110D01*
X128009970Y-76059699D01*
X128030873Y-76061671D01*
X128048703Y-76067660D01*
X128060973Y-76076026D01*
X128070087Y-76087463D01*
X128075304Y-76100682D01*
X128077196Y-76116583D01*
X128077198Y-76117158D01*
X128077198Y-77111898D01*
X128075303Y-77127985D01*
X128069860Y-77141490D01*
X128050272Y-77160353D01*
X128018718Y-77169198D01*
X128009970Y-77169539D01*
X127990296Y-77167593D01*
X127973054Y-77161788D01*
X127960244Y-77153304D01*
X127950569Y-77141770D01*
X127944955Y-77128650D01*
X127942812Y-77113058D01*
X127942803Y-77111898D01*
X127942803Y-76646554D01*
X127346423Y-76646554D01*
X127346423Y-77111898D01*
X127344529Y-77127627D01*
X127339088Y-77140897D01*
X127319324Y-77159780D01*
X127287146Y-77169055D01*
X127276386Y-77169539D01*
X127257466Y-77167593D01*
X127240918Y-77161788D01*
X127228612Y-77153275D01*
X127219343Y-77141693D01*
X127213939Y-77128330D01*
X127211969Y-77112419D01*
X127211967Y-77111898D01*
X127211967Y-76117158D01*
X127213852Y-76100680D01*
X127219226Y-76087066D01*
X127238310Y-76068455D01*
X127268717Y-76059980D01*
X127276386Y-76059699D01*
X127298076Y-76061671D01*
X127316635Y-76067660D01*
X127329416Y-76076005D01*
X127338938Y-76087406D01*
X127344359Y-76100386D01*
X127346414Y-76115964D01*
X127346423Y-76117158D01*
X127346423Y-76524738D01*
G37*
G36*
X126572828Y-76049914D02*
G01*
X126618643Y-76055662D01*
X126661769Y-76064972D01*
X126702769Y-76077803D01*
X126741263Y-76093914D01*
X126777527Y-76113306D01*
X126843023Y-76161504D01*
X126899138Y-76222145D01*
X126945403Y-76295280D01*
X126980945Y-76381082D01*
X127004525Y-76479653D01*
X127014653Y-76590846D01*
X127014924Y-76613215D01*
X127012987Y-76672782D01*
X127007239Y-76729652D01*
X126997992Y-76782708D01*
X126985264Y-76832951D01*
X126969523Y-76879302D01*
X126950620Y-76922753D01*
X126929141Y-76962377D01*
X126904796Y-76999029D01*
X126878199Y-77032018D01*
X126848997Y-77061965D01*
X126817709Y-77088440D01*
X126784035Y-77111781D01*
X126748280Y-77131783D01*
X126710313Y-77148521D01*
X126627899Y-77171887D01*
X126536664Y-77181149D01*
X126524973Y-77181263D01*
X126477337Y-77179325D01*
X126431740Y-77173575D01*
X126388846Y-77164265D01*
X126348073Y-77151435D01*
X126309806Y-77135325D01*
X126273759Y-77115932D01*
X126208659Y-77067712D01*
X126152870Y-77006990D01*
X126106857Y-76933670D01*
X126071499Y-76847526D01*
X126048050Y-76748411D01*
X126038024Y-76636428D01*
X126037770Y-76614619D01*
X126038041Y-76606254D01*
X126176378Y-76606254D01*
X126178317Y-76664261D01*
X126184075Y-76718858D01*
X126193166Y-76768178D01*
X126205650Y-76814080D01*
X126220763Y-76854849D01*
X126238863Y-76892246D01*
X126259011Y-76924918D01*
X126281791Y-76954281D01*
X126306285Y-76979461D01*
X126333128Y-77001366D01*
X126361670Y-77019581D01*
X126392360Y-77034484D01*
X126459713Y-77053991D01*
X126524973Y-77059508D01*
X126563315Y-77057572D01*
X126599853Y-77051837D01*
X126634104Y-77042545D01*
X126666435Y-77029755D01*
X126724942Y-76994161D01*
X126775322Y-76945296D01*
X126817021Y-76882919D01*
X126848898Y-76806636D01*
X126869306Y-76716249D01*
X126876317Y-76614619D01*
X126874380Y-76559631D01*
X126868641Y-76507534D01*
X126859484Y-76459686D01*
X126846910Y-76414899D01*
X126831556Y-76374563D01*
X126813171Y-76337389D01*
X126792594Y-76304582D01*
X126769347Y-76274991D01*
X126744321Y-76249481D01*
X126716931Y-76227234D01*
X126687909Y-76208733D01*
X126656762Y-76193578D01*
X126623868Y-76181967D01*
X126589021Y-76173854D01*
X126524973Y-76168387D01*
X126486737Y-76170322D01*
X126450317Y-76176051D01*
X126416162Y-76185337D01*
X126383942Y-76198112D01*
X126325645Y-76233667D01*
X126275509Y-76282454D01*
X126234120Y-76344675D01*
X126202652Y-76420655D01*
X126182773Y-76510488D01*
X126176378Y-76606254D01*
X126038041Y-76606254D01*
X126039708Y-76554861D01*
X126045462Y-76497812D01*
X126054709Y-76444665D01*
X126067440Y-76394344D01*
X126083168Y-76348001D01*
X126102059Y-76304568D01*
X126123500Y-76265035D01*
X126147809Y-76228479D01*
X126174339Y-76195637D01*
X126203479Y-76165837D01*
X126234678Y-76139538D01*
X126268274Y-76116370D01*
X126303940Y-76096549D01*
X126341835Y-76079989D01*
X126424157Y-76056972D01*
X126515446Y-76048051D01*
X126524973Y-76047976D01*
X126572828Y-76049914D01*
G37*
G36*
X125733524Y-76069508D02*
G01*
X125762653Y-76075641D01*
X125783353Y-76084118D01*
X125800802Y-76095791D01*
X125824743Y-76126181D01*
X125838656Y-76170252D01*
X125842315Y-76218824D01*
X125842315Y-77109699D01*
X125840420Y-77126886D01*
X125834976Y-77141157D01*
X125815737Y-77160588D01*
X125785070Y-77169701D01*
X125775087Y-77170150D01*
X125755658Y-77168195D01*
X125739017Y-77162331D01*
X125727083Y-77153900D01*
X125718137Y-77142418D01*
X125712797Y-77128859D01*
X125710742Y-77112607D01*
X125710729Y-77111104D01*
X125710729Y-76669330D01*
X125453114Y-76669330D01*
X125421084Y-76671323D01*
X125392484Y-76677459D01*
X125369736Y-76686479D01*
X125348900Y-76699054D01*
X125311649Y-76735401D01*
X125274192Y-76794636D01*
X125228459Y-76896853D01*
X125173089Y-77043571D01*
X125138101Y-77133635D01*
X125130719Y-77147172D01*
X125120925Y-77157414D01*
X125095153Y-77168591D01*
X125083513Y-77169539D01*
X125052677Y-77165326D01*
X125037013Y-77159430D01*
X125024149Y-77150519D01*
X125014678Y-77139288D01*
X125008671Y-77125960D01*
X125006516Y-77110554D01*
X125010729Y-77086680D01*
X125045717Y-77004187D01*
X125125823Y-76810081D01*
X125158925Y-76742260D01*
X125190050Y-76691215D01*
X125210975Y-76665186D01*
X125232524Y-76645263D01*
X125252402Y-76632331D01*
X125273646Y-76623182D01*
X125278114Y-76621763D01*
X125239701Y-76611461D01*
X125204038Y-76597549D01*
X125174156Y-76581581D01*
X125147089Y-76562391D01*
X125124643Y-76541546D01*
X125105050Y-76517740D01*
X125089136Y-76492069D01*
X125076203Y-76463530D01*
X125066518Y-76432415D01*
X125060093Y-76398355D01*
X125058143Y-76367751D01*
X125191285Y-76367751D01*
X125193211Y-76397499D01*
X125198872Y-76425191D01*
X125207928Y-76450283D01*
X125220275Y-76473064D01*
X125253890Y-76510815D01*
X125298774Y-76537691D01*
X125354395Y-76552358D01*
X125388695Y-76554535D01*
X125710729Y-76554535D01*
X125710729Y-76232929D01*
X125708808Y-76215122D01*
X125703176Y-76201442D01*
X125695362Y-76192748D01*
X125684990Y-76187018D01*
X125664506Y-76183775D01*
X125380329Y-76183775D01*
X125344614Y-76185719D01*
X125312567Y-76191511D01*
X125286253Y-76200225D01*
X125263108Y-76212123D01*
X125244115Y-76226295D01*
X125228004Y-76243245D01*
X125204647Y-76284920D01*
X125192601Y-76339302D01*
X125191285Y-76367751D01*
X125058143Y-76367751D01*
X125056891Y-76348089D01*
X125058835Y-76309719D01*
X125064632Y-76273729D01*
X125073762Y-76241543D01*
X125086337Y-76211754D01*
X125101779Y-76185243D01*
X125120370Y-76161174D01*
X125166189Y-76121151D01*
X125224326Y-76091523D01*
X125296031Y-76073097D01*
X125371903Y-76067515D01*
X125699494Y-76067515D01*
X125733524Y-76069508D01*
G37*
G36*
X124726266Y-76069508D02*
G01*
X124755395Y-76075642D01*
X124776093Y-76084120D01*
X124793540Y-76095793D01*
X124817481Y-76126186D01*
X124831395Y-76170268D01*
X124835057Y-76218885D01*
X124835057Y-77011819D01*
X124833080Y-77048164D01*
X124827056Y-77079038D01*
X124818708Y-77101029D01*
X124807286Y-77119401D01*
X124794019Y-77133197D01*
X124778026Y-77144156D01*
X124736590Y-77158154D01*
X124692236Y-77161723D01*
X124443047Y-77161723D01*
X124392846Y-77159781D01*
X124344988Y-77154002D01*
X124300625Y-77144735D01*
X124258616Y-77131951D01*
X124219754Y-77116057D01*
X124183272Y-77096904D01*
X124149578Y-77074807D01*
X124118326Y-77049641D01*
X124063382Y-76990351D01*
X124018466Y-76918705D01*
X123984120Y-76834026D01*
X123961410Y-76735511D01*
X123951829Y-76622444D01*
X123951645Y-76604117D01*
X124090239Y-76604117D01*
X124092179Y-76660007D01*
X124097947Y-76712490D01*
X124107026Y-76759641D01*
X124119496Y-76803461D01*
X124134600Y-76842327D01*
X124152703Y-76877957D01*
X124172949Y-76909188D01*
X124195872Y-76937262D01*
X124220740Y-76961523D01*
X124248044Y-76982650D01*
X124277420Y-77000411D01*
X124309081Y-77014971D01*
X124379536Y-77034310D01*
X124450069Y-77039968D01*
X124657248Y-77039968D01*
X124673020Y-77038001D01*
X124685682Y-77032051D01*
X124693855Y-77023692D01*
X124699320Y-77012283D01*
X124702067Y-76992158D01*
X124702067Y-76234333D01*
X124700189Y-76219485D01*
X124694861Y-76207302D01*
X124676082Y-76191727D01*
X124655844Y-76187927D01*
X124445856Y-76187927D01*
X124401243Y-76189873D01*
X124359477Y-76195680D01*
X124322289Y-76204784D01*
X124287753Y-76217322D01*
X124256896Y-76232682D01*
X124228573Y-76251181D01*
X124180222Y-76296739D01*
X124141734Y-76354645D01*
X124113118Y-76426480D01*
X124095383Y-76514401D01*
X124090239Y-76604117D01*
X123951645Y-76604117D01*
X123951631Y-76602712D01*
X123953573Y-76543449D01*
X123959353Y-76487314D01*
X123968530Y-76436053D01*
X123981169Y-76387846D01*
X123996653Y-76344119D01*
X124015269Y-76303374D01*
X124036347Y-76266624D01*
X124060285Y-76232806D01*
X124086529Y-76202497D01*
X124115430Y-76175119D01*
X124180545Y-76129607D01*
X124256028Y-76096092D01*
X124342656Y-76075033D01*
X124441365Y-76067517D01*
X124443047Y-76067515D01*
X124692236Y-76067515D01*
X124726266Y-76069508D01*
G37*
G36*
X123195272Y-77039968D02*
G01*
X123183233Y-77002297D01*
X123167646Y-76966477D01*
X123125818Y-76899707D01*
X123066523Y-76834800D01*
X122983116Y-76766972D01*
X122916652Y-76722269D01*
X122824267Y-76666032D01*
X122771457Y-76631821D01*
X122722533Y-76596285D01*
X122679006Y-76557762D01*
X122642386Y-76514588D01*
X122624098Y-76485282D01*
X122609280Y-76453253D01*
X122599057Y-76421260D01*
X122592282Y-76386387D01*
X122589061Y-76337098D01*
X122590995Y-76301007D01*
X122596720Y-76266953D01*
X122605914Y-76235589D01*
X122618537Y-76206351D01*
X122653363Y-76154875D01*
X122700884Y-76112426D01*
X122761407Y-76079538D01*
X122835444Y-76057487D01*
X122923248Y-76048147D01*
X122937657Y-76047976D01*
X122988320Y-76049894D01*
X123034401Y-76055504D01*
X123075089Y-76064289D01*
X123112021Y-76076160D01*
X123145378Y-76090867D01*
X123175562Y-76108248D01*
X123226046Y-76148787D01*
X123268502Y-76201713D01*
X123301725Y-76266622D01*
X123318431Y-76320245D01*
X123321240Y-76341311D01*
X123319356Y-76356153D01*
X123313981Y-76368985D01*
X123293705Y-76388904D01*
X123268056Y-76398953D01*
X123247051Y-76400357D01*
X123228570Y-76398337D01*
X123211950Y-76392010D01*
X123200091Y-76383028D01*
X123190832Y-76370458D01*
X123185441Y-76356760D01*
X123171379Y-76311382D01*
X123151496Y-76268667D01*
X123134355Y-76243075D01*
X123113322Y-76220088D01*
X123091856Y-76202948D01*
X123066807Y-76188492D01*
X123039767Y-76177699D01*
X123008995Y-76169878D01*
X122944678Y-76164235D01*
X122906423Y-76166164D01*
X122871136Y-76171847D01*
X122840210Y-76180723D01*
X122812498Y-76192802D01*
X122789312Y-76207149D01*
X122769440Y-76224158D01*
X122753733Y-76242781D01*
X122741399Y-76263621D01*
X122732785Y-76285977D01*
X122727698Y-76310248D01*
X122726264Y-76332885D01*
X122728241Y-76364994D01*
X122734263Y-76394253D01*
X122743467Y-76419120D01*
X122756300Y-76442573D01*
X122794820Y-76488630D01*
X122860561Y-76542372D01*
X122922269Y-76584516D01*
X123018867Y-76647775D01*
X123076646Y-76687748D01*
X123127886Y-76728113D01*
X123170188Y-76766406D01*
X123207291Y-76805363D01*
X123238211Y-76843469D01*
X123264812Y-76882464D01*
X123284848Y-76917663D01*
X123306785Y-76962250D01*
X123326626Y-77014725D01*
X123334903Y-77047518D01*
X123338032Y-77077765D01*
X123336103Y-77100423D01*
X123330422Y-77119523D01*
X123322117Y-77133816D01*
X123310947Y-77145164D01*
X123280952Y-77158917D01*
X123254073Y-77161723D01*
X122617027Y-77161723D01*
X122603056Y-77159852D01*
X122591189Y-77154572D01*
X122573485Y-77134842D01*
X122565362Y-77103356D01*
X122565247Y-77098770D01*
X122567182Y-77080698D01*
X122572911Y-77065126D01*
X122581296Y-77053728D01*
X122592627Y-77045453D01*
X122617027Y-77039968D01*
X123195272Y-77039968D01*
G37*
G36*
X122084371Y-76049925D02*
G01*
X122125793Y-76055751D01*
X122163296Y-76064970D01*
X122198541Y-76077711D01*
X122230719Y-76093504D01*
X122260708Y-76112597D01*
X122313777Y-76160296D01*
X122358539Y-76221787D01*
X122394950Y-76298921D01*
X122422131Y-76394120D01*
X122438474Y-76510095D01*
X122442332Y-76610467D01*
X122440380Y-76685987D01*
X122434535Y-76756262D01*
X122425544Y-76817284D01*
X122413163Y-76873662D01*
X122398485Y-76922285D01*
X122380847Y-76966788D01*
X122361500Y-77004982D01*
X122339534Y-77039477D01*
X122316110Y-77068963D01*
X122290310Y-77095047D01*
X122262915Y-77117161D01*
X122233281Y-77136026D01*
X122167583Y-77163876D01*
X122091555Y-77178835D01*
X122041957Y-77181263D01*
X121998583Y-77179313D01*
X121957555Y-77173478D01*
X121920416Y-77164249D01*
X121885490Y-77151485D01*
X121853592Y-77135659D01*
X121823844Y-77116512D01*
X121771143Y-77068614D01*
X121726615Y-77006742D01*
X121690330Y-76928962D01*
X121663200Y-76832758D01*
X121646858Y-76715318D01*
X121642986Y-76613276D01*
X121643023Y-76611871D01*
X121777381Y-76611871D01*
X121779338Y-76685600D01*
X121785219Y-76752843D01*
X121794010Y-76808440D01*
X121806086Y-76858592D01*
X121819989Y-76899592D01*
X121836649Y-76936009D01*
X121854457Y-76965497D01*
X121874623Y-76991055D01*
X121895785Y-77011521D01*
X121919052Y-77028468D01*
X121970477Y-77051334D01*
X122030784Y-77060706D01*
X122041957Y-77060912D01*
X122075621Y-77058961D01*
X122106997Y-77053118D01*
X122134711Y-77043968D01*
X122160361Y-77031329D01*
X122204797Y-76996344D01*
X122241946Y-76946876D01*
X122272109Y-76879917D01*
X122294299Y-76791213D01*
X122306470Y-76675637D01*
X122307937Y-76611871D01*
X122305987Y-76540208D01*
X122300149Y-76474821D01*
X122291361Y-76420216D01*
X122279316Y-76370941D01*
X122265364Y-76330308D01*
X122248678Y-76294202D01*
X122230754Y-76264746D01*
X122210495Y-76239202D01*
X122189159Y-76218619D01*
X122165745Y-76201555D01*
X122113968Y-76178368D01*
X122053410Y-76168657D01*
X122040553Y-76168387D01*
X122006923Y-76170337D01*
X121975644Y-76176169D01*
X121948058Y-76185297D01*
X121922578Y-76197892D01*
X121878529Y-76232741D01*
X121841803Y-76282016D01*
X121812080Y-76348774D01*
X121790338Y-76437351D01*
X121778633Y-76553013D01*
X121777381Y-76611871D01*
X121643023Y-76611871D01*
X121644931Y-76539134D01*
X121650726Y-76470249D01*
X121659693Y-76409965D01*
X121672001Y-76354359D01*
X121686672Y-76306064D01*
X121704248Y-76261937D01*
X121723614Y-76223841D01*
X121745535Y-76189497D01*
X121768989Y-76160005D01*
X121794742Y-76133970D01*
X121822142Y-76111831D01*
X121851683Y-76092990D01*
X121917092Y-76065180D01*
X121992448Y-76050325D01*
X122040553Y-76047976D01*
X122084371Y-76049925D01*
G37*
G36*
X121370289Y-77039968D02*
G01*
X121358250Y-77002297D01*
X121342663Y-76966477D01*
X121300835Y-76899707D01*
X121241540Y-76834800D01*
X121158133Y-76766972D01*
X121091669Y-76722269D01*
X120999284Y-76666032D01*
X120946474Y-76631821D01*
X120897551Y-76596285D01*
X120854023Y-76557762D01*
X120817403Y-76514588D01*
X120799116Y-76485282D01*
X120784297Y-76453253D01*
X120774074Y-76421260D01*
X120767300Y-76386387D01*
X120764078Y-76337098D01*
X120766013Y-76301007D01*
X120771738Y-76266953D01*
X120780931Y-76235589D01*
X120793554Y-76206351D01*
X120828381Y-76154875D01*
X120875901Y-76112426D01*
X120936424Y-76079538D01*
X121010461Y-76057487D01*
X121098265Y-76048147D01*
X121112674Y-76047976D01*
X121163337Y-76049894D01*
X121209419Y-76055504D01*
X121250106Y-76064289D01*
X121287038Y-76076160D01*
X121320396Y-76090867D01*
X121350580Y-76108248D01*
X121401064Y-76148787D01*
X121443520Y-76201713D01*
X121476743Y-76266622D01*
X121493449Y-76320245D01*
X121496257Y-76341311D01*
X121494373Y-76356153D01*
X121488998Y-76368985D01*
X121468723Y-76388904D01*
X121443073Y-76398953D01*
X121422069Y-76400357D01*
X121403588Y-76398337D01*
X121386967Y-76392010D01*
X121375108Y-76383028D01*
X121365850Y-76370458D01*
X121360458Y-76356760D01*
X121346397Y-76311382D01*
X121326514Y-76268667D01*
X121309372Y-76243075D01*
X121288340Y-76220088D01*
X121266874Y-76202948D01*
X121241824Y-76188492D01*
X121214784Y-76177699D01*
X121184013Y-76169878D01*
X121119696Y-76164235D01*
X121081440Y-76166164D01*
X121046154Y-76171847D01*
X121015228Y-76180723D01*
X120987516Y-76192802D01*
X120964329Y-76207149D01*
X120944457Y-76224158D01*
X120928750Y-76242781D01*
X120916417Y-76263621D01*
X120907803Y-76285977D01*
X120902716Y-76310248D01*
X120901282Y-76332885D01*
X120903259Y-76364994D01*
X120909280Y-76394253D01*
X120918484Y-76419120D01*
X120931317Y-76442573D01*
X120969838Y-76488630D01*
X121035578Y-76542372D01*
X121097287Y-76584516D01*
X121193885Y-76647775D01*
X121251663Y-76687748D01*
X121302904Y-76728113D01*
X121345206Y-76766406D01*
X121382309Y-76805363D01*
X121413228Y-76843469D01*
X121439829Y-76882464D01*
X121459865Y-76917663D01*
X121481803Y-76962250D01*
X121501643Y-77014725D01*
X121509920Y-77047518D01*
X121513049Y-77077765D01*
X121511121Y-77100423D01*
X121505439Y-77119523D01*
X121497135Y-77133816D01*
X121485965Y-77145164D01*
X121455970Y-77158917D01*
X121429091Y-77161723D01*
X120792044Y-77161723D01*
X120778074Y-77159852D01*
X120766206Y-77154572D01*
X120748503Y-77134842D01*
X120740379Y-77103356D01*
X120740265Y-77098770D01*
X120742200Y-77080698D01*
X120747928Y-77065126D01*
X120756314Y-77053728D01*
X120767644Y-77045453D01*
X120792044Y-77039968D01*
X121370289Y-77039968D01*
G37*
G36*
X120227347Y-76049918D02*
G01*
X120268779Y-76055694D01*
X120306503Y-76064875D01*
X120341873Y-76077516D01*
X120374378Y-76093265D01*
X120404620Y-76112236D01*
X120458506Y-76159771D01*
X120504325Y-76221091D01*
X120542053Y-76297989D01*
X120570851Y-76392775D01*
X120589175Y-76507955D01*
X120595001Y-76632937D01*
X120593061Y-76701453D01*
X120587296Y-76765541D01*
X120578267Y-76822739D01*
X120565878Y-76875819D01*
X120550948Y-76922724D01*
X120533074Y-76965808D01*
X120513207Y-77003545D01*
X120490744Y-77037717D01*
X120466577Y-77067379D01*
X120440082Y-77093660D01*
X120411859Y-77116148D01*
X120381489Y-77135339D01*
X120314593Y-77163730D01*
X120238422Y-77178874D01*
X120190352Y-77181263D01*
X120147976Y-77179336D01*
X120107807Y-77173662D01*
X120070136Y-77164466D01*
X120034811Y-77151883D01*
X120001934Y-77136085D01*
X119971563Y-77117221D01*
X119918405Y-77070647D01*
X119875961Y-77012895D01*
X119845220Y-76944651D01*
X119827476Y-76866787D01*
X119823560Y-76805495D01*
X119952398Y-76805495D01*
X119954328Y-76842759D01*
X119960018Y-76877815D01*
X119969129Y-76909928D01*
X119981590Y-76939544D01*
X119996923Y-76965981D01*
X120015208Y-76989674D01*
X120035934Y-77010128D01*
X120059261Y-77027604D01*
X120084815Y-77041823D01*
X120112678Y-77052803D01*
X120142749Y-77060391D01*
X120174888Y-77064420D01*
X120194565Y-77065064D01*
X120226841Y-77063142D01*
X120257649Y-77057506D01*
X120314661Y-77035535D01*
X120363642Y-77000323D01*
X120384466Y-76978182D01*
X120402447Y-76953357D01*
X120417360Y-76926066D01*
X120428996Y-76896512D01*
X120437097Y-76865112D01*
X120441532Y-76831891D01*
X120442349Y-76809708D01*
X120440426Y-76776598D01*
X120434780Y-76745050D01*
X120425521Y-76715080D01*
X120412865Y-76687112D01*
X120396920Y-76661247D01*
X120377927Y-76637828D01*
X120356063Y-76617056D01*
X120331528Y-76599158D01*
X120304616Y-76584397D01*
X120275432Y-76572914D01*
X120244377Y-76564959D01*
X120211452Y-76560654D01*
X120190352Y-76559909D01*
X120156215Y-76561838D01*
X120124155Y-76567526D01*
X120094788Y-76576649D01*
X120067735Y-76589126D01*
X120043417Y-76604615D01*
X120021652Y-76623105D01*
X119986456Y-76668375D01*
X119963019Y-76724324D01*
X119952725Y-76790548D01*
X119952398Y-76805495D01*
X119823560Y-76805495D01*
X119825494Y-76762342D01*
X119831212Y-76721399D01*
X119840417Y-76683386D01*
X119853052Y-76647758D01*
X119868750Y-76615092D01*
X119887555Y-76584978D01*
X119909129Y-76557786D01*
X119933531Y-76533322D01*
X119990203Y-76493132D01*
X120057157Y-76465036D01*
X120134154Y-76450065D01*
X120179178Y-76447923D01*
X120218387Y-76449860D01*
X120255711Y-76455604D01*
X120290511Y-76464875D01*
X120323287Y-76477640D01*
X120353710Y-76493660D01*
X120381949Y-76512928D01*
X120431597Y-76560956D01*
X120471740Y-76621716D01*
X120473185Y-76624511D01*
X120466662Y-76525821D01*
X120456595Y-76450286D01*
X120446186Y-76403842D01*
X120432781Y-76361502D01*
X120418597Y-76325741D01*
X120401804Y-76291396D01*
X120382564Y-76261085D01*
X120361984Y-76235917D01*
X120339319Y-76214447D01*
X120315371Y-76197141D01*
X120289591Y-76183346D01*
X120233008Y-76166361D01*
X120189009Y-76162831D01*
X120152548Y-76164754D01*
X120120220Y-76170400D01*
X120093110Y-76179024D01*
X120069177Y-76190670D01*
X120029954Y-76222228D01*
X119998610Y-76266839D01*
X119985982Y-76293440D01*
X119977705Y-76306730D01*
X119967522Y-76316178D01*
X119942235Y-76325306D01*
X119934202Y-76325741D01*
X119901962Y-76320123D01*
X119886670Y-76312276D01*
X119873688Y-76301067D01*
X119864995Y-76288259D01*
X119860406Y-76273367D01*
X119859952Y-76266756D01*
X119861357Y-76253941D01*
X119866974Y-76240073D01*
X119886674Y-76203257D01*
X119909622Y-76169564D01*
X119933136Y-76142302D01*
X119959637Y-76118030D01*
X119987196Y-76098297D01*
X120017656Y-76081547D01*
X120050038Y-76068353D01*
X120085408Y-76058297D01*
X120165525Y-76048279D01*
X120183391Y-76047976D01*
X120227347Y-76049918D01*
G37*
G36*
X132942821Y-77727976D02*
G01*
X132988913Y-77729913D01*
X133033195Y-77735654D01*
X133075238Y-77745003D01*
X133115331Y-77757892D01*
X133153271Y-77774162D01*
X133189108Y-77793749D01*
X133254316Y-77842634D01*
X133310516Y-77904267D01*
X133356955Y-77978545D01*
X133392549Y-78065374D01*
X133415942Y-78164500D01*
X133425633Y-78275387D01*
X133425811Y-78293215D01*
X133423873Y-78352786D01*
X133418126Y-78409628D01*
X133408884Y-78462616D01*
X133396165Y-78512773D01*
X133380436Y-78559032D01*
X133361550Y-78602385D01*
X133340081Y-78641930D01*
X133315750Y-78678507D01*
X133289145Y-78711455D01*
X133259936Y-78741368D01*
X133228605Y-78767849D01*
X133194883Y-78791205D01*
X133159032Y-78811260D01*
X133120961Y-78828059D01*
X133038211Y-78851612D01*
X132946498Y-78861115D01*
X132933051Y-78861263D01*
X132886485Y-78859356D01*
X132843098Y-78853822D01*
X132802357Y-78844826D01*
X132764658Y-78832700D01*
X132696199Y-78799133D01*
X132636638Y-78753651D01*
X132585542Y-78696327D01*
X132543301Y-78627348D01*
X132517227Y-78566034D01*
X132513014Y-78542220D01*
X132519946Y-78516741D01*
X132539929Y-78495962D01*
X132562046Y-78486289D01*
X132590012Y-78482076D01*
X132607819Y-78484096D01*
X132624296Y-78490427D01*
X132636815Y-78499714D01*
X132647080Y-78512805D01*
X132653026Y-78525490D01*
X132668177Y-78565345D01*
X132687594Y-78603285D01*
X132707553Y-78632989D01*
X132731137Y-78660112D01*
X132755270Y-78681522D01*
X132782660Y-78700081D01*
X132811154Y-78714410D01*
X132842774Y-78725638D01*
X132876439Y-78733249D01*
X132913308Y-78737395D01*
X132937264Y-78738103D01*
X132975045Y-78736167D01*
X133011125Y-78730429D01*
X133045063Y-78721113D01*
X133077155Y-78708281D01*
X133135415Y-78672502D01*
X133185699Y-78623325D01*
X133227326Y-78560556D01*
X133259060Y-78483889D01*
X133279209Y-78393243D01*
X133285860Y-78294619D01*
X133283927Y-78239468D01*
X133278217Y-78187437D01*
X133269106Y-78139696D01*
X133256629Y-78095166D01*
X133241361Y-78055001D01*
X133223129Y-78018094D01*
X133202655Y-77985417D01*
X133179585Y-77956018D01*
X133154658Y-77930573D01*
X133127450Y-77908434D01*
X133098533Y-77889959D01*
X133067592Y-77874862D01*
X133034863Y-77863271D01*
X133000309Y-77855199D01*
X132937264Y-77849792D01*
X132896809Y-77851701D01*
X132860336Y-77857247D01*
X132828175Y-77865960D01*
X132799353Y-77877656D01*
X132750146Y-77909487D01*
X132709529Y-77953223D01*
X132675196Y-78011573D01*
X132665666Y-78033035D01*
X132656895Y-78047122D01*
X132646154Y-78057464D01*
X132619501Y-78068433D01*
X132606864Y-78069427D01*
X132573220Y-78063810D01*
X132558362Y-78056761D01*
X132544948Y-78045675D01*
X132535838Y-78032750D01*
X132530616Y-78017030D01*
X132529867Y-78007878D01*
X132535423Y-77979912D01*
X132554411Y-77939132D01*
X132578398Y-77899024D01*
X132602644Y-77866897D01*
X132631138Y-77836614D01*
X132660279Y-77811780D01*
X132693292Y-77789330D01*
X132727581Y-77771026D01*
X132765609Y-77755500D01*
X132805750Y-77743548D01*
X132849680Y-77734777D01*
X132942821Y-77727976D01*
G37*
G36*
X131955931Y-77741727D02*
G01*
X131977400Y-77748108D01*
X131993758Y-77757312D01*
X132008113Y-77770275D01*
X132028925Y-77805706D01*
X132409699Y-78762955D01*
X132413913Y-78786707D01*
X132406708Y-78813115D01*
X132385439Y-78835161D01*
X132364881Y-78843982D01*
X132336915Y-78849539D01*
X132320277Y-78847504D01*
X132305332Y-78841077D01*
X132294491Y-78831796D01*
X132285826Y-78818693D01*
X132282327Y-78810277D01*
X132174494Y-78521277D01*
X131690099Y-78521277D01*
X131579518Y-78810460D01*
X131572329Y-78824561D01*
X131562639Y-78835449D01*
X131536861Y-78848019D01*
X131522121Y-78849539D01*
X131496903Y-78845387D01*
X131480222Y-78839209D01*
X131465930Y-78829752D01*
X131455440Y-78818121D01*
X131448714Y-78804220D01*
X131446528Y-78789516D01*
X131452145Y-78765764D01*
X131595732Y-78403735D01*
X131732109Y-78403735D01*
X132132484Y-78403735D01*
X131974337Y-77997742D01*
X131936631Y-77884331D01*
X131930922Y-77863286D01*
X131893793Y-77979510D01*
X131887508Y-77996338D01*
X131732109Y-78403735D01*
X131595732Y-78403735D01*
X131832920Y-77805706D01*
X131842584Y-77785726D01*
X131854622Y-77769682D01*
X131884172Y-77748775D01*
X131922703Y-77739993D01*
X131932327Y-77739699D01*
X131955931Y-77741727D01*
G37*
G36*
X131272993Y-78691880D02*
G01*
X131271016Y-78728205D01*
X131264993Y-78759064D01*
X131256643Y-78781047D01*
X131245220Y-78799413D01*
X131231951Y-78813206D01*
X131215955Y-78824162D01*
X131174509Y-78838158D01*
X131130172Y-78841723D01*
X130592594Y-78841723D01*
X130577705Y-78839855D01*
X130564874Y-78834596D01*
X130545141Y-78814899D01*
X130535508Y-78784413D01*
X130535197Y-78777365D01*
X130537120Y-78759760D01*
X130542767Y-78744309D01*
X130551316Y-78732274D01*
X130562846Y-78723174D01*
X130576326Y-78717726D01*
X130592195Y-78715756D01*
X130592594Y-78715755D01*
X131088162Y-78715755D01*
X131105517Y-78713812D01*
X131119425Y-78708024D01*
X131128593Y-78699890D01*
X131134872Y-78688924D01*
X131138599Y-78666601D01*
X131138599Y-77798745D01*
X131140493Y-77781650D01*
X131145939Y-77767599D01*
X131165054Y-77748829D01*
X131195888Y-77740110D01*
X131205765Y-77739699D01*
X131226113Y-77741690D01*
X131243828Y-77747810D01*
X131256135Y-77756377D01*
X131265436Y-77768193D01*
X131270854Y-77781867D01*
X131272977Y-77798439D01*
X131272993Y-77800150D01*
X131272993Y-78691880D01*
G37*
G36*
X130395978Y-78792020D02*
G01*
X130394089Y-78808079D01*
X130388680Y-78821558D01*
X130369196Y-78840471D01*
X130338080Y-78849241D01*
X130330155Y-78849539D01*
X130309815Y-78847593D01*
X130292146Y-78841785D01*
X130279204Y-78833375D01*
X130269463Y-78821956D01*
X130263805Y-78808974D01*
X130261600Y-78793553D01*
X130261584Y-78792020D01*
X130261584Y-77797280D01*
X130263473Y-77781104D01*
X130268883Y-77767676D01*
X130288236Y-77749103D01*
X130319686Y-77740157D01*
X130330155Y-77739699D01*
X130350403Y-77741672D01*
X130367822Y-77747667D01*
X130379955Y-77756105D01*
X130388994Y-77767661D01*
X130394157Y-77781033D01*
X130395978Y-77797132D01*
X130395978Y-77797280D01*
X130395978Y-78792020D01*
G37*
G36*
X129908672Y-77749508D02*
G01*
X129937801Y-77755641D01*
X129958501Y-77764118D01*
X129975950Y-77775791D01*
X129999892Y-77806181D01*
X130013804Y-77850252D01*
X130017463Y-77898824D01*
X130017463Y-78789150D01*
X130015563Y-78806720D01*
X130010077Y-78821230D01*
X129990903Y-78840501D01*
X129960360Y-78849197D01*
X129951639Y-78849539D01*
X129932088Y-78847585D01*
X129915147Y-78841723D01*
X129902827Y-78833249D01*
X129893538Y-78821696D01*
X129888040Y-78808265D01*
X129885893Y-78792198D01*
X129885877Y-78790554D01*
X129885877Y-78392683D01*
X129569460Y-78392683D01*
X129522132Y-78390742D01*
X129477897Y-78384970D01*
X129438488Y-78375916D01*
X129402067Y-78363484D01*
X129369895Y-78348387D01*
X129340623Y-78330281D01*
X129314959Y-78309808D01*
X129292169Y-78286593D01*
X129255714Y-78232676D01*
X129231065Y-78167912D01*
X129219011Y-78091139D01*
X129218143Y-78063138D01*
X129355259Y-78063138D01*
X129357206Y-78099482D01*
X129363013Y-78132631D01*
X129371879Y-78160632D01*
X129384033Y-78185723D01*
X129398638Y-78206869D01*
X129416160Y-78225266D01*
X129459185Y-78253308D01*
X129514675Y-78270301D01*
X129572269Y-78275080D01*
X129885877Y-78275080D01*
X129885877Y-77915676D01*
X129883896Y-77897530D01*
X129877847Y-77883237D01*
X129869761Y-77874647D01*
X129858758Y-77869045D01*
X129841058Y-77866523D01*
X129572269Y-77866523D01*
X129533582Y-77868464D01*
X129498477Y-77874238D01*
X129468997Y-77883023D01*
X129442766Y-77895023D01*
X129420985Y-77909289D01*
X129402223Y-77926328D01*
X129374486Y-77967390D01*
X129358700Y-78019244D01*
X129355259Y-78063138D01*
X129218143Y-78063138D01*
X129218056Y-78060329D01*
X129219999Y-78018449D01*
X129225787Y-77979326D01*
X129234866Y-77944525D01*
X129247352Y-77912360D01*
X129262635Y-77883778D01*
X129281008Y-77857770D01*
X129326147Y-77814177D01*
X129383297Y-77780936D01*
X129453828Y-77758411D01*
X129539512Y-77747987D01*
X129563843Y-77747515D01*
X129874642Y-77747515D01*
X129908672Y-77749508D01*
G37*
G36*
X128909333Y-78329790D02*
G01*
X128431899Y-78329790D01*
X128417080Y-78327917D01*
X128404306Y-78322618D01*
X128385241Y-78302922D01*
X128377337Y-78273020D01*
X128377311Y-78271050D01*
X128379240Y-78252961D01*
X128384923Y-78237400D01*
X128393325Y-78225803D01*
X128404650Y-78217240D01*
X128431899Y-78210844D01*
X128909333Y-78210844D01*
X128909333Y-77918729D01*
X128907324Y-77899364D01*
X128901078Y-77884940D01*
X128893096Y-77877040D01*
X128882205Y-77871935D01*
X128861706Y-77869331D01*
X128368885Y-77869331D01*
X128353035Y-77867447D01*
X128339720Y-77862071D01*
X128321051Y-77842687D01*
X128313004Y-77812267D01*
X128312892Y-77807721D01*
X128314829Y-77789655D01*
X128320572Y-77774098D01*
X128329021Y-77762593D01*
X128340461Y-77754056D01*
X128368885Y-77747515D01*
X128898098Y-77747515D01*
X128932128Y-77749508D01*
X128961257Y-77755642D01*
X128981952Y-77764121D01*
X128999398Y-77775795D01*
X129023337Y-77806192D01*
X129037253Y-77850283D01*
X129040919Y-77898946D01*
X129040919Y-78691880D01*
X129038942Y-78728205D01*
X129032918Y-78759064D01*
X129024569Y-78781047D01*
X129013146Y-78799413D01*
X128999877Y-78813206D01*
X128983881Y-78824162D01*
X128942435Y-78838158D01*
X128898098Y-78841723D01*
X128356306Y-78841723D01*
X128340828Y-78839849D01*
X128327756Y-78834543D01*
X128308868Y-78815187D01*
X128300456Y-78785096D01*
X128300314Y-78780174D01*
X128302250Y-78762085D01*
X128307993Y-78746524D01*
X128316437Y-78735031D01*
X128327868Y-78726505D01*
X128356306Y-78719968D01*
X128857493Y-78719968D01*
X128876841Y-78717932D01*
X128892366Y-78711495D01*
X128901205Y-78703253D01*
X128906968Y-78691899D01*
X128909333Y-78675027D01*
X128909333Y-78329790D01*
G37*
G36*
X128026476Y-77749508D02*
G01*
X128055605Y-77755641D01*
X128076305Y-77764118D01*
X128093754Y-77775791D01*
X128117695Y-77806181D01*
X128131607Y-77850252D01*
X128135266Y-77898824D01*
X128135266Y-78789699D01*
X128133372Y-78806886D01*
X128127928Y-78821157D01*
X128108689Y-78840588D01*
X128078021Y-78849701D01*
X128068039Y-78850150D01*
X128048610Y-78848195D01*
X128031969Y-78842331D01*
X128020035Y-78833900D01*
X128011088Y-78822418D01*
X128005748Y-78808859D01*
X128003694Y-78792607D01*
X128003681Y-78791104D01*
X128003681Y-78349330D01*
X127746065Y-78349330D01*
X127714035Y-78351323D01*
X127685436Y-78357459D01*
X127662688Y-78366479D01*
X127641852Y-78379054D01*
X127604601Y-78415401D01*
X127567144Y-78474636D01*
X127521410Y-78576853D01*
X127466041Y-78723571D01*
X127431053Y-78813635D01*
X127423671Y-78827172D01*
X127413877Y-78837414D01*
X127388105Y-78848591D01*
X127376465Y-78849539D01*
X127345629Y-78845326D01*
X127329965Y-78839430D01*
X127317101Y-78830519D01*
X127307630Y-78819288D01*
X127301623Y-78805960D01*
X127299467Y-78790554D01*
X127303681Y-78766680D01*
X127338668Y-78684187D01*
X127418775Y-78490081D01*
X127451877Y-78422260D01*
X127483001Y-78371215D01*
X127503927Y-78345186D01*
X127525476Y-78325263D01*
X127545354Y-78312331D01*
X127566598Y-78303182D01*
X127571065Y-78301763D01*
X127532652Y-78291461D01*
X127496990Y-78277549D01*
X127467108Y-78261581D01*
X127440041Y-78242391D01*
X127417595Y-78221546D01*
X127398002Y-78197740D01*
X127382087Y-78172069D01*
X127369155Y-78143530D01*
X127359470Y-78112415D01*
X127353045Y-78078355D01*
X127351095Y-78047751D01*
X127484237Y-78047751D01*
X127486162Y-78077499D01*
X127491824Y-78105191D01*
X127500880Y-78130283D01*
X127513226Y-78153064D01*
X127546841Y-78190815D01*
X127591726Y-78217691D01*
X127647347Y-78232358D01*
X127681646Y-78234535D01*
X128003681Y-78234535D01*
X128003681Y-77912929D01*
X128001760Y-77895122D01*
X127996128Y-77881442D01*
X127988313Y-77872748D01*
X127977942Y-77867018D01*
X127957458Y-77863775D01*
X127673281Y-77863775D01*
X127637566Y-77865719D01*
X127605518Y-77871511D01*
X127579205Y-77880225D01*
X127556060Y-77892123D01*
X127537067Y-77906295D01*
X127520956Y-77923245D01*
X127497599Y-77964920D01*
X127485553Y-78019302D01*
X127484237Y-78047751D01*
X127351095Y-78047751D01*
X127349842Y-78028089D01*
X127351787Y-77989719D01*
X127357584Y-77953729D01*
X127366714Y-77921543D01*
X127379289Y-77891754D01*
X127394731Y-77865243D01*
X127413322Y-77841174D01*
X127459141Y-77801151D01*
X127517278Y-77771523D01*
X127588983Y-77753097D01*
X127664855Y-77747515D01*
X127992445Y-77747515D01*
X128026476Y-77749508D01*
G37*
G36*
X126225165Y-77727976D02*
G01*
X126271258Y-77729913D01*
X126315540Y-77735654D01*
X126357582Y-77745003D01*
X126397675Y-77757892D01*
X126435616Y-77774162D01*
X126471453Y-77793749D01*
X126536660Y-77842634D01*
X126592861Y-77904267D01*
X126639300Y-77978545D01*
X126674893Y-78065374D01*
X126698287Y-78164500D01*
X126707978Y-78275387D01*
X126708155Y-78293215D01*
X126706218Y-78352786D01*
X126700470Y-78409628D01*
X126691229Y-78462616D01*
X126678510Y-78512773D01*
X126662781Y-78559032D01*
X126643895Y-78602385D01*
X126622426Y-78641930D01*
X126598095Y-78678507D01*
X126571490Y-78711455D01*
X126542280Y-78741368D01*
X126510950Y-78767849D01*
X126477228Y-78791205D01*
X126441377Y-78811260D01*
X126403306Y-78828059D01*
X126320556Y-78851612D01*
X126228843Y-78861115D01*
X126215396Y-78861263D01*
X126168830Y-78859356D01*
X126125443Y-78853822D01*
X126084702Y-78844826D01*
X126047003Y-78832700D01*
X125978544Y-78799133D01*
X125918983Y-78753651D01*
X125867887Y-78696327D01*
X125825646Y-78627348D01*
X125799572Y-78566034D01*
X125795359Y-78542220D01*
X125802291Y-78516741D01*
X125822274Y-78495962D01*
X125844391Y-78486289D01*
X125872356Y-78482076D01*
X125890163Y-78484096D01*
X125906640Y-78490427D01*
X125919160Y-78499714D01*
X125929425Y-78512805D01*
X125935371Y-78525490D01*
X125950522Y-78565345D01*
X125969939Y-78603285D01*
X125989898Y-78632989D01*
X126013482Y-78660112D01*
X126037615Y-78681522D01*
X126065004Y-78700081D01*
X126093499Y-78714410D01*
X126125119Y-78725638D01*
X126158784Y-78733249D01*
X126195652Y-78737395D01*
X126219609Y-78738103D01*
X126257390Y-78736167D01*
X126293470Y-78730429D01*
X126327408Y-78721113D01*
X126359500Y-78708281D01*
X126417759Y-78672502D01*
X126468044Y-78623325D01*
X126509671Y-78560556D01*
X126541405Y-78483889D01*
X126561554Y-78393243D01*
X126568204Y-78294619D01*
X126566272Y-78239468D01*
X126560562Y-78187437D01*
X126551451Y-78139696D01*
X126538974Y-78095166D01*
X126523706Y-78055001D01*
X126505474Y-78018094D01*
X126485000Y-77985417D01*
X126461930Y-77956018D01*
X126437002Y-77930573D01*
X126409795Y-77908434D01*
X126380878Y-77889959D01*
X126349937Y-77874862D01*
X126317208Y-77863271D01*
X126282654Y-77855199D01*
X126219609Y-77849792D01*
X126179154Y-77851701D01*
X126142681Y-77857247D01*
X126110520Y-77865960D01*
X126081698Y-77877656D01*
X126032490Y-77909487D01*
X125991874Y-77953223D01*
X125957541Y-78011573D01*
X125948011Y-78033035D01*
X125939240Y-78047122D01*
X125928499Y-78057464D01*
X125901846Y-78068433D01*
X125889209Y-78069427D01*
X125855565Y-78063810D01*
X125840707Y-78056761D01*
X125827292Y-78045675D01*
X125818183Y-78032750D01*
X125812961Y-78017030D01*
X125812212Y-78007878D01*
X125817768Y-77979912D01*
X125836755Y-77939132D01*
X125860743Y-77899024D01*
X125884989Y-77866897D01*
X125913482Y-77836614D01*
X125942623Y-77811780D01*
X125975636Y-77789330D01*
X126009926Y-77771026D01*
X126047953Y-77755500D01*
X126088095Y-77743548D01*
X126132025Y-77734777D01*
X126225165Y-77727976D01*
G37*
G36*
X125619260Y-78691880D02*
G01*
X125617283Y-78728205D01*
X125611259Y-78759064D01*
X125602910Y-78781047D01*
X125591487Y-78799413D01*
X125578218Y-78813206D01*
X125562222Y-78824162D01*
X125520776Y-78838158D01*
X125476439Y-78841723D01*
X124938860Y-78841723D01*
X124923972Y-78839855D01*
X124911141Y-78834596D01*
X124891408Y-78814899D01*
X124881774Y-78784413D01*
X124881463Y-78777365D01*
X124883386Y-78759760D01*
X124889034Y-78744309D01*
X124897583Y-78732274D01*
X124909113Y-78723174D01*
X124922592Y-78717726D01*
X124938462Y-78715756D01*
X124938860Y-78715755D01*
X125434429Y-78715755D01*
X125451783Y-78713812D01*
X125465692Y-78708024D01*
X125474860Y-78699890D01*
X125481138Y-78688924D01*
X125484865Y-78666601D01*
X125484865Y-77798745D01*
X125486760Y-77781650D01*
X125492205Y-77767599D01*
X125511320Y-77748829D01*
X125542155Y-77740110D01*
X125552032Y-77739699D01*
X125572379Y-77741690D01*
X125590095Y-77747810D01*
X125602401Y-77756377D01*
X125611703Y-77768193D01*
X125617120Y-77781867D01*
X125619243Y-77798439D01*
X125619260Y-77800150D01*
X125619260Y-78691880D01*
G37*
G36*
X124415675Y-77729914D02*
G01*
X124461490Y-77735662D01*
X124504616Y-77744972D01*
X124545616Y-77757803D01*
X124584110Y-77773914D01*
X124620374Y-77793306D01*
X124685870Y-77841504D01*
X124741986Y-77902145D01*
X124788251Y-77975280D01*
X124823792Y-78061082D01*
X124847372Y-78159653D01*
X124857500Y-78270846D01*
X124857772Y-78293215D01*
X124855834Y-78352782D01*
X124850086Y-78409652D01*
X124840839Y-78462708D01*
X124828111Y-78512951D01*
X124812370Y-78559302D01*
X124793468Y-78602753D01*
X124771988Y-78642377D01*
X124747644Y-78679029D01*
X124721046Y-78712018D01*
X124691844Y-78741965D01*
X124660556Y-78768440D01*
X124626882Y-78791781D01*
X124591128Y-78811783D01*
X124553161Y-78828521D01*
X124470746Y-78851887D01*
X124379511Y-78861149D01*
X124367821Y-78861263D01*
X124320184Y-78859325D01*
X124274587Y-78853575D01*
X124231693Y-78844265D01*
X124190921Y-78831435D01*
X124152653Y-78815325D01*
X124116606Y-78795932D01*
X124051506Y-78747712D01*
X123995717Y-78686990D01*
X123949704Y-78613670D01*
X123914347Y-78527526D01*
X123890898Y-78428411D01*
X123880871Y-78316428D01*
X123880617Y-78294619D01*
X123880888Y-78286254D01*
X124019225Y-78286254D01*
X124021164Y-78344261D01*
X124026922Y-78398858D01*
X124036013Y-78448178D01*
X124048497Y-78494080D01*
X124063610Y-78534849D01*
X124081710Y-78572246D01*
X124101859Y-78604918D01*
X124124638Y-78634281D01*
X124149132Y-78659461D01*
X124175975Y-78681366D01*
X124204517Y-78699581D01*
X124235207Y-78714484D01*
X124302560Y-78733991D01*
X124367821Y-78739508D01*
X124406163Y-78737572D01*
X124442701Y-78731837D01*
X124476951Y-78722545D01*
X124509282Y-78709755D01*
X124567789Y-78674161D01*
X124618169Y-78625296D01*
X124659868Y-78562919D01*
X124691745Y-78486636D01*
X124712153Y-78396249D01*
X124719164Y-78294619D01*
X124717227Y-78239631D01*
X124711488Y-78187534D01*
X124702332Y-78139686D01*
X124689758Y-78094899D01*
X124674403Y-78054563D01*
X124656018Y-78017389D01*
X124635441Y-77984582D01*
X124612195Y-77954991D01*
X124587169Y-77929481D01*
X124559778Y-77907234D01*
X124530757Y-77888733D01*
X124499609Y-77873578D01*
X124466716Y-77861967D01*
X124431869Y-77853854D01*
X124367821Y-77848387D01*
X124329584Y-77850322D01*
X124293164Y-77856051D01*
X124259009Y-77865337D01*
X124226789Y-77878112D01*
X124168493Y-77913667D01*
X124118356Y-77962454D01*
X124076967Y-78024675D01*
X124045500Y-78100655D01*
X124025620Y-78190488D01*
X124019225Y-78286254D01*
X123880888Y-78286254D01*
X123882556Y-78234861D01*
X123888309Y-78177812D01*
X123897556Y-78124665D01*
X123910288Y-78074344D01*
X123926015Y-78028001D01*
X123944906Y-77984568D01*
X123966347Y-77945035D01*
X123990656Y-77908479D01*
X124017186Y-77875637D01*
X124046326Y-77845837D01*
X124077526Y-77819538D01*
X124111122Y-77796370D01*
X124146787Y-77776549D01*
X124184682Y-77759989D01*
X124267004Y-77736972D01*
X124358293Y-77728051D01*
X124367821Y-77727976D01*
X124415675Y-77729914D01*
G37*
G36*
X123248333Y-77727976D02*
G01*
X123294426Y-77729913D01*
X123338708Y-77735654D01*
X123380751Y-77745003D01*
X123420844Y-77757892D01*
X123458784Y-77774162D01*
X123494621Y-77793749D01*
X123559829Y-77842634D01*
X123616029Y-77904267D01*
X123662468Y-77978545D01*
X123698062Y-78065374D01*
X123721455Y-78164500D01*
X123731146Y-78275387D01*
X123731324Y-78293215D01*
X123729386Y-78352786D01*
X123723639Y-78409628D01*
X123714397Y-78462616D01*
X123701678Y-78512773D01*
X123685949Y-78559032D01*
X123667063Y-78602385D01*
X123645594Y-78641930D01*
X123621263Y-78678507D01*
X123594658Y-78711455D01*
X123565449Y-78741368D01*
X123534118Y-78767849D01*
X123500396Y-78791205D01*
X123464545Y-78811260D01*
X123426474Y-78828059D01*
X123343724Y-78851612D01*
X123252011Y-78861115D01*
X123238564Y-78861263D01*
X123191998Y-78859356D01*
X123148611Y-78853822D01*
X123107870Y-78844826D01*
X123070171Y-78832700D01*
X123001712Y-78799133D01*
X122942151Y-78753651D01*
X122891055Y-78696327D01*
X122848814Y-78627348D01*
X122822740Y-78566034D01*
X122818527Y-78542220D01*
X122825459Y-78516741D01*
X122845442Y-78495962D01*
X122867559Y-78486289D01*
X122895525Y-78482076D01*
X122913332Y-78484096D01*
X122929809Y-78490427D01*
X122942328Y-78499714D01*
X122952593Y-78512805D01*
X122958539Y-78525490D01*
X122973690Y-78565345D01*
X122993107Y-78603285D01*
X123013066Y-78632989D01*
X123036650Y-78660112D01*
X123060783Y-78681522D01*
X123088173Y-78700081D01*
X123116667Y-78714410D01*
X123148287Y-78725638D01*
X123181952Y-78733249D01*
X123218821Y-78737395D01*
X123242777Y-78738103D01*
X123280558Y-78736167D01*
X123316638Y-78730429D01*
X123350576Y-78721113D01*
X123382668Y-78708281D01*
X123440928Y-78672502D01*
X123491212Y-78623325D01*
X123532839Y-78560556D01*
X123564573Y-78483889D01*
X123584722Y-78393243D01*
X123591372Y-78294619D01*
X123589440Y-78239468D01*
X123583730Y-78187437D01*
X123574619Y-78139696D01*
X123562142Y-78095166D01*
X123546874Y-78055001D01*
X123528642Y-78018094D01*
X123508168Y-77985417D01*
X123485098Y-77956018D01*
X123460170Y-77930573D01*
X123432963Y-77908434D01*
X123404046Y-77889959D01*
X123373105Y-77874862D01*
X123340376Y-77863271D01*
X123305822Y-77855199D01*
X123242777Y-77849792D01*
X123202322Y-77851701D01*
X123165849Y-77857247D01*
X123133688Y-77865960D01*
X123104866Y-77877656D01*
X123055658Y-77909487D01*
X123015042Y-77953223D01*
X122980709Y-78011573D01*
X122971179Y-78033035D01*
X122962408Y-78047122D01*
X122951667Y-78057464D01*
X122925014Y-78068433D01*
X122912377Y-78069427D01*
X122878733Y-78063810D01*
X122863875Y-78056761D01*
X122850460Y-78045675D01*
X122841351Y-78032750D01*
X122836129Y-78017030D01*
X122835380Y-78007878D01*
X122840936Y-77979912D01*
X122859923Y-77939132D01*
X122883911Y-77899024D01*
X122908157Y-77866897D01*
X122936651Y-77836614D01*
X122965791Y-77811780D01*
X122998804Y-77789330D01*
X123033094Y-77771026D01*
X123071122Y-77755500D01*
X123111263Y-77743548D01*
X123155193Y-77734777D01*
X123248333Y-77727976D01*
G37*
G36*
X122267210Y-78211516D02*
G01*
X121906036Y-77847533D01*
X121894015Y-77825762D01*
X121892053Y-77809736D01*
X121899635Y-77777318D01*
X121915806Y-77756552D01*
X121942723Y-77742237D01*
X121962028Y-77739699D01*
X121977960Y-77741709D01*
X121993220Y-77747959D01*
X122005443Y-77757957D01*
X122512247Y-78287109D01*
X122512247Y-77798501D01*
X122514136Y-77781481D01*
X122519547Y-77767490D01*
X122538574Y-77748697D01*
X122569024Y-77740061D01*
X122578009Y-77739699D01*
X122598912Y-77741672D01*
X122616742Y-77747667D01*
X122629003Y-77756036D01*
X122638113Y-77767481D01*
X122643334Y-77780719D01*
X122645234Y-77796649D01*
X122645237Y-77797280D01*
X122645237Y-78792020D01*
X122643343Y-78808079D01*
X122637899Y-78821558D01*
X122618309Y-78840379D01*
X122586727Y-78849201D01*
X122578009Y-78849539D01*
X122558429Y-78847593D01*
X122541468Y-78841785D01*
X122529049Y-78833351D01*
X122519728Y-78821895D01*
X122514285Y-78808677D01*
X122512252Y-78792942D01*
X122512247Y-78792020D01*
X122512247Y-78455331D01*
X122359656Y-78299565D01*
X121963433Y-78827130D01*
X121941213Y-78843765D01*
X121914462Y-78849539D01*
X121896793Y-78847490D01*
X121880480Y-78840964D01*
X121872452Y-78835556D01*
X121859081Y-78822847D01*
X121848969Y-78807901D01*
X121841617Y-78779563D01*
X121843571Y-78764791D01*
X121849433Y-78750519D01*
X121854256Y-78743171D01*
X122267210Y-78211516D01*
G37*
G36*
X120775619Y-78548265D02*
G01*
X120824218Y-78715211D01*
X120826055Y-78722044D01*
X120838376Y-78675964D01*
X120875026Y-78549670D01*
X121148028Y-77780366D01*
X121155020Y-77766104D01*
X121164549Y-77755029D01*
X121190256Y-77741787D01*
X121208234Y-77739699D01*
X121233452Y-77743974D01*
X121263097Y-77758538D01*
X121274204Y-77770199D01*
X121281769Y-77784009D01*
X121285232Y-77802775D01*
X121281018Y-77825245D01*
X120921249Y-78785120D01*
X120911510Y-78805878D01*
X120899601Y-78822046D01*
X120871437Y-78841674D01*
X120834187Y-78849349D01*
X120826055Y-78849539D01*
X120801257Y-78847438D01*
X120778962Y-78840549D01*
X120763459Y-78831219D01*
X120749897Y-78817974D01*
X120732266Y-78786524D01*
X120371031Y-77822437D01*
X120366817Y-77801371D01*
X120374023Y-77775374D01*
X120395070Y-77754385D01*
X120418658Y-77743974D01*
X120443815Y-77739699D01*
X120461951Y-77741685D01*
X120477857Y-77747767D01*
X120489595Y-77756633D01*
X120498901Y-77768931D01*
X120504021Y-77780305D01*
X120775619Y-78548265D01*
G37*
G36*
X119889811Y-78336568D02*
G01*
X119881385Y-78336568D01*
X119835679Y-78338513D01*
X119793993Y-78344315D01*
X119758970Y-78353117D01*
X119727626Y-78365163D01*
X119701797Y-78379282D01*
X119679335Y-78396153D01*
X119661164Y-78414728D01*
X119646184Y-78435733D01*
X119626284Y-78484086D01*
X119619556Y-78541366D01*
X119621480Y-78570907D01*
X119627126Y-78598485D01*
X119636240Y-78623860D01*
X119648665Y-78647136D01*
X119683233Y-78687517D01*
X119730727Y-78719085D01*
X119791193Y-78740306D01*
X119863979Y-78748902D01*
X119871554Y-78748972D01*
X119916234Y-78747042D01*
X119956000Y-78741344D01*
X119989013Y-78732730D01*
X120018226Y-78721059D01*
X120043055Y-78706997D01*
X120064786Y-78690297D01*
X120100212Y-78648801D01*
X120123551Y-78603098D01*
X120133206Y-78586376D01*
X120144913Y-78574208D01*
X120157382Y-78566883D01*
X120171428Y-78563083D01*
X120181010Y-78562431D01*
X120208975Y-78566645D01*
X120226637Y-78573465D01*
X120240951Y-78583174D01*
X120250965Y-78594628D01*
X120257224Y-78608005D01*
X120259351Y-78622759D01*
X120253794Y-78647978D01*
X120238090Y-78682303D01*
X120218827Y-78714440D01*
X120197340Y-78742464D01*
X120172485Y-78768134D01*
X120145332Y-78790393D01*
X120114881Y-78810111D01*
X120081650Y-78826839D01*
X120045055Y-78840769D01*
X120004924Y-78851749D01*
X119961239Y-78859575D01*
X119874363Y-78865170D01*
X119823630Y-78863242D01*
X119776008Y-78857558D01*
X119732477Y-78848497D01*
X119692128Y-78836123D01*
X119655880Y-78820974D01*
X119622854Y-78802934D01*
X119593769Y-78782632D01*
X119567937Y-78759819D01*
X119545799Y-78735071D01*
X119526967Y-78708137D01*
X119511628Y-78679365D01*
X119499704Y-78648674D01*
X119486398Y-78581740D01*
X119485162Y-78552601D01*
X119487120Y-78510105D01*
X119493012Y-78470872D01*
X119502003Y-78437470D01*
X119514414Y-78406941D01*
X119529324Y-78380730D01*
X119547330Y-78357154D01*
X119591496Y-78318817D01*
X119648367Y-78290612D01*
X119720751Y-78272781D01*
X119725985Y-78272027D01*
X119688098Y-78260826D01*
X119654054Y-78246576D01*
X119625468Y-78230377D01*
X119600287Y-78211531D01*
X119579216Y-78190870D01*
X119561302Y-78167802D01*
X119535010Y-78114809D01*
X119520951Y-78050706D01*
X119518806Y-78009710D01*
X119520737Y-77975394D01*
X119526438Y-77942879D01*
X119535679Y-77912507D01*
X119548357Y-77884097D01*
X119583636Y-77833373D01*
X119631997Y-77791104D01*
X119693497Y-77758303D01*
X119768082Y-77736605D01*
X119855177Y-77728032D01*
X119863189Y-77727976D01*
X119912838Y-77729879D01*
X119957994Y-77735388D01*
X119998599Y-77744125D01*
X120035204Y-77755822D01*
X120068342Y-77770343D01*
X120097835Y-77787277D01*
X120148330Y-77828764D01*
X120188355Y-77880248D01*
X120215997Y-77935399D01*
X120221554Y-77960617D01*
X120219667Y-77974186D01*
X120214271Y-77986125D01*
X120193344Y-78005377D01*
X120176796Y-78012519D01*
X120144556Y-78018136D01*
X120127941Y-78016088D01*
X120112993Y-78009562D01*
X120102071Y-78000121D01*
X120093103Y-77986722D01*
X120091372Y-77983087D01*
X120077362Y-77951395D01*
X120060155Y-77923375D01*
X120042224Y-77902011D01*
X120021366Y-77883686D01*
X119998852Y-77869310D01*
X119973355Y-77857814D01*
X119912476Y-77843800D01*
X119868806Y-77841427D01*
X119830246Y-77843361D01*
X119794872Y-77849089D01*
X119764401Y-77857937D01*
X119737155Y-77870005D01*
X119714463Y-77884323D01*
X119694966Y-77901360D01*
X119679369Y-77920220D01*
X119666986Y-77941439D01*
X119652459Y-77990033D01*
X119650392Y-78019541D01*
X119652324Y-78049939D01*
X119658030Y-78078122D01*
X119667076Y-78103313D01*
X119679444Y-78126218D01*
X119713300Y-78164497D01*
X119759521Y-78193035D01*
X119818813Y-78210824D01*
X119879980Y-78215973D01*
X119891154Y-78215973D01*
X119966809Y-78213164D01*
X119980848Y-78214465D01*
X119992781Y-78219210D01*
X120010822Y-78237853D01*
X120019724Y-78268074D01*
X120019993Y-78274836D01*
X120018048Y-78293459D01*
X120012253Y-78310273D01*
X120003696Y-78322978D01*
X119992050Y-78332308D01*
X119966809Y-78337972D01*
X119889811Y-78336568D01*
G37*
G36*
X119195673Y-78656343D02*
G01*
X119216092Y-78658249D01*
X119234879Y-78663776D01*
X119251783Y-78672721D01*
X119266257Y-78684761D01*
X119277829Y-78699469D01*
X119286251Y-78716644D01*
X119292271Y-78751598D01*
X119290374Y-78772610D01*
X119284910Y-78791569D01*
X119264423Y-78822638D01*
X119233084Y-78842782D01*
X119195673Y-78849539D01*
X119175239Y-78847627D01*
X119156439Y-78842058D01*
X119139669Y-78833093D01*
X119125287Y-78820978D01*
X119113792Y-78806160D01*
X119105362Y-78788754D01*
X119099075Y-78751598D01*
X119100972Y-78731486D01*
X119106436Y-78713201D01*
X119127144Y-78682717D01*
X119159007Y-78662786D01*
X119195673Y-78656343D01*
G37*
G36*
X118569228Y-77729925D02*
G01*
X118610650Y-77735751D01*
X118648153Y-77744970D01*
X118683398Y-77757711D01*
X118715576Y-77773504D01*
X118745565Y-77792597D01*
X118798634Y-77840296D01*
X118843396Y-77901787D01*
X118879807Y-77978921D01*
X118906988Y-78074120D01*
X118923331Y-78190095D01*
X118927189Y-78290467D01*
X118925237Y-78365987D01*
X118919392Y-78436262D01*
X118910401Y-78497284D01*
X118898020Y-78553662D01*
X118883342Y-78602285D01*
X118865704Y-78646788D01*
X118846357Y-78684982D01*
X118824391Y-78719477D01*
X118800967Y-78748963D01*
X118775167Y-78775047D01*
X118747772Y-78797161D01*
X118718138Y-78816026D01*
X118652440Y-78843876D01*
X118576412Y-78858835D01*
X118526814Y-78861263D01*
X118483440Y-78859313D01*
X118442412Y-78853478D01*
X118405273Y-78844249D01*
X118370347Y-78831485D01*
X118338449Y-78815659D01*
X118308701Y-78796512D01*
X118256000Y-78748614D01*
X118211472Y-78686742D01*
X118175187Y-78608962D01*
X118148057Y-78512758D01*
X118131715Y-78395318D01*
X118127843Y-78293276D01*
X118127880Y-78291871D01*
X118262238Y-78291871D01*
X118264195Y-78365600D01*
X118270076Y-78432843D01*
X118278867Y-78488440D01*
X118290943Y-78538592D01*
X118304846Y-78579592D01*
X118321506Y-78616009D01*
X118339314Y-78645497D01*
X118359480Y-78671055D01*
X118380642Y-78691521D01*
X118403909Y-78708468D01*
X118455334Y-78731334D01*
X118515641Y-78740706D01*
X118526814Y-78740912D01*
X118560478Y-78738961D01*
X118591854Y-78733118D01*
X118619568Y-78723968D01*
X118645218Y-78711329D01*
X118689654Y-78676344D01*
X118726803Y-78626876D01*
X118756966Y-78559917D01*
X118779156Y-78471213D01*
X118791327Y-78355637D01*
X118792794Y-78291871D01*
X118790844Y-78220208D01*
X118785005Y-78154821D01*
X118776218Y-78100216D01*
X118764173Y-78050941D01*
X118750221Y-78010308D01*
X118733535Y-77974202D01*
X118715611Y-77944746D01*
X118695351Y-77919202D01*
X118674016Y-77898619D01*
X118650602Y-77881555D01*
X118598825Y-77858368D01*
X118538267Y-77848657D01*
X118525409Y-77848387D01*
X118491780Y-77850337D01*
X118460501Y-77856169D01*
X118432915Y-77865297D01*
X118407435Y-77877892D01*
X118363386Y-77912741D01*
X118326660Y-77962016D01*
X118296937Y-78028774D01*
X118275195Y-78117351D01*
X118263490Y-78233013D01*
X118262238Y-78291871D01*
X118127880Y-78291871D01*
X118129788Y-78219134D01*
X118135583Y-78150249D01*
X118144550Y-78089965D01*
X118156858Y-78034359D01*
X118171529Y-77986064D01*
X118189105Y-77941937D01*
X118208471Y-77903841D01*
X118230392Y-77869497D01*
X118253846Y-77840005D01*
X118279599Y-77813970D01*
X118306998Y-77791831D01*
X118336540Y-77772990D01*
X118401949Y-77745180D01*
X118477305Y-77730325D01*
X118525409Y-77727976D01*
X118569228Y-77729925D01*
G37*
%LPC*%
D11*
%TO.C,CL_1*%
X137250000Y-86350000D03*
X137250000Y-89650000D03*
%TD*%
D12*
%TO.C,CL_2*%
X146000000Y-93187500D03*
X146000000Y-82487500D03*
%TD*%
D13*
%TO.C,J2*%
X96500000Y-92750000D03*
D14*
X96500000Y-90210000D03*
X96500000Y-87670000D03*
X96500000Y-85130000D03*
%TD*%
%LPD*%
M02*
