%TF.GenerationSoftware,KiCad,Pcbnew,9.0.6*%
%TF.CreationDate,2026-06-02T22:12:54-04:00*%
%TF.ProjectId,Caliper_Clock_V3,43616c69-7065-4725-9f43-6c6f636b5f56,rev?*%
%TF.SameCoordinates,Original*%
%TF.FileFunction,Paste,Top*%
%TF.FilePolarity,Positive*%
%FSLAX46Y46*%
G04 Gerber Fmt 4.6, Leading zero omitted, Abs format (unit mm)*
G04 Created by KiCad (PCBNEW 9.0.6) date 2026-06-02 22:12:54*
%MOMM*%
%LPD*%
G01*
G04 APERTURE LIST*
G04 Aperture macros list*
%AMRoundRect*
0 Rectangle with rounded corners*
0 $1 Rounding radius*
0 $2 $3 $4 $5 $6 $7 $8 $9 X,Y pos of 4 corners*
0 Add a 4 corners polygon primitive as box body*
4,1,4,$2,$3,$4,$5,$6,$7,$8,$9,$2,$3,0*
0 Add four circle primitives for the rounded corners*
1,1,$1+$1,$2,$3*
1,1,$1+$1,$4,$5*
1,1,$1+$1,$6,$7*
1,1,$1+$1,$8,$9*
0 Add four rect primitives between the rounded corners*
20,1,$1+$1,$2,$3,$4,$5,0*
20,1,$1+$1,$4,$5,$6,$7,0*
20,1,$1+$1,$6,$7,$8,$9,0*
20,1,$1+$1,$8,$9,$2,$3,0*%
%AMFreePoly0*
4,1,41,2.097500,-0.205000,1.500000,-0.205000,1.500000,-1.700000,1.496157,-1.739018,1.466294,-1.811114,1.411114,-1.866294,1.339018,-1.896157,1.260982,-1.896157,1.188886,-1.866294,1.133706,-1.811114,1.103843,-1.739018,1.100000,-1.700000,1.100000,-0.205000,0.200000,-0.205000,0.200000,-1.700000,0.196157,-1.739018,0.166294,-1.811114,0.111114,-1.866294,0.039018,-1.896157,-0.039018,-1.896157,
-0.111114,-1.866294,-0.166294,-1.811114,-0.196157,-1.739018,-0.200000,-1.700000,-0.200000,-0.205000,-1.000000,-0.205000,-1.000000,-1.700000,-1.003843,-1.739018,-1.033706,-1.811114,-1.088886,-1.866294,-1.160982,-1.896157,-1.239018,-1.896157,-1.311114,-1.866294,-1.366294,-1.811114,-1.396157,-1.739018,-1.400000,-1.700000,-1.400000,-0.205000,-2.097500,-0.205000,-2.097500,0.205000,2.097500,0.205000,
2.097500,-0.205000,2.097500,-0.205000,$1*%
%AMFreePoly1*
4,1,52,-1.791386,1.671294,-1.736206,1.616114,-1.706343,1.544018,-1.702500,1.505000,-1.702500,0.205000,-0.802500,0.205000,-0.802500,1.505000,-0.798657,1.544018,-0.768794,1.616114,-0.713614,1.671294,-0.641518,1.701157,-0.563482,1.701157,-0.491386,1.671294,-0.436206,1.616114,-0.406343,1.544018,-0.402500,1.505000,-0.402500,0.205000,0.497500,0.205000,0.497500,1.505000,0.501343,1.544018,
0.531206,1.616114,0.586386,1.671294,0.658482,1.701157,0.736518,1.701157,0.808614,1.671294,0.863794,1.616114,0.893657,1.544018,0.897500,1.505000,0.897500,0.205000,1.697500,0.205000,1.697500,1.505000,1.701343,1.544018,1.731206,1.616114,1.786386,1.671294,1.858482,1.701157,1.936518,1.701157,2.008614,1.671294,2.063794,1.616114,2.093657,1.544018,2.097500,1.505000,
2.097500,-0.205000,-2.097500,-0.205000,-2.097500,-0.036811,-2.098657,-0.034018,-2.102500,0.005000,-2.102500,1.505000,-2.098657,1.544018,-2.068794,1.616114,-2.013614,1.671294,-1.941518,1.701157,-1.863482,1.701157,-1.791386,1.671294,-1.791386,1.671294,$1*%
G04 Aperture macros list end*
%ADD10R,0.500000X1.500000*%
%ADD11RoundRect,0.140000X0.140000X0.170000X-0.140000X0.170000X-0.140000X-0.170000X0.140000X-0.170000X0*%
%ADD12R,4.000000X1.800000*%
%ADD13R,6.000000X2.500000*%
%ADD14RoundRect,0.093750X-0.093750X-0.106250X0.093750X-0.106250X0.093750X0.106250X-0.093750X0.106250X0*%
%ADD15RoundRect,0.160000X-0.245000X-0.160000X0.245000X-0.160000X0.245000X0.160000X-0.245000X0.160000X0*%
%ADD16RoundRect,0.135000X0.135000X0.185000X-0.135000X0.185000X-0.135000X-0.185000X0.135000X-0.185000X0*%
%ADD17RoundRect,0.250000X-0.250000X-0.475000X0.250000X-0.475000X0.250000X0.475000X-0.250000X0.475000X0*%
%ADD18FreePoly0,0.000000*%
%ADD19FreePoly1,0.000000*%
%ADD20RoundRect,0.250000X0.475000X-0.250000X0.475000X0.250000X-0.475000X0.250000X-0.475000X-0.250000X0*%
%ADD21RoundRect,0.135000X0.185000X-0.135000X0.185000X0.135000X-0.185000X0.135000X-0.185000X-0.135000X0*%
%ADD22RoundRect,0.218750X0.218750X0.381250X-0.218750X0.381250X-0.218750X-0.381250X0.218750X-0.381250X0*%
%ADD23R,1.800000X1.000000*%
%ADD24RoundRect,0.140000X0.170000X-0.140000X0.170000X0.140000X-0.170000X0.140000X-0.170000X-0.140000X0*%
%ADD25RoundRect,0.140000X-0.140000X-0.170000X0.140000X-0.170000X0.140000X0.170000X-0.140000X0.170000X0*%
%ADD26O,1.450000X0.299999*%
%ADD27O,0.299999X1.450000*%
%ADD28RoundRect,0.140000X-0.170000X0.140000X-0.170000X-0.140000X0.170000X-0.140000X0.170000X0.140000X0*%
G04 APERTURE END LIST*
D10*
%TO.C,J1*%
X112750000Y-78900000D03*
X111750000Y-78900000D03*
X110750000Y-78900000D03*
X109750000Y-78900000D03*
X108750000Y-78900000D03*
X107750000Y-78900000D03*
X106750000Y-78900000D03*
X105750000Y-78900000D03*
X104750000Y-78900000D03*
X103750000Y-78900000D03*
X102750000Y-78900000D03*
X101750000Y-78900000D03*
X100750000Y-78900000D03*
X99750000Y-78900000D03*
X98750000Y-78900000D03*
%TD*%
D11*
%TO.C,C4*%
X127775000Y-88500000D03*
X128735000Y-88500000D03*
%TD*%
D12*
%TO.C,CL_1*%
X137600000Y-88000000D03*
%TD*%
D13*
%TO.C,CL_2*%
X146000000Y-93037500D03*
X146000000Y-82637500D03*
%TD*%
D14*
%TO.C,U1*%
X134887500Y-80950000D03*
X134887500Y-81600000D03*
X134887500Y-82250000D03*
X133112500Y-82250000D03*
X133112500Y-81600000D03*
X133112500Y-80950000D03*
D15*
X134000000Y-82000000D03*
X134000000Y-81200000D03*
%TD*%
D16*
%TO.C,R3*%
X100500000Y-89500000D03*
X99480000Y-89500000D03*
%TD*%
D17*
%TO.C,C1*%
X136437500Y-80500000D03*
X138337500Y-80500000D03*
%TD*%
D18*
%TO.C,SW2*%
X106575000Y-97387500D03*
D19*
X106577500Y-99592500D03*
%TD*%
D20*
%TO.C,C2*%
X131387500Y-82700000D03*
X131387500Y-80800000D03*
%TD*%
D21*
%TO.C,R2*%
X133887500Y-84760000D03*
X133887500Y-83740000D03*
%TD*%
D22*
%TO.C,L1*%
X138450000Y-82750000D03*
X136325000Y-82750000D03*
%TD*%
D23*
%TO.C,Y1*%
X129775000Y-90750000D03*
X129775000Y-93250000D03*
%TD*%
D24*
%TO.C,C7*%
X127275000Y-91730000D03*
X127275000Y-90770000D03*
%TD*%
D25*
%TO.C,C5*%
X99520000Y-91000000D03*
X100480000Y-91000000D03*
%TD*%
D17*
%TO.C,C3*%
X127825000Y-86750000D03*
X129725000Y-86750000D03*
%TD*%
D18*
%TO.C,SW1*%
X122075000Y-75387500D03*
D19*
X122077500Y-77592500D03*
%TD*%
D18*
%TO.C,SW3*%
X121575000Y-97387500D03*
D19*
X121577500Y-99592500D03*
%TD*%
D24*
%TO.C,CX1*%
X131775000Y-90960000D03*
X131775000Y-90000000D03*
%TD*%
D21*
%TO.C,R1*%
X132887500Y-84760000D03*
X132887500Y-83740000D03*
%TD*%
D26*
%TO.C,U2*%
X125725000Y-92750000D03*
X125725000Y-92250001D03*
X125725000Y-91750000D03*
X125725000Y-91250001D03*
X125725000Y-90749999D03*
X125725000Y-90250000D03*
X125725000Y-89750001D03*
X125725000Y-89250000D03*
X125725000Y-88750000D03*
X125725000Y-88249999D03*
X125725000Y-87750000D03*
X125725000Y-87250001D03*
X125725000Y-86749999D03*
X125725000Y-86250000D03*
X125725000Y-85749999D03*
X125725000Y-85250000D03*
D27*
X123750000Y-83275000D03*
X123250001Y-83275000D03*
X122750000Y-83275000D03*
X122250001Y-83275000D03*
X121749999Y-83275000D03*
X121250000Y-83275000D03*
X120750001Y-83275000D03*
X120250000Y-83275000D03*
X119750000Y-83275000D03*
X119249999Y-83275000D03*
X118750000Y-83275000D03*
X118250001Y-83275000D03*
X117749999Y-83275000D03*
X117250000Y-83275000D03*
X116749999Y-83275000D03*
X116250000Y-83275000D03*
D26*
X114275000Y-85250000D03*
X114275000Y-85749999D03*
X114275000Y-86250000D03*
X114275000Y-86749999D03*
X114275000Y-87250001D03*
X114275000Y-87750000D03*
X114275000Y-88249999D03*
X114275000Y-88750000D03*
X114275000Y-89250000D03*
X114275000Y-89750001D03*
X114275000Y-90250000D03*
X114275000Y-90749999D03*
X114275000Y-91250001D03*
X114275000Y-91750000D03*
X114275000Y-92250001D03*
X114275000Y-92750000D03*
D27*
X116250000Y-94725000D03*
X116749999Y-94725000D03*
X117250000Y-94725000D03*
X117749999Y-94725000D03*
X118250001Y-94725000D03*
X118750000Y-94725000D03*
X119249999Y-94725000D03*
X119750000Y-94725000D03*
X120250000Y-94725000D03*
X120750001Y-94725000D03*
X121250000Y-94725000D03*
X121749999Y-94725000D03*
X122250001Y-94725000D03*
X122750000Y-94725000D03*
X123250001Y-94725000D03*
X123750000Y-94725000D03*
%TD*%
D28*
%TO.C,CX2*%
X131775000Y-93020000D03*
X131775000Y-93980000D03*
%TD*%
M02*
