%TF.GenerationSoftware,KiCad,Pcbnew,9.0.0*%
%TF.CreationDate,2025-03-18T22:15:53-07:00*%
%TF.ProjectId,Caliper_Clock,43616c69-7065-4725-9f43-6c6f636b2e6b,rev?*%
%TF.SameCoordinates,Original*%
%TF.FileFunction,Copper,L1,Top*%
%TF.FilePolarity,Positive*%
%FSLAX46Y46*%
G04 Gerber Fmt 4.6, Leading zero omitted, Abs format (unit mm)*
G04 Created by KiCad (PCBNEW 9.0.0) date 2025-03-18 22:15:53*
%MOMM*%
%LPD*%
G01*
G04 APERTURE LIST*
G04 Aperture macros list*
%AMRoundRect*
0 Rectangle with rounded corners*
0 $1 Rounding radius*
0 $2 $3 $4 $5 $6 $7 $8 $9 X,Y pos of 4 corners*
0 Add a 4 corners polygon primitive as box body*
4,1,4,$2,$3,$4,$5,$6,$7,$8,$9,$2,$3,0*
0 Add four circle primitives for the rounded corners*
1,1,$1+$1,$2,$3*
1,1,$1+$1,$4,$5*
1,1,$1+$1,$6,$7*
1,1,$1+$1,$8,$9*
0 Add four rect primitives between the rounded corners*
20,1,$1+$1,$2,$3,$4,$5,0*
20,1,$1+$1,$4,$5,$6,$7,0*
20,1,$1+$1,$6,$7,$8,$9,0*
20,1,$1+$1,$8,$9,$2,$3,0*%
G04 Aperture macros list end*
%TA.AperFunction,Conductor*%
%ADD10C,0.200000*%
%TD*%
%TA.AperFunction,EtchedComponent*%
%ADD11C,0.000000*%
%TD*%
%TA.AperFunction,EtchedComponent*%
%ADD12C,0.400000*%
%TD*%
%TA.AperFunction,EtchedComponent*%
%ADD13C,0.100000*%
%TD*%
%TA.AperFunction,EtchedComponent*%
%ADD14C,0.050000*%
%TD*%
%TA.AperFunction,SMDPad,CuDef*%
%ADD15RoundRect,0.200000X0.275000X-0.200000X0.275000X0.200000X-0.275000X0.200000X-0.275000X-0.200000X0*%
%TD*%
%TA.AperFunction,SMDPad,CuDef*%
%ADD16RoundRect,0.200000X0.200000X0.275000X-0.200000X0.275000X-0.200000X-0.275000X0.200000X-0.275000X0*%
%TD*%
%TA.AperFunction,SMDPad,CuDef*%
%ADD17RoundRect,0.200000X-0.200000X-0.275000X0.200000X-0.275000X0.200000X0.275000X-0.200000X0.275000X0*%
%TD*%
%TA.AperFunction,SMDPad,CuDef*%
%ADD18RoundRect,0.075000X0.075000X-0.662500X0.075000X0.662500X-0.075000X0.662500X-0.075000X-0.662500X0*%
%TD*%
%TA.AperFunction,SMDPad,CuDef*%
%ADD19RoundRect,0.075000X0.662500X-0.075000X0.662500X0.075000X-0.662500X0.075000X-0.662500X-0.075000X0*%
%TD*%
%TA.AperFunction,HeatsinkPad*%
%ADD20R,2.600000X2.600000*%
%TD*%
%TA.AperFunction,SMDPad,CuDef*%
%ADD21RoundRect,0.062500X-0.062500X-0.362500X0.062500X-0.362500X0.062500X0.362500X-0.062500X0.362500X0*%
%TD*%
%TA.AperFunction,SMDPad,CuDef*%
%ADD22RoundRect,0.062500X-0.362500X-0.062500X0.362500X-0.062500X0.362500X0.062500X-0.362500X0.062500X0*%
%TD*%
%TA.AperFunction,SMDPad,CuDef*%
%ADD23RoundRect,0.200000X-0.275000X0.200000X-0.275000X-0.200000X0.275000X-0.200000X0.275000X0.200000X0*%
%TD*%
%TA.AperFunction,ComponentPad*%
%ADD24R,1.700000X1.700000*%
%TD*%
%TA.AperFunction,ComponentPad*%
%ADD25O,1.700000X1.700000*%
%TD*%
%TA.AperFunction,SMDPad,CuDef*%
%ADD26RoundRect,0.225000X0.225000X0.250000X-0.225000X0.250000X-0.225000X-0.250000X0.225000X-0.250000X0*%
%TD*%
%TA.AperFunction,SMDPad,CuDef*%
%ADD27RoundRect,0.225000X-0.250000X0.225000X-0.250000X-0.225000X0.250000X-0.225000X0.250000X0.225000X0*%
%TD*%
%TA.AperFunction,ViaPad*%
%ADD28C,0.600000*%
%TD*%
G04 APERTURE END LIST*
D10*
%TO.N,Net-(HT1-COM0)*%
X149500000Y-103100000D02*
X145400000Y-103100000D01*
X149500000Y-103200000D02*
X149500000Y-103100000D01*
X149500000Y-109600000D02*
X149500000Y-103200000D01*
X137200000Y-109600000D02*
X149500000Y-109600000D01*
X137200000Y-108500000D02*
X137200000Y-109600000D01*
X126250000Y-108500000D02*
X137200000Y-108500000D01*
X126250000Y-91800000D02*
X126250000Y-108500000D01*
%TO.N,Net-(HT1-SEG0)*%
X129250000Y-102400000D02*
X129600000Y-103000000D01*
X129250000Y-92000000D02*
X129250000Y-102400000D01*
D11*
%TA.AperFunction,EtchedComponent*%
%TD*%
%TO.C,TP15*%
G36*
X140500000Y-92000000D02*
G01*
X140000000Y-92000000D01*
X140000000Y-90500000D01*
X140500000Y-90500000D01*
X140500000Y-92000000D01*
G37*
%TD.AperFunction*%
%TA.AperFunction,EtchedComponent*%
%TO.C,TP14*%
G36*
X139500000Y-92000000D02*
G01*
X139000000Y-92000000D01*
X139000000Y-90500000D01*
X139500000Y-90500000D01*
X139500000Y-92000000D01*
G37*
%TD.AperFunction*%
%TA.AperFunction,EtchedComponent*%
%TO.C,TP13*%
G36*
X138500000Y-92000000D02*
G01*
X138000000Y-92000000D01*
X138000000Y-90500000D01*
X138500000Y-90500000D01*
X138500000Y-92000000D01*
G37*
%TD.AperFunction*%
%TA.AperFunction,EtchedComponent*%
%TO.C,TP12*%
G36*
X137500000Y-92000000D02*
G01*
X137000000Y-92000000D01*
X137000000Y-90500000D01*
X137500000Y-90500000D01*
X137500000Y-92000000D01*
G37*
%TD.AperFunction*%
%TA.AperFunction,EtchedComponent*%
%TO.C,TP11*%
G36*
X136500000Y-92000000D02*
G01*
X136000000Y-92000000D01*
X136000000Y-90500000D01*
X136500000Y-90500000D01*
X136500000Y-92000000D01*
G37*
%TD.AperFunction*%
%TA.AperFunction,EtchedComponent*%
%TO.C,TP10*%
G36*
X135500000Y-92000000D02*
G01*
X135000000Y-92000000D01*
X135000000Y-90500000D01*
X135500000Y-90500000D01*
X135500000Y-92000000D01*
G37*
%TD.AperFunction*%
%TA.AperFunction,EtchedComponent*%
%TO.C,TP9*%
G36*
X134500000Y-92000000D02*
G01*
X134000000Y-92000000D01*
X134000000Y-90500000D01*
X134500000Y-90500000D01*
X134500000Y-92000000D01*
G37*
%TD.AperFunction*%
%TA.AperFunction,EtchedComponent*%
%TO.C,TP8*%
G36*
X133500000Y-92000000D02*
G01*
X133000000Y-92000000D01*
X133000000Y-90500000D01*
X133500000Y-90500000D01*
X133500000Y-92000000D01*
G37*
%TD.AperFunction*%
%TA.AperFunction,EtchedComponent*%
%TO.C,TP7*%
G36*
X132500000Y-92000000D02*
G01*
X132000000Y-92000000D01*
X132000000Y-90500000D01*
X132500000Y-90500000D01*
X132500000Y-92000000D01*
G37*
%TD.AperFunction*%
%TA.AperFunction,EtchedComponent*%
%TO.C,TP6*%
G36*
X131500000Y-92000000D02*
G01*
X131000000Y-92000000D01*
X131000000Y-90500000D01*
X131500000Y-90500000D01*
X131500000Y-92000000D01*
G37*
%TD.AperFunction*%
%TA.AperFunction,EtchedComponent*%
%TO.C,TP5*%
G36*
X130500000Y-92000000D02*
G01*
X130000000Y-92000000D01*
X130000000Y-90500000D01*
X130500000Y-90500000D01*
X130500000Y-92000000D01*
G37*
%TD.AperFunction*%
%TA.AperFunction,EtchedComponent*%
%TO.C,TP4*%
G36*
X129500000Y-92000000D02*
G01*
X129000000Y-92000000D01*
X129000000Y-90500000D01*
X129500000Y-90500000D01*
X129500000Y-92000000D01*
G37*
%TD.AperFunction*%
%TA.AperFunction,EtchedComponent*%
%TO.C,TP3*%
G36*
X128500000Y-92000000D02*
G01*
X128000000Y-92000000D01*
X128000000Y-90500000D01*
X128500000Y-90500000D01*
X128500000Y-92000000D01*
G37*
%TD.AperFunction*%
%TA.AperFunction,EtchedComponent*%
%TO.C,TP2*%
G36*
X127500000Y-92000000D02*
G01*
X127000000Y-92000000D01*
X127000000Y-90500000D01*
X127500000Y-90500000D01*
X127500000Y-92000000D01*
G37*
%TD.AperFunction*%
%TA.AperFunction,EtchedComponent*%
%TO.C,TP1*%
G36*
X126500000Y-92000000D02*
G01*
X126000000Y-92000000D01*
X126000000Y-90500000D01*
X126500000Y-90500000D01*
X126500000Y-92000000D01*
G37*
%TD.AperFunction*%
D12*
%TO.C,TP19*%
X153725000Y-109787500D02*
X157475000Y-109787500D01*
X153725000Y-110287500D02*
X153725000Y-111787500D01*
X153725000Y-111787500D02*
X154725000Y-111787500D01*
X154350000Y-109787500D02*
X154350000Y-111287500D01*
X154725000Y-111787500D02*
X156225000Y-111787500D01*
X154975000Y-111787500D02*
X154975000Y-110287500D01*
X155600000Y-109787500D02*
X155600000Y-111287500D01*
X156225000Y-111787500D02*
X156225000Y-110287500D01*
X156875000Y-109787500D02*
X156875000Y-111287500D01*
X157475000Y-111787500D02*
X156225000Y-111787500D01*
X157475000Y-111787500D02*
X157475000Y-110287500D01*
%TO.C,TP18*%
X152825000Y-88087500D02*
X156575000Y-88087500D01*
X152825000Y-88587500D02*
X152825000Y-90087500D01*
X152825000Y-90087500D02*
X153825000Y-90087500D01*
X153450000Y-88087500D02*
X153450000Y-89587500D01*
X153825000Y-90087500D02*
X155325000Y-90087500D01*
X154075000Y-90087500D02*
X154075000Y-88587500D01*
X154700000Y-88087500D02*
X154700000Y-89587500D01*
X155325000Y-90087500D02*
X155325000Y-88587500D01*
X155975000Y-88087500D02*
X155975000Y-89587500D01*
X156575000Y-90087500D02*
X155325000Y-90087500D01*
X156575000Y-90087500D02*
X156575000Y-88587500D01*
%TO.C,TP17*%
X129825000Y-109887500D02*
X133575000Y-109887500D01*
X129825000Y-110387500D02*
X129825000Y-111887500D01*
X129825000Y-111887500D02*
X130825000Y-111887500D01*
X130450000Y-109887500D02*
X130450000Y-111387500D01*
X130825000Y-111887500D02*
X132325000Y-111887500D01*
X131075000Y-111887500D02*
X131075000Y-110387500D01*
X131700000Y-109887500D02*
X131700000Y-111387500D01*
X132325000Y-111887500D02*
X132325000Y-110387500D01*
X132975000Y-109887500D02*
X132975000Y-111387500D01*
X133575000Y-111887500D02*
X132325000Y-111887500D01*
X133575000Y-111887500D02*
X133575000Y-110387500D01*
%TO.C,TP16*%
X132875000Y-87987500D02*
X136625000Y-87987500D01*
X132875000Y-88487500D02*
X132875000Y-89987500D01*
X132875000Y-89987500D02*
X133875000Y-89987500D01*
X133500000Y-87987500D02*
X133500000Y-89487500D01*
X133875000Y-89987500D02*
X135375000Y-89987500D01*
X134125000Y-89987500D02*
X134125000Y-88487500D01*
X134750000Y-87987500D02*
X134750000Y-89487500D01*
X135375000Y-89987500D02*
X135375000Y-88487500D01*
X136025000Y-87987500D02*
X136025000Y-89487500D01*
X136625000Y-89987500D02*
X135375000Y-89987500D01*
X136625000Y-89987500D02*
X136625000Y-88487500D01*
%TO.C,MY_ZJ_117*%
D13*
X167612500Y-99000000D02*
X164112500Y-99000000D01*
X164112500Y-102000000D01*
X167612500Y-102000000D01*
X167612500Y-99000000D01*
%TA.AperFunction,EtchedComponent*%
G36*
X167612500Y-99000000D02*
G01*
X164112500Y-99000000D01*
X164112500Y-102000000D01*
X167612500Y-102000000D01*
X167612500Y-99000000D01*
G37*
%TD.AperFunction*%
%TO.C,MY_ZJ_118*%
D14*
X170500000Y-94000000D02*
X176500000Y-94000000D01*
X176500000Y-96500000D01*
X170500000Y-96500000D01*
X170500000Y-94000000D01*
%TA.AperFunction,EtchedComponent*%
G36*
X170500000Y-94000000D02*
G01*
X176500000Y-94000000D01*
X176500000Y-96500000D01*
X170500000Y-96500000D01*
X170500000Y-94000000D01*
G37*
%TD.AperFunction*%
X170500000Y-104400000D02*
X176500000Y-104400000D01*
X176500000Y-106900000D01*
X170500000Y-106900000D01*
X170500000Y-104400000D01*
%TA.AperFunction,EtchedComponent*%
G36*
X170500000Y-104400000D02*
G01*
X176500000Y-104400000D01*
X176500000Y-106900000D01*
X170500000Y-106900000D01*
X170500000Y-104400000D01*
G37*
%TD.AperFunction*%
%TD*%
D15*
%TO.P,R7,2*%
%TO.N,Net-(HT1-RD)*%
X132500000Y-104850000D03*
%TO.P,R7,1*%
%TO.N,VCC*%
X132500000Y-106500000D03*
%TD*%
D16*
%TO.P,R1,2*%
%TO.N,Net-(U1-XTAL1{slash}PB3)*%
X155350000Y-91500000D03*
%TO.P,R1,1*%
%TO.N,VCC*%
X157000000Y-91500000D03*
%TD*%
D17*
%TO.P,R2,2*%
%TO.N,Net-(U1-XTAL1{slash}PB3)*%
X149750000Y-89500000D03*
%TO.P,R2,1*%
X148100000Y-89500000D03*
%TD*%
D18*
%TO.P,HT1,1,CS*%
%TO.N,Net-(HT1-CS)*%
X138050000Y-104462500D03*
%TO.P,HT1,2,RD*%
%TO.N,Net-(HT1-RD)*%
X138550000Y-104462500D03*
%TO.P,HT1,3,WR*%
%TO.N,Net-(HT1-WR)*%
X139050000Y-104462500D03*
%TO.P,HT1,4,DATA*%
%TO.N,Net-(HT1-DATA)*%
X139550000Y-104462500D03*
%TO.P,HT1,5,VSS*%
%TO.N,GND*%
X140050000Y-104462500D03*
%TO.P,HT1,6,OSCO*%
%TO.N,unconnected-(HT1-OSCO-Pad6)*%
X140550000Y-104462500D03*
%TO.P,HT1,7,OSCI*%
%TO.N,unconnected-(HT1-OSCI-Pad7)*%
X141050000Y-104462500D03*
%TO.P,HT1,8,VLCD*%
%TO.N,VCC*%
X141550000Y-104462500D03*
%TO.P,HT1,9,VDD*%
%TO.N,Net-(HT1-VDD)*%
X142050000Y-104462500D03*
%TO.P,HT1,10,IRQ_*%
%TO.N,unconnected-(HT1-IRQ_-Pad10)*%
X142550000Y-104462500D03*
%TO.P,HT1,11,BZ*%
%TO.N,unconnected-(HT1-BZ-Pad11)*%
X143050000Y-104462500D03*
%TO.P,HT1,12,BZ_*%
%TO.N,unconnected-(HT1-BZ_-Pad12)*%
X143550000Y-104462500D03*
D19*
%TO.P,HT1,13,COM0*%
%TO.N,Net-(HT1-COM0)*%
X144962500Y-103050000D03*
%TO.P,HT1,14,COM1*%
%TO.N,Net-(HT1-COM1)*%
X144962500Y-102550000D03*
%TO.P,HT1,15,COM2*%
%TO.N,Net-(HT1-COM2)*%
X144962500Y-102050000D03*
%TO.P,HT1,16,COM3*%
%TO.N,unconnected-(HT1-COM3-Pad16)*%
X144962500Y-101550000D03*
%TO.P,HT1,17,SEG31*%
%TO.N,unconnected-(HT1-SEG31-Pad17)*%
X144962500Y-101050000D03*
%TO.P,HT1,18,SEG30*%
%TO.N,unconnected-(HT1-SEG30-Pad18)*%
X144962500Y-100550000D03*
%TO.P,HT1,19,SEG29*%
%TO.N,unconnected-(HT1-SEG29-Pad19)*%
X144962500Y-100050000D03*
%TO.P,HT1,20,SEG28*%
%TO.N,unconnected-(HT1-SEG28-Pad20)*%
X144962500Y-99550000D03*
%TO.P,HT1,21,SEG27*%
%TO.N,unconnected-(HT1-SEG27-Pad21)*%
X144962500Y-99050000D03*
%TO.P,HT1,22,SEG26*%
%TO.N,unconnected-(HT1-SEG26-Pad22)*%
X144962500Y-98550000D03*
%TO.P,HT1,23,SEG25*%
%TO.N,unconnected-(HT1-SEG25-Pad23)*%
X144962500Y-98050000D03*
%TO.P,HT1,24,SEG24*%
%TO.N,unconnected-(HT1-SEG24-Pad24)*%
X144962500Y-97550000D03*
D18*
%TO.P,HT1,25,SEG23*%
%TO.N,unconnected-(HT1-SEG23-Pad25)*%
X143550000Y-96137500D03*
%TO.P,HT1,26,SEG22*%
%TO.N,unconnected-(HT1-SEG22-Pad26)*%
X143050000Y-96137500D03*
%TO.P,HT1,27,SEG21*%
%TO.N,unconnected-(HT1-SEG21-Pad27)*%
X142550000Y-96137500D03*
%TO.P,HT1,28,SEG20*%
%TO.N,unconnected-(HT1-SEG20-Pad28)*%
X142050000Y-96137500D03*
%TO.P,HT1,29,SEG19*%
%TO.N,unconnected-(HT1-SEG19-Pad29)*%
X141550000Y-96137500D03*
%TO.P,HT1,30,SEG18*%
%TO.N,unconnected-(HT1-SEG18-Pad30)*%
X141050000Y-96137500D03*
%TO.P,HT1,31,SEG17*%
%TO.N,unconnected-(HT1-SEG17-Pad31)*%
X140550000Y-96137500D03*
%TO.P,HT1,32,SEG16*%
%TO.N,unconnected-(HT1-SEG16-Pad32)*%
X140050000Y-96137500D03*
%TO.P,HT1,33,SEG15*%
%TO.N,unconnected-(HT1-SEG15-Pad33)*%
X139550000Y-96137500D03*
%TO.P,HT1,34,SEG14*%
%TO.N,unconnected-(HT1-SEG14-Pad34)*%
X139050000Y-96137500D03*
%TO.P,HT1,35,SEG13*%
%TO.N,unconnected-(HT1-SEG13-Pad35)*%
X138550000Y-96137500D03*
%TO.P,HT1,36,SEG12*%
%TO.N,unconnected-(HT1-SEG12-Pad36)*%
X138050000Y-96137500D03*
D19*
%TO.P,HT1,37,SEG11*%
%TO.N,Net-(HT1-SEG11)*%
X136637500Y-97550000D03*
%TO.P,HT1,38,SEG10*%
%TO.N,Net-(HT1-SEG10)*%
X136637500Y-98050000D03*
%TO.P,HT1,39,SEG9*%
%TO.N,Net-(HT1-SEG9)*%
X136637500Y-98550000D03*
%TO.P,HT1,40,SEG8*%
%TO.N,Net-(HT1-SEG8)*%
X136637500Y-99050000D03*
%TO.P,HT1,41,SEG7*%
%TO.N,Net-(HT1-SEG7)*%
X136637500Y-99550000D03*
%TO.P,HT1,42,SEG6*%
%TO.N,Net-(HT1-SEG6)*%
X136637500Y-100050000D03*
%TO.P,HT1,43,SEG5*%
%TO.N,Net-(HT1-SEG5)*%
X136637500Y-100550000D03*
%TO.P,HT1,44,SEG4*%
%TO.N,Net-(HT1-SEG4)*%
X136637500Y-101050000D03*
%TO.P,HT1,45,SEG3*%
%TO.N,Net-(HT1-SEG3)*%
X136637500Y-101550000D03*
%TO.P,HT1,46,SEG2*%
%TO.N,Net-(HT1-SEG2)*%
X136637500Y-102050000D03*
%TO.P,HT1,47,SEG1*%
%TO.N,Net-(HT1-SEG1)*%
X136637500Y-102550000D03*
%TO.P,HT1,48,SEG0*%
%TO.N,Net-(HT1-SEG0)*%
X136637500Y-103050000D03*
%TD*%
D20*
%TO.P,U1,21,GND*%
%TO.N,GND*%
X157175000Y-97800000D03*
D21*
%TO.P,U1,20,NC*%
%TO.N,unconnected-(U1-NC-Pad20)*%
X156175000Y-95875000D03*
%TO.P,U1,19,NC*%
%TO.N,unconnected-(U1-NC-Pad19)*%
X156675000Y-95875000D03*
%TO.P,U1,18,NC*%
%TO.N,unconnected-(U1-NC-Pad18)*%
X157175000Y-95875000D03*
%TO.P,U1,17,NC*%
%TO.N,unconnected-(U1-NC-Pad17)*%
X157675000Y-95875000D03*
%TO.P,U1,16,NC*%
%TO.N,unconnected-(U1-NC-Pad16)*%
X158175000Y-95875000D03*
D22*
%TO.P,U1,15,VCC*%
%TO.N,VCC*%
X159100000Y-96800000D03*
%TO.P,U1,14,PB2*%
%TO.N,Net-(HT1-DATA)*%
X159100000Y-97300000D03*
%TO.P,U1,13,NC*%
%TO.N,unconnected-(U1-NC-Pad13)*%
X159100000Y-97800000D03*
%TO.P,U1,12,PB1*%
%TO.N,Net-(HT1-WR)*%
X159100000Y-98300000D03*
%TO.P,U1,11,AREF/PB0*%
%TO.N,Net-(HT1-CS)*%
X159100000Y-98800000D03*
D21*
%TO.P,U1,10,NC*%
%TO.N,unconnected-(U1-NC-Pad10)*%
X158175000Y-99725000D03*
%TO.P,U1,9,NC*%
%TO.N,unconnected-(U1-NC-Pad9)*%
X157675000Y-99725000D03*
%TO.P,U1,8,GND*%
%TO.N,GND*%
X157175000Y-99725000D03*
%TO.P,U1,7,NC*%
%TO.N,unconnected-(U1-NC-Pad7)*%
X156675000Y-99725000D03*
%TO.P,U1,6,NC*%
%TO.N,unconnected-(U1-NC-Pad6)*%
X156175000Y-99725000D03*
D22*
%TO.P,U1,5,XTAL2/PB4*%
%TO.N,unconnected-(U1-XTAL2{slash}PB4-Pad5)*%
X155250000Y-98800000D03*
%TO.P,U1,4,NC*%
%TO.N,unconnected-(U1-NC-Pad4)*%
X155250000Y-98300000D03*
%TO.P,U1,3,NC*%
%TO.N,unconnected-(U1-NC-Pad3)*%
X155250000Y-97800000D03*
%TO.P,U1,2,XTAL1/PB3*%
%TO.N,Net-(U1-XTAL1{slash}PB3)*%
X155250000Y-97300000D03*
%TO.P,U1,1,~{RESET}/PB5*%
%TO.N,Net-(J2-Pin_5)*%
X155250000Y-96800000D03*
%TD*%
D16*
%TO.P,R6,1*%
%TO.N,VCC*%
X157000000Y-93250000D03*
%TO.P,R6,2*%
%TO.N,Net-(J2-Pin_5)*%
X155350000Y-93250000D03*
%TD*%
D15*
%TO.P,R5,1*%
%TO.N,VCC*%
X136250000Y-106500000D03*
%TO.P,R5,2*%
%TO.N,Net-(HT1-CS)*%
X136250000Y-104850000D03*
%TD*%
D23*
%TO.P,R4,1*%
%TO.N,Net-(U1-XTAL1{slash}PB3)*%
X150425000Y-98425000D03*
%TO.P,R4,2*%
X150425000Y-100075000D03*
%TD*%
%TO.P,R3,1*%
%TO.N,Net-(U1-XTAL1{slash}PB3)*%
X147750000Y-93250000D03*
%TO.P,R3,2*%
X147750000Y-94900000D03*
%TD*%
D24*
%TO.P,J2,1,Pin_1*%
%TO.N,Net-(HT1-WR)*%
X162675000Y-91500000D03*
D25*
%TO.P,J2,2,Pin_2*%
%TO.N,VCC*%
X165215000Y-91500000D03*
%TO.P,J2,3,Pin_3*%
%TO.N,Net-(HT1-DATA)*%
X167755000Y-91500000D03*
%TO.P,J2,4,Pin_4*%
%TO.N,Net-(HT1-CS)*%
X170295000Y-91500000D03*
%TO.P,J2,5,Pin_5*%
%TO.N,Net-(J2-Pin_5)*%
X172835000Y-91500000D03*
%TO.P,J2,6,Pin_6*%
%TO.N,GND*%
X175375000Y-91500000D03*
%TD*%
D26*
%TO.P,C2,1*%
%TO.N,Net-(HT1-VDD)*%
X142300000Y-106750000D03*
%TO.P,C2,2*%
%TO.N,GND*%
X140750000Y-106750000D03*
%TD*%
D27*
%TO.P,C1,1*%
%TO.N,VCC*%
X160750000Y-99750000D03*
%TO.P,C1,2*%
%TO.N,GND*%
X160750000Y-101300000D03*
%TD*%
D28*
%TO.N,Net-(HT1-DATA)*%
X146750000Y-97000000D03*
X146750000Y-99750000D03*
X139550000Y-106700000D03*
%TO.N,Net-(HT1-WR)*%
X138750000Y-106000000D03*
%TO.N,Net-(HT1-RD)*%
X134000000Y-104000000D03*
X138000000Y-106000000D03*
%TO.N,Net-(HT1-CS)*%
X134250000Y-105250000D03*
X161750000Y-98500000D03*
%TO.N,VCC*%
X144000000Y-108250000D03*
%TO.N,Net-(J2-Pin_5)*%
X159500000Y-94500000D03*
%TO.N,Net-(HT1-DATA)*%
X164000000Y-97500000D03*
%TO.N,Net-(U1-XTAL1{slash}PB3)*%
X149750000Y-111250000D03*
X151500000Y-110500000D03*
X138750000Y-110500000D03*
X147750000Y-98000000D03*
X146212500Y-89787500D03*
X151750000Y-92500000D03*
X151750000Y-90750000D03*
%TO.N,Net-(HT1-WR)*%
X161250000Y-94500000D03*
X161500000Y-97750000D03*
%TO.N,VCC*%
X153500000Y-105000000D03*
X144000000Y-106500000D03*
%TO.N,GND*%
X145000000Y-105750000D03*
X151500000Y-105650000D03*
%TO.N,Net-(HT1-SEG6)*%
X135250000Y-93000000D03*
%TO.N,Net-(HT1-SEG7)*%
X136250000Y-93000000D03*
%TO.N,Net-(HT1-SEG8)*%
X137250000Y-93000000D03*
%TO.N,Net-(HT1-SEG11)*%
X140250000Y-93000000D03*
%TO.N,Net-(HT1-SEG10)*%
X139250000Y-93000000D03*
%TO.N,Net-(HT1-SEG9)*%
X138250000Y-93000000D03*
%TO.N,Net-(HT1-SEG11)*%
X135250000Y-97500000D03*
%TO.N,Net-(HT1-SEG10)*%
X134750000Y-98000000D03*
%TO.N,Net-(HT1-SEG9)*%
X135250000Y-98500000D03*
%TO.N,Net-(HT1-SEG8)*%
X134750000Y-99000000D03*
%TO.N,Net-(HT1-SEG7)*%
X135250000Y-99500000D03*
%TO.N,Net-(HT1-SEG6)*%
X134750000Y-100000000D03*
%TO.N,Net-(HT1-COM2)*%
X148250000Y-102000000D03*
X148250000Y-103750000D03*
%TO.N,Net-(HT1-COM1)*%
X149000000Y-103750000D03*
X149000000Y-102500000D03*
%TD*%
D10*
%TO.N,VCC*%
X157000000Y-93250000D02*
X157000000Y-91500000D01*
%TO.N,Net-(J2-Pin_5)*%
X155350000Y-94400000D02*
X155250000Y-94500000D01*
X155350000Y-93250000D02*
X155350000Y-94400000D01*
X155250000Y-94500000D02*
X159500000Y-94500000D01*
%TO.N,Net-(HT1-DATA)*%
X146750000Y-99750000D02*
X146750000Y-97000000D01*
X139550000Y-104462500D02*
X139550000Y-106700000D01*
%TO.N,VCC*%
X144000000Y-103782598D02*
X144000000Y-106500000D01*
X141751001Y-103524000D02*
X143741402Y-103524000D01*
X141550000Y-103725001D02*
X141751001Y-103524000D01*
X143741402Y-103524000D02*
X144000000Y-103782598D01*
X141550000Y-104462500D02*
X141550000Y-103725001D01*
%TO.N,GND*%
X141500000Y-107500000D02*
X140750000Y-106750000D01*
X144750000Y-107500000D02*
X141500000Y-107500000D01*
X140050000Y-106050000D02*
X140750000Y-106750000D01*
X140050000Y-104462500D02*
X140050000Y-106050000D01*
%TO.N,Net-(HT1-VDD)*%
X142050000Y-106500000D02*
X142300000Y-106750000D01*
X142050000Y-104462500D02*
X142050000Y-106500000D01*
%TO.N,Net-(HT1-WR)*%
X139050000Y-105700000D02*
X139050000Y-104462500D01*
X138750000Y-106000000D02*
X139050000Y-105700000D01*
%TO.N,Net-(HT1-RD)*%
X133350000Y-104000000D02*
X132500000Y-104850000D01*
X134000000Y-104000000D02*
X133350000Y-104000000D01*
X138550000Y-105450000D02*
X138000000Y-106000000D01*
X138550000Y-104462500D02*
X138550000Y-105450000D01*
%TO.N,VCC*%
X132500000Y-106500000D02*
X136250000Y-106500000D01*
%TO.N,Net-(HT1-CS)*%
X134650000Y-104850000D02*
X134250000Y-105250000D01*
X136250000Y-104850000D02*
X134650000Y-104850000D01*
%TO.N,VCC*%
X165750000Y-98000000D02*
X165291479Y-98000000D01*
X165291479Y-98000000D02*
X164750000Y-97458521D01*
X165862500Y-98112500D02*
X165862500Y-100199000D01*
X165750000Y-98000000D02*
X165862500Y-98112500D01*
X164750000Y-97458521D02*
X164750000Y-96800000D01*
X162458521Y-99750000D02*
X164750000Y-97458521D01*
X160750000Y-99750000D02*
X162458521Y-99750000D01*
X164750000Y-96800000D02*
X160250000Y-96800000D01*
%TO.N,Net-(HT1-CS)*%
X161500000Y-98750000D02*
X161750000Y-98500000D01*
X161249000Y-98750000D02*
X161500000Y-98750000D01*
X161199000Y-98800000D02*
X161249000Y-98750000D01*
X159100000Y-98800000D02*
X161199000Y-98800000D01*
X136637500Y-104462500D02*
X136250000Y-104850000D01*
X138050000Y-104462500D02*
X136637500Y-104462500D01*
%TO.N,VCC*%
X138102000Y-107877000D02*
X138102000Y-108250000D01*
X136725000Y-106500000D02*
X138102000Y-107877000D01*
X136250000Y-106500000D02*
X136725000Y-106500000D01*
X144000000Y-108250000D02*
X138102000Y-108250000D01*
%TO.N,Net-(J2-Pin_5)*%
X154500000Y-94500000D02*
X155250000Y-94500000D01*
X154250000Y-94750000D02*
X154500000Y-94500000D01*
X154250000Y-96750000D02*
X154250000Y-94750000D01*
X154300000Y-96800000D02*
X154250000Y-96750000D01*
X155250000Y-96800000D02*
X154300000Y-96800000D01*
%TO.N,Net-(HT1-DATA)*%
X163500000Y-97500000D02*
X164000000Y-97500000D01*
X163250000Y-97250000D02*
X163500000Y-97500000D01*
X159150000Y-97250000D02*
X163250000Y-97250000D01*
X159100000Y-97300000D02*
X159150000Y-97250000D01*
%TO.N,Net-(U1-XTAL1{slash}PB3)*%
X149101000Y-111899000D02*
X149750000Y-111250000D01*
X136000000Y-111899000D02*
X149101000Y-111899000D01*
X151500000Y-110250000D02*
X151500000Y-110500000D01*
X152500000Y-109250000D02*
X151500000Y-110250000D01*
X153037500Y-109787500D02*
X152500000Y-109250000D01*
X150425000Y-110824000D02*
X150425000Y-100075000D01*
X151500000Y-111899000D02*
X150425000Y-110824000D01*
X151611500Y-111787500D02*
X151500000Y-111899000D01*
X153725000Y-111787500D02*
X151611500Y-111787500D01*
X152750000Y-100250000D02*
X152750000Y-97300000D01*
X151000000Y-102000000D02*
X152750000Y-100250000D01*
X151000000Y-107750000D02*
X151000000Y-102000000D01*
X152500000Y-109250000D02*
X151000000Y-107750000D01*
X153725000Y-109787500D02*
X153037500Y-109787500D01*
X152750000Y-97300000D02*
X151800000Y-97300000D01*
X136000000Y-110500000D02*
X138750000Y-110500000D01*
X135387500Y-109887500D02*
X136000000Y-110500000D01*
X133575000Y-109887500D02*
X135387500Y-109887500D01*
X148000000Y-96000000D02*
X147750000Y-96000000D01*
X150425000Y-98425000D02*
X148000000Y-96000000D01*
X147750000Y-96000000D02*
X147750000Y-98000000D01*
X147750000Y-94900000D02*
X147750000Y-96000000D01*
X133586500Y-111899000D02*
X136000000Y-111899000D01*
X133575000Y-111887500D02*
X133586500Y-111899000D01*
X146750000Y-88500000D02*
X138250000Y-88500000D01*
X147750000Y-93250000D02*
X147750000Y-92250000D01*
X148100000Y-91900000D02*
X147750000Y-92250000D01*
X148100000Y-89500000D02*
X148100000Y-91900000D01*
X147750000Y-89500000D02*
X146750000Y-88500000D01*
X138250000Y-88500000D02*
X137851000Y-88101000D01*
X137851000Y-88101000D02*
X136625000Y-88101000D01*
X148100000Y-89500000D02*
X147750000Y-89500000D01*
X146212500Y-89787500D02*
X146250000Y-89750000D01*
X136625000Y-89787500D02*
X146212500Y-89787500D01*
X151750000Y-97250000D02*
X151750000Y-92500000D01*
X155250000Y-97300000D02*
X152750000Y-97300000D01*
X151800000Y-97300000D02*
X151750000Y-97250000D01*
X151750000Y-88250000D02*
X151750000Y-90750000D01*
X151750000Y-91500000D02*
X149750000Y-89500000D01*
X154500000Y-91500000D02*
X151750000Y-91500000D01*
X152000000Y-88250000D02*
X152149000Y-88101000D01*
X152149000Y-88101000D02*
X152825000Y-88101000D01*
X151750000Y-88250000D02*
X152000000Y-88250000D01*
X154500000Y-91500000D02*
X155350000Y-91500000D01*
X153825000Y-90825000D02*
X154500000Y-91500000D01*
X153825000Y-90087500D02*
X153825000Y-90825000D01*
%TO.N,VCC*%
X159500000Y-91500000D02*
X157000000Y-91500000D01*
X159750000Y-91750000D02*
X159500000Y-91500000D01*
X160250000Y-91750000D02*
X159750000Y-91750000D01*
X160250000Y-96465000D02*
X160250000Y-91750000D01*
%TO.N,GND*%
X175000000Y-93750000D02*
X176726000Y-93750000D01*
X173712839Y-95037161D02*
X175000000Y-93750000D01*
%TO.N,Net-(HT1-WR)*%
X162675000Y-93075000D02*
X162675000Y-91500000D01*
X161250000Y-94500000D02*
X162675000Y-93075000D01*
X160950000Y-98300000D02*
X161500000Y-97750000D01*
X159100000Y-98300000D02*
X160950000Y-98300000D01*
%TO.N,VCC*%
X160250000Y-96465000D02*
X160250000Y-96800000D01*
X165215000Y-91500000D02*
X160250000Y-96465000D01*
X160250000Y-96800000D02*
X159100000Y-96800000D01*
%TO.N,GND*%
X176726000Y-92851000D02*
X176726000Y-93750000D01*
X173500000Y-97750000D02*
X173500000Y-105650000D01*
X175375000Y-91500000D02*
X176726000Y-92851000D01*
%TO.N,VCC*%
X162250000Y-105000000D02*
X153500000Y-105000000D01*
%TO.N,GND*%
X151750000Y-104000000D02*
X157250000Y-104000000D01*
X157250000Y-101250000D02*
X157175000Y-101175000D01*
X151500000Y-104250000D02*
X151750000Y-104000000D01*
X157250000Y-104000000D02*
X157250000Y-101250000D01*
X151500000Y-105650000D02*
X151500000Y-104250000D01*
X157300000Y-101300000D02*
X160750000Y-101300000D01*
X157175000Y-101175000D02*
X157300000Y-101300000D01*
X157175000Y-99725000D02*
X157175000Y-101175000D01*
%TO.N,VCC*%
X166000000Y-105000000D02*
X162250000Y-105000000D01*
X166000000Y-100637500D02*
X166000000Y-105000000D01*
X165862500Y-100500000D02*
X166000000Y-100637500D01*
%TO.N,GND*%
X145000000Y-107250000D02*
X144750000Y-107500000D01*
X145000000Y-105750000D02*
X145000000Y-107250000D01*
X173500000Y-105650000D02*
X151500000Y-105650000D01*
X173500000Y-95250000D02*
X173500000Y-97750000D01*
%TO.N,Net-(HT1-SEG10)*%
X136587500Y-98000000D02*
X136637500Y-98050000D01*
X134750000Y-98000000D02*
X136587500Y-98000000D01*
%TO.N,Net-(HT1-SEG9)*%
X136587500Y-98500000D02*
X136637500Y-98550000D01*
X135250000Y-98500000D02*
X136587500Y-98500000D01*
%TO.N,Net-(HT1-SEG8)*%
X136587500Y-99000000D02*
X136637500Y-99050000D01*
X134750000Y-99000000D02*
X136587500Y-99000000D01*
%TO.N,Net-(HT1-SEG7)*%
X135250000Y-99500000D02*
X136587500Y-99500000D01*
X136587500Y-99500000D02*
X136637500Y-99550000D01*
%TO.N,Net-(HT1-SEG6)*%
X136587500Y-100000000D02*
X136637500Y-100050000D01*
X134750000Y-100000000D02*
X136587500Y-100000000D01*
%TO.N,Net-(HT1-SEG11)*%
X135300000Y-97550000D02*
X135250000Y-97500000D01*
X136637500Y-97550000D02*
X135300000Y-97550000D01*
X140250000Y-93000000D02*
X140250000Y-91250000D01*
%TO.N,Net-(HT1-SEG10)*%
X139250000Y-93000000D02*
X139250000Y-91250000D01*
%TO.N,Net-(HT1-SEG9)*%
X138250000Y-93000000D02*
X138250000Y-91250000D01*
%TO.N,Net-(HT1-SEG8)*%
X137250000Y-91250000D02*
X137250000Y-93000000D01*
%TO.N,Net-(HT1-SEG7)*%
X136250000Y-91250000D02*
X136250000Y-93000000D01*
%TO.N,Net-(HT1-SEG6)*%
X135250000Y-91250000D02*
X135250000Y-93000000D01*
%TO.N,Net-(HT1-SEG5)*%
X134300000Y-100550000D02*
X136637500Y-100550000D01*
X134250000Y-100500000D02*
X134300000Y-100550000D01*
%TO.N,Net-(HT1-SEG4)*%
X135000000Y-101000000D02*
X135050000Y-101050000D01*
X133250000Y-91250000D02*
X133250000Y-101000000D01*
X133250000Y-101000000D02*
X135000000Y-101000000D01*
X135050000Y-101050000D02*
X136637500Y-101050000D01*
%TO.N,Net-(HT1-SEG3)*%
X134800000Y-101550000D02*
X136637500Y-101550000D01*
X134750000Y-101500000D02*
X134800000Y-101550000D01*
%TO.N,Net-(HT1-SEG2)*%
X135050000Y-102050000D02*
X136637500Y-102050000D01*
X135000000Y-102000000D02*
X135050000Y-102050000D01*
X131250000Y-102000000D02*
X135000000Y-102000000D01*
X131250000Y-91250000D02*
X131250000Y-102000000D01*
%TO.N,Net-(HT1-SEG1)*%
X134800000Y-102550000D02*
X136637500Y-102550000D01*
X134750000Y-102500000D02*
X134800000Y-102550000D01*
%TO.N,Net-(HT1-SEG5)*%
X134250000Y-91250000D02*
X134250000Y-100500000D01*
%TO.N,Net-(HT1-SEG3)*%
X132250000Y-101500000D02*
X134750000Y-101500000D01*
X132250000Y-91250000D02*
X132250000Y-101500000D01*
%TO.N,Net-(HT1-SEG1)*%
X130250000Y-102500000D02*
X134750000Y-102500000D01*
X130250000Y-91250000D02*
X130250000Y-102500000D01*
%TO.N,Net-(HT1-COM1)*%
X149000000Y-109250000D02*
X149000000Y-103750000D01*
X137500000Y-109250000D02*
X149000000Y-109250000D01*
X137500000Y-108250000D02*
X137500000Y-109250000D01*
X137449000Y-108199000D02*
X137500000Y-108250000D01*
X127250000Y-108199000D02*
X137449000Y-108199000D01*
X127250000Y-91250000D02*
X127250000Y-108199000D01*
%TO.N,Net-(HT1-COM2)*%
X147300000Y-102000000D02*
X147250000Y-102050000D01*
X148250000Y-102000000D02*
X147300000Y-102000000D01*
X147250000Y-102050000D02*
X147491479Y-102050000D01*
X144962500Y-102050000D02*
X147250000Y-102050000D01*
X137648000Y-107898000D02*
X128250000Y-107898000D01*
X137801000Y-108051000D02*
X137648000Y-107898000D01*
X137801000Y-108949000D02*
X137801000Y-108051000D01*
X148250000Y-108949000D02*
X137801000Y-108949000D01*
X148250000Y-103750000D02*
X148250000Y-108949000D01*
X128250000Y-107898000D02*
X128250000Y-91250000D01*
%TO.N,Net-(HT1-COM1)*%
X148950000Y-102550000D02*
X149000000Y-102500000D01*
X144962500Y-102550000D02*
X148950000Y-102550000D01*
%TO.N,VCC*%
X141600000Y-104512500D02*
X141550000Y-104462500D01*
%TO.N,Net-(HT1-SEG0)*%
X129650000Y-103050000D02*
X129600000Y-103000000D01*
X136637500Y-103050000D02*
X129650000Y-103050000D01*
%TD*%
M02*
