M48
; DRILL file {KiCad 9.0.0} date 2025-03-25T17:24:47-0700
; FORMAT={-:-/ absolute / metric / decimal}
; #@! TF.CreationDate,2025-03-25T17:24:47-07:00
; #@! TF.GenerationSoftware,Kicad,Pcbnew,9.0.0
; #@! TF.FileFunction,Plated,1,2,PTH
FMAT,2
METRIC
; #@! TA.AperFunction,Plated,PTH,ViaDrill
T1C0.300
; #@! TA.AperFunction,Plated,PTH,ComponentDrill
T2C1.000
%
G90
G05
T1
X134.0Y-104.0
X134.25Y-105.25
X134.75Y-98.0
X134.75Y-99.0
X134.75Y-100.0
X135.25Y-93.0
X135.25Y-97.5
X135.25Y-98.5
X135.25Y-99.5
X136.25Y-93.0
X137.25Y-93.0
X138.0Y-106.0
X138.25Y-93.0
X138.7Y-111.899
X138.75Y-106.0
X138.75Y-110.5
X139.25Y-93.0
X139.55Y-106.7
X140.25Y-93.0
X143.592Y-89.787
X144.0Y-106.5
X144.0Y-108.25
X145.0Y-105.75
X146.75Y-97.0
X146.75Y-99.75
X147.75Y-98.0
X148.25Y-102.0
X148.25Y-103.75
X149.0Y-102.5
X149.0Y-103.75
X151.5Y-105.65
X151.75Y-92.5
X153.2Y-110.6
X153.5Y-105.0
X155.1Y-104.6
X155.275Y-94.475
X157.1Y-105.6
X159.0Y-102.6
X161.5Y-97.75
X161.75Y-98.5
X163.3Y-104.8
X164.0Y-97.5
T2
X154.46Y-107.7
X157.0Y-107.7
X159.54Y-107.7
X162.08Y-107.7
X164.62Y-107.7
X167.16Y-107.7
M30
