%TF.GenerationSoftware,KiCad,Pcbnew,9.0.4*%
%TF.CreationDate,2025-08-25T21:47:18-07:00*%
%TF.ProjectId,Caliper_Clock_Test_Board,43616c69-7065-4725-9f43-6c6f636b5f54,rev?*%
%TF.SameCoordinates,Original*%
%TF.FileFunction,Copper,L2,Bot*%
%TF.FilePolarity,Positive*%
%FSLAX46Y46*%
G04 Gerber Fmt 4.6, Leading zero omitted, Abs format (unit mm)*
G04 Created by KiCad (PCBNEW 9.0.4) date 2025-08-25 21:47:18*
%MOMM*%
%LPD*%
G01*
G04 APERTURE LIST*
%TA.AperFunction,ComponentPad*%
%ADD10C,1.700000*%
%TD*%
%TA.AperFunction,ComponentPad*%
%ADD11R,1.700000X1.700000*%
%TD*%
%TA.AperFunction,ViaPad*%
%ADD12C,0.600000*%
%TD*%
%TA.AperFunction,Conductor*%
%ADD13C,0.200000*%
%TD*%
G04 APERTURE END LIST*
D10*
%TO.P,J1,6,Pin_6*%
%TO.N,Net-(J1-Pin_6)*%
X139620000Y-106500000D03*
%TO.P,J1,5,Pin_5*%
%TO.N,Net-(J1-Pin_5)*%
X137080000Y-106500000D03*
%TO.P,J1,4,Pin_4*%
%TO.N,Net-(J1-Pin_4)*%
X134540000Y-106500000D03*
%TO.P,J1,3,Pin_3*%
%TO.N,Net-(J1-Pin_3)*%
X132000000Y-106500000D03*
%TO.P,J1,2,Pin_2*%
%TO.N,Net-(J1-Pin_2)*%
X129460000Y-106500000D03*
D11*
%TO.P,J1,1,Pin_1*%
%TO.N,Net-(J1-Pin_1)*%
X126920000Y-106500000D03*
%TD*%
%TO.P,J2,1,Pin_1*%
%TO.N,Net-(J2-Pin_1)*%
X143420000Y-106500000D03*
D10*
%TO.P,J2,2,Pin_2*%
%TO.N,Net-(J2-Pin_2)*%
X145960000Y-106500000D03*
%TO.P,J2,3,Pin_3*%
%TO.N,Net-(J2-Pin_3)*%
X148500000Y-106500000D03*
%TO.P,J2,4,Pin_4*%
%TO.N,Net-(J2-Pin_4)*%
X151040000Y-106500000D03*
%TO.P,J2,5,Pin_5*%
%TO.N,Net-(J2-Pin_5)*%
X153580000Y-106500000D03*
%TO.P,J2,6,Pin_6*%
%TO.N,Net-(J2-Pin_6)*%
X156120000Y-106500000D03*
%TD*%
D11*
%TO.P,J3,1,Pin_1*%
%TO.N,Net-(J3-Pin_1)*%
X160080000Y-106500000D03*
D10*
%TO.P,J3,2,Pin_2*%
%TO.N,Net-(J3-Pin_2)*%
X162620000Y-106500000D03*
%TO.P,J3,3,Pin_3*%
%TO.N,Net-(J3-Pin_3)*%
X165160000Y-106500000D03*
%TO.P,J3,4,Pin_4*%
%TO.N,unconnected-(J3-Pin_4-Pad4)*%
X167700000Y-106500000D03*
%TO.P,J3,5,Pin_5*%
%TO.N,unconnected-(J3-Pin_5-Pad5)*%
X170240000Y-106500000D03*
%TO.P,J3,6,Pin_6*%
%TO.N,unconnected-(J3-Pin_6-Pad6)*%
X172780000Y-106500000D03*
%TD*%
D12*
%TO.N,*%
X168250000Y-97500000D03*
X164250000Y-97250000D03*
%TO.N,Net-(J1-Pin_1)*%
X126500000Y-100500000D03*
%TO.N,Net-(J1-Pin_2)*%
X127250000Y-96500000D03*
%TO.N,Net-(J1-Pin_3)*%
X128500000Y-96000000D03*
%TO.N,Net-(J1-Pin_4)*%
X129250000Y-95250000D03*
%TO.N,Net-(J1-Pin_5)*%
X130250000Y-94250000D03*
%TO.N,Net-(J1-Pin_6)*%
X131250000Y-94250000D03*
%TO.N,Net-(J2-Pin_1)*%
X132250000Y-94000000D03*
%TO.N,Net-(J2-Pin_2)*%
X133250000Y-94750000D03*
%TO.N,Net-(J2-Pin_3)*%
X134250000Y-96250000D03*
%TO.N,Net-(J3-Pin_2)*%
X139250000Y-93000000D03*
%TO.N,Net-(J3-Pin_1)*%
X138250000Y-93000000D03*
%TO.N,Net-(J2-Pin_4)*%
X135250000Y-93000000D03*
%TO.N,Net-(J3-Pin_3)*%
X140250000Y-93000000D03*
%TO.N,Net-(J2-Pin_6)*%
X137250000Y-93000000D03*
%TO.N,Net-(J2-Pin_5)*%
X136250000Y-93000000D03*
%TD*%
D13*
%TO.N,*%
X169250000Y-102250000D02*
X172250000Y-99250000D01*
X164750000Y-102250000D02*
X169250000Y-102250000D01*
X160750000Y-98250000D02*
X164750000Y-102250000D01*
%TO.N,Net-(J2-Pin_3)*%
X148500000Y-105250000D02*
X148500000Y-106500000D01*
%TO.N,Net-(J2-Pin_2)*%
X146000000Y-106460000D02*
X145960000Y-106500000D01*
X146000000Y-104000000D02*
X146000000Y-106460000D01*
X141000000Y-104000000D02*
X146000000Y-104000000D01*
X133250000Y-96250000D02*
X141000000Y-104000000D01*
X133250000Y-94750000D02*
X133250000Y-96250000D01*
%TO.N,Net-(J2-Pin_1)*%
X143500000Y-105000000D02*
X143420000Y-105080000D01*
X143500000Y-104750000D02*
X143500000Y-105000000D01*
X141000000Y-104750000D02*
X143500000Y-104750000D01*
X132250000Y-94000000D02*
X132250000Y-96000000D01*
X132250000Y-96000000D02*
X141000000Y-104750000D01*
X143420000Y-105080000D02*
X143420000Y-106500000D01*
%TO.N,Net-(J1-Pin_6)*%
X133750000Y-102000000D02*
X136000000Y-104250000D01*
X139500000Y-106380000D02*
X139620000Y-106500000D01*
X133750000Y-98250000D02*
X133750000Y-102000000D01*
X136000000Y-104250000D02*
X139500000Y-104250000D01*
X131250000Y-95750000D02*
X133750000Y-98250000D01*
X131250000Y-94250000D02*
X131250000Y-95750000D01*
X139500000Y-104250000D02*
X139500000Y-106380000D01*
%TO.N,Net-(J1-Pin_5)*%
X137000000Y-106420000D02*
X137080000Y-106500000D01*
X132750000Y-102250000D02*
X135500000Y-105000000D01*
X137000000Y-105000000D02*
X137000000Y-106420000D01*
X130250000Y-95500000D02*
X132750000Y-98000000D01*
X132750000Y-98000000D02*
X132750000Y-102250000D01*
X135500000Y-105000000D02*
X137000000Y-105000000D01*
X130250000Y-94250000D02*
X130250000Y-95500000D01*
%TO.N,Net-(J1-Pin_4)*%
X134500000Y-105250000D02*
X134540000Y-105290000D01*
X134500000Y-105000000D02*
X134500000Y-105250000D01*
X134540000Y-105290000D02*
X134540000Y-106500000D01*
%TO.N,Net-(J1-Pin_3)*%
X132000000Y-105449000D02*
X132000000Y-106500000D01*
X132199000Y-105449000D02*
X132000000Y-105449000D01*
X132000000Y-105250000D02*
X132199000Y-105449000D01*
X132000000Y-104250000D02*
X132000000Y-105250000D01*
X130750000Y-98250000D02*
X130750000Y-103000000D01*
X130750000Y-103000000D02*
X132000000Y-104250000D01*
X128500000Y-96000000D02*
X130750000Y-98250000D01*
%TO.N,Net-(J1-Pin_2)*%
X129500000Y-101750000D02*
X129460000Y-101790000D01*
X129460000Y-101790000D02*
X129460000Y-106500000D01*
%TO.N,Net-(J1-Pin_1)*%
X126619000Y-102500000D02*
X126920000Y-102500000D01*
X126920000Y-102500000D02*
X126920000Y-102420000D01*
%TO.N,*%
X170000000Y-97000000D02*
X168500000Y-98500000D01*
X169250000Y-96250000D02*
X170000000Y-97000000D01*
X168500000Y-98500000D02*
X167500000Y-98500000D01*
X168250000Y-96250000D02*
X169250000Y-96250000D01*
X166750000Y-97750000D02*
X168250000Y-96250000D01*
X166750000Y-98000000D02*
X166750000Y-97750000D01*
X165250000Y-98000000D02*
X165250000Y-97000000D01*
X165250000Y-97000000D02*
X164500000Y-96250000D01*
X163000000Y-97750000D02*
X164250000Y-99000000D01*
X164500000Y-96250000D02*
X163750000Y-96250000D01*
X163000000Y-97000000D02*
X163000000Y-97750000D01*
X163750000Y-96250000D02*
X163000000Y-97000000D01*
%TO.N,Net-(J3-Pin_3)*%
X151910000Y-93250000D02*
X165160000Y-106500000D01*
X140500000Y-93250000D02*
X151910000Y-93250000D01*
%TO.N,Net-(J3-Pin_2)*%
X150620000Y-94500000D02*
X162620000Y-106500000D01*
X139250000Y-94500000D02*
X150620000Y-94500000D01*
%TO.N,Net-(J3-Pin_1)*%
X153250000Y-99670000D02*
X160080000Y-106500000D01*
X153250000Y-98500000D02*
X153250000Y-99670000D01*
X142500000Y-98500000D02*
X153250000Y-98500000D01*
X138250000Y-94250000D02*
X142500000Y-98500000D01*
%TO.N,Net-(J2-Pin_6)*%
X156120000Y-104120000D02*
X156120000Y-106500000D01*
X156000000Y-104000000D02*
X156120000Y-104120000D01*
X156000000Y-103750000D02*
X156000000Y-104000000D01*
X152500000Y-103750000D02*
X156000000Y-103750000D01*
X150750000Y-102000000D02*
X152500000Y-103750000D01*
X142500000Y-99250000D02*
X150750000Y-99250000D01*
X137250000Y-94000000D02*
X142500000Y-99250000D01*
X137250000Y-93000000D02*
X137250000Y-94000000D01*
X150750000Y-99250000D02*
X150750000Y-102000000D01*
%TO.N,Net-(J2-Pin_5)*%
X142750000Y-100250000D02*
X149500000Y-100250000D01*
X149500000Y-100250000D02*
X149500000Y-102420000D01*
X149500000Y-102420000D02*
X153580000Y-106500000D01*
X136250000Y-93750000D02*
X142750000Y-100250000D01*
%TO.N,Net-(J2-Pin_4)*%
X148250000Y-101250000D02*
X149000000Y-102000000D01*
X142750000Y-101250000D02*
X148250000Y-101250000D01*
X149000000Y-104460000D02*
X151040000Y-106500000D01*
X135250000Y-93750000D02*
X142750000Y-101250000D01*
X135250000Y-93000000D02*
X135250000Y-93750000D01*
X149000000Y-102000000D02*
X149000000Y-104460000D01*
%TO.N,Net-(J2-Pin_3)*%
X140500000Y-102250000D02*
X145500000Y-102250000D01*
X145500000Y-102250000D02*
X148500000Y-105250000D01*
X134500000Y-96250000D02*
X140500000Y-102250000D01*
X134250000Y-96250000D02*
X134500000Y-96250000D01*
%TO.N,Net-(J1-Pin_4)*%
X131750000Y-102750000D02*
X134000000Y-105000000D01*
X134000000Y-105000000D02*
X134500000Y-105000000D01*
X131750000Y-97750000D02*
X131750000Y-102750000D01*
X129250000Y-95250000D02*
X131750000Y-97750000D01*
%TO.N,Net-(J1-Pin_2)*%
X129500000Y-98750000D02*
X129500000Y-101750000D01*
X127250000Y-96500000D02*
X129500000Y-98750000D01*
%TO.N,Net-(J1-Pin_1)*%
X126619000Y-100619000D02*
X126619000Y-102500000D01*
X126500000Y-100500000D02*
X126619000Y-100619000D01*
X126920000Y-106500000D02*
X126920000Y-102500000D01*
%TO.N,Net-(J3-Pin_2)*%
X139250000Y-93000000D02*
X139250000Y-94500000D01*
%TO.N,Net-(J3-Pin_1)*%
X138250000Y-93000000D02*
X138250000Y-94250000D01*
%TO.N,Net-(J3-Pin_3)*%
X140500000Y-93250000D02*
X140250000Y-93000000D01*
%TO.N,Net-(J2-Pin_5)*%
X136250000Y-93750000D02*
X136250000Y-93000000D01*
%TD*%
M02*
