%TF.GenerationSoftware,KiCad,Pcbnew,9.0.4*%
%TF.CreationDate,2025-08-25T21:49:36-07:00*%
%TF.ProjectId,Caliper_Clock_Test_Board,43616c69-7065-4725-9f43-6c6f636b5f54,rev?*%
%TF.SameCoordinates,Original*%
%TF.FileFunction,Copper,L1,Top*%
%TF.FilePolarity,Positive*%
%FSLAX46Y46*%
G04 Gerber Fmt 4.6, Leading zero omitted, Abs format (unit mm)*
G04 Created by KiCad (PCBNEW 9.0.4) date 2025-08-25 21:49:36*
%MOMM*%
%LPD*%
G01*
G04 APERTURE LIST*
%TA.AperFunction,ComponentPad*%
%ADD10C,1.700000*%
%TD*%
%TA.AperFunction,ComponentPad*%
%ADD11R,1.700000X1.700000*%
%TD*%
%TA.AperFunction,SMDPad,CuDef*%
%ADD12R,0.500000X1.500000*%
%TD*%
%TA.AperFunction,ViaPad*%
%ADD13C,0.600000*%
%TD*%
%TA.AperFunction,Conductor*%
%ADD14C,0.200000*%
%TD*%
G04 APERTURE END LIST*
D10*
%TO.P,J1,6,Pin_6*%
%TO.N,Net-(J1-Pin_6)*%
X139620000Y-106500000D03*
%TO.P,J1,5,Pin_5*%
%TO.N,Net-(J1-Pin_5)*%
X137080000Y-106500000D03*
%TO.P,J1,4,Pin_4*%
%TO.N,Net-(J1-Pin_4)*%
X134540000Y-106500000D03*
%TO.P,J1,3,Pin_3*%
%TO.N,Net-(J1-Pin_3)*%
X132000000Y-106500000D03*
%TO.P,J1,2,Pin_2*%
%TO.N,Net-(J1-Pin_2)*%
X129460000Y-106500000D03*
D11*
%TO.P,J1,1,Pin_1*%
%TO.N,Net-(J1-Pin_1)*%
X126920000Y-106500000D03*
%TD*%
%TO.P,J2,1,Pin_1*%
%TO.N,Net-(J2-Pin_1)*%
X143420000Y-106500000D03*
D10*
%TO.P,J2,2,Pin_2*%
%TO.N,Net-(J2-Pin_2)*%
X145960000Y-106500000D03*
%TO.P,J2,3,Pin_3*%
%TO.N,Net-(J2-Pin_3)*%
X148500000Y-106500000D03*
%TO.P,J2,4,Pin_4*%
%TO.N,Net-(J2-Pin_4)*%
X151040000Y-106500000D03*
%TO.P,J2,5,Pin_5*%
%TO.N,Net-(J2-Pin_5)*%
X153580000Y-106500000D03*
%TO.P,J2,6,Pin_6*%
%TO.N,Net-(J2-Pin_6)*%
X156120000Y-106500000D03*
%TD*%
D11*
%TO.P,J3,1,Pin_1*%
%TO.N,Net-(J3-Pin_1)*%
X160080000Y-106500000D03*
D10*
%TO.P,J3,2,Pin_2*%
%TO.N,Net-(J3-Pin_2)*%
X162620000Y-106500000D03*
%TO.P,J3,3,Pin_3*%
%TO.N,Net-(J3-Pin_3)*%
X165160000Y-106500000D03*
%TO.P,J3,4,Pin_4*%
%TO.N,unconnected-(J3-Pin_4-Pad4)*%
X167700000Y-106500000D03*
%TO.P,J3,5,Pin_5*%
%TO.N,unconnected-(J3-Pin_5-Pad5)*%
X170240000Y-106500000D03*
%TO.P,J3,6,Pin_6*%
%TO.N,unconnected-(J3-Pin_6-Pad6)*%
X172780000Y-106500000D03*
%TD*%
D12*
%TO.P,TP7,1,1*%
%TO.N,Net-(J2-Pin_1)*%
X132250000Y-91400000D03*
%TD*%
%TO.P,TP3,1,1*%
%TO.N,Net-(J1-Pin_3)*%
X128250000Y-91400000D03*
%TD*%
%TO.P,TP2,1,1*%
%TO.N,Net-(J1-Pin_2)*%
X127250000Y-91400000D03*
%TD*%
%TO.P,TP10,1,1*%
%TO.N,Net-(J2-Pin_4)*%
X135250000Y-91400000D03*
%TD*%
%TO.P,TP5,1,1*%
%TO.N,Net-(J1-Pin_5)*%
X130250000Y-91400000D03*
%TD*%
%TO.P,TP13,1,1*%
%TO.N,Net-(J3-Pin_1)*%
X138250000Y-91400000D03*
%TD*%
%TO.P,TP12,1,1*%
%TO.N,Net-(J2-Pin_6)*%
X137250000Y-91400000D03*
%TD*%
%TO.P,TP14,1,1*%
%TO.N,Net-(J3-Pin_2)*%
X139250000Y-91400000D03*
%TD*%
%TO.P,TP11,1,1*%
%TO.N,Net-(J2-Pin_5)*%
X136250000Y-91400000D03*
%TD*%
%TO.P,TP9,1,1*%
%TO.N,Net-(J2-Pin_3)*%
X134250000Y-91400000D03*
%TD*%
%TO.P,TP1,1,1*%
%TO.N,Net-(J1-Pin_1)*%
X126250000Y-91400000D03*
%TD*%
%TO.P,TP15,1,1*%
%TO.N,Net-(J3-Pin_3)*%
X140250000Y-91400000D03*
%TD*%
%TO.P,TP8,1,1*%
%TO.N,Net-(J2-Pin_2)*%
X133250000Y-91400000D03*
%TD*%
%TO.P,TP4,1,1*%
%TO.N,Net-(J1-Pin_4)*%
X129250000Y-91400000D03*
%TD*%
%TO.P,TP6,1,1*%
%TO.N,Net-(J1-Pin_6)*%
X131250000Y-91400000D03*
%TD*%
D13*
%TO.N,*%
X168250000Y-97500000D03*
X164250000Y-97250000D03*
%TO.N,Net-(J1-Pin_1)*%
X126500000Y-100500000D03*
%TO.N,Net-(J1-Pin_2)*%
X127250000Y-96500000D03*
%TO.N,Net-(J1-Pin_3)*%
X128500000Y-96000000D03*
%TO.N,Net-(J1-Pin_4)*%
X129250000Y-95250000D03*
%TO.N,Net-(J1-Pin_5)*%
X130250000Y-94250000D03*
%TO.N,Net-(J1-Pin_6)*%
X131250000Y-94250000D03*
%TO.N,Net-(J2-Pin_1)*%
X132250000Y-94000000D03*
%TO.N,Net-(J2-Pin_2)*%
X133250000Y-94750000D03*
%TO.N,Net-(J2-Pin_3)*%
X134250000Y-96250000D03*
%TO.N,Net-(J3-Pin_2)*%
X139250000Y-93000000D03*
%TO.N,Net-(J3-Pin_1)*%
X138250000Y-93000000D03*
%TO.N,Net-(J2-Pin_4)*%
X135250000Y-93000000D03*
%TO.N,Net-(J3-Pin_3)*%
X140250000Y-93000000D03*
%TO.N,Net-(J2-Pin_6)*%
X137250000Y-93000000D03*
%TO.N,Net-(J2-Pin_5)*%
X136250000Y-93000000D03*
%TD*%
D14*
%TO.N,Net-(J2-Pin_3)*%
X134250000Y-91400000D02*
X134250000Y-96250000D01*
%TO.N,Net-(J2-Pin_2)*%
X133250000Y-91400000D02*
X133250000Y-94750000D01*
%TO.N,Net-(J2-Pin_1)*%
X132250000Y-91400000D02*
X132250000Y-94000000D01*
%TO.N,Net-(J1-Pin_6)*%
X131250000Y-91400000D02*
X131250000Y-94250000D01*
%TO.N,Net-(J1-Pin_5)*%
X130250000Y-91400000D02*
X130250000Y-94250000D01*
%TO.N,Net-(J1-Pin_4)*%
X129250000Y-91400000D02*
X129250000Y-95250000D01*
%TO.N,Net-(J1-Pin_3)*%
X128250000Y-95750000D02*
X128500000Y-96000000D01*
X128250000Y-91400000D02*
X128250000Y-95750000D01*
%TO.N,Net-(J1-Pin_2)*%
X127250000Y-91400000D02*
X127250000Y-96500000D01*
%TO.N,Net-(J1-Pin_1)*%
X126250000Y-100250000D02*
X126500000Y-100500000D01*
X126250000Y-92725000D02*
X126250000Y-100250000D01*
X126250000Y-91400000D02*
X126250000Y-92725000D01*
%TO.N,Net-(J3-Pin_2)*%
X139250000Y-93000000D02*
X139250000Y-91250000D01*
%TO.N,Net-(J3-Pin_1)*%
X138250000Y-93000000D02*
X138250000Y-91250000D01*
%TO.N,Net-(J2-Pin_4)*%
X135250000Y-91250000D02*
X135250000Y-93000000D01*
%TO.N,Net-(J3-Pin_3)*%
X140250000Y-93000000D02*
X140250000Y-91250000D01*
%TO.N,Net-(J2-Pin_6)*%
X137250000Y-91250000D02*
X137250000Y-93000000D01*
%TO.N,Net-(J2-Pin_5)*%
X136250000Y-91250000D02*
X136250000Y-93000000D01*
%TD*%
M02*
