%TF.GenerationSoftware,KiCad,Pcbnew,9.0.4*%
%TF.CreationDate,2025-10-11T14:21:15-07:00*%
%TF.ProjectId,Caliper_Clock_V2,43616c69-7065-4725-9f43-6c6f636b5f56,rev?*%
%TF.SameCoordinates,Original*%
%TF.FileFunction,Legend,Top*%
%TF.FilePolarity,Positive*%
%FSLAX46Y46*%
G04 Gerber Fmt 4.6, Leading zero omitted, Abs format (unit mm)*
G04 Created by KiCad (PCBNEW 9.0.4) date 2025-10-11 14:21:15*
%MOMM*%
%LPD*%
G01*
G04 APERTURE LIST*
%ADD10C,0.079374*%
%ADD11C,0.100000*%
%ADD12C,0.000000*%
%ADD13C,0.052916*%
%ADD14C,0.150000*%
%ADD15C,0.127000*%
%ADD16C,0.200000*%
%ADD17C,0.120000*%
%ADD18C,0.300000*%
G04 APERTURE END LIST*
D10*
X144474864Y-90755154D02*
X144479228Y-90755472D01*
X144483625Y-90756032D01*
X144488057Y-90756829D01*
X144492524Y-90757860D01*
X144497028Y-90759122D01*
X144501570Y-90760610D01*
X144506152Y-90762323D01*
X144515436Y-90766405D01*
X144524892Y-90771339D01*
X144534527Y-90777099D01*
X144544351Y-90783655D01*
X144548183Y-90786657D01*
X144551743Y-90790093D01*
X144555030Y-90793948D01*
X144558045Y-90798203D01*
X144560788Y-90802841D01*
X144563259Y-90807844D01*
X144567386Y-90818878D01*
X144570428Y-90831164D01*
X144572386Y-90844563D01*
X144573263Y-90858936D01*
X144573058Y-90874143D01*
X144571775Y-90890044D01*
X144569414Y-90906500D01*
X144565977Y-90923372D01*
X144561466Y-90940520D01*
X144555882Y-90957804D01*
X144549227Y-90975085D01*
X144541502Y-90992224D01*
X144532709Y-91009080D01*
X144524836Y-91022649D01*
X144517101Y-91035576D01*
X144509518Y-91047864D01*
X144502100Y-91059516D01*
X144494863Y-91070536D01*
X144487819Y-91080927D01*
X144480983Y-91090691D01*
X144474369Y-91099832D01*
X144467990Y-91108353D01*
X144461861Y-91116257D01*
X144455995Y-91123547D01*
X144450407Y-91130226D01*
X144445111Y-91136298D01*
X144440120Y-91141765D01*
X144435448Y-91146630D01*
X144431109Y-91150897D01*
X144420032Y-91160782D01*
X144404204Y-91174015D01*
X144383540Y-91189778D01*
X144371367Y-91198353D01*
X144357952Y-91207253D01*
X144343284Y-91216377D01*
X144327353Y-91225621D01*
X144310148Y-91234884D01*
X144291657Y-91244063D01*
X144271871Y-91253057D01*
X144250777Y-91261761D01*
X144228366Y-91270076D01*
X144204626Y-91277897D01*
X144162712Y-91290233D01*
X144142530Y-91295645D01*
X144122919Y-91300387D01*
X144103923Y-91304335D01*
X144085582Y-91307365D01*
X144067939Y-91309353D01*
X144059392Y-91309918D01*
X144051035Y-91310176D01*
X144042874Y-91310112D01*
X144034913Y-91309709D01*
X144027158Y-91308953D01*
X144019614Y-91307828D01*
X144012286Y-91306318D01*
X144005180Y-91304409D01*
X143998300Y-91302084D01*
X143991653Y-91299328D01*
X143985242Y-91296126D01*
X143979075Y-91292461D01*
X143973154Y-91288320D01*
X143967487Y-91283685D01*
X143962078Y-91278541D01*
X143956932Y-91272874D01*
X143952054Y-91266667D01*
X143947451Y-91259905D01*
X143942634Y-91251754D01*
X143938186Y-91242869D01*
X143934228Y-91233381D01*
X143930881Y-91223426D01*
X143929475Y-91218314D01*
X143928266Y-91213135D01*
X143927271Y-91207906D01*
X143926503Y-91202644D01*
X143925980Y-91197364D01*
X143925714Y-91192084D01*
X143925723Y-91186820D01*
X143926020Y-91181589D01*
X143926621Y-91176407D01*
X143927541Y-91171292D01*
X143928794Y-91166260D01*
X143930398Y-91161327D01*
X143932365Y-91156511D01*
X143934712Y-91151828D01*
X143937454Y-91147294D01*
X143940605Y-91142926D01*
X143944181Y-91138742D01*
X143948197Y-91134757D01*
X143952667Y-91130988D01*
X143957608Y-91127452D01*
X143963035Y-91124166D01*
X143968961Y-91121146D01*
X143975403Y-91118409D01*
X143982376Y-91115972D01*
X144049745Y-91094195D01*
X144078203Y-91084799D01*
X144103621Y-91076102D01*
X144126336Y-91067883D01*
X144146682Y-91059920D01*
X144164994Y-91051990D01*
X144173492Y-91047969D01*
X144181607Y-91043873D01*
X144189381Y-91039675D01*
X144196856Y-91035347D01*
X144204073Y-91030861D01*
X144211075Y-91026189D01*
X144217903Y-91021305D01*
X144224600Y-91016179D01*
X144231206Y-91010785D01*
X144237765Y-91005095D01*
X144244317Y-90999081D01*
X144250905Y-90992715D01*
X144264356Y-90978817D01*
X144278451Y-90963179D01*
X144293526Y-90945580D01*
X144304006Y-90932718D01*
X144313320Y-90920664D01*
X144321617Y-90909336D01*
X144329046Y-90898650D01*
X144335756Y-90888522D01*
X144341895Y-90878868D01*
X144353057Y-90860649D01*
X144363723Y-90843323D01*
X144369242Y-90834785D01*
X144375084Y-90826220D01*
X144381397Y-90817543D01*
X144388329Y-90808671D01*
X144396031Y-90799519D01*
X144404651Y-90790005D01*
X144408626Y-90785691D01*
X144412615Y-90781678D01*
X144416618Y-90777962D01*
X144420638Y-90774539D01*
X144424674Y-90771406D01*
X144428729Y-90768560D01*
X144432803Y-90765996D01*
X144436897Y-90763712D01*
X144441013Y-90761704D01*
X144445152Y-90759968D01*
X144449316Y-90758501D01*
X144453504Y-90757300D01*
X144457719Y-90756361D01*
X144461961Y-90755680D01*
X144466232Y-90755254D01*
X144470532Y-90755080D01*
X144474864Y-90755154D01*
D11*
X143604948Y-87859216D02*
X143615012Y-87859650D01*
X143625062Y-87860353D01*
X143635097Y-87861323D01*
X143645115Y-87862556D01*
X143655114Y-87864050D01*
X143665093Y-87865802D01*
X143675050Y-87867807D01*
X143684984Y-87870064D01*
X143718410Y-87879745D01*
X143751582Y-87892232D01*
X143784451Y-87907401D01*
X143816970Y-87925124D01*
X143849088Y-87945276D01*
X143880758Y-87967730D01*
X143942556Y-88019041D01*
X144001972Y-88078047D01*
X144058617Y-88143740D01*
X144112099Y-88215110D01*
X144162028Y-88291148D01*
X144208013Y-88370845D01*
X144249663Y-88453191D01*
X144286588Y-88537177D01*
X144318397Y-88621795D01*
X144344699Y-88706034D01*
X144365104Y-88788885D01*
X144379221Y-88869340D01*
X144386660Y-88946389D01*
X144393541Y-89110312D01*
X144397061Y-89255075D01*
X144397729Y-89382846D01*
X144396052Y-89495796D01*
X144392540Y-89596096D01*
X144387702Y-89685916D01*
X144376076Y-89842797D01*
X144375823Y-89850999D01*
X144376232Y-89858928D01*
X144377271Y-89866571D01*
X144378908Y-89873914D01*
X144381111Y-89880947D01*
X144383848Y-89887655D01*
X144387086Y-89894025D01*
X144390794Y-89900046D01*
X144394939Y-89905704D01*
X144399488Y-89910987D01*
X144404411Y-89915881D01*
X144409674Y-89920374D01*
X144415246Y-89924453D01*
X144421094Y-89928105D01*
X144427187Y-89931318D01*
X144433491Y-89934078D01*
X144439975Y-89936374D01*
X144446607Y-89938191D01*
X144453354Y-89939518D01*
X144460185Y-89940341D01*
X144467067Y-89940649D01*
X144473968Y-89940427D01*
X144480855Y-89939663D01*
X144487697Y-89938345D01*
X144494462Y-89936459D01*
X144501117Y-89933993D01*
X144507630Y-89930934D01*
X144513970Y-89927269D01*
X144520103Y-89922986D01*
X144525997Y-89918071D01*
X144531622Y-89912513D01*
X144536943Y-89906297D01*
X144604354Y-89822738D01*
X144678958Y-89736699D01*
X144719779Y-89692904D01*
X144763385Y-89648675D01*
X144810104Y-89604075D01*
X144860264Y-89559164D01*
X144914194Y-89514005D01*
X144972224Y-89468660D01*
X145034681Y-89423191D01*
X145101895Y-89377659D01*
X145174193Y-89332128D01*
X145251905Y-89286659D01*
X145335359Y-89241314D01*
X145424885Y-89196155D01*
X145484974Y-89168073D01*
X145543027Y-89143285D01*
X145599081Y-89121680D01*
X145653171Y-89103146D01*
X145705331Y-89087573D01*
X145755599Y-89074851D01*
X145804010Y-89064868D01*
X145850599Y-89057514D01*
X145895402Y-89052677D01*
X145938455Y-89050247D01*
X145979794Y-89050113D01*
X146019453Y-89052164D01*
X146057469Y-89056290D01*
X146093877Y-89062378D01*
X146128714Y-89070320D01*
X146162014Y-89080003D01*
X146193813Y-89091317D01*
X146224147Y-89104152D01*
X146253052Y-89118395D01*
X146280564Y-89133937D01*
X146306717Y-89150666D01*
X146331547Y-89168472D01*
X146355092Y-89187244D01*
X146377384Y-89206871D01*
X146398462Y-89227242D01*
X146418360Y-89248246D01*
X146437113Y-89269773D01*
X146454758Y-89291711D01*
X146486866Y-89336379D01*
X146514968Y-89381364D01*
X146529517Y-89408219D01*
X146542415Y-89435770D01*
X146553669Y-89463968D01*
X146563291Y-89492763D01*
X146571290Y-89522109D01*
X146577675Y-89551955D01*
X146582457Y-89582254D01*
X146585645Y-89612957D01*
X146587248Y-89644014D01*
X146587276Y-89675378D01*
X146585739Y-89706999D01*
X146582647Y-89738830D01*
X146578010Y-89770821D01*
X146571836Y-89802924D01*
X146564136Y-89835090D01*
X146554920Y-89867271D01*
X146544197Y-89899417D01*
X146531976Y-89931481D01*
X146518268Y-89963414D01*
X146503082Y-89995166D01*
X146486428Y-90026690D01*
X146468316Y-90057936D01*
X146448755Y-90088856D01*
X146427755Y-90119402D01*
X146405325Y-90149525D01*
X146381476Y-90179176D01*
X146356217Y-90208306D01*
X146329557Y-90236867D01*
X146301507Y-90264810D01*
X146272076Y-90292087D01*
X146241273Y-90318649D01*
X146209109Y-90344447D01*
X146135972Y-90399683D01*
X146064196Y-90451570D01*
X145993779Y-90500233D01*
X145924716Y-90545795D01*
X145857005Y-90588380D01*
X145790642Y-90628113D01*
X145725625Y-90665118D01*
X145661951Y-90699518D01*
X145599617Y-90731437D01*
X145538618Y-90761000D01*
X145478953Y-90788331D01*
X145420618Y-90813553D01*
X145363610Y-90836791D01*
X145307926Y-90858169D01*
X145200518Y-90895839D01*
X145195433Y-90897798D01*
X145190694Y-90900087D01*
X145186300Y-90902685D01*
X145182249Y-90905568D01*
X145178542Y-90908714D01*
X145175175Y-90912100D01*
X145172149Y-90915704D01*
X145169463Y-90919502D01*
X145167114Y-90923473D01*
X145165102Y-90927593D01*
X145163425Y-90931839D01*
X145162083Y-90936190D01*
X145161074Y-90940622D01*
X145160398Y-90945112D01*
X145160052Y-90949639D01*
X145160037Y-90954179D01*
X145160350Y-90958710D01*
X145160990Y-90963209D01*
X145161957Y-90967653D01*
X145163249Y-90972020D01*
X145164865Y-90976287D01*
X145166804Y-90980431D01*
X145169064Y-90984430D01*
X145171645Y-90988261D01*
X145174546Y-90991901D01*
X145177764Y-90995328D01*
X145181300Y-90998519D01*
X145185151Y-91001451D01*
X145189318Y-91004102D01*
X145193797Y-91006448D01*
X145198590Y-91008468D01*
X145203693Y-91010139D01*
X145275742Y-91031815D01*
X145341638Y-91053723D01*
X145402223Y-91076067D01*
X145458338Y-91099055D01*
X145510825Y-91122893D01*
X145560527Y-91147786D01*
X145608284Y-91173942D01*
X145654940Y-91201565D01*
X145701334Y-91230863D01*
X145748311Y-91262041D01*
X145847374Y-91330863D01*
X145958865Y-91409682D01*
X146089518Y-91500147D01*
X146137714Y-91534380D01*
X146183858Y-91570128D01*
X146227916Y-91607276D01*
X146269858Y-91645707D01*
X146309653Y-91685307D01*
X146347267Y-91725959D01*
X146382671Y-91767548D01*
X146415832Y-91809957D01*
X146446719Y-91853073D01*
X146475299Y-91896778D01*
X146501543Y-91940957D01*
X146525417Y-91985494D01*
X146546891Y-92030274D01*
X146565932Y-92075181D01*
X146582510Y-92120099D01*
X146596592Y-92164913D01*
X146608147Y-92209506D01*
X146617144Y-92253764D01*
X146623550Y-92297570D01*
X146627335Y-92340809D01*
X146628467Y-92383365D01*
X146626913Y-92425122D01*
X146622643Y-92465965D01*
X146615625Y-92505779D01*
X146605828Y-92544446D01*
X146593219Y-92581852D01*
X146577767Y-92617881D01*
X146559441Y-92652418D01*
X146538208Y-92685346D01*
X146514038Y-92716549D01*
X146486899Y-92745913D01*
X146456760Y-92773322D01*
X146420851Y-92799593D01*
X146382331Y-92821019D01*
X146341419Y-92837839D01*
X146298338Y-92850295D01*
X146253309Y-92858625D01*
X146206554Y-92863070D01*
X146158294Y-92863869D01*
X146108750Y-92861263D01*
X146058144Y-92855491D01*
X146006698Y-92846793D01*
X145954633Y-92835409D01*
X145902170Y-92821579D01*
X145796939Y-92787542D01*
X145692775Y-92746599D01*
X145591452Y-92700670D01*
X145494741Y-92651676D01*
X145404414Y-92601533D01*
X145322243Y-92552163D01*
X145250000Y-92505484D01*
X145189457Y-92463416D01*
X145142386Y-92427878D01*
X145110559Y-92400789D01*
X144991270Y-92287605D01*
X144889467Y-92189849D01*
X144803490Y-92105885D01*
X144731676Y-92034076D01*
X144672364Y-91972783D01*
X144623892Y-91920371D01*
X144603201Y-91896983D01*
X144584597Y-91875202D01*
X144567872Y-91854822D01*
X144552818Y-91835638D01*
X144549649Y-91831837D01*
X144546303Y-91828366D01*
X144542797Y-91825222D01*
X144539146Y-91822403D01*
X144535367Y-91819904D01*
X144531475Y-91817721D01*
X144527486Y-91815851D01*
X144523416Y-91814290D01*
X144519281Y-91813034D01*
X144515097Y-91812080D01*
X144510879Y-91811425D01*
X144506644Y-91811063D01*
X144502407Y-91810992D01*
X144498185Y-91811209D01*
X144493993Y-91811708D01*
X144489847Y-91812487D01*
X144485763Y-91813542D01*
X144481757Y-91814870D01*
X144477845Y-91816466D01*
X144474042Y-91818327D01*
X144470365Y-91820449D01*
X144466830Y-91822828D01*
X144463452Y-91825462D01*
X144460247Y-91828346D01*
X144457231Y-91831476D01*
X144454420Y-91834849D01*
X144451830Y-91838461D01*
X144449477Y-91842309D01*
X144447377Y-91846388D01*
X144445545Y-91850696D01*
X144443998Y-91855227D01*
X144442751Y-91859980D01*
X144430511Y-91909087D01*
X144415226Y-91961429D01*
X144396903Y-92016819D01*
X144375547Y-92075070D01*
X144351165Y-92135993D01*
X144323763Y-92199401D01*
X144293347Y-92265107D01*
X144259924Y-92332923D01*
X144223499Y-92402661D01*
X144184080Y-92474134D01*
X144141671Y-92547154D01*
X144096279Y-92621534D01*
X144047911Y-92697086D01*
X143996573Y-92773622D01*
X143942270Y-92850955D01*
X143885010Y-92928897D01*
X143835697Y-92990681D01*
X143782163Y-93050653D01*
X143724924Y-93108265D01*
X143664496Y-93162970D01*
X143601395Y-93214222D01*
X143536138Y-93261472D01*
X143469240Y-93304173D01*
X143401219Y-93341779D01*
X143332590Y-93373742D01*
X143263869Y-93399514D01*
X143229636Y-93409908D01*
X143195573Y-93418549D01*
X143161746Y-93425369D01*
X143128219Y-93430299D01*
X143095055Y-93433271D01*
X143062321Y-93434217D01*
X143030080Y-93433068D01*
X142998397Y-93429755D01*
X142967336Y-93424211D01*
X142936963Y-93416367D01*
X142907341Y-93406155D01*
X142878535Y-93393505D01*
X142849024Y-93377319D01*
X142821206Y-93358594D01*
X142795066Y-93337435D01*
X142770591Y-93313944D01*
X142747768Y-93288226D01*
X142726583Y-93260383D01*
X142707024Y-93230520D01*
X142689076Y-93198739D01*
X142657963Y-93129839D01*
X142633136Y-93054512D01*
X142614488Y-92973585D01*
X142601913Y-92887887D01*
X142595303Y-92798244D01*
X142594552Y-92705485D01*
X142599552Y-92610438D01*
X142610197Y-92513931D01*
X142626380Y-92416791D01*
X142647994Y-92319847D01*
X142674931Y-92223926D01*
X142707085Y-92129855D01*
X142734979Y-92059451D01*
X142764545Y-91992619D01*
X142795568Y-91929235D01*
X142827834Y-91869175D01*
X142861129Y-91812314D01*
X142895240Y-91758529D01*
X142929953Y-91707696D01*
X142965053Y-91659691D01*
X143000327Y-91614389D01*
X143035561Y-91571667D01*
X143070540Y-91531401D01*
X143105051Y-91493466D01*
X143138880Y-91457739D01*
X143171813Y-91424096D01*
X143234134Y-91362564D01*
X143237296Y-91359320D01*
X143240041Y-91355953D01*
X143242382Y-91352478D01*
X143244329Y-91348915D01*
X143245895Y-91345281D01*
X143247092Y-91341595D01*
X143247930Y-91337875D01*
X143248422Y-91334138D01*
X143248579Y-91330402D01*
X143248413Y-91326686D01*
X143247935Y-91323008D01*
X143247157Y-91319385D01*
X143246091Y-91315836D01*
X143244748Y-91312378D01*
X143243140Y-91309031D01*
X143241278Y-91305811D01*
X143239175Y-91302736D01*
X143236841Y-91299826D01*
X143234289Y-91297097D01*
X143231530Y-91294568D01*
X143228575Y-91292257D01*
X143225437Y-91290181D01*
X143222127Y-91288360D01*
X143218656Y-91286810D01*
X143215037Y-91285550D01*
X143211280Y-91284599D01*
X143207398Y-91283973D01*
X143203401Y-91283691D01*
X143199303Y-91283771D01*
X143195113Y-91284231D01*
X143190845Y-91285089D01*
X143186509Y-91286364D01*
X143060336Y-91332517D01*
X142993814Y-91355885D01*
X142922455Y-91378571D01*
X142844349Y-91399918D01*
X142802170Y-91409883D01*
X142757587Y-91419267D01*
X142710362Y-91427988D01*
X142660257Y-91435963D01*
X142607033Y-91443110D01*
X142550451Y-91449347D01*
X142492531Y-91454436D01*
X142435098Y-91458001D01*
X142378220Y-91460047D01*
X142321963Y-91460584D01*
X142266392Y-91459616D01*
X142211574Y-91457151D01*
X142157576Y-91453197D01*
X142104463Y-91447759D01*
X142052302Y-91440846D01*
X142001159Y-91432464D01*
X141951101Y-91422620D01*
X141902193Y-91411321D01*
X141854502Y-91398575D01*
X141808095Y-91384387D01*
X141763037Y-91368765D01*
X141719395Y-91351716D01*
X141677235Y-91333247D01*
X141636623Y-91313365D01*
X141597626Y-91292076D01*
X141560310Y-91269389D01*
X141524741Y-91245310D01*
X141490986Y-91219845D01*
X141459110Y-91193002D01*
X141429180Y-91164788D01*
X141401263Y-91135209D01*
X141375424Y-91104274D01*
X141351730Y-91071988D01*
X141330247Y-91038358D01*
X141311041Y-91003393D01*
X141294179Y-90967098D01*
X141279727Y-90929480D01*
X141267751Y-90890547D01*
X141262725Y-90868531D01*
X141259488Y-90846369D01*
X141257947Y-90824104D01*
X141258005Y-90801784D01*
X141259568Y-90779452D01*
X141262540Y-90757155D01*
X141266826Y-90734938D01*
X141272332Y-90712846D01*
X141278961Y-90690925D01*
X141286619Y-90669220D01*
X141295211Y-90647775D01*
X141304642Y-90626638D01*
X141314816Y-90605852D01*
X141325638Y-90585463D01*
X141337013Y-90565518D01*
X141348846Y-90546060D01*
X141373505Y-90508789D01*
X141398854Y-90474014D01*
X141424132Y-90442099D01*
X141448577Y-90413404D01*
X141471429Y-90388294D01*
X141491926Y-90367131D01*
X141509306Y-90350278D01*
X141522809Y-90338097D01*
X141566853Y-90305005D01*
X141618382Y-90274773D01*
X141676744Y-90247384D01*
X141741289Y-90222821D01*
X141811365Y-90201068D01*
X141886322Y-90182107D01*
X141965508Y-90165920D01*
X142048272Y-90152492D01*
X142133963Y-90141804D01*
X142221929Y-90133841D01*
X142311521Y-90128584D01*
X142402086Y-90126017D01*
X142492973Y-90126123D01*
X142583532Y-90128884D01*
X142673111Y-90134284D01*
X142761059Y-90142305D01*
X143063743Y-90173394D01*
X143103385Y-90178531D01*
X143143548Y-90185019D01*
X143191698Y-90194063D01*
X143255301Y-90206864D01*
X143262180Y-90208584D01*
X143270482Y-90210882D01*
X143275761Y-90212435D01*
X143281759Y-90214272D01*
X143292018Y-90216901D01*
X143302141Y-90218657D01*
X143312103Y-90219574D01*
X143321881Y-90219684D01*
X143331449Y-90219020D01*
X143340784Y-90217616D01*
X143349860Y-90215504D01*
X143358654Y-90212718D01*
X143367141Y-90209289D01*
X143375296Y-90205252D01*
X143383096Y-90200639D01*
X143390515Y-90195483D01*
X143397530Y-90189816D01*
X143404116Y-90183673D01*
X143410249Y-90177085D01*
X143415903Y-90170087D01*
X143421055Y-90162710D01*
X143425681Y-90154987D01*
X143429755Y-90146953D01*
X143433254Y-90138639D01*
X143436153Y-90130078D01*
X143438427Y-90121304D01*
X143440053Y-90112349D01*
X143441005Y-90103246D01*
X143441260Y-90094029D01*
X143440793Y-90084730D01*
X143439579Y-90075382D01*
X143437595Y-90066019D01*
X143434815Y-90056672D01*
X143431215Y-90047375D01*
X143426772Y-90038162D01*
X143421459Y-90029064D01*
X143355028Y-89919460D01*
X143286886Y-89796561D01*
X143253002Y-89730281D01*
X143219686Y-89660863D01*
X143187269Y-89588369D01*
X143156082Y-89512862D01*
X143126459Y-89434403D01*
X143098730Y-89353054D01*
X143073227Y-89268877D01*
X143050282Y-89181934D01*
X143030227Y-89092288D01*
X143013393Y-89000000D01*
X143000113Y-88905133D01*
X142990718Y-88807747D01*
X142986348Y-88724220D01*
X142986073Y-88642172D01*
X142990092Y-88561990D01*
X142993774Y-88522720D01*
X142998605Y-88484063D01*
X143004610Y-88446065D01*
X143011813Y-88408777D01*
X143020240Y-88372246D01*
X143029915Y-88336520D01*
X143040864Y-88301649D01*
X143053111Y-88267681D01*
X143066682Y-88234663D01*
X143081602Y-88202645D01*
X143097895Y-88171675D01*
X143115587Y-88141802D01*
X143134702Y-88113073D01*
X143155266Y-88085538D01*
X143177303Y-88059245D01*
X143200839Y-88034242D01*
X143225898Y-88010577D01*
X143252506Y-87988300D01*
X143280688Y-87967458D01*
X143310468Y-87948100D01*
X143341871Y-87930275D01*
X143374924Y-87914030D01*
X143409649Y-87899415D01*
X143446074Y-87886478D01*
X143484221Y-87875267D01*
X143524118Y-87865831D01*
X143534238Y-87863995D01*
X143544356Y-87862453D01*
X143554472Y-87861203D01*
X143564582Y-87860241D01*
X143574687Y-87859565D01*
X143584784Y-87859171D01*
X143594871Y-87859055D01*
X143604948Y-87859216D01*
D12*
G36*
X144338542Y-90557245D02*
G01*
X144339996Y-90557326D01*
X144341430Y-90557481D01*
X144342842Y-90557709D01*
X144344232Y-90558007D01*
X144345597Y-90558375D01*
X144346935Y-90558810D01*
X144348245Y-90559310D01*
X144349524Y-90559874D01*
X144350771Y-90560499D01*
X144351984Y-90561184D01*
X144353161Y-90561928D01*
X144354300Y-90562728D01*
X144355400Y-90563582D01*
X144356458Y-90564489D01*
X144357473Y-90565447D01*
X144358443Y-90566454D01*
X144359366Y-90567508D01*
X144360240Y-90568607D01*
X144361063Y-90569750D01*
X144361834Y-90570934D01*
X144362551Y-90572159D01*
X144363212Y-90573422D01*
X144363814Y-90574721D01*
X144364357Y-90576054D01*
X144364839Y-90577420D01*
X144365256Y-90578817D01*
X144365609Y-90580243D01*
X144365894Y-90581696D01*
X144366110Y-90583174D01*
X144366255Y-90584676D01*
X144366328Y-90586199D01*
X144366326Y-90587725D01*
X144366251Y-90589232D01*
X144366104Y-90590719D01*
X144365887Y-90592183D01*
X144365601Y-90593624D01*
X144365249Y-90595039D01*
X144364832Y-90596426D01*
X144364352Y-90597783D01*
X144363810Y-90599109D01*
X144363209Y-90600401D01*
X144362550Y-90601657D01*
X144361835Y-90602876D01*
X144361066Y-90604057D01*
X144360244Y-90605195D01*
X144359371Y-90606291D01*
X144358449Y-90607342D01*
X144357480Y-90608346D01*
X144356465Y-90609301D01*
X144355407Y-90610206D01*
X144354306Y-90611058D01*
X144353165Y-90611856D01*
X144351985Y-90612597D01*
X144350769Y-90613280D01*
X144349517Y-90613903D01*
X144348232Y-90614463D01*
X144346916Y-90614960D01*
X144345570Y-90615391D01*
X144344195Y-90615754D01*
X144342795Y-90616047D01*
X144341369Y-90616269D01*
X144339921Y-90616417D01*
X144338452Y-90616490D01*
X144336981Y-90616486D01*
X144335528Y-90616405D01*
X144334094Y-90616250D01*
X144332681Y-90616022D01*
X144331291Y-90615724D01*
X144329926Y-90615356D01*
X144328588Y-90614921D01*
X144327278Y-90614421D01*
X144325999Y-90613857D01*
X144324752Y-90613232D01*
X144323539Y-90612546D01*
X144322362Y-90611803D01*
X144321223Y-90611003D01*
X144320123Y-90610149D01*
X144319065Y-90609242D01*
X144318050Y-90608284D01*
X144317080Y-90607277D01*
X144316158Y-90606223D01*
X144315283Y-90605124D01*
X144314460Y-90603981D01*
X144313689Y-90602796D01*
X144312972Y-90601572D01*
X144312311Y-90600309D01*
X144311709Y-90599010D01*
X144311166Y-90597677D01*
X144310685Y-90596311D01*
X144310267Y-90594914D01*
X144309915Y-90593488D01*
X144309630Y-90592035D01*
X144309413Y-90590557D01*
X144309268Y-90589055D01*
X144309195Y-90587531D01*
X144309197Y-90586006D01*
X144309272Y-90584499D01*
X144309419Y-90583012D01*
X144309636Y-90581547D01*
X144309922Y-90580107D01*
X144310274Y-90578692D01*
X144310691Y-90577305D01*
X144311171Y-90575948D01*
X144311713Y-90574622D01*
X144312314Y-90573330D01*
X144312973Y-90572073D01*
X144313688Y-90570854D01*
X144314457Y-90569674D01*
X144315279Y-90568535D01*
X144316152Y-90567439D01*
X144317074Y-90566388D01*
X144318043Y-90565384D01*
X144319058Y-90564429D01*
X144320117Y-90563525D01*
X144321217Y-90562672D01*
X144322358Y-90561875D01*
X144323538Y-90561134D01*
X144324755Y-90560451D01*
X144326006Y-90559828D01*
X144327291Y-90559267D01*
X144328607Y-90558771D01*
X144329954Y-90558340D01*
X144331328Y-90557977D01*
X144332729Y-90557684D01*
X144334154Y-90557462D01*
X144335602Y-90557314D01*
X144337071Y-90557241D01*
X144338542Y-90557245D01*
G37*
D11*
X144165423Y-90215645D02*
X144200248Y-90217487D01*
X144234608Y-90221055D01*
X144268459Y-90226308D01*
X144301756Y-90233203D01*
X144334456Y-90241699D01*
X144366514Y-90251753D01*
X144397886Y-90263323D01*
X144428529Y-90276367D01*
X144458398Y-90290843D01*
X144487450Y-90306709D01*
X144515640Y-90323922D01*
X144542924Y-90342441D01*
X144569259Y-90362222D01*
X144594600Y-90383225D01*
X144618903Y-90405407D01*
X144642125Y-90428726D01*
X144664221Y-90453139D01*
X144685147Y-90478605D01*
X144704860Y-90505082D01*
X144723315Y-90532526D01*
X144740468Y-90560897D01*
X144756275Y-90590152D01*
X144770692Y-90620248D01*
X144783676Y-90651145D01*
X144795181Y-90682799D01*
X144805165Y-90715168D01*
X144813583Y-90748210D01*
X144820391Y-90781884D01*
X144825545Y-90816147D01*
X144829002Y-90850956D01*
X144830716Y-90886271D01*
X144830649Y-90921626D01*
X144828818Y-90956559D01*
X144825266Y-90991025D01*
X144820034Y-91024979D01*
X144813164Y-91058378D01*
X144804700Y-91091177D01*
X144794681Y-91123333D01*
X144783151Y-91154801D01*
X144770152Y-91185536D01*
X144755724Y-91215496D01*
X144739912Y-91244635D01*
X144722756Y-91272909D01*
X144704298Y-91300275D01*
X144684581Y-91326689D01*
X144663646Y-91352105D01*
X144641536Y-91376480D01*
X144618293Y-91399770D01*
X144593958Y-91421931D01*
X144568573Y-91442918D01*
X144542181Y-91462688D01*
X144514823Y-91481196D01*
X144486543Y-91498398D01*
X144457380Y-91514249D01*
X144427378Y-91528707D01*
X144396579Y-91541726D01*
X144365024Y-91553263D01*
X144332756Y-91563273D01*
X144299816Y-91571712D01*
X144266247Y-91578536D01*
X144232091Y-91583701D01*
X144197389Y-91587163D01*
X144162184Y-91588878D01*
X144126937Y-91588805D01*
X144092111Y-91586964D01*
X144057751Y-91583396D01*
X144023900Y-91578143D01*
X143990603Y-91571247D01*
X143957904Y-91562751D01*
X143925846Y-91552697D01*
X143894474Y-91541127D01*
X143863831Y-91528083D01*
X143833961Y-91513607D01*
X143804910Y-91497742D01*
X143776720Y-91480529D01*
X143749435Y-91462010D01*
X143723100Y-91442228D01*
X143697759Y-91421225D01*
X143673456Y-91399043D01*
X143650234Y-91375725D01*
X143628138Y-91351311D01*
X143607212Y-91325845D01*
X143587499Y-91299369D01*
X143569045Y-91271924D01*
X143551892Y-91243554D01*
X143536085Y-91214299D01*
X143521667Y-91184202D01*
X143508684Y-91153306D01*
X143497178Y-91121652D01*
X143487194Y-91089283D01*
X143478776Y-91056240D01*
X143471968Y-91022566D01*
X143466814Y-90988304D01*
X143463358Y-90953494D01*
X143461644Y-90918180D01*
X143461711Y-90882824D01*
X143463541Y-90847891D01*
X143467094Y-90813426D01*
X143472326Y-90779471D01*
X143479195Y-90746072D01*
X143487660Y-90713273D01*
X143497678Y-90681118D01*
X143509208Y-90649650D01*
X143522208Y-90618914D01*
X143536635Y-90588955D01*
X143552448Y-90559816D01*
X143569604Y-90531541D01*
X143588061Y-90504175D01*
X143607778Y-90477762D01*
X143628713Y-90452346D01*
X143650823Y-90427970D01*
X143674067Y-90404680D01*
X143698402Y-90382519D01*
X143723786Y-90361532D01*
X143750178Y-90341763D01*
X143777536Y-90323255D01*
X143805817Y-90306053D01*
X143834979Y-90290201D01*
X143864981Y-90275744D01*
X143895781Y-90262725D01*
X143927335Y-90251188D01*
X143959603Y-90241178D01*
X143992543Y-90232739D01*
X144026112Y-90225914D01*
X144060269Y-90220749D01*
X144094971Y-90217287D01*
X144130176Y-90215573D01*
X144165423Y-90215645D01*
D12*
G36*
X143796533Y-90951967D02*
G01*
X143798000Y-90952077D01*
X143799450Y-90952257D01*
X143800882Y-90952507D01*
X143802293Y-90952824D01*
X143803681Y-90953207D01*
X143805043Y-90953654D01*
X143806378Y-90954163D01*
X143807684Y-90954732D01*
X143808958Y-90955361D01*
X143810199Y-90956046D01*
X143811403Y-90956786D01*
X143812570Y-90957580D01*
X143813697Y-90958426D01*
X143814781Y-90959321D01*
X143815821Y-90960265D01*
X143816814Y-90961255D01*
X143817759Y-90962290D01*
X143818653Y-90963369D01*
X143819494Y-90964488D01*
X143820280Y-90965647D01*
X143821009Y-90966844D01*
X143821678Y-90968076D01*
X143822286Y-90969343D01*
X143822831Y-90970643D01*
X143823310Y-90971973D01*
X143823721Y-90973333D01*
X143824062Y-90974720D01*
X143824331Y-90976132D01*
X143824526Y-90977568D01*
X143824644Y-90979027D01*
X143824684Y-90980505D01*
X143824647Y-90981987D01*
X143824538Y-90983454D01*
X143824357Y-90984905D01*
X143824108Y-90986337D01*
X143823790Y-90987747D01*
X143823408Y-90989135D01*
X143822961Y-90990498D01*
X143822452Y-90991833D01*
X143821882Y-90993139D01*
X143821254Y-90994413D01*
X143820569Y-90995653D01*
X143819829Y-90996858D01*
X143819035Y-90998024D01*
X143818189Y-90999151D01*
X143817294Y-91000235D01*
X143816350Y-91001275D01*
X143815360Y-91002269D01*
X143814324Y-91003213D01*
X143813246Y-91004107D01*
X143812127Y-91004948D01*
X143810968Y-91005734D01*
X143809771Y-91006463D01*
X143808538Y-91007133D01*
X143807271Y-91007741D01*
X143805972Y-91008286D01*
X143804641Y-91008764D01*
X143803282Y-91009175D01*
X143801895Y-91009517D01*
X143800482Y-91009786D01*
X143799046Y-91009980D01*
X143797588Y-91010099D01*
X143796109Y-91010139D01*
X143794627Y-91010102D01*
X143793160Y-91009992D01*
X143791710Y-91009812D01*
X143790278Y-91009562D01*
X143788867Y-91009245D01*
X143787480Y-91008862D01*
X143786117Y-91008415D01*
X143784782Y-91007906D01*
X143783476Y-91007337D01*
X143782202Y-91006709D01*
X143780961Y-91006024D01*
X143779757Y-91005283D01*
X143778590Y-91004489D01*
X143777464Y-91003644D01*
X143776379Y-91002748D01*
X143775339Y-91001804D01*
X143774346Y-91000814D01*
X143773401Y-90999779D01*
X143772507Y-90998701D01*
X143771666Y-90997581D01*
X143770880Y-90996422D01*
X143770151Y-90995226D01*
X143769482Y-90993993D01*
X143768874Y-90992726D01*
X143768329Y-90991426D01*
X143767850Y-90990096D01*
X143767439Y-90988736D01*
X143767098Y-90987349D01*
X143766829Y-90985937D01*
X143766634Y-90984501D01*
X143766516Y-90983042D01*
X143766476Y-90981564D01*
X143766513Y-90980082D01*
X143766622Y-90978615D01*
X143766803Y-90977164D01*
X143767053Y-90975733D01*
X143767370Y-90974322D01*
X143767753Y-90972934D01*
X143768199Y-90971571D01*
X143768708Y-90970236D01*
X143769278Y-90968930D01*
X143769906Y-90967656D01*
X143770591Y-90966416D01*
X143771331Y-90965211D01*
X143772125Y-90964045D01*
X143772971Y-90962918D01*
X143773866Y-90961834D01*
X143774810Y-90960794D01*
X143775801Y-90959801D01*
X143776836Y-90958856D01*
X143777914Y-90957962D01*
X143779033Y-90957121D01*
X143780192Y-90956335D01*
X143781389Y-90955606D01*
X143782622Y-90954936D01*
X143783889Y-90954328D01*
X143785188Y-90953784D01*
X143786519Y-90953305D01*
X143787878Y-90952894D01*
X143789265Y-90952552D01*
X143790678Y-90952283D01*
X143792114Y-90952089D01*
X143793572Y-90951970D01*
X143795051Y-90951930D01*
X143796533Y-90951967D01*
G37*
D13*
X144194043Y-90827047D02*
X144075509Y-90919122D01*
X144022593Y-90737089D01*
X144194043Y-90827047D01*
G36*
X144194043Y-90827047D02*
G01*
X144075509Y-90919122D01*
X144022593Y-90737089D01*
X144194043Y-90827047D01*
G37*
D14*
X163890476Y-96312295D02*
X163890476Y-96959914D01*
X163890476Y-96959914D02*
X163928571Y-97036104D01*
X163928571Y-97036104D02*
X163966666Y-97074200D01*
X163966666Y-97074200D02*
X164042857Y-97112295D01*
X164042857Y-97112295D02*
X164195238Y-97112295D01*
X164195238Y-97112295D02*
X164271428Y-97074200D01*
X164271428Y-97074200D02*
X164309523Y-97036104D01*
X164309523Y-97036104D02*
X164347619Y-96959914D01*
X164347619Y-96959914D02*
X164347619Y-96312295D01*
X165071428Y-96578961D02*
X165071428Y-97112295D01*
X164880952Y-96274200D02*
X164690475Y-96845628D01*
X164690475Y-96845628D02*
X165185714Y-96845628D01*
X143721819Y-100996904D02*
X144531342Y-100996904D01*
X144531342Y-100996904D02*
X144626580Y-100949285D01*
X144626580Y-100949285D02*
X144674200Y-100901666D01*
X144674200Y-100901666D02*
X144721819Y-100806428D01*
X144721819Y-100806428D02*
X144721819Y-100615952D01*
X144721819Y-100615952D02*
X144674200Y-100520714D01*
X144674200Y-100520714D02*
X144626580Y-100473095D01*
X144626580Y-100473095D02*
X144531342Y-100425476D01*
X144531342Y-100425476D02*
X143721819Y-100425476D01*
X143721819Y-100044523D02*
X143721819Y-99425476D01*
X143721819Y-99425476D02*
X144102771Y-99758809D01*
X144102771Y-99758809D02*
X144102771Y-99615952D01*
X144102771Y-99615952D02*
X144150390Y-99520714D01*
X144150390Y-99520714D02*
X144198009Y-99473095D01*
X144198009Y-99473095D02*
X144293247Y-99425476D01*
X144293247Y-99425476D02*
X144531342Y-99425476D01*
X144531342Y-99425476D02*
X144626580Y-99473095D01*
X144626580Y-99473095D02*
X144674200Y-99520714D01*
X144674200Y-99520714D02*
X144721819Y-99615952D01*
X144721819Y-99615952D02*
X144721819Y-99901666D01*
X144721819Y-99901666D02*
X144674200Y-99996904D01*
X144674200Y-99996904D02*
X144626580Y-100044523D01*
X162738095Y-103074819D02*
X162738095Y-103884342D01*
X162738095Y-103884342D02*
X162785714Y-103979580D01*
X162785714Y-103979580D02*
X162833333Y-104027200D01*
X162833333Y-104027200D02*
X162928571Y-104074819D01*
X162928571Y-104074819D02*
X163119047Y-104074819D01*
X163119047Y-104074819D02*
X163214285Y-104027200D01*
X163214285Y-104027200D02*
X163261904Y-103979580D01*
X163261904Y-103979580D02*
X163309523Y-103884342D01*
X163309523Y-103884342D02*
X163309523Y-103074819D01*
X163738095Y-103170057D02*
X163785714Y-103122438D01*
X163785714Y-103122438D02*
X163880952Y-103074819D01*
X163880952Y-103074819D02*
X164119047Y-103074819D01*
X164119047Y-103074819D02*
X164214285Y-103122438D01*
X164214285Y-103122438D02*
X164261904Y-103170057D01*
X164261904Y-103170057D02*
X164309523Y-103265295D01*
X164309523Y-103265295D02*
X164309523Y-103360533D01*
X164309523Y-103360533D02*
X164261904Y-103503390D01*
X164261904Y-103503390D02*
X163690476Y-104074819D01*
X163690476Y-104074819D02*
X164309523Y-104074819D01*
X152238095Y-106554819D02*
X152238095Y-107364342D01*
X152238095Y-107364342D02*
X152285714Y-107459580D01*
X152285714Y-107459580D02*
X152333333Y-107507200D01*
X152333333Y-107507200D02*
X152428571Y-107554819D01*
X152428571Y-107554819D02*
X152619047Y-107554819D01*
X152619047Y-107554819D02*
X152714285Y-107507200D01*
X152714285Y-107507200D02*
X152761904Y-107459580D01*
X152761904Y-107459580D02*
X152809523Y-107364342D01*
X152809523Y-107364342D02*
X152809523Y-106554819D01*
X153809523Y-107554819D02*
X153238095Y-107554819D01*
X153523809Y-107554819D02*
X153523809Y-106554819D01*
X153523809Y-106554819D02*
X153428571Y-106697676D01*
X153428571Y-106697676D02*
X153333333Y-106792914D01*
X153333333Y-106792914D02*
X153238095Y-106840533D01*
X162634819Y-97717857D02*
X162158628Y-98051190D01*
X162634819Y-98289285D02*
X161634819Y-98289285D01*
X161634819Y-98289285D02*
X161634819Y-97908333D01*
X161634819Y-97908333D02*
X161682438Y-97813095D01*
X161682438Y-97813095D02*
X161730057Y-97765476D01*
X161730057Y-97765476D02*
X161825295Y-97717857D01*
X161825295Y-97717857D02*
X161968152Y-97717857D01*
X161968152Y-97717857D02*
X162063390Y-97765476D01*
X162063390Y-97765476D02*
X162111009Y-97813095D01*
X162111009Y-97813095D02*
X162158628Y-97908333D01*
X162158628Y-97908333D02*
X162158628Y-98289285D01*
X162634819Y-96765476D02*
X162634819Y-97336904D01*
X162634819Y-97051190D02*
X161634819Y-97051190D01*
X161634819Y-97051190D02*
X161777676Y-97146428D01*
X161777676Y-97146428D02*
X161872914Y-97241666D01*
X161872914Y-97241666D02*
X161920533Y-97336904D01*
X162634819Y-95813095D02*
X162634819Y-96384523D01*
X162634819Y-96098809D02*
X161634819Y-96098809D01*
X161634819Y-96098809D02*
X161777676Y-96194047D01*
X161777676Y-96194047D02*
X161872914Y-96289285D01*
X161872914Y-96289285D02*
X161920533Y-96384523D01*
X166524819Y-111142857D02*
X166048628Y-111476190D01*
X166524819Y-111714285D02*
X165524819Y-111714285D01*
X165524819Y-111714285D02*
X165524819Y-111333333D01*
X165524819Y-111333333D02*
X165572438Y-111238095D01*
X165572438Y-111238095D02*
X165620057Y-111190476D01*
X165620057Y-111190476D02*
X165715295Y-111142857D01*
X165715295Y-111142857D02*
X165858152Y-111142857D01*
X165858152Y-111142857D02*
X165953390Y-111190476D01*
X165953390Y-111190476D02*
X166001009Y-111238095D01*
X166001009Y-111238095D02*
X166048628Y-111333333D01*
X166048628Y-111333333D02*
X166048628Y-111714285D01*
X166524819Y-110190476D02*
X166524819Y-110761904D01*
X166524819Y-110476190D02*
X165524819Y-110476190D01*
X165524819Y-110476190D02*
X165667676Y-110571428D01*
X165667676Y-110571428D02*
X165762914Y-110666666D01*
X165762914Y-110666666D02*
X165810533Y-110761904D01*
X165524819Y-109571428D02*
X165524819Y-109476190D01*
X165524819Y-109476190D02*
X165572438Y-109380952D01*
X165572438Y-109380952D02*
X165620057Y-109333333D01*
X165620057Y-109333333D02*
X165715295Y-109285714D01*
X165715295Y-109285714D02*
X165905771Y-109238095D01*
X165905771Y-109238095D02*
X166143866Y-109238095D01*
X166143866Y-109238095D02*
X166334342Y-109285714D01*
X166334342Y-109285714D02*
X166429580Y-109333333D01*
X166429580Y-109333333D02*
X166477200Y-109380952D01*
X166477200Y-109380952D02*
X166524819Y-109476190D01*
X166524819Y-109476190D02*
X166524819Y-109571428D01*
X166524819Y-109571428D02*
X166477200Y-109666666D01*
X166477200Y-109666666D02*
X166429580Y-109714285D01*
X166429580Y-109714285D02*
X166334342Y-109761904D01*
X166334342Y-109761904D02*
X166143866Y-109809523D01*
X166143866Y-109809523D02*
X165905771Y-109809523D01*
X165905771Y-109809523D02*
X165715295Y-109761904D01*
X165715295Y-109761904D02*
X165620057Y-109714285D01*
X165620057Y-109714285D02*
X165572438Y-109666666D01*
X165572438Y-109666666D02*
X165524819Y-109571428D01*
X153083333Y-111204819D02*
X152750000Y-110728628D01*
X152511905Y-111204819D02*
X152511905Y-110204819D01*
X152511905Y-110204819D02*
X152892857Y-110204819D01*
X152892857Y-110204819D02*
X152988095Y-110252438D01*
X152988095Y-110252438D02*
X153035714Y-110300057D01*
X153035714Y-110300057D02*
X153083333Y-110395295D01*
X153083333Y-110395295D02*
X153083333Y-110538152D01*
X153083333Y-110538152D02*
X153035714Y-110633390D01*
X153035714Y-110633390D02*
X152988095Y-110681009D01*
X152988095Y-110681009D02*
X152892857Y-110728628D01*
X152892857Y-110728628D02*
X152511905Y-110728628D01*
X153559524Y-111204819D02*
X153750000Y-111204819D01*
X153750000Y-111204819D02*
X153845238Y-111157200D01*
X153845238Y-111157200D02*
X153892857Y-111109580D01*
X153892857Y-111109580D02*
X153988095Y-110966723D01*
X153988095Y-110966723D02*
X154035714Y-110776247D01*
X154035714Y-110776247D02*
X154035714Y-110395295D01*
X154035714Y-110395295D02*
X153988095Y-110300057D01*
X153988095Y-110300057D02*
X153940476Y-110252438D01*
X153940476Y-110252438D02*
X153845238Y-110204819D01*
X153845238Y-110204819D02*
X153654762Y-110204819D01*
X153654762Y-110204819D02*
X153559524Y-110252438D01*
X153559524Y-110252438D02*
X153511905Y-110300057D01*
X153511905Y-110300057D02*
X153464286Y-110395295D01*
X153464286Y-110395295D02*
X153464286Y-110633390D01*
X153464286Y-110633390D02*
X153511905Y-110728628D01*
X153511905Y-110728628D02*
X153559524Y-110776247D01*
X153559524Y-110776247D02*
X153654762Y-110823866D01*
X153654762Y-110823866D02*
X153845238Y-110823866D01*
X153845238Y-110823866D02*
X153940476Y-110776247D01*
X153940476Y-110776247D02*
X153988095Y-110728628D01*
X153988095Y-110728628D02*
X154035714Y-110633390D01*
X145333333Y-106384819D02*
X145000000Y-105908628D01*
X144761905Y-106384819D02*
X144761905Y-105384819D01*
X144761905Y-105384819D02*
X145142857Y-105384819D01*
X145142857Y-105384819D02*
X145238095Y-105432438D01*
X145238095Y-105432438D02*
X145285714Y-105480057D01*
X145285714Y-105480057D02*
X145333333Y-105575295D01*
X145333333Y-105575295D02*
X145333333Y-105718152D01*
X145333333Y-105718152D02*
X145285714Y-105813390D01*
X145285714Y-105813390D02*
X145238095Y-105861009D01*
X145238095Y-105861009D02*
X145142857Y-105908628D01*
X145142857Y-105908628D02*
X144761905Y-105908628D01*
X145904762Y-105813390D02*
X145809524Y-105765771D01*
X145809524Y-105765771D02*
X145761905Y-105718152D01*
X145761905Y-105718152D02*
X145714286Y-105622914D01*
X145714286Y-105622914D02*
X145714286Y-105575295D01*
X145714286Y-105575295D02*
X145761905Y-105480057D01*
X145761905Y-105480057D02*
X145809524Y-105432438D01*
X145809524Y-105432438D02*
X145904762Y-105384819D01*
X145904762Y-105384819D02*
X146095238Y-105384819D01*
X146095238Y-105384819D02*
X146190476Y-105432438D01*
X146190476Y-105432438D02*
X146238095Y-105480057D01*
X146238095Y-105480057D02*
X146285714Y-105575295D01*
X146285714Y-105575295D02*
X146285714Y-105622914D01*
X146285714Y-105622914D02*
X146238095Y-105718152D01*
X146238095Y-105718152D02*
X146190476Y-105765771D01*
X146190476Y-105765771D02*
X146095238Y-105813390D01*
X146095238Y-105813390D02*
X145904762Y-105813390D01*
X145904762Y-105813390D02*
X145809524Y-105861009D01*
X145809524Y-105861009D02*
X145761905Y-105908628D01*
X145761905Y-105908628D02*
X145714286Y-106003866D01*
X145714286Y-106003866D02*
X145714286Y-106194342D01*
X145714286Y-106194342D02*
X145761905Y-106289580D01*
X145761905Y-106289580D02*
X145809524Y-106337200D01*
X145809524Y-106337200D02*
X145904762Y-106384819D01*
X145904762Y-106384819D02*
X146095238Y-106384819D01*
X146095238Y-106384819D02*
X146190476Y-106337200D01*
X146190476Y-106337200D02*
X146238095Y-106289580D01*
X146238095Y-106289580D02*
X146285714Y-106194342D01*
X146285714Y-106194342D02*
X146285714Y-106003866D01*
X146285714Y-106003866D02*
X146238095Y-105908628D01*
X146238095Y-105908628D02*
X146190476Y-105861009D01*
X146190476Y-105861009D02*
X146095238Y-105813390D01*
X145333333Y-101954819D02*
X145000000Y-101478628D01*
X144761905Y-101954819D02*
X144761905Y-100954819D01*
X144761905Y-100954819D02*
X145142857Y-100954819D01*
X145142857Y-100954819D02*
X145238095Y-101002438D01*
X145238095Y-101002438D02*
X145285714Y-101050057D01*
X145285714Y-101050057D02*
X145333333Y-101145295D01*
X145333333Y-101145295D02*
X145333333Y-101288152D01*
X145333333Y-101288152D02*
X145285714Y-101383390D01*
X145285714Y-101383390D02*
X145238095Y-101431009D01*
X145238095Y-101431009D02*
X145142857Y-101478628D01*
X145142857Y-101478628D02*
X144761905Y-101478628D01*
X145666667Y-100954819D02*
X146333333Y-100954819D01*
X146333333Y-100954819D02*
X145904762Y-101954819D01*
X175333333Y-89704819D02*
X175000000Y-89228628D01*
X174761905Y-89704819D02*
X174761905Y-88704819D01*
X174761905Y-88704819D02*
X175142857Y-88704819D01*
X175142857Y-88704819D02*
X175238095Y-88752438D01*
X175238095Y-88752438D02*
X175285714Y-88800057D01*
X175285714Y-88800057D02*
X175333333Y-88895295D01*
X175333333Y-88895295D02*
X175333333Y-89038152D01*
X175333333Y-89038152D02*
X175285714Y-89133390D01*
X175285714Y-89133390D02*
X175238095Y-89181009D01*
X175238095Y-89181009D02*
X175142857Y-89228628D01*
X175142857Y-89228628D02*
X174761905Y-89228628D01*
X176190476Y-88704819D02*
X176000000Y-88704819D01*
X176000000Y-88704819D02*
X175904762Y-88752438D01*
X175904762Y-88752438D02*
X175857143Y-88800057D01*
X175857143Y-88800057D02*
X175761905Y-88942914D01*
X175761905Y-88942914D02*
X175714286Y-89133390D01*
X175714286Y-89133390D02*
X175714286Y-89514342D01*
X175714286Y-89514342D02*
X175761905Y-89609580D01*
X175761905Y-89609580D02*
X175809524Y-89657200D01*
X175809524Y-89657200D02*
X175904762Y-89704819D01*
X175904762Y-89704819D02*
X176095238Y-89704819D01*
X176095238Y-89704819D02*
X176190476Y-89657200D01*
X176190476Y-89657200D02*
X176238095Y-89609580D01*
X176238095Y-89609580D02*
X176285714Y-89514342D01*
X176285714Y-89514342D02*
X176285714Y-89276247D01*
X176285714Y-89276247D02*
X176238095Y-89181009D01*
X176238095Y-89181009D02*
X176190476Y-89133390D01*
X176190476Y-89133390D02*
X176095238Y-89085771D01*
X176095238Y-89085771D02*
X175904762Y-89085771D01*
X175904762Y-89085771D02*
X175809524Y-89133390D01*
X175809524Y-89133390D02*
X175761905Y-89181009D01*
X175761905Y-89181009D02*
X175714286Y-89276247D01*
X172333333Y-91454819D02*
X172000000Y-90978628D01*
X171761905Y-91454819D02*
X171761905Y-90454819D01*
X171761905Y-90454819D02*
X172142857Y-90454819D01*
X172142857Y-90454819D02*
X172238095Y-90502438D01*
X172238095Y-90502438D02*
X172285714Y-90550057D01*
X172285714Y-90550057D02*
X172333333Y-90645295D01*
X172333333Y-90645295D02*
X172333333Y-90788152D01*
X172333333Y-90788152D02*
X172285714Y-90883390D01*
X172285714Y-90883390D02*
X172238095Y-90931009D01*
X172238095Y-90931009D02*
X172142857Y-90978628D01*
X172142857Y-90978628D02*
X171761905Y-90978628D01*
X173238095Y-90454819D02*
X172761905Y-90454819D01*
X172761905Y-90454819D02*
X172714286Y-90931009D01*
X172714286Y-90931009D02*
X172761905Y-90883390D01*
X172761905Y-90883390D02*
X172857143Y-90835771D01*
X172857143Y-90835771D02*
X173095238Y-90835771D01*
X173095238Y-90835771D02*
X173190476Y-90883390D01*
X173190476Y-90883390D02*
X173238095Y-90931009D01*
X173238095Y-90931009D02*
X173285714Y-91026247D01*
X173285714Y-91026247D02*
X173285714Y-91264342D01*
X173285714Y-91264342D02*
X173238095Y-91359580D01*
X173238095Y-91359580D02*
X173190476Y-91407200D01*
X173190476Y-91407200D02*
X173095238Y-91454819D01*
X173095238Y-91454819D02*
X172857143Y-91454819D01*
X172857143Y-91454819D02*
X172761905Y-91407200D01*
X172761905Y-91407200D02*
X172714286Y-91359580D01*
X173583333Y-109704819D02*
X173250000Y-109228628D01*
X173011905Y-109704819D02*
X173011905Y-108704819D01*
X173011905Y-108704819D02*
X173392857Y-108704819D01*
X173392857Y-108704819D02*
X173488095Y-108752438D01*
X173488095Y-108752438D02*
X173535714Y-108800057D01*
X173535714Y-108800057D02*
X173583333Y-108895295D01*
X173583333Y-108895295D02*
X173583333Y-109038152D01*
X173583333Y-109038152D02*
X173535714Y-109133390D01*
X173535714Y-109133390D02*
X173488095Y-109181009D01*
X173488095Y-109181009D02*
X173392857Y-109228628D01*
X173392857Y-109228628D02*
X173011905Y-109228628D01*
X173964286Y-108800057D02*
X174011905Y-108752438D01*
X174011905Y-108752438D02*
X174107143Y-108704819D01*
X174107143Y-108704819D02*
X174345238Y-108704819D01*
X174345238Y-108704819D02*
X174440476Y-108752438D01*
X174440476Y-108752438D02*
X174488095Y-108800057D01*
X174488095Y-108800057D02*
X174535714Y-108895295D01*
X174535714Y-108895295D02*
X174535714Y-108990533D01*
X174535714Y-108990533D02*
X174488095Y-109133390D01*
X174488095Y-109133390D02*
X173916667Y-109704819D01*
X173916667Y-109704819D02*
X174535714Y-109704819D01*
X173583333Y-111704819D02*
X173250000Y-111228628D01*
X173011905Y-111704819D02*
X173011905Y-110704819D01*
X173011905Y-110704819D02*
X173392857Y-110704819D01*
X173392857Y-110704819D02*
X173488095Y-110752438D01*
X173488095Y-110752438D02*
X173535714Y-110800057D01*
X173535714Y-110800057D02*
X173583333Y-110895295D01*
X173583333Y-110895295D02*
X173583333Y-111038152D01*
X173583333Y-111038152D02*
X173535714Y-111133390D01*
X173535714Y-111133390D02*
X173488095Y-111181009D01*
X173488095Y-111181009D02*
X173392857Y-111228628D01*
X173392857Y-111228628D02*
X173011905Y-111228628D01*
X174535714Y-111704819D02*
X173964286Y-111704819D01*
X174250000Y-111704819D02*
X174250000Y-110704819D01*
X174250000Y-110704819D02*
X174154762Y-110847676D01*
X174154762Y-110847676D02*
X174059524Y-110942914D01*
X174059524Y-110942914D02*
X173964286Y-110990533D01*
X170083333Y-89704819D02*
X169607143Y-89704819D01*
X169607143Y-89704819D02*
X169607143Y-88704819D01*
X170940476Y-89704819D02*
X170369048Y-89704819D01*
X170654762Y-89704819D02*
X170654762Y-88704819D01*
X170654762Y-88704819D02*
X170559524Y-88847676D01*
X170559524Y-88847676D02*
X170464286Y-88942914D01*
X170464286Y-88942914D02*
X170369048Y-88990533D01*
X123666666Y-94954819D02*
X123666666Y-95669104D01*
X123666666Y-95669104D02*
X123619047Y-95811961D01*
X123619047Y-95811961D02*
X123523809Y-95907200D01*
X123523809Y-95907200D02*
X123380952Y-95954819D01*
X123380952Y-95954819D02*
X123285714Y-95954819D01*
X124666666Y-95954819D02*
X124095238Y-95954819D01*
X124380952Y-95954819D02*
X124380952Y-94954819D01*
X124380952Y-94954819D02*
X124285714Y-95097676D01*
X124285714Y-95097676D02*
X124190476Y-95192914D01*
X124190476Y-95192914D02*
X124095238Y-95240533D01*
X162704819Y-101238094D02*
X161704819Y-101238094D01*
X161704819Y-101238094D02*
X161704819Y-100999999D01*
X161704819Y-100999999D02*
X161752438Y-100857142D01*
X161752438Y-100857142D02*
X161847676Y-100761904D01*
X161847676Y-100761904D02*
X161942914Y-100714285D01*
X161942914Y-100714285D02*
X162133390Y-100666666D01*
X162133390Y-100666666D02*
X162276247Y-100666666D01*
X162276247Y-100666666D02*
X162466723Y-100714285D01*
X162466723Y-100714285D02*
X162561961Y-100761904D01*
X162561961Y-100761904D02*
X162657200Y-100857142D01*
X162657200Y-100857142D02*
X162704819Y-100999999D01*
X162704819Y-100999999D02*
X162704819Y-101238094D01*
X161800057Y-100285713D02*
X161752438Y-100238094D01*
X161752438Y-100238094D02*
X161704819Y-100142856D01*
X161704819Y-100142856D02*
X161704819Y-99904761D01*
X161704819Y-99904761D02*
X161752438Y-99809523D01*
X161752438Y-99809523D02*
X161800057Y-99761904D01*
X161800057Y-99761904D02*
X161895295Y-99714285D01*
X161895295Y-99714285D02*
X161990533Y-99714285D01*
X161990533Y-99714285D02*
X162133390Y-99761904D01*
X162133390Y-99761904D02*
X162704819Y-100333332D01*
X162704819Y-100333332D02*
X162704819Y-99714285D01*
X158761905Y-91954819D02*
X158761905Y-90954819D01*
X158761905Y-90954819D02*
X159000000Y-90954819D01*
X159000000Y-90954819D02*
X159142857Y-91002438D01*
X159142857Y-91002438D02*
X159238095Y-91097676D01*
X159238095Y-91097676D02*
X159285714Y-91192914D01*
X159285714Y-91192914D02*
X159333333Y-91383390D01*
X159333333Y-91383390D02*
X159333333Y-91526247D01*
X159333333Y-91526247D02*
X159285714Y-91716723D01*
X159285714Y-91716723D02*
X159238095Y-91811961D01*
X159238095Y-91811961D02*
X159142857Y-91907200D01*
X159142857Y-91907200D02*
X159000000Y-91954819D01*
X159000000Y-91954819D02*
X158761905Y-91954819D01*
X160285714Y-91954819D02*
X159714286Y-91954819D01*
X160000000Y-91954819D02*
X160000000Y-90954819D01*
X160000000Y-90954819D02*
X159904762Y-91097676D01*
X159904762Y-91097676D02*
X159809524Y-91192914D01*
X159809524Y-91192914D02*
X159714286Y-91240533D01*
X125833333Y-110109580D02*
X125785714Y-110157200D01*
X125785714Y-110157200D02*
X125642857Y-110204819D01*
X125642857Y-110204819D02*
X125547619Y-110204819D01*
X125547619Y-110204819D02*
X125404762Y-110157200D01*
X125404762Y-110157200D02*
X125309524Y-110061961D01*
X125309524Y-110061961D02*
X125261905Y-109966723D01*
X125261905Y-109966723D02*
X125214286Y-109776247D01*
X125214286Y-109776247D02*
X125214286Y-109633390D01*
X125214286Y-109633390D02*
X125261905Y-109442914D01*
X125261905Y-109442914D02*
X125309524Y-109347676D01*
X125309524Y-109347676D02*
X125404762Y-109252438D01*
X125404762Y-109252438D02*
X125547619Y-109204819D01*
X125547619Y-109204819D02*
X125642857Y-109204819D01*
X125642857Y-109204819D02*
X125785714Y-109252438D01*
X125785714Y-109252438D02*
X125833333Y-109300057D01*
X126738095Y-109204819D02*
X126261905Y-109204819D01*
X126261905Y-109204819D02*
X126214286Y-109681009D01*
X126214286Y-109681009D02*
X126261905Y-109633390D01*
X126261905Y-109633390D02*
X126357143Y-109585771D01*
X126357143Y-109585771D02*
X126595238Y-109585771D01*
X126595238Y-109585771D02*
X126690476Y-109633390D01*
X126690476Y-109633390D02*
X126738095Y-109681009D01*
X126738095Y-109681009D02*
X126785714Y-109776247D01*
X126785714Y-109776247D02*
X126785714Y-110014342D01*
X126785714Y-110014342D02*
X126738095Y-110109580D01*
X126738095Y-110109580D02*
X126690476Y-110157200D01*
X126690476Y-110157200D02*
X126595238Y-110204819D01*
X126595238Y-110204819D02*
X126357143Y-110204819D01*
X126357143Y-110204819D02*
X126261905Y-110157200D01*
X126261905Y-110157200D02*
X126214286Y-110109580D01*
X155083333Y-108179580D02*
X155035714Y-108227200D01*
X155035714Y-108227200D02*
X154892857Y-108274819D01*
X154892857Y-108274819D02*
X154797619Y-108274819D01*
X154797619Y-108274819D02*
X154654762Y-108227200D01*
X154654762Y-108227200D02*
X154559524Y-108131961D01*
X154559524Y-108131961D02*
X154511905Y-108036723D01*
X154511905Y-108036723D02*
X154464286Y-107846247D01*
X154464286Y-107846247D02*
X154464286Y-107703390D01*
X154464286Y-107703390D02*
X154511905Y-107512914D01*
X154511905Y-107512914D02*
X154559524Y-107417676D01*
X154559524Y-107417676D02*
X154654762Y-107322438D01*
X154654762Y-107322438D02*
X154797619Y-107274819D01*
X154797619Y-107274819D02*
X154892857Y-107274819D01*
X154892857Y-107274819D02*
X155035714Y-107322438D01*
X155035714Y-107322438D02*
X155083333Y-107370057D01*
X155940476Y-107608152D02*
X155940476Y-108274819D01*
X155702381Y-107227200D02*
X155464286Y-107941485D01*
X155464286Y-107941485D02*
X156083333Y-107941485D01*
X169789580Y-105916666D02*
X169837200Y-105964285D01*
X169837200Y-105964285D02*
X169884819Y-106107142D01*
X169884819Y-106107142D02*
X169884819Y-106202380D01*
X169884819Y-106202380D02*
X169837200Y-106345237D01*
X169837200Y-106345237D02*
X169741961Y-106440475D01*
X169741961Y-106440475D02*
X169646723Y-106488094D01*
X169646723Y-106488094D02*
X169456247Y-106535713D01*
X169456247Y-106535713D02*
X169313390Y-106535713D01*
X169313390Y-106535713D02*
X169122914Y-106488094D01*
X169122914Y-106488094D02*
X169027676Y-106440475D01*
X169027676Y-106440475D02*
X168932438Y-106345237D01*
X168932438Y-106345237D02*
X168884819Y-106202380D01*
X168884819Y-106202380D02*
X168884819Y-106107142D01*
X168884819Y-106107142D02*
X168932438Y-105964285D01*
X168932438Y-105964285D02*
X168980057Y-105916666D01*
X168884819Y-105583332D02*
X168884819Y-104964285D01*
X168884819Y-104964285D02*
X169265771Y-105297618D01*
X169265771Y-105297618D02*
X169265771Y-105154761D01*
X169265771Y-105154761D02*
X169313390Y-105059523D01*
X169313390Y-105059523D02*
X169361009Y-105011904D01*
X169361009Y-105011904D02*
X169456247Y-104964285D01*
X169456247Y-104964285D02*
X169694342Y-104964285D01*
X169694342Y-104964285D02*
X169789580Y-105011904D01*
X169789580Y-105011904D02*
X169837200Y-105059523D01*
X169837200Y-105059523D02*
X169884819Y-105154761D01*
X169884819Y-105154761D02*
X169884819Y-105440475D01*
X169884819Y-105440475D02*
X169837200Y-105535713D01*
X169837200Y-105535713D02*
X169789580Y-105583332D01*
X155179580Y-89916666D02*
X155227200Y-89964285D01*
X155227200Y-89964285D02*
X155274819Y-90107142D01*
X155274819Y-90107142D02*
X155274819Y-90202380D01*
X155274819Y-90202380D02*
X155227200Y-90345237D01*
X155227200Y-90345237D02*
X155131961Y-90440475D01*
X155131961Y-90440475D02*
X155036723Y-90488094D01*
X155036723Y-90488094D02*
X154846247Y-90535713D01*
X154846247Y-90535713D02*
X154703390Y-90535713D01*
X154703390Y-90535713D02*
X154512914Y-90488094D01*
X154512914Y-90488094D02*
X154417676Y-90440475D01*
X154417676Y-90440475D02*
X154322438Y-90345237D01*
X154322438Y-90345237D02*
X154274819Y-90202380D01*
X154274819Y-90202380D02*
X154274819Y-90107142D01*
X154274819Y-90107142D02*
X154322438Y-89964285D01*
X154322438Y-89964285D02*
X154370057Y-89916666D01*
X154370057Y-89535713D02*
X154322438Y-89488094D01*
X154322438Y-89488094D02*
X154274819Y-89392856D01*
X154274819Y-89392856D02*
X154274819Y-89154761D01*
X154274819Y-89154761D02*
X154322438Y-89059523D01*
X154322438Y-89059523D02*
X154370057Y-89011904D01*
X154370057Y-89011904D02*
X154465295Y-88964285D01*
X154465295Y-88964285D02*
X154560533Y-88964285D01*
X154560533Y-88964285D02*
X154703390Y-89011904D01*
X154703390Y-89011904D02*
X155274819Y-89583332D01*
X155274819Y-89583332D02*
X155274819Y-88964285D01*
X164583333Y-91109580D02*
X164535714Y-91157200D01*
X164535714Y-91157200D02*
X164392857Y-91204819D01*
X164392857Y-91204819D02*
X164297619Y-91204819D01*
X164297619Y-91204819D02*
X164154762Y-91157200D01*
X164154762Y-91157200D02*
X164059524Y-91061961D01*
X164059524Y-91061961D02*
X164011905Y-90966723D01*
X164011905Y-90966723D02*
X163964286Y-90776247D01*
X163964286Y-90776247D02*
X163964286Y-90633390D01*
X163964286Y-90633390D02*
X164011905Y-90442914D01*
X164011905Y-90442914D02*
X164059524Y-90347676D01*
X164059524Y-90347676D02*
X164154762Y-90252438D01*
X164154762Y-90252438D02*
X164297619Y-90204819D01*
X164297619Y-90204819D02*
X164392857Y-90204819D01*
X164392857Y-90204819D02*
X164535714Y-90252438D01*
X164535714Y-90252438D02*
X164583333Y-90300057D01*
X165535714Y-91204819D02*
X164964286Y-91204819D01*
X165250000Y-91204819D02*
X165250000Y-90204819D01*
X165250000Y-90204819D02*
X165154762Y-90347676D01*
X165154762Y-90347676D02*
X165059524Y-90442914D01*
X165059524Y-90442914D02*
X164964286Y-90490533D01*
D15*
%TO.C,U4*%
X163700000Y-92980000D02*
X165300000Y-92980000D01*
X163700000Y-96020000D02*
X165300000Y-96020000D01*
D16*
X162150000Y-93350000D02*
G75*
G02*
X161950000Y-93350000I-100000J0D01*
G01*
X161950000Y-93350000D02*
G75*
G02*
X162150000Y-93350000I100000J0D01*
G01*
D15*
%TO.C,U3*%
X143250000Y-99205000D02*
X143250000Y-106795000D01*
X127250000Y-99205000D02*
X127250000Y-106795000D01*
D16*
X142652500Y-96375000D02*
G75*
G02*
X142452500Y-96375000I-100000J0D01*
G01*
X142452500Y-96375000D02*
G75*
G02*
X142652500Y-96375000I100000J0D01*
G01*
D17*
%TO.C,U2*%
X162750000Y-104315000D02*
X164250000Y-104315000D01*
X162750000Y-108185000D02*
X164250000Y-108185000D01*
X162230000Y-104430000D02*
X161950000Y-104430000D01*
X162230000Y-104150000D01*
X162230000Y-104430000D01*
G36*
X162230000Y-104430000D02*
G01*
X161950000Y-104430000D01*
X162230000Y-104150000D01*
X162230000Y-104430000D01*
G37*
%TO.C,U1*%
X156860000Y-106260000D02*
X156860000Y-106025000D01*
X156860000Y-93240000D02*
X156860000Y-93475000D01*
X153000000Y-106260000D02*
X156860000Y-106260000D01*
X153000000Y-106260000D02*
X149140000Y-106260000D01*
X153000000Y-93240000D02*
X156860000Y-93240000D01*
X153000000Y-93240000D02*
X149140000Y-93240000D01*
X149140000Y-106260000D02*
X149140000Y-106025000D01*
X149140000Y-93240000D02*
X149140000Y-93475000D01*
X158052500Y-106495000D02*
X157372500Y-106495000D01*
X157712500Y-106025000D01*
X158052500Y-106495000D01*
G36*
X158052500Y-106495000D02*
G01*
X157372500Y-106495000D01*
X157712500Y-106025000D01*
X158052500Y-106495000D01*
G37*
%TO.C,R11*%
X161272500Y-96837742D02*
X161272500Y-97312258D01*
X160227500Y-96837742D02*
X160227500Y-97312258D01*
%TO.C,R10*%
X166977500Y-110737258D02*
X166977500Y-110262742D01*
X168022500Y-110737258D02*
X168022500Y-110262742D01*
%TO.C,R9*%
X155262742Y-110227500D02*
X155737258Y-110227500D01*
X155262742Y-111272500D02*
X155737258Y-111272500D01*
%TO.C,R8*%
X145737258Y-105022500D02*
X145262742Y-105022500D01*
X145737258Y-103977500D02*
X145262742Y-103977500D01*
%TO.C,R7*%
X145737258Y-103272500D02*
X145262742Y-103272500D01*
X145737258Y-102227500D02*
X145262742Y-102227500D01*
%TO.C,R6*%
X174512742Y-90227500D02*
X174987258Y-90227500D01*
X174512742Y-91272500D02*
X174987258Y-91272500D01*
%TO.C,R5*%
X173487258Y-89522500D02*
X173012742Y-89522500D01*
X173487258Y-88477500D02*
X173012742Y-88477500D01*
%TO.C,R2*%
X171412258Y-109772500D02*
X170937742Y-109772500D01*
X171412258Y-108727500D02*
X170937742Y-108727500D01*
%TO.C,R1*%
X171012742Y-110727500D02*
X171487258Y-110727500D01*
X171012742Y-111772500D02*
X171487258Y-111772500D01*
%TO.C,L1*%
X167488748Y-88140000D02*
X168011252Y-88140000D01*
X167488748Y-90360000D02*
X168011252Y-90360000D01*
%TO.C,J1*%
X125380000Y-106630000D02*
X124000000Y-106630000D01*
X125380000Y-105250000D02*
X125380000Y-106630000D01*
X125380000Y-103980000D02*
X125380000Y-96250000D01*
X125380000Y-103980000D02*
X122620000Y-103980000D01*
X125380000Y-96250000D02*
X122620000Y-96250000D01*
X122620000Y-103980000D02*
X122620000Y-96250000D01*
%TO.C,D2*%
X159977500Y-101985000D02*
X161447500Y-101985000D01*
X161447500Y-101985000D02*
X161447500Y-99700000D01*
X159977500Y-99700000D02*
X159977500Y-101985000D01*
%TO.C,D1*%
X157140000Y-88500000D02*
X157140000Y-90500000D01*
X157140000Y-88500000D02*
X161150000Y-88500000D01*
X157140000Y-90500000D02*
X161150000Y-90500000D01*
%TO.C,C5*%
X124609420Y-107740000D02*
X124890580Y-107740000D01*
X124609420Y-108760000D02*
X124890580Y-108760000D01*
%TO.C,C4*%
X155334420Y-108740000D02*
X155615580Y-108740000D01*
X155334420Y-109760000D02*
X155615580Y-109760000D01*
%TO.C,C3*%
X168510000Y-105609420D02*
X168510000Y-105890580D01*
X167490000Y-105609420D02*
X167490000Y-105890580D01*
%TO.C,C2*%
X155740000Y-89890580D02*
X155740000Y-89609420D01*
X156760000Y-89890580D02*
X156760000Y-89609420D01*
%TO.C,C1*%
X164890580Y-92510000D02*
X164609420Y-92510000D01*
X164890580Y-91490000D02*
X164609420Y-91490000D01*
%TO.C,CL_2*%
D16*
X170000000Y-93500000D02*
X177000000Y-93500000D01*
X177000000Y-107400000D01*
X170000000Y-107400000D01*
X170000000Y-93500000D01*
D18*
%TO.C,CL_1*%
X171900000Y-95275000D02*
X167600000Y-99025000D01*
X171900000Y-105775000D02*
X167600000Y-102025000D01*
D11*
X167600000Y-102025000D02*
X163600000Y-102025000D01*
X163600000Y-99025000D01*
X167600000Y-99025000D01*
X167600000Y-102025000D01*
%TD*%
M02*
