M48
; DRILL file {KiCad 9.0.4} date 2025-10-11T14:21:18-0700
; FORMAT={-:-/ absolute / metric / decimal}
; #@! TF.CreationDate,2025-10-11T14:21:18-07:00
; #@! TF.GenerationSoftware,Kicad,Pcbnew,9.0.4
; #@! TF.FileFunction,Plated,1,2,PTH
FMAT,2
METRIC
; #@! TA.AperFunction,Plated,PTH,ViaDrill
T1C0.300
; #@! TA.AperFunction,Plated,PTH,ComponentDrill
T2C0.500
; #@! TA.AperFunction,Plated,PTH,ComponentDrill
T3C0.600
; #@! TA.AperFunction,Plated,PTH,ComponentDrill
T4C1.000
%
G90
G05
T1
X125.75Y-94.5
X126.25Y-95.25
X126.75Y-109.25
X127.0Y-96.75
X127.25Y-93.0
X128.25Y-93.0
X129.25Y-93.0
X132.75Y-102.0
X133.0Y-100.0
X134.25Y-93.0
X135.0Y-101.25
X135.0Y-102.75
X135.75Y-105.25
X136.25Y-93.0
X137.25Y-110.0
X137.75Y-105.25
X138.25Y-93.0
X139.25Y-93.0
X140.25Y-93.0
X140.25Y-105.5
X140.647Y-96.0
X141.5Y-105.0
X141.917Y-96.0
X142.75Y-104.25
X144.5Y-99.849
X144.5Y-101.0
X145.119Y-110.705
X145.5Y-105.999
X145.5Y-108.75
X147.75Y-107.0
X149.0Y-107.0
X150.25Y-98.25
X150.25Y-104.25
X150.5Y-106.75
X150.75Y-102.2
X150.75Y-103.0
X151.0Y-99.849
X151.0Y-101.0
X151.066Y-107.316
X152.0Y-97.25
X152.5Y-108.75
X153.25Y-95.25
X153.5Y-104.195
X153.75Y-110.75
X155.5Y-95.25
X157.947Y-108.947
X158.0Y-92.0
X158.5Y-91.0
X159.5Y-98.0
X159.5Y-105.465
X159.75Y-104.5
X159.875Y-103.125
X160.5Y-91.75
X160.75Y-94.75
X161.5Y-104.75
X161.625Y-105.625
X163.25Y-96.75
X165.25Y-106.7
X166.005Y-97.5
X166.5Y-104.75
X166.5Y-106.75
X167.25Y-102.5
X167.5Y-94.75
X167.5Y-95.75
X167.5Y-108.5
X169.25Y-108.25
X173.25Y-111.25
T4
X124.0Y-97.63
X124.0Y-100.17
X124.0Y-102.71
X124.0Y-105.25
T2
G00X164.35Y-98.875
M15
G01X165.15Y-98.875
M16
G05
G00X164.35Y-102.175
M15
G01X165.15Y-102.175
M16
G05
T3
G00X172.9Y-95.1
M15
G01X174.1Y-95.1
M16
G05
G00X172.9Y-105.8
M15
G01X174.1Y-105.8
M16
G05
M30
