%TF.GenerationSoftware,KiCad,Pcbnew,9.0.4*%
%TF.CreationDate,2025-10-11T14:21:15-07:00*%
%TF.ProjectId,Caliper_Clock_V2,43616c69-7065-4725-9f43-6c6f636b5f56,rev?*%
%TF.SameCoordinates,Original*%
%TF.FileFunction,Legend,Bot*%
%TF.FilePolarity,Positive*%
%FSLAX46Y46*%
G04 Gerber Fmt 4.6, Leading zero omitted, Abs format (unit mm)*
G04 Created by KiCad (PCBNEW 9.0.4) date 2025-10-11 14:21:15*
%MOMM*%
%LPD*%
G01*
G04 APERTURE LIST*
%ADD10C,0.100000*%
%ADD11C,0.198437*%
%ADD12C,0.000000*%
%ADD13C,0.132291*%
G04 APERTURE END LIST*
D10*
G36*
X176977468Y-89150000D02*
G01*
X176706297Y-89150000D01*
X176649640Y-89144437D01*
X176599905Y-89128352D01*
X176555661Y-89101884D01*
X176528627Y-89075554D01*
X176509115Y-89043493D01*
X176496845Y-89004514D01*
X176492463Y-88956864D01*
X176492463Y-88767149D01*
X176497612Y-88727314D01*
X176498862Y-88724528D01*
X176702145Y-88724528D01*
X176702145Y-88972923D01*
X176705990Y-88995904D01*
X176716474Y-89011315D01*
X176734189Y-89021152D01*
X176762290Y-89024947D01*
X176762290Y-88673237D01*
X176734115Y-88677002D01*
X176716406Y-88686739D01*
X176705964Y-88701937D01*
X176702145Y-88724528D01*
X176498862Y-88724528D01*
X176512357Y-88694439D01*
X176536964Y-88666835D01*
X176573383Y-88643838D01*
X176624965Y-88625915D01*
X176576145Y-88604480D01*
X176541469Y-88579336D01*
X176518036Y-88550703D01*
X176504104Y-88517975D01*
X176499302Y-88479797D01*
X176499302Y-88346135D01*
X176702145Y-88346135D01*
X176702145Y-88515090D01*
X176706011Y-88538395D01*
X176716531Y-88553984D01*
X176734250Y-88563905D01*
X176762290Y-88567725D01*
X176762290Y-88294173D01*
X176734183Y-88297965D01*
X176716469Y-88307794D01*
X176705988Y-88323187D01*
X176702145Y-88346135D01*
X176499302Y-88346135D01*
X176499302Y-88343326D01*
X176503888Y-88298994D01*
X176516726Y-88263217D01*
X176537303Y-88234136D01*
X176566285Y-88210642D01*
X176612514Y-88187963D01*
X176664681Y-88173983D01*
X176724066Y-88169120D01*
X176977468Y-88169120D01*
X176977468Y-89150000D01*
G37*
G36*
X176039820Y-89150000D02*
G01*
X176443553Y-89150000D01*
X176443553Y-88169120D01*
X176228375Y-88169120D01*
X176228375Y-89024947D01*
X176039820Y-89024947D01*
X176039820Y-89150000D01*
G37*
G36*
X176020586Y-89150000D02*
G01*
X175807484Y-89150000D01*
X175771275Y-88888171D01*
X175674921Y-88888171D01*
X175638712Y-89150000D01*
X175425610Y-89150000D01*
X175491118Y-88751395D01*
X175692690Y-88751395D01*
X175752834Y-88751395D01*
X175723464Y-88457754D01*
X175692690Y-88751395D01*
X175491118Y-88751395D01*
X175586810Y-88169120D01*
X175859385Y-88169120D01*
X176020586Y-89150000D01*
G37*
G36*
X174854509Y-89150000D02*
G01*
X175090875Y-89150000D01*
X175173551Y-88786078D01*
X175173551Y-89150000D01*
X175388729Y-89150000D01*
X175388729Y-88169120D01*
X175173551Y-88169120D01*
X175173551Y-88496100D01*
X175079274Y-88169120D01*
X174879788Y-88169120D01*
X175012290Y-88616451D01*
X174854509Y-89150000D01*
G37*
G36*
X174403026Y-89150000D02*
G01*
X174823796Y-89150000D01*
X174823796Y-88169120D01*
X174405774Y-88169120D01*
X174405774Y-88294173D01*
X174608618Y-88294173D01*
X174608618Y-88559909D01*
X174425558Y-88559909D01*
X174425558Y-88677145D01*
X174608618Y-88677145D01*
X174608618Y-89024947D01*
X174403026Y-89024947D01*
X174403026Y-89150000D01*
G37*
G36*
X173631402Y-89150000D02*
G01*
X173846580Y-89150000D01*
X173846580Y-88677145D01*
X173906664Y-88677145D01*
X173906664Y-89150000D01*
X174121842Y-89150000D01*
X174121842Y-88169120D01*
X173906664Y-88169120D01*
X173906664Y-88559909D01*
X173846580Y-88559909D01*
X173846580Y-88169120D01*
X173631402Y-88169120D01*
X173631402Y-89150000D01*
G37*
G36*
X173426312Y-88168122D02*
G01*
X173488020Y-88186206D01*
X173532308Y-88213217D01*
X173563071Y-88248677D01*
X173582153Y-88294054D01*
X173589026Y-88352486D01*
X173589026Y-88984952D01*
X173582447Y-89038048D01*
X173564042Y-89079676D01*
X173534009Y-89112621D01*
X173490187Y-89138034D01*
X173428424Y-89155211D01*
X173343073Y-89161723D01*
X173271480Y-89156036D01*
X173213247Y-89140235D01*
X173165814Y-89115500D01*
X173135901Y-89089698D01*
X173115032Y-89059735D01*
X173102303Y-89024810D01*
X173097854Y-88983548D01*
X173097854Y-88351081D01*
X173101035Y-88323909D01*
X173308269Y-88323909D01*
X173308269Y-88999118D01*
X173312086Y-89015553D01*
X173322803Y-89025133D01*
X173343073Y-89028855D01*
X173364293Y-89025074D01*
X173375379Y-89015440D01*
X173379282Y-88999118D01*
X173379282Y-88323909D01*
X173375379Y-88307588D01*
X173364293Y-88297954D01*
X173343073Y-88294173D01*
X173322803Y-88297894D01*
X173312086Y-88307474D01*
X173308269Y-88323909D01*
X173101035Y-88323909D01*
X173104655Y-88292989D01*
X173123525Y-88247914D01*
X173153912Y-88212730D01*
X173197608Y-88185960D01*
X173258428Y-88168052D01*
X173341730Y-88161304D01*
X173426312Y-88168122D01*
G37*
G36*
X173049860Y-89150000D02*
G01*
X172834682Y-89150000D01*
X172834682Y-88677145D01*
X172802543Y-88681031D01*
X172782879Y-88690874D01*
X172771687Y-88705726D01*
X172767698Y-88727154D01*
X172769774Y-88852573D01*
X172771118Y-88911496D01*
X172771118Y-88912901D01*
X172765313Y-89046806D01*
X172752099Y-89117748D01*
X172736313Y-89150000D01*
X172521135Y-89150000D01*
X172534210Y-89132336D01*
X172546916Y-89092282D01*
X172557123Y-89015392D01*
X172561435Y-88883286D01*
X172558016Y-88775881D01*
X172563673Y-88726369D01*
X172579470Y-88687194D01*
X172604961Y-88655959D01*
X172641467Y-88631446D01*
X172691861Y-88613825D01*
X172640469Y-88592966D01*
X172603830Y-88567349D01*
X172578889Y-88537243D01*
X172563906Y-88501908D01*
X172558688Y-88459708D01*
X172558688Y-88345647D01*
X172767698Y-88345647D01*
X172767698Y-88507702D01*
X172771771Y-88530275D01*
X172783104Y-88545769D01*
X172802787Y-88555925D01*
X172834682Y-88559909D01*
X172834682Y-88294173D01*
X172802707Y-88298124D01*
X172783030Y-88308176D01*
X172771744Y-88323456D01*
X172767698Y-88345647D01*
X172558688Y-88345647D01*
X172558688Y-88342349D01*
X172563263Y-88298702D01*
X172576109Y-88263294D01*
X172596772Y-88234333D01*
X172625976Y-88210764D01*
X172672445Y-88188004D01*
X172724741Y-88173990D01*
X172784124Y-88169120D01*
X173049860Y-88169120D01*
X173049860Y-89150000D01*
G37*
G36*
X172494513Y-89150000D02*
G01*
X172225357Y-89150000D01*
X172163839Y-89144000D01*
X172111521Y-89126883D01*
X172066538Y-89099075D01*
X172038828Y-89071337D01*
X172019125Y-89039005D01*
X172006949Y-89001164D01*
X172002669Y-88956437D01*
X172002669Y-88362683D01*
X172004331Y-88345647D01*
X172219251Y-88345647D01*
X172219251Y-88972801D01*
X172223098Y-88995851D01*
X172233582Y-89011298D01*
X172251280Y-89021149D01*
X172279335Y-89024947D01*
X172279335Y-88294173D01*
X172251212Y-88297943D01*
X172233519Y-88307702D01*
X172223074Y-88322953D01*
X172219251Y-88345647D01*
X172004331Y-88345647D01*
X172007366Y-88314538D01*
X172020537Y-88275283D01*
X172041584Y-88243063D01*
X172070996Y-88216687D01*
X172118394Y-88190364D01*
X172169910Y-88174529D01*
X172226700Y-88169120D01*
X172494513Y-88169120D01*
X172494513Y-89150000D01*
G37*
G36*
X171223229Y-89150000D02*
G01*
X171714401Y-89150000D01*
X171714401Y-89020856D01*
X171472601Y-88576395D01*
X171451860Y-88526648D01*
X171438073Y-88462067D01*
X171432972Y-88379047D01*
X171438993Y-88339553D01*
X171453572Y-88320136D01*
X171476692Y-88313712D01*
X171502695Y-88318699D01*
X171516687Y-88331732D01*
X171521755Y-88354501D01*
X171521755Y-88521685D01*
X171714401Y-88521685D01*
X171714401Y-88350715D01*
X171707616Y-88292724D01*
X171688791Y-88247732D01*
X171658481Y-88212618D01*
X171614903Y-88185904D01*
X171554255Y-88168037D01*
X171471196Y-88161304D01*
X171394238Y-88166869D01*
X171338573Y-88181512D01*
X171299126Y-88203054D01*
X171272077Y-88230730D01*
X171252926Y-88265623D01*
X171237576Y-88313007D01*
X171227138Y-88376123D01*
X171223229Y-88458731D01*
X171228961Y-88517543D01*
X171244417Y-88561313D01*
X171486217Y-89024947D01*
X171223229Y-89024947D01*
X171223229Y-89150000D01*
G37*
G36*
X171008895Y-88166440D02*
G01*
X171067064Y-88180248D01*
X171110899Y-88200961D01*
X171143375Y-88227777D01*
X171166458Y-88260962D01*
X171180882Y-88301814D01*
X171186043Y-88352486D01*
X171186043Y-88984952D01*
X171181536Y-89025733D01*
X171168616Y-89060323D01*
X171147356Y-89090090D01*
X171116739Y-89115806D01*
X171068394Y-89140282D01*
X171008400Y-89156027D01*
X170933984Y-89161723D01*
X170861953Y-89156024D01*
X170802775Y-89140125D01*
X170754038Y-89115134D01*
X170723041Y-89089057D01*
X170701560Y-89059035D01*
X170688536Y-89024314D01*
X170684002Y-88983548D01*
X170684002Y-88351081D01*
X170687227Y-88323909D01*
X170899180Y-88323909D01*
X170899180Y-88999118D01*
X170902997Y-89015553D01*
X170913714Y-89025133D01*
X170933984Y-89028855D01*
X170955660Y-89025046D01*
X170966921Y-89015387D01*
X170970865Y-88999118D01*
X170970865Y-88323909D01*
X170966921Y-88307641D01*
X170955660Y-88297982D01*
X170933984Y-88294173D01*
X170913714Y-88297894D01*
X170902997Y-88307474D01*
X170899180Y-88323909D01*
X170687227Y-88323909D01*
X170690866Y-88293254D01*
X170709950Y-88248272D01*
X170740779Y-88213043D01*
X170785267Y-88186148D01*
X170847381Y-88168111D01*
X170932641Y-88161304D01*
X171008895Y-88166440D01*
G37*
G36*
X170154422Y-89150000D02*
G01*
X170645594Y-89150000D01*
X170645594Y-89020856D01*
X170403794Y-88576395D01*
X170383054Y-88526648D01*
X170369266Y-88462067D01*
X170364166Y-88379047D01*
X170370187Y-88339553D01*
X170384765Y-88320136D01*
X170407885Y-88313712D01*
X170433888Y-88318699D01*
X170447881Y-88331732D01*
X170452948Y-88354501D01*
X170452948Y-88521685D01*
X170645594Y-88521685D01*
X170645594Y-88350715D01*
X170638809Y-88292724D01*
X170619985Y-88247732D01*
X170589674Y-88212618D01*
X170546097Y-88185904D01*
X170485448Y-88168037D01*
X170402390Y-88161304D01*
X170325432Y-88166869D01*
X170269766Y-88181512D01*
X170230319Y-88203054D01*
X170203271Y-88230730D01*
X170184120Y-88265623D01*
X170168769Y-88313007D01*
X170158331Y-88376123D01*
X170154422Y-88458731D01*
X170160154Y-88517543D01*
X170175610Y-88561313D01*
X170417411Y-89024947D01*
X170154422Y-89024947D01*
X170154422Y-89150000D01*
G37*
G36*
X169623377Y-88169120D02*
G01*
X169656838Y-88317620D01*
X169900715Y-88317620D01*
X169910301Y-88521502D01*
X169886602Y-88505155D01*
X169850778Y-88493924D01*
X169798255Y-88489567D01*
X169741560Y-88494518D01*
X169699683Y-88507764D01*
X169669110Y-88527839D01*
X169647454Y-88554692D01*
X169633786Y-88589691D01*
X169628811Y-88635380D01*
X169628811Y-88983731D01*
X169633225Y-89024590D01*
X169645874Y-89059323D01*
X169666650Y-89089266D01*
X169696467Y-89115195D01*
X169743699Y-89140065D01*
X169802001Y-89155982D01*
X169874031Y-89161723D01*
X169959791Y-89155301D01*
X170021683Y-89138388D01*
X170065430Y-89113445D01*
X170095275Y-89081245D01*
X170113489Y-89040732D01*
X170119984Y-88989227D01*
X170119984Y-88745350D01*
X169910301Y-88745350D01*
X169910301Y-88996737D01*
X169906265Y-89014604D01*
X169895055Y-89024896D01*
X169874092Y-89028855D01*
X169853631Y-89024891D01*
X169842574Y-89014492D01*
X169838555Y-88996249D01*
X169838555Y-88665605D01*
X169842983Y-88645919D01*
X169855263Y-88634599D01*
X169878183Y-88630251D01*
X169897169Y-88635803D01*
X169909792Y-88653065D01*
X169915736Y-88688869D01*
X170117236Y-88683374D01*
X170106306Y-88169120D01*
X169623377Y-88169120D01*
G37*
G36*
X176505408Y-90193014D02*
G01*
X176701474Y-90193014D01*
X176701474Y-89998169D01*
X176704633Y-89985011D01*
X176713618Y-89977230D01*
X176730844Y-89974173D01*
X176749011Y-89977297D01*
X176758369Y-89985163D01*
X176761618Y-89998292D01*
X176761618Y-90684736D01*
X176758369Y-90697864D01*
X176749011Y-90705730D01*
X176730844Y-90708855D01*
X176713645Y-90705779D01*
X176704647Y-90697931D01*
X176701474Y-90684614D01*
X176701474Y-90439211D01*
X176505408Y-90439211D01*
X176505408Y-90687972D01*
X176509579Y-90720716D01*
X176521836Y-90749660D01*
X176542682Y-90775832D01*
X176573735Y-90799713D01*
X176620817Y-90822887D01*
X176671942Y-90836921D01*
X176728096Y-90841723D01*
X176814589Y-90835180D01*
X176877100Y-90817932D01*
X176921378Y-90792452D01*
X176951660Y-90759483D01*
X176970183Y-90717905D01*
X176976796Y-90664952D01*
X176976796Y-90032486D01*
X176969904Y-89974132D01*
X176950759Y-89928783D01*
X176919867Y-89893310D01*
X176875345Y-89866262D01*
X176813255Y-89848140D01*
X176728096Y-89841304D01*
X176652075Y-89847476D01*
X176596552Y-89863856D01*
X176556645Y-89888353D01*
X176528878Y-89920565D01*
X176511627Y-89961853D01*
X176505408Y-90015083D01*
X176505408Y-90193014D01*
G37*
G36*
X176471946Y-90830000D02*
G01*
X176258845Y-90830000D01*
X176222636Y-90568171D01*
X176126282Y-90568171D01*
X176090073Y-90830000D01*
X175876971Y-90830000D01*
X175942479Y-90431395D01*
X176144050Y-90431395D01*
X176204195Y-90431395D01*
X176174825Y-90137754D01*
X176144050Y-90431395D01*
X175942479Y-90431395D01*
X176038171Y-89849120D01*
X176310746Y-89849120D01*
X176471946Y-90830000D01*
G37*
G36*
X175437028Y-90830000D02*
G01*
X175840762Y-90830000D01*
X175840762Y-89849120D01*
X175625584Y-89849120D01*
X175625584Y-90704947D01*
X175437028Y-90704947D01*
X175437028Y-90830000D01*
G37*
G36*
X175193030Y-90830000D02*
G01*
X175408269Y-90830000D01*
X175408269Y-89849120D01*
X175193030Y-89849120D01*
X175193030Y-90830000D01*
G37*
G36*
X175149127Y-90830000D02*
G01*
X174939445Y-90830000D01*
X174939445Y-90470474D01*
X174845570Y-90468273D01*
X174780817Y-90459927D01*
X174738071Y-90447674D01*
X174711322Y-90433105D01*
X174689228Y-90411145D01*
X174672721Y-90382252D01*
X174661967Y-90344737D01*
X174658016Y-90296268D01*
X174658016Y-90041889D01*
X174867698Y-90041889D01*
X174867698Y-90277705D01*
X174871912Y-90299891D01*
X174883803Y-90315367D01*
X174904851Y-90325695D01*
X174939445Y-90329790D01*
X174939445Y-89989804D01*
X174904851Y-89993899D01*
X174883803Y-90004227D01*
X174871912Y-90019703D01*
X174867698Y-90041889D01*
X174658016Y-90041889D01*
X174658016Y-90023326D01*
X174662904Y-89970859D01*
X174676027Y-89932044D01*
X174696092Y-89903605D01*
X174723290Y-89883436D01*
X174768401Y-89866006D01*
X174833028Y-89853811D01*
X174923019Y-89849120D01*
X175149127Y-89849120D01*
X175149127Y-90830000D01*
G37*
G36*
X174197862Y-90830000D02*
G01*
X174618632Y-90830000D01*
X174618632Y-89849120D01*
X174200610Y-89849120D01*
X174200610Y-89974173D01*
X174403454Y-89974173D01*
X174403454Y-90239909D01*
X174220394Y-90239909D01*
X174220394Y-90357145D01*
X174403454Y-90357145D01*
X174403454Y-90704947D01*
X174197862Y-90704947D01*
X174197862Y-90830000D01*
G37*
G36*
X174159699Y-90830000D02*
G01*
X173944521Y-90830000D01*
X173944521Y-90357145D01*
X173912382Y-90361031D01*
X173892718Y-90370874D01*
X173881526Y-90385726D01*
X173877538Y-90407154D01*
X173879614Y-90532573D01*
X173880957Y-90591496D01*
X173880957Y-90592901D01*
X173875152Y-90726806D01*
X173861939Y-90797748D01*
X173846153Y-90830000D01*
X173630975Y-90830000D01*
X173644050Y-90812336D01*
X173656756Y-90772282D01*
X173666963Y-90695392D01*
X173671275Y-90563286D01*
X173667855Y-90455881D01*
X173673512Y-90406369D01*
X173689309Y-90367194D01*
X173714801Y-90335959D01*
X173751307Y-90311446D01*
X173801700Y-90293825D01*
X173750308Y-90272966D01*
X173713669Y-90247349D01*
X173688728Y-90217243D01*
X173673746Y-90181908D01*
X173668527Y-90139708D01*
X173668527Y-90025647D01*
X173877538Y-90025647D01*
X173877538Y-90187702D01*
X173881611Y-90210275D01*
X173892943Y-90225769D01*
X173912627Y-90235925D01*
X173944521Y-90239909D01*
X173944521Y-89974173D01*
X173912546Y-89978124D01*
X173892869Y-89988176D01*
X173881583Y-90003456D01*
X173877538Y-90025647D01*
X173668527Y-90025647D01*
X173668527Y-90022349D01*
X173673103Y-89978702D01*
X173685948Y-89943294D01*
X173706611Y-89914333D01*
X173735816Y-89890764D01*
X173782284Y-89868004D01*
X173834581Y-89853990D01*
X173893963Y-89849120D01*
X174159699Y-89849120D01*
X174159699Y-90830000D01*
G37*
G36*
X172881821Y-90193014D02*
G01*
X173077887Y-90193014D01*
X173077887Y-89998169D01*
X173081046Y-89985011D01*
X173090031Y-89977230D01*
X173107257Y-89974173D01*
X173125424Y-89977297D01*
X173134782Y-89985163D01*
X173138032Y-89998292D01*
X173138032Y-90684736D01*
X173134782Y-90697864D01*
X173125424Y-90705730D01*
X173107257Y-90708855D01*
X173090058Y-90705779D01*
X173081060Y-90697931D01*
X173077887Y-90684614D01*
X173077887Y-90439211D01*
X172881821Y-90439211D01*
X172881821Y-90687972D01*
X172885992Y-90720716D01*
X172898249Y-90749660D01*
X172919095Y-90775832D01*
X172950148Y-90799713D01*
X172997231Y-90822887D01*
X173048355Y-90836921D01*
X173104509Y-90841723D01*
X173191002Y-90835180D01*
X173253513Y-90817932D01*
X173297791Y-90792452D01*
X173328073Y-90759483D01*
X173346596Y-90717905D01*
X173353210Y-90664952D01*
X173353210Y-90032486D01*
X173346318Y-89974132D01*
X173327172Y-89928783D01*
X173296280Y-89893310D01*
X173251758Y-89866262D01*
X173189668Y-89848140D01*
X173104509Y-89841304D01*
X173028488Y-89847476D01*
X172972966Y-89863856D01*
X172933058Y-89888353D01*
X172905291Y-89920565D01*
X172888040Y-89961853D01*
X172881821Y-90015083D01*
X172881821Y-90193014D01*
G37*
G36*
X172428934Y-90830000D02*
G01*
X172832667Y-90830000D01*
X172832667Y-89849120D01*
X172617489Y-89849120D01*
X172617489Y-90704947D01*
X172428934Y-90704947D01*
X172428934Y-90830000D01*
G37*
G36*
X172235384Y-89848122D02*
G01*
X172297092Y-89866206D01*
X172341380Y-89893217D01*
X172372142Y-89928677D01*
X172391225Y-89974054D01*
X172398098Y-90032486D01*
X172398098Y-90664952D01*
X172391519Y-90718048D01*
X172373114Y-90759676D01*
X172343081Y-90792621D01*
X172299259Y-90818034D01*
X172237496Y-90835211D01*
X172152145Y-90841723D01*
X172080552Y-90836036D01*
X172022319Y-90820235D01*
X171974886Y-90795500D01*
X171944973Y-90769698D01*
X171924104Y-90739735D01*
X171911375Y-90704810D01*
X171906926Y-90663548D01*
X171906926Y-90031081D01*
X171910107Y-90003909D01*
X172117341Y-90003909D01*
X172117341Y-90679118D01*
X172121158Y-90695553D01*
X172131875Y-90705133D01*
X172152145Y-90708855D01*
X172173365Y-90705074D01*
X172184451Y-90695440D01*
X172188354Y-90679118D01*
X172188354Y-90003909D01*
X172184451Y-89987588D01*
X172173365Y-89977954D01*
X172152145Y-89974173D01*
X172131875Y-89977894D01*
X172121158Y-89987474D01*
X172117341Y-90003909D01*
X171910107Y-90003909D01*
X171913727Y-89972989D01*
X171932597Y-89927914D01*
X171962984Y-89892730D01*
X172006680Y-89865960D01*
X172067500Y-89848052D01*
X172150802Y-89841304D01*
X172235384Y-89848122D01*
G37*
G36*
X171390963Y-90193014D02*
G01*
X171587028Y-90193014D01*
X171587028Y-89998169D01*
X171590187Y-89985011D01*
X171599173Y-89977230D01*
X171616399Y-89974173D01*
X171634565Y-89977297D01*
X171643924Y-89985163D01*
X171647173Y-89998292D01*
X171647173Y-90684736D01*
X171643924Y-90697864D01*
X171634565Y-90705730D01*
X171616399Y-90708855D01*
X171599200Y-90705779D01*
X171590201Y-90697931D01*
X171587028Y-90684614D01*
X171587028Y-90439211D01*
X171390963Y-90439211D01*
X171390963Y-90687972D01*
X171395134Y-90720716D01*
X171407390Y-90749660D01*
X171428237Y-90775832D01*
X171459289Y-90799713D01*
X171506372Y-90822887D01*
X171557496Y-90836921D01*
X171613651Y-90841723D01*
X171700143Y-90835180D01*
X171762655Y-90817932D01*
X171806933Y-90792452D01*
X171837215Y-90759483D01*
X171855737Y-90717905D01*
X171862351Y-90664952D01*
X171862351Y-90032486D01*
X171855459Y-89974132D01*
X171836314Y-89928783D01*
X171805422Y-89893310D01*
X171760900Y-89866262D01*
X171698810Y-89848140D01*
X171613651Y-89841304D01*
X171537630Y-89847476D01*
X171482107Y-89863856D01*
X171442200Y-89888353D01*
X171414433Y-89920565D01*
X171397182Y-89961853D01*
X171390963Y-90015083D01*
X171390963Y-90193014D01*
G37*
G36*
X170806917Y-90830000D02*
G01*
X171043283Y-90830000D01*
X171125959Y-90466078D01*
X171125959Y-90830000D01*
X171341137Y-90830000D01*
X171341137Y-89849120D01*
X171125959Y-89849120D01*
X171125959Y-90176100D01*
X171031681Y-89849120D01*
X170832196Y-89849120D01*
X170964698Y-90296451D01*
X170806917Y-90830000D01*
G37*
G36*
X169977896Y-89849120D02*
G01*
X170109726Y-90830000D01*
X170414419Y-90830000D01*
X170546249Y-89849120D01*
X170336505Y-89849120D01*
X170262072Y-90534527D01*
X170188311Y-89849120D01*
X169977896Y-89849120D01*
G37*
G36*
X169464680Y-90830000D02*
G01*
X169955853Y-90830000D01*
X169955853Y-90700856D01*
X169714052Y-90256395D01*
X169693312Y-90206648D01*
X169679524Y-90142067D01*
X169674424Y-90059047D01*
X169680445Y-90019553D01*
X169695023Y-90000136D01*
X169718143Y-89993712D01*
X169744147Y-89998699D01*
X169758139Y-90011732D01*
X169763206Y-90034501D01*
X169763206Y-90201685D01*
X169955853Y-90201685D01*
X169955853Y-90030715D01*
X169949067Y-89972724D01*
X169930243Y-89927732D01*
X169899933Y-89892618D01*
X169856355Y-89865904D01*
X169795707Y-89848037D01*
X169712648Y-89841304D01*
X169635690Y-89846869D01*
X169580024Y-89861512D01*
X169540577Y-89883054D01*
X169513529Y-89910730D01*
X169494378Y-89945623D01*
X169479027Y-89993007D01*
X169468589Y-90056123D01*
X169464680Y-90138731D01*
X169470412Y-90197543D01*
X169485868Y-90241313D01*
X169727669Y-90704947D01*
X169464680Y-90704947D01*
X169464680Y-90830000D01*
G37*
G36*
X169251273Y-90830000D02*
G01*
X169428899Y-90830000D01*
X169428899Y-90685408D01*
X169251273Y-90685408D01*
X169251273Y-90830000D01*
G37*
G36*
X169035412Y-89846440D02*
G01*
X169093581Y-89860248D01*
X169137417Y-89880961D01*
X169169892Y-89907777D01*
X169192975Y-89940962D01*
X169207400Y-89981814D01*
X169212561Y-90032486D01*
X169212561Y-90664952D01*
X169208054Y-90705733D01*
X169195134Y-90740323D01*
X169173874Y-90770090D01*
X169143257Y-90795806D01*
X169094911Y-90820282D01*
X169034917Y-90836027D01*
X168960502Y-90841723D01*
X168888471Y-90836024D01*
X168829293Y-90820125D01*
X168780556Y-90795134D01*
X168749559Y-90769057D01*
X168728078Y-90739035D01*
X168715053Y-90704314D01*
X168710519Y-90663548D01*
X168710519Y-90031081D01*
X168713745Y-90003909D01*
X168925697Y-90003909D01*
X168925697Y-90679118D01*
X168929515Y-90695553D01*
X168940232Y-90705133D01*
X168960502Y-90708855D01*
X168982178Y-90705046D01*
X168993439Y-90695387D01*
X168997383Y-90679118D01*
X168997383Y-90003909D01*
X168993439Y-89987641D01*
X168982178Y-89977982D01*
X168960502Y-89974173D01*
X168940232Y-89977894D01*
X168929515Y-89987474D01*
X168925697Y-90003909D01*
X168713745Y-90003909D01*
X168717384Y-89973254D01*
X168736468Y-89928272D01*
X168767297Y-89893043D01*
X168811785Y-89866148D01*
X168873899Y-89848111D01*
X168959159Y-89841304D01*
X169035412Y-89846440D01*
G37*
D11*
X170674790Y-98939844D02*
X170685700Y-98940640D01*
X170696693Y-98942039D01*
X170707772Y-98944031D01*
X170718940Y-98946609D01*
X170730201Y-98949763D01*
X170741556Y-98953486D01*
X170753009Y-98957767D01*
X170776221Y-98967972D01*
X170799859Y-98980308D01*
X170823947Y-98994707D01*
X170848507Y-99011097D01*
X170858088Y-99018601D01*
X170866987Y-99027193D01*
X170875205Y-99036830D01*
X170882743Y-99047467D01*
X170889600Y-99059062D01*
X170895777Y-99071570D01*
X170906095Y-99099154D01*
X170913700Y-99129869D01*
X170918596Y-99163367D01*
X170920786Y-99199299D01*
X170920275Y-99237316D01*
X170917067Y-99277069D01*
X170911165Y-99318210D01*
X170902573Y-99360390D01*
X170891295Y-99403260D01*
X170877336Y-99446470D01*
X170860698Y-99489673D01*
X170841385Y-99532519D01*
X170819403Y-99574660D01*
X170799720Y-99608582D01*
X170780382Y-99640899D01*
X170761424Y-99671619D01*
X170742881Y-99700750D01*
X170724787Y-99728300D01*
X170707178Y-99754277D01*
X170690088Y-99778687D01*
X170673552Y-99801540D01*
X170657605Y-99822842D01*
X170642282Y-99842602D01*
X170627619Y-99860827D01*
X170613648Y-99877525D01*
X170600407Y-99892704D01*
X170587929Y-99906371D01*
X170576249Y-99918534D01*
X170565403Y-99929202D01*
X170537710Y-99953913D01*
X170498141Y-99986997D01*
X170446480Y-100026405D01*
X170416047Y-100047842D01*
X170382510Y-100070092D01*
X170345841Y-100092901D01*
X170306013Y-100116012D01*
X170262999Y-100139169D01*
X170216773Y-100162118D01*
X170167306Y-100184601D01*
X170114573Y-100206363D01*
X170058544Y-100227149D01*
X169999195Y-100246702D01*
X169894410Y-100277542D01*
X169843954Y-100291071D01*
X169794928Y-100302926D01*
X169747437Y-100312796D01*
X169701585Y-100320372D01*
X169657477Y-100325343D01*
X169636110Y-100326755D01*
X169615218Y-100327400D01*
X169594815Y-100327238D01*
X169574913Y-100326232D01*
X169555525Y-100324342D01*
X169536665Y-100321529D01*
X169518345Y-100317756D01*
X169500580Y-100312982D01*
X169483381Y-100307170D01*
X169466762Y-100300280D01*
X169450736Y-100292274D01*
X169435316Y-100283113D01*
X169420516Y-100272758D01*
X169406347Y-100261171D01*
X169392824Y-100248313D01*
X169379959Y-100234145D01*
X169367766Y-100218627D01*
X169356257Y-100201723D01*
X169344215Y-100181345D01*
X169333096Y-100159131D01*
X169323201Y-100135413D01*
X169314833Y-100110524D01*
X169311317Y-100097745D01*
X169308295Y-100084798D01*
X169305806Y-100071726D01*
X169303888Y-100058569D01*
X169302579Y-100045369D01*
X169301916Y-100032168D01*
X169301936Y-100019008D01*
X169302679Y-100005931D01*
X169304181Y-99992977D01*
X169306481Y-99980189D01*
X169309616Y-99967609D01*
X169313624Y-99955277D01*
X169318543Y-99943237D01*
X169324410Y-99931528D01*
X169331264Y-99920194D01*
X169339142Y-99909275D01*
X169348082Y-99898814D01*
X169358121Y-99888851D01*
X169369299Y-99879430D01*
X169381651Y-99870590D01*
X169395217Y-99862375D01*
X169410033Y-99854825D01*
X169426138Y-99847982D01*
X169443570Y-99841889D01*
X169611994Y-99787448D01*
X169683137Y-99763958D01*
X169746683Y-99742216D01*
X169803470Y-99721667D01*
X169854335Y-99701758D01*
X169900116Y-99681935D01*
X169921360Y-99671882D01*
X169941648Y-99661642D01*
X169961083Y-99651147D01*
X169979770Y-99640326D01*
X169997813Y-99629111D01*
X170015318Y-99617433D01*
X170032388Y-99605222D01*
X170049130Y-99592408D01*
X170065646Y-99578923D01*
X170082042Y-99564697D01*
X170098423Y-99549661D01*
X170114893Y-99533746D01*
X170148519Y-99499001D01*
X170183757Y-99459907D01*
X170221445Y-99415910D01*
X170247645Y-99383753D01*
X170270930Y-99353620D01*
X170291673Y-99325300D01*
X170310245Y-99298584D01*
X170327020Y-99273264D01*
X170342368Y-99249130D01*
X170370273Y-99203582D01*
X170396938Y-99160267D01*
X170410736Y-99138923D01*
X170425339Y-99117510D01*
X170441121Y-99095817D01*
X170458454Y-99073636D01*
X170477708Y-99050758D01*
X170499257Y-99026972D01*
X170509195Y-99016188D01*
X170519167Y-99006155D01*
X170529176Y-98996865D01*
X170539224Y-98988308D01*
X170549315Y-98980475D01*
X170559451Y-98973359D01*
X170569636Y-98966950D01*
X170579873Y-98961240D01*
X170590163Y-98956219D01*
X170600511Y-98951880D01*
X170610919Y-98948213D01*
X170621390Y-98945209D01*
X170631926Y-98942861D01*
X170642532Y-98941159D01*
X170653209Y-98940095D01*
X170663961Y-98939659D01*
X170674790Y-98939844D01*
D12*
G36*
X170333985Y-98445073D02*
G01*
X170337619Y-98445274D01*
X170341204Y-98445662D01*
X170344736Y-98446231D01*
X170348210Y-98446977D01*
X170351623Y-98447896D01*
X170354968Y-98448983D01*
X170358242Y-98450234D01*
X170361440Y-98451643D01*
X170364558Y-98453207D01*
X170367590Y-98454921D01*
X170370532Y-98456779D01*
X170373380Y-98458779D01*
X170376130Y-98460915D01*
X170378775Y-98463182D01*
X170381313Y-98465577D01*
X170383737Y-98468094D01*
X170386044Y-98470728D01*
X170388230Y-98473477D01*
X170390289Y-98476334D01*
X170392216Y-98479296D01*
X170394008Y-98482357D01*
X170395660Y-98485514D01*
X170397166Y-98488761D01*
X170398523Y-98492094D01*
X170399726Y-98495509D01*
X170400771Y-98499001D01*
X170401651Y-98502566D01*
X170402364Y-98506198D01*
X170402905Y-98509894D01*
X170403268Y-98513649D01*
X170403450Y-98517458D01*
X170403446Y-98521271D01*
X170403258Y-98525039D01*
X170402890Y-98528756D01*
X170402347Y-98532418D01*
X170401633Y-98536019D01*
X170400753Y-98539556D01*
X170399710Y-98543024D01*
X170398510Y-98546417D01*
X170397156Y-98549731D01*
X170395654Y-98552961D01*
X170394006Y-98556102D01*
X170392219Y-98559151D01*
X170390295Y-98562101D01*
X170388240Y-98564948D01*
X170386058Y-98567688D01*
X170383754Y-98570315D01*
X170381330Y-98572825D01*
X170378793Y-98575213D01*
X170376147Y-98577475D01*
X170373395Y-98579605D01*
X170370542Y-98581599D01*
X170367593Y-98583452D01*
X170364552Y-98585159D01*
X170361423Y-98586716D01*
X170358211Y-98588118D01*
X170354920Y-98589360D01*
X170351554Y-98590437D01*
X170348118Y-98591344D01*
X170344616Y-98592078D01*
X170341053Y-98592632D01*
X170337433Y-98593003D01*
X170333760Y-98593185D01*
X170330083Y-98593174D01*
X170326449Y-98592972D01*
X170322864Y-98592585D01*
X170319332Y-98592015D01*
X170315858Y-98591269D01*
X170312446Y-98590350D01*
X170309100Y-98589263D01*
X170305826Y-98588012D01*
X170302628Y-98586603D01*
X170299511Y-98585039D01*
X170296478Y-98583325D01*
X170293536Y-98581466D01*
X170290688Y-98579467D01*
X170287939Y-98577331D01*
X170285293Y-98575064D01*
X170282756Y-98572669D01*
X170280331Y-98570152D01*
X170278024Y-98567517D01*
X170275839Y-98564769D01*
X170273780Y-98561911D01*
X170271852Y-98558950D01*
X170270060Y-98555888D01*
X170268409Y-98552732D01*
X170266902Y-98549484D01*
X170265545Y-98546151D01*
X170264342Y-98542736D01*
X170263298Y-98539244D01*
X170262417Y-98535679D01*
X170261704Y-98532047D01*
X170261163Y-98528351D01*
X170260800Y-98524596D01*
X170260618Y-98520787D01*
X170260622Y-98516974D01*
X170260810Y-98513206D01*
X170261178Y-98509489D01*
X170261721Y-98505828D01*
X170262435Y-98502226D01*
X170263316Y-98498689D01*
X170264358Y-98495222D01*
X170265558Y-98491828D01*
X170266912Y-98488515D01*
X170268415Y-98485284D01*
X170270062Y-98482143D01*
X170271850Y-98479095D01*
X170273773Y-98476145D01*
X170275828Y-98473297D01*
X170278010Y-98470558D01*
X170280315Y-98467931D01*
X170282738Y-98465420D01*
X170285275Y-98463032D01*
X170287921Y-98460771D01*
X170290673Y-98458641D01*
X170293526Y-98456647D01*
X170296475Y-98454794D01*
X170299516Y-98453086D01*
X170302645Y-98451530D01*
X170305857Y-98450128D01*
X170309149Y-98448886D01*
X170312514Y-98447809D01*
X170315950Y-98446902D01*
X170319452Y-98446169D01*
X170323015Y-98445614D01*
X170326635Y-98445244D01*
X170330308Y-98445062D01*
X170333985Y-98445073D01*
G37*
G36*
X168978961Y-99431878D02*
G01*
X168982629Y-99432152D01*
X168986256Y-99432603D01*
X168989835Y-99433227D01*
X168993362Y-99434020D01*
X168996831Y-99434977D01*
X169000238Y-99436094D01*
X169003576Y-99437367D01*
X169006840Y-99438790D01*
X169010026Y-99440361D01*
X169013127Y-99442074D01*
X169016138Y-99443925D01*
X169019055Y-99445909D01*
X169021871Y-99448023D01*
X169024582Y-99450262D01*
X169027182Y-99452622D01*
X169029665Y-99455098D01*
X169032027Y-99457685D01*
X169034262Y-99460381D01*
X169036365Y-99463179D01*
X169038330Y-99466077D01*
X169040152Y-99469068D01*
X169041826Y-99472150D01*
X169043346Y-99475318D01*
X169044708Y-99478567D01*
X169045905Y-99481893D01*
X169046933Y-99485292D01*
X169047785Y-99488759D01*
X169048458Y-99492290D01*
X169048945Y-99495881D01*
X169049241Y-99499526D01*
X169049341Y-99503223D01*
X169049248Y-99506927D01*
X169048975Y-99510595D01*
X169048523Y-99514222D01*
X169047899Y-99517801D01*
X169047106Y-99521328D01*
X169046149Y-99524797D01*
X169045032Y-99528204D01*
X169043760Y-99531542D01*
X169042336Y-99534806D01*
X169040766Y-99537991D01*
X169039053Y-99541093D01*
X169037202Y-99544104D01*
X169035217Y-99547021D01*
X169033103Y-99549837D01*
X169030864Y-99552548D01*
X169028505Y-99555147D01*
X169026029Y-99557631D01*
X169023441Y-99559993D01*
X169020746Y-99562228D01*
X169017947Y-99564330D01*
X169015050Y-99566295D01*
X169012058Y-99568118D01*
X169008976Y-99569792D01*
X169005808Y-99571312D01*
X169002559Y-99572673D01*
X168999233Y-99573871D01*
X168995834Y-99574898D01*
X168992367Y-99575751D01*
X168988836Y-99576423D01*
X168985246Y-99576910D01*
X168981600Y-99577207D01*
X168977903Y-99577306D01*
X168974199Y-99577214D01*
X168970531Y-99576940D01*
X168966904Y-99576489D01*
X168963325Y-99575865D01*
X168959798Y-99575072D01*
X168956329Y-99574115D01*
X168952922Y-99572998D01*
X168949584Y-99571725D01*
X168946320Y-99570302D01*
X168943135Y-99568731D01*
X168940033Y-99567019D01*
X168937022Y-99565168D01*
X168934105Y-99563183D01*
X168931289Y-99561069D01*
X168928578Y-99558830D01*
X168925979Y-99556471D01*
X168923495Y-99553995D01*
X168921133Y-99551407D01*
X168918898Y-99548712D01*
X168916796Y-99545913D01*
X168914831Y-99543016D01*
X168913008Y-99540024D01*
X168911334Y-99536942D01*
X168909814Y-99533774D01*
X168908453Y-99530525D01*
X168907255Y-99527199D01*
X168906228Y-99523800D01*
X168905375Y-99520333D01*
X168904703Y-99516802D01*
X168904216Y-99513211D01*
X168903919Y-99509565D01*
X168903820Y-99505869D01*
X168903912Y-99502164D01*
X168904186Y-99498496D01*
X168904637Y-99494870D01*
X168905261Y-99491291D01*
X168906054Y-99487764D01*
X168907011Y-99484294D01*
X168908128Y-99480888D01*
X168909401Y-99477550D01*
X168910824Y-99474286D01*
X168912395Y-99471100D01*
X168914108Y-99467999D01*
X168915958Y-99464988D01*
X168917943Y-99462071D01*
X168920057Y-99459255D01*
X168922296Y-99456544D01*
X168924656Y-99453944D01*
X168927131Y-99451461D01*
X168929719Y-99449099D01*
X168932415Y-99446864D01*
X168935213Y-99444761D01*
X168938110Y-99442796D01*
X168941102Y-99440974D01*
X168944184Y-99439300D01*
X168947352Y-99437780D01*
X168950601Y-99436418D01*
X168953927Y-99435221D01*
X168957326Y-99434193D01*
X168960793Y-99433341D01*
X168964324Y-99432668D01*
X168967914Y-99432181D01*
X168971560Y-99431885D01*
X168975257Y-99431785D01*
X168978961Y-99431878D01*
G37*
D10*
X169901187Y-97591073D02*
X169988251Y-97595677D01*
X170074151Y-97604597D01*
X170158777Y-97617729D01*
X170242020Y-97634968D01*
X170323769Y-97656207D01*
X170403914Y-97681342D01*
X170482345Y-97710268D01*
X170558952Y-97742878D01*
X170633625Y-97779068D01*
X170706254Y-97818732D01*
X170776729Y-97861765D01*
X170844941Y-97908061D01*
X170910777Y-97957515D01*
X170974130Y-98010023D01*
X171034889Y-98065477D01*
X171092943Y-98123774D01*
X171148183Y-98184808D01*
X171200499Y-98248473D01*
X171249780Y-98314664D01*
X171295917Y-98383275D01*
X171338799Y-98454202D01*
X171378317Y-98527339D01*
X171414361Y-98602580D01*
X171446819Y-98679821D01*
X171475584Y-98758956D01*
X171500543Y-98839879D01*
X171521588Y-98922485D01*
X171538608Y-99006670D01*
X171551494Y-99092326D01*
X171560134Y-99179350D01*
X171564420Y-99267636D01*
X171564252Y-99356026D01*
X171559675Y-99443358D01*
X171550794Y-99529522D01*
X171537715Y-99614408D01*
X171520541Y-99697905D01*
X171499379Y-99779903D01*
X171474333Y-99860292D01*
X171445508Y-99938961D01*
X171413009Y-100015800D01*
X171376941Y-100090699D01*
X171337410Y-100163546D01*
X171294519Y-100234233D01*
X171248375Y-100302648D01*
X171199083Y-100368681D01*
X171146746Y-100432222D01*
X171091471Y-100493160D01*
X171033362Y-100551385D01*
X170972524Y-100606787D01*
X170909063Y-100659255D01*
X170843082Y-100708679D01*
X170774689Y-100754949D01*
X170703986Y-100797953D01*
X170631080Y-100837583D01*
X170556076Y-100873727D01*
X170479077Y-100906275D01*
X170400190Y-100935116D01*
X170319520Y-100960141D01*
X170237171Y-100981239D01*
X170153248Y-100998300D01*
X170067857Y-101011213D01*
X169981102Y-101019867D01*
X169893089Y-101024153D01*
X169804971Y-101023972D01*
X169717908Y-101019369D01*
X169632008Y-101010448D01*
X169547381Y-100997316D01*
X169464139Y-100980078D01*
X169382390Y-100958838D01*
X169302245Y-100933703D01*
X169223814Y-100904778D01*
X169147207Y-100872168D01*
X169072533Y-100835978D01*
X168999904Y-100796314D01*
X168929429Y-100753281D01*
X168861218Y-100706985D01*
X168795381Y-100657530D01*
X168732028Y-100605023D01*
X168671270Y-100549568D01*
X168613216Y-100491271D01*
X168557976Y-100430238D01*
X168505660Y-100366573D01*
X168456379Y-100300382D01*
X168410242Y-100231770D01*
X168367359Y-100160843D01*
X168327841Y-100087706D01*
X168291798Y-100012465D01*
X168259339Y-99935224D01*
X168230575Y-99856089D01*
X168205615Y-99775166D01*
X168184570Y-99692560D01*
X168167550Y-99608375D01*
X168154665Y-99522719D01*
X168146025Y-99435695D01*
X168141739Y-99347409D01*
X168141907Y-99259019D01*
X168146484Y-99171687D01*
X168155364Y-99085523D01*
X168168444Y-99000638D01*
X168185617Y-98917140D01*
X168206780Y-98835142D01*
X168231826Y-98754753D01*
X168260651Y-98676084D01*
X168293150Y-98599245D01*
X168329218Y-98524347D01*
X168368749Y-98451499D01*
X168411639Y-98380812D01*
X168457783Y-98312397D01*
X168507076Y-98246364D01*
X168559413Y-98182823D01*
X168614688Y-98121885D01*
X168672797Y-98063660D01*
X168733635Y-98008258D01*
X168797096Y-97955790D01*
X168863076Y-97906366D01*
X168931470Y-97860097D01*
X169002172Y-97817092D01*
X169075078Y-97777463D01*
X169150083Y-97741319D01*
X169227081Y-97708771D01*
X169305968Y-97679929D01*
X169386639Y-97654904D01*
X169468988Y-97633806D01*
X169552911Y-97616746D01*
X169638302Y-97603833D01*
X169725057Y-97595178D01*
X169813070Y-97590892D01*
X169901187Y-97591073D01*
D13*
X169972736Y-99119578D02*
X169676403Y-99349764D01*
X169544111Y-98894682D01*
X169972736Y-99119578D01*
G36*
X169972736Y-99119578D02*
G01*
X169676403Y-99349764D01*
X169544111Y-98894682D01*
X169972736Y-99119578D01*
G37*
D10*
X168500000Y-91700000D02*
X168525160Y-91701084D01*
X168550286Y-91702842D01*
X168575373Y-91705267D01*
X168600417Y-91708351D01*
X168625415Y-91712086D01*
X168650362Y-91716464D01*
X168675255Y-91721478D01*
X168700090Y-91727119D01*
X168783654Y-91751321D01*
X168866584Y-91782541D01*
X168948758Y-91820462D01*
X169030055Y-91864770D01*
X169110351Y-91915149D01*
X169189526Y-91971285D01*
X169344020Y-92099562D01*
X169492561Y-92247078D01*
X169634173Y-92411310D01*
X169767878Y-92589735D01*
X169892700Y-92779830D01*
X170007662Y-92979072D01*
X170111787Y-93184937D01*
X170204099Y-93394903D01*
X170283622Y-93606446D01*
X170349378Y-93817044D01*
X170400390Y-94024172D01*
X170435683Y-94225309D01*
X170454279Y-94417931D01*
X170471482Y-94827741D01*
X170480283Y-95189646D01*
X170481952Y-95509074D01*
X170477761Y-95791449D01*
X170468981Y-96042199D01*
X170456884Y-96266748D01*
X170427821Y-96658952D01*
X170427188Y-96679457D01*
X170428210Y-96699279D01*
X170430808Y-96718386D01*
X170434901Y-96736746D01*
X170440408Y-96754326D01*
X170447250Y-96771096D01*
X170455346Y-96787023D01*
X170464615Y-96802075D01*
X170474977Y-96816220D01*
X170486351Y-96829426D01*
X170498658Y-96841661D01*
X170511816Y-96852894D01*
X170525745Y-96863091D01*
X170540366Y-96872222D01*
X170555597Y-96880254D01*
X170571357Y-96887155D01*
X170587568Y-96892894D01*
X170604147Y-96897437D01*
X170621016Y-96900754D01*
X170638092Y-96902813D01*
X170655297Y-96903581D01*
X170672549Y-96903026D01*
X170689768Y-96901117D01*
X170706874Y-96897821D01*
X170723785Y-96893107D01*
X170740423Y-96886942D01*
X170756706Y-96879295D01*
X170772554Y-96870133D01*
X170787887Y-96859425D01*
X170802624Y-96847138D01*
X170816684Y-96833241D01*
X170829988Y-96817702D01*
X170998515Y-96608805D01*
X171185026Y-96393707D01*
X171287079Y-96284220D01*
X171396093Y-96173648D01*
X171512889Y-96062146D01*
X171638290Y-95949868D01*
X171773116Y-95836971D01*
X171918190Y-95723608D01*
X172074333Y-95609936D01*
X172242366Y-95496108D01*
X172423112Y-95382280D01*
X172617393Y-95268608D01*
X172826029Y-95155245D01*
X173049842Y-95042348D01*
X173200065Y-94972143D01*
X173345199Y-94910172D01*
X173485333Y-94856158D01*
X173620556Y-94809824D01*
X173750959Y-94770893D01*
X173876629Y-94739087D01*
X173997655Y-94714130D01*
X174114128Y-94695743D01*
X174226136Y-94683652D01*
X174333768Y-94677577D01*
X174437114Y-94677242D01*
X174536262Y-94682370D01*
X174631303Y-94692683D01*
X174722323Y-94707906D01*
X174809414Y-94727759D01*
X174892664Y-94751967D01*
X174972163Y-94780253D01*
X175047998Y-94812338D01*
X175120261Y-94847947D01*
X175189039Y-94886802D01*
X175254422Y-94928625D01*
X175316499Y-94973140D01*
X175375359Y-95020070D01*
X175431091Y-95069137D01*
X175483785Y-95120064D01*
X175533529Y-95172575D01*
X175580413Y-95226392D01*
X175624526Y-95281237D01*
X175704795Y-95392908D01*
X175775049Y-95505368D01*
X175811423Y-95572507D01*
X175843666Y-95641384D01*
X175871803Y-95711878D01*
X175895858Y-95783868D01*
X175915855Y-95857232D01*
X175931819Y-95931848D01*
X175943773Y-96007595D01*
X175951741Y-96084351D01*
X175955749Y-96161995D01*
X175955820Y-96240404D01*
X175951978Y-96319458D01*
X175944248Y-96399035D01*
X175932654Y-96479013D01*
X175917220Y-96559270D01*
X175897971Y-96639685D01*
X175874930Y-96720137D01*
X175848121Y-96800503D01*
X175817570Y-96880662D01*
X175783300Y-96960493D01*
X175745336Y-97039874D01*
X175703701Y-97118684D01*
X175658420Y-97196799D01*
X175609517Y-97274101D01*
X175557016Y-97350465D01*
X175500943Y-97425772D01*
X175441319Y-97499898D01*
X175378171Y-97572724D01*
X175311522Y-97644127D01*
X175241397Y-97713985D01*
X175167819Y-97782177D01*
X175090813Y-97848581D01*
X175010404Y-97913077D01*
X174827561Y-98051166D01*
X174648121Y-98180885D01*
X174472076Y-98302541D01*
X174299419Y-98416447D01*
X174130141Y-98522910D01*
X173964235Y-98622243D01*
X173801694Y-98714754D01*
X173642508Y-98800754D01*
X173486672Y-98880553D01*
X173334176Y-98954460D01*
X173185013Y-99022787D01*
X173039176Y-99085843D01*
X172896656Y-99143937D01*
X172757446Y-99197381D01*
X172488925Y-99291556D01*
X172476212Y-99296453D01*
X172464364Y-99302178D01*
X172453379Y-99308672D01*
X172443253Y-99315880D01*
X172433984Y-99323745D01*
X172425568Y-99332211D01*
X172418003Y-99341220D01*
X172411286Y-99350715D01*
X172405414Y-99360641D01*
X172400384Y-99370941D01*
X172396193Y-99381557D01*
X172392838Y-99392434D01*
X172390316Y-99403514D01*
X172388625Y-99414741D01*
X172387761Y-99426057D01*
X172387722Y-99437408D01*
X172388504Y-99448735D01*
X172390105Y-99459982D01*
X172392522Y-99471092D01*
X172395752Y-99482010D01*
X172399792Y-99492677D01*
X172404639Y-99503037D01*
X172410291Y-99513035D01*
X172416743Y-99522612D01*
X172423994Y-99531712D01*
X172432041Y-99540279D01*
X172440880Y-99548256D01*
X172450509Y-99555587D01*
X172460924Y-99562213D01*
X172472124Y-99568080D01*
X172484104Y-99573130D01*
X172496862Y-99577306D01*
X172676985Y-99631498D01*
X172841725Y-99686266D01*
X172993186Y-99742128D01*
X173133474Y-99799598D01*
X173264693Y-99859192D01*
X173388947Y-99921425D01*
X173508341Y-99986813D01*
X173624979Y-100055872D01*
X173740966Y-100129116D01*
X173858407Y-100207061D01*
X174106066Y-100379118D01*
X174384793Y-100576165D01*
X174711425Y-100802327D01*
X174831916Y-100887909D01*
X174947274Y-100977279D01*
X175057421Y-101070148D01*
X175162276Y-101166227D01*
X175261762Y-101265226D01*
X175355799Y-101366856D01*
X175444308Y-101470828D01*
X175527210Y-101576853D01*
X175604426Y-101684641D01*
X175675878Y-101793904D01*
X175741487Y-101904351D01*
X175801172Y-102015695D01*
X175854856Y-102127644D01*
X175902460Y-102239911D01*
X175943904Y-102352207D01*
X175979110Y-102464241D01*
X176007998Y-102575725D01*
X176030490Y-102686369D01*
X176046506Y-102795884D01*
X176055968Y-102903981D01*
X176058797Y-103010372D01*
X176054913Y-103114765D01*
X176044238Y-103216873D01*
X176026693Y-103316406D01*
X176002199Y-103413075D01*
X175970677Y-103506590D01*
X175932047Y-103596663D01*
X175886231Y-103683004D01*
X175833151Y-103765324D01*
X175772726Y-103843333D01*
X175704879Y-103916743D01*
X175629529Y-103985264D01*
X175539759Y-104050942D01*
X175443457Y-104104506D01*
X175341178Y-104146558D01*
X175233476Y-104177697D01*
X175120903Y-104198522D01*
X175004015Y-104209634D01*
X174883364Y-104211632D01*
X174759505Y-104205116D01*
X174632990Y-104190686D01*
X174504375Y-104168942D01*
X174374212Y-104140482D01*
X174243055Y-104105908D01*
X173979976Y-104020814D01*
X173719568Y-103918457D01*
X173466260Y-103803636D01*
X173224482Y-103681148D01*
X172998664Y-103555793D01*
X172793236Y-103432368D01*
X172612629Y-103315671D01*
X172461272Y-103210500D01*
X172343595Y-103121654D01*
X172264029Y-103053931D01*
X171965804Y-102770971D01*
X171711297Y-102526583D01*
X171496355Y-102316673D01*
X171316820Y-102137149D01*
X171168540Y-101983918D01*
X171047359Y-101852887D01*
X170995632Y-101794418D01*
X170949122Y-101739964D01*
X170907309Y-101689014D01*
X170869675Y-101641056D01*
X170861752Y-101631551D01*
X170853387Y-101622874D01*
X170844622Y-101615016D01*
X170835496Y-101607967D01*
X170826047Y-101601719D01*
X170816317Y-101596262D01*
X170806345Y-101591586D01*
X170796170Y-101587684D01*
X170785832Y-101584545D01*
X170775371Y-101582160D01*
X170764827Y-101580521D01*
X170754240Y-101579617D01*
X170743648Y-101579440D01*
X170733092Y-101579981D01*
X170722612Y-101581230D01*
X170712247Y-101583178D01*
X170702037Y-101585815D01*
X170692022Y-101589134D01*
X170682242Y-101593124D01*
X170672736Y-101597776D01*
X170663543Y-101603082D01*
X170654704Y-101609031D01*
X170646259Y-101615615D01*
X170638247Y-101622824D01*
X170630707Y-101630649D01*
X170623680Y-101639082D01*
X170617206Y-101648112D01*
X170611323Y-101657731D01*
X170606072Y-101667930D01*
X170601493Y-101678698D01*
X170597625Y-101690028D01*
X170594507Y-101701910D01*
X170563907Y-101824677D01*
X170525695Y-101955533D01*
X170479887Y-102094008D01*
X170426497Y-102239634D01*
X170365542Y-102391942D01*
X170297037Y-102550463D01*
X170220998Y-102714728D01*
X170137440Y-102884267D01*
X170046379Y-103058612D01*
X169947829Y-103237295D01*
X169841807Y-103419845D01*
X169728328Y-103605794D01*
X169607408Y-103794674D01*
X169479062Y-103986014D01*
X169343305Y-104179347D01*
X169200154Y-104374202D01*
X169076873Y-104528662D01*
X168943038Y-104678592D01*
X168799940Y-104822622D01*
X168648870Y-104959386D01*
X168491118Y-105087514D01*
X168327974Y-105205639D01*
X168160731Y-105312393D01*
X167990677Y-105406408D01*
X167819104Y-105486314D01*
X167647303Y-105550745D01*
X167561720Y-105576729D01*
X167476563Y-105598332D01*
X167391995Y-105615381D01*
X167308176Y-105627707D01*
X167225269Y-105635137D01*
X167143433Y-105637501D01*
X167062830Y-105634629D01*
X166983623Y-105626348D01*
X166905971Y-105612488D01*
X166830037Y-105592877D01*
X166755982Y-105567346D01*
X166683967Y-105535722D01*
X166610190Y-105495256D01*
X166540644Y-105448445D01*
X166475294Y-105395547D01*
X166414107Y-105336820D01*
X166357050Y-105272524D01*
X166304089Y-105202917D01*
X166255190Y-105128259D01*
X166210321Y-105048807D01*
X166132537Y-104876558D01*
X166070469Y-104688240D01*
X166023850Y-104485923D01*
X165992412Y-104271676D01*
X165975888Y-104047570D01*
X165974010Y-103815673D01*
X165986511Y-103578056D01*
X166013124Y-103336787D01*
X166053581Y-103093938D01*
X166107614Y-102851577D01*
X166174957Y-102611774D01*
X166255342Y-102376598D01*
X166325078Y-102200588D01*
X166398992Y-102033508D01*
X166476549Y-101875047D01*
X166557214Y-101724896D01*
X166640453Y-101582745D01*
X166725731Y-101448283D01*
X166812513Y-101321200D01*
X166900263Y-101201187D01*
X166988448Y-101087932D01*
X167076531Y-100981128D01*
X167163980Y-100880462D01*
X167250257Y-100785625D01*
X167334830Y-100696308D01*
X167417162Y-100612199D01*
X167572966Y-100458369D01*
X167580870Y-100450261D01*
X167587733Y-100441841D01*
X167593584Y-100433155D01*
X167598453Y-100424247D01*
X167602368Y-100415163D01*
X167605359Y-100405948D01*
X167607455Y-100396646D01*
X167608685Y-100387304D01*
X167609077Y-100377965D01*
X167608662Y-100368675D01*
X167607467Y-100359479D01*
X167605522Y-100350422D01*
X167602857Y-100341549D01*
X167599499Y-100332906D01*
X167595479Y-100324536D01*
X167590825Y-100316486D01*
X167585567Y-100308800D01*
X167579733Y-100301524D01*
X167573353Y-100294702D01*
X167566455Y-100288379D01*
X167559069Y-100282601D01*
X167551223Y-100277413D01*
X167542947Y-100272859D01*
X167534271Y-100268985D01*
X167525222Y-100265835D01*
X167515830Y-100263456D01*
X167506124Y-100261891D01*
X167496133Y-100261187D01*
X167485887Y-100261387D01*
X167475414Y-100262537D01*
X167464743Y-100264683D01*
X167453903Y-100267869D01*
X167138471Y-100383252D01*
X166972165Y-100441672D01*
X166793768Y-100498387D01*
X166598504Y-100551753D01*
X166493054Y-100576667D01*
X166381597Y-100600128D01*
X166263536Y-100621929D01*
X166138273Y-100641867D01*
X166005213Y-100659734D01*
X165863758Y-100675327D01*
X165718957Y-100688050D01*
X165575376Y-100696961D01*
X165433181Y-100702078D01*
X165292537Y-100703418D01*
X165153610Y-100700999D01*
X165016565Y-100694837D01*
X164881569Y-100684951D01*
X164748787Y-100671358D01*
X164618385Y-100654075D01*
X164490528Y-100633120D01*
X164365382Y-100608510D01*
X164243113Y-100580263D01*
X164123886Y-100548396D01*
X164007867Y-100512926D01*
X163895222Y-100473871D01*
X163786117Y-100431249D01*
X163680717Y-100385076D01*
X163579188Y-100335371D01*
X163481695Y-100282151D01*
X163388405Y-100225432D01*
X163299483Y-100165233D01*
X163215094Y-100101572D01*
X163135404Y-100034464D01*
X163060580Y-99963929D01*
X162990786Y-99889983D01*
X162926189Y-99812644D01*
X162866954Y-99731929D01*
X162813246Y-99647855D01*
X162765232Y-99560441D01*
X162723077Y-99469703D01*
X162686947Y-99375660D01*
X162657008Y-99278328D01*
X162644442Y-99223288D01*
X162636351Y-99167881D01*
X162632497Y-99112220D01*
X162632642Y-99056419D01*
X162636549Y-99000590D01*
X162643980Y-98944848D01*
X162654696Y-98889305D01*
X162668459Y-98834076D01*
X162685033Y-98779272D01*
X162704179Y-98725009D01*
X162725659Y-98671398D01*
X162749235Y-98618554D01*
X162774669Y-98566589D01*
X162801724Y-98515618D01*
X162830162Y-98465753D01*
X162859745Y-98417109D01*
X162921393Y-98323932D01*
X162984766Y-98236996D01*
X163047960Y-98157206D01*
X163109073Y-98085470D01*
X163166202Y-98022695D01*
X163217444Y-97969787D01*
X163260895Y-97927654D01*
X163294654Y-97897202D01*
X163404763Y-97814471D01*
X163533585Y-97738891D01*
X163679491Y-97670420D01*
X163840853Y-97609013D01*
X164016044Y-97554630D01*
X164203435Y-97507226D01*
X164401400Y-97466760D01*
X164608310Y-97433189D01*
X164822537Y-97406471D01*
X165042454Y-97386562D01*
X165266432Y-97373420D01*
X165492845Y-97367002D01*
X165720063Y-97367266D01*
X165946461Y-97374170D01*
X166170408Y-97387669D01*
X166390278Y-97407723D01*
X167146987Y-97485445D01*
X167246092Y-97498286D01*
X167346499Y-97514507D01*
X167466874Y-97537116D01*
X167625883Y-97569119D01*
X167643081Y-97573419D01*
X167663834Y-97579165D01*
X167677032Y-97583046D01*
X167692029Y-97587640D01*
X167717676Y-97594211D01*
X167742983Y-97598602D01*
X167767889Y-97600893D01*
X167792332Y-97601169D01*
X167816253Y-97599510D01*
X167839589Y-97596000D01*
X167862280Y-97590720D01*
X167884265Y-97583754D01*
X167905482Y-97575183D01*
X167925871Y-97565090D01*
X167945370Y-97553557D01*
X167963919Y-97540666D01*
X167981456Y-97526500D01*
X167997920Y-97511142D01*
X168013251Y-97494673D01*
X168027388Y-97477176D01*
X168040268Y-97458734D01*
X168051832Y-97439428D01*
X168062018Y-97419341D01*
X168070765Y-97398556D01*
X168078012Y-97377154D01*
X168083698Y-97355219D01*
X168087762Y-97332832D01*
X168090143Y-97310076D01*
X168090781Y-97287033D01*
X168089613Y-97263785D01*
X168086578Y-97240416D01*
X168081617Y-97217006D01*
X168074667Y-97193640D01*
X168065668Y-97170398D01*
X168054559Y-97147364D01*
X168041278Y-97124619D01*
X167875201Y-96850610D01*
X167704844Y-96543363D01*
X167620135Y-96377662D01*
X167536844Y-96204117D01*
X167455801Y-96022883D01*
X167377836Y-95834114D01*
X167303777Y-95637966D01*
X167234454Y-95434593D01*
X167170697Y-95224151D01*
X167113335Y-95006795D01*
X167063197Y-94782680D01*
X167021113Y-94551960D01*
X166987912Y-94314791D01*
X166964424Y-94071328D01*
X166953500Y-93862510D01*
X166952812Y-93657389D01*
X166962860Y-93456935D01*
X166972066Y-93358761D01*
X166984144Y-93262116D01*
X166999155Y-93167123D01*
X167017163Y-93073902D01*
X167038230Y-92982574D01*
X167062418Y-92893260D01*
X167089790Y-92806082D01*
X167120409Y-92721161D01*
X167154336Y-92638617D01*
X167191635Y-92558573D01*
X167232368Y-92481148D01*
X167276597Y-92406464D01*
X167324385Y-92334643D01*
X167375794Y-92265805D01*
X167430887Y-92200071D01*
X167489727Y-92137563D01*
X167552376Y-92078402D01*
X167618896Y-92022709D01*
X167689349Y-91970604D01*
X167763800Y-91922210D01*
X167842309Y-91877646D01*
X167924939Y-91837035D01*
X168011753Y-91800498D01*
X168102814Y-91768154D01*
X168198183Y-91740127D01*
X168297924Y-91716536D01*
X168323224Y-91711946D01*
X168348520Y-91708092D01*
X168373809Y-91704967D01*
X168399086Y-91702563D01*
X168424347Y-91700872D01*
X168449589Y-91699886D01*
X168474808Y-91699598D01*
X168500000Y-91700000D01*
M02*
