%TF.GenerationSoftware,KiCad,Pcbnew,9.0.4*%
%TF.CreationDate,2025-10-11T14:21:15-07:00*%
%TF.ProjectId,Caliper_Clock_V2,43616c69-7065-4725-9f43-6c6f636b5f56,rev?*%
%TF.SameCoordinates,Original*%
%TF.FileFunction,Copper,L2,Bot*%
%TF.FilePolarity,Positive*%
%FSLAX46Y46*%
G04 Gerber Fmt 4.6, Leading zero omitted, Abs format (unit mm)*
G04 Created by KiCad (PCBNEW 9.0.4) date 2025-10-11 14:21:15*
%MOMM*%
%LPD*%
G01*
G04 APERTURE LIST*
%TA.AperFunction,ComponentPad*%
%ADD10R,1.700000X1.700000*%
%TD*%
%TA.AperFunction,ComponentPad*%
%ADD11C,1.700000*%
%TD*%
%TA.AperFunction,ComponentPad*%
%ADD12O,2.000000X0.600000*%
%TD*%
%TA.AperFunction,ComponentPad*%
%ADD13O,1.800000X0.900000*%
%TD*%
%TA.AperFunction,ViaPad*%
%ADD14C,0.600000*%
%TD*%
%TA.AperFunction,Conductor*%
%ADD15C,0.200000*%
%TD*%
G04 APERTURE END LIST*
D10*
%TO.P,J1,1,Pin_1*%
%TO.N,/UPDI*%
X124000000Y-105250000D03*
D11*
%TO.P,J1,2,Pin_2*%
%TO.N,+1V5*%
X124000000Y-102710000D03*
%TO.P,J1,3,Pin_3*%
%TO.N,+3V0*%
X124000000Y-100170000D03*
%TO.P,J1,4,Pin_4*%
%TO.N,GND*%
X124000000Y-97630000D03*
%TD*%
D12*
%TO.P,CL_2,3*%
%TO.N,N/C*%
X173500000Y-95100000D03*
X173500000Y-105800000D03*
%TD*%
D13*
%TO.P,CL_1,1*%
%TO.N,N/C*%
X164750000Y-102175000D03*
%TO.P,CL_1,2*%
X164750000Y-98875000D03*
%TD*%
D14*
%TO.N,GND*%
X145118853Y-110705358D03*
X145500000Y-108750000D03*
X152500000Y-108750000D03*
X150250000Y-98250000D03*
X152000000Y-97250000D03*
X137250000Y-110000000D03*
X126750000Y-109250000D03*
%TO.N,/UPDI*%
X135750000Y-105250000D03*
X137750000Y-105250000D03*
X150750000Y-102199997D03*
%TO.N,+1V5*%
X153250000Y-95250000D03*
X155500000Y-95250000D03*
X166004999Y-97500000D03*
%TO.N,GND*%
X135000000Y-102750000D03*
X135000000Y-101250000D03*
%TO.N,+1V5*%
X173250000Y-111250000D03*
X167250000Y-102500000D03*
%TO.N,/BAT_SENSE*%
X159500000Y-98000000D03*
X169250000Y-108250000D03*
%TO.N,+3V0*%
X145500000Y-105999000D03*
%TO.N,/INT*%
X153750000Y-110750000D03*
X153500000Y-104195000D03*
%TO.N,+3V0*%
X157947211Y-108947211D03*
X166500000Y-104750000D03*
%TO.N,Net-(U2-EVI)*%
X166500000Y-106750000D03*
X167500000Y-108500000D03*
%TO.N,Net-(U4-FB)*%
X163250000Y-96750000D03*
X167500000Y-95750000D03*
%TO.N,+3V0*%
X160750000Y-94750000D03*
X167500000Y-94750000D03*
%TO.N,GND*%
X158000000Y-92000000D03*
%TO.N,+3V0*%
X158500000Y-91000000D03*
%TO.N,GND*%
X160500000Y-91750000D03*
%TO.N,/LCD_CS*%
X151000000Y-99849000D03*
X144500000Y-99849000D03*
%TO.N,/LCD_WR*%
X151000000Y-101000000D03*
X144500000Y-101000000D03*
%TO.N,/SDA*%
X150750000Y-103000000D03*
%TO.N,/SCL*%
X150250000Y-104250000D03*
%TO.N,/SDA*%
X151065687Y-107315687D03*
%TO.N,/SCL*%
X150500000Y-106750000D03*
%TO.N,+3V0*%
X159500000Y-105465000D03*
X165250000Y-106700000D03*
%TO.N,/CLKOUT*%
X159875000Y-103125000D03*
%TO.N,/INT*%
X159750000Y-104500000D03*
%TO.N,/CLKOUT*%
X161500000Y-104750000D03*
%TO.N,/INT*%
X161625000Y-105625000D03*
%TO.N,+3V0*%
X133000000Y-100000000D03*
X132750000Y-102000000D03*
X147750000Y-107000000D03*
X149000000Y-107000000D03*
%TO.N,Net-(U3-SEG10)*%
X140250000Y-105500000D03*
%TO.N,Net-(U3-SEG9)*%
X141500000Y-105000000D03*
%TO.N,Net-(U3-SEG8)*%
X142750000Y-104250000D03*
%TO.N,Net-(U3-SEG4)*%
X134250000Y-93000000D03*
%TO.N,Net-(U3-SEG6)*%
X141917500Y-96000000D03*
%TO.N,Net-(U3-SEG4)*%
X140647500Y-96000000D03*
%TO.N,Net-(U3-SEG6)*%
X136250000Y-93000000D03*
%TO.N,/COM1*%
X125750000Y-94500000D03*
%TO.N,/COM2*%
X126250000Y-95250000D03*
%TO.N,/COM3*%
X127000000Y-96750000D03*
X129250000Y-93000000D03*
%TO.N,/COM1*%
X127250000Y-93000000D03*
%TO.N,/COM2*%
X128250000Y-93000000D03*
%TO.N,Net-(U3-SEG9)*%
X139250000Y-93000000D03*
%TO.N,Net-(U3-SEG8)*%
X138250000Y-93000000D03*
%TO.N,Net-(U3-SEG10)*%
X140250000Y-93000000D03*
%TD*%
D15*
%TO.N,GND*%
X137955358Y-110705358D02*
X137250000Y-110000000D01*
X145118853Y-110705358D02*
X137955358Y-110705358D01*
X145750000Y-108500000D02*
X145500000Y-108750000D01*
X151298417Y-108500000D02*
X145750000Y-108500000D01*
X152067687Y-100067687D02*
X152067687Y-107730730D01*
X150250000Y-98250000D02*
X152067687Y-100067687D01*
X152067687Y-107730730D02*
X151298417Y-108500000D01*
%TO.N,+1V5*%
X129710000Y-102710000D02*
X124000000Y-102710000D01*
X130500000Y-103500000D02*
X129710000Y-102710000D01*
X136500000Y-103500000D02*
X130500000Y-103500000D01*
X136500000Y-109500000D02*
X136500000Y-103500000D01*
X136900057Y-109500000D02*
X136500000Y-109500000D01*
X137001057Y-109399000D02*
X136900057Y-109500000D01*
X137498943Y-109399000D02*
X137001057Y-109399000D01*
X137599943Y-109500000D02*
X137498943Y-109399000D01*
X153349000Y-109500000D02*
X137599943Y-109500000D01*
X153349000Y-106916100D02*
X153349000Y-109500000D01*
X153099000Y-106666100D02*
X153349000Y-106916100D01*
X153000000Y-103845057D02*
X152899000Y-103946057D01*
X152899000Y-103946057D02*
X152899000Y-104443943D01*
X153099000Y-104643943D02*
X153099000Y-106666100D01*
X153000000Y-95250000D02*
X153000000Y-103845057D01*
X153250000Y-95250000D02*
X153000000Y-95250000D01*
X152899000Y-104443943D02*
X153099000Y-104643943D01*
%TO.N,GND*%
X152500000Y-108500000D02*
X152500000Y-108750000D01*
X152498000Y-108498000D02*
X152500000Y-108500000D01*
X152500000Y-97750000D02*
X152500000Y-103777957D01*
X152000000Y-97250000D02*
X152500000Y-97750000D01*
X152500000Y-103777957D02*
X152498000Y-103779957D01*
X152498000Y-103779957D02*
X152498000Y-108498000D01*
%TO.N,/UPDI*%
X137750000Y-108000000D02*
X137750000Y-105250000D01*
X151231317Y-108000000D02*
X137750000Y-108000000D01*
X151666687Y-107564630D02*
X151231317Y-108000000D01*
X151666687Y-107066744D02*
X151666687Y-107564630D01*
X151502000Y-106902057D02*
X151666687Y-107066744D01*
X151502000Y-103184900D02*
X151502000Y-106902057D01*
X151500000Y-102949997D02*
X151500000Y-103182900D01*
X150998943Y-102399000D02*
X151351000Y-102751057D01*
X150949003Y-102399000D02*
X150998943Y-102399000D01*
X150750000Y-102199997D02*
X150949003Y-102399000D01*
X151351000Y-102751057D02*
X151351000Y-102800997D01*
X151351000Y-102800997D02*
X151500000Y-102949997D01*
X151500000Y-103182900D02*
X151502000Y-103184900D01*
%TO.N,Net-(U3-SEG10)*%
X141884200Y-93750000D02*
X140250000Y-93750000D01*
X142816043Y-105601000D02*
X143752000Y-104665043D01*
X143752000Y-95617800D02*
X141884200Y-93750000D01*
X140351000Y-105601000D02*
X142816043Y-105601000D01*
X140250000Y-93750000D02*
X140250000Y-93026000D01*
X140250000Y-105500000D02*
X140351000Y-105601000D01*
X143752000Y-104665043D02*
X143752000Y-95617800D01*
%TO.N,GND*%
X131500000Y-110000000D02*
X137250000Y-110000000D01*
X130000000Y-108500000D02*
X131500000Y-110000000D01*
X127500000Y-108500000D02*
X127750000Y-108500000D01*
X127750000Y-108500000D02*
X130000000Y-108500000D01*
X126750000Y-109250000D02*
X127500000Y-108500000D01*
%TO.N,/UPDI*%
X135750000Y-105250000D02*
X124000000Y-105250000D01*
%TO.N,/INT*%
X153750000Y-106750000D02*
X153750000Y-110750000D01*
X153500000Y-106500000D02*
X153750000Y-106750000D01*
X153500000Y-104195000D02*
X153500000Y-106500000D01*
%TO.N,+3V0*%
X158250000Y-91250000D02*
X158500000Y-91000000D01*
X154250000Y-91250000D02*
X158250000Y-91250000D01*
X154250000Y-104250000D02*
X154250000Y-91250000D01*
X158285000Y-104250000D02*
X154250000Y-104250000D01*
X159500000Y-105465000D02*
X158285000Y-104250000D01*
%TO.N,/SDA*%
X151101000Y-103351000D02*
X150750000Y-103000000D01*
X151065687Y-107184313D02*
X151101000Y-107149000D01*
X151065687Y-107315687D02*
X151065687Y-107184313D01*
X151101000Y-107149000D02*
X151101000Y-103351000D01*
%TO.N,/LCD_CS*%
X151000000Y-99849000D02*
X144500000Y-99849000D01*
%TO.N,/LCD_WR*%
X151000000Y-101000000D02*
X144500000Y-101000000D01*
%TO.N,+1V5*%
X157649000Y-97399000D02*
X155500000Y-95250000D01*
X165903999Y-97399000D02*
X157649000Y-97399000D01*
X166004999Y-97500000D02*
X165903999Y-97399000D01*
%TO.N,GND*%
X135000000Y-101250000D02*
X135000000Y-102750000D01*
%TO.N,+1V5*%
X171000000Y-108500000D02*
X173250000Y-108500000D01*
X170500000Y-108000000D02*
X171000000Y-108500000D01*
X173250000Y-108500000D02*
X173250000Y-111250000D01*
X170250000Y-107750000D02*
X170500000Y-108000000D01*
X170250000Y-104250000D02*
X170250000Y-107750000D01*
X168500000Y-102500000D02*
X170250000Y-104250000D01*
X167250000Y-102500000D02*
X168500000Y-102500000D01*
%TO.N,/BAT_SENSE*%
X159500000Y-102000000D02*
X159500000Y-98000000D01*
X159750000Y-102250000D02*
X159500000Y-102000000D01*
X161500000Y-103250000D02*
X160500000Y-102250000D01*
X169250000Y-104000000D02*
X162250000Y-104000000D01*
X160500000Y-102250000D02*
X159750000Y-102250000D01*
X162250000Y-104000000D02*
X161500000Y-103250000D01*
X169250000Y-108250000D02*
X169250000Y-104000000D01*
%TO.N,+3V0*%
X146501000Y-107000000D02*
X147750000Y-107000000D01*
X145500000Y-105999000D02*
X146501000Y-107000000D01*
X157947211Y-107017789D02*
X159500000Y-105465000D01*
X157947211Y-108947211D02*
X157947211Y-107017789D01*
X165250000Y-106000000D02*
X166500000Y-104750000D01*
X165250000Y-106700000D02*
X165250000Y-106000000D01*
%TO.N,Net-(U2-EVI)*%
X167500000Y-107750000D02*
X166500000Y-106750000D01*
X167500000Y-108500000D02*
X167500000Y-107750000D01*
%TO.N,Net-(U4-FB)*%
X166500000Y-96750000D02*
X163250000Y-96750000D01*
X167500000Y-95750000D02*
X166500000Y-96750000D01*
%TO.N,+3V0*%
X167500000Y-94750000D02*
X160750000Y-94750000D01*
%TO.N,GND*%
X158250000Y-91750000D02*
X158000000Y-92000000D01*
X160500000Y-91750000D02*
X158250000Y-91750000D01*
%TO.N,/SCL*%
X150250000Y-106500000D02*
X150250000Y-104250000D01*
X150500000Y-106750000D02*
X150250000Y-106500000D01*
%TO.N,+3V0*%
X160735000Y-106700000D02*
X159500000Y-105465000D01*
X165250000Y-106700000D02*
X160735000Y-106700000D01*
%TO.N,/CLKOUT*%
X161500000Y-104750000D02*
X159875000Y-103125000D01*
%TO.N,/INT*%
X160875000Y-105625000D02*
X159750000Y-104500000D01*
X161625000Y-105625000D02*
X160875000Y-105625000D01*
%TO.N,+3V0*%
X132750000Y-100250000D02*
X133000000Y-100000000D01*
X132750000Y-102000000D02*
X132750000Y-100250000D01*
X149000000Y-107000000D02*
X147750000Y-107000000D01*
%TO.N,Net-(U3-SEG9)*%
X139250000Y-94250000D02*
X139250000Y-93026000D01*
X141817100Y-94250000D02*
X139250000Y-94250000D01*
X143351000Y-95783900D02*
X141817100Y-94250000D01*
X142849943Y-105000000D02*
X143351000Y-104498943D01*
X143351000Y-104498943D02*
X143351000Y-95783900D01*
X141500000Y-105000000D02*
X142849943Y-105000000D01*
%TO.N,Net-(U3-SEG8)*%
X142750000Y-95750000D02*
X141750000Y-94750000D01*
X141750000Y-94750000D02*
X138250000Y-94750000D01*
X142750000Y-104250000D02*
X142750000Y-95750000D01*
X138250000Y-94750000D02*
X138250000Y-93026000D01*
%TO.N,Net-(U3-SEG6)*%
X140750000Y-95250000D02*
X136250000Y-95250000D01*
X141500000Y-96000000D02*
X140750000Y-95250000D01*
X141917500Y-96000000D02*
X141500000Y-96000000D01*
X136250000Y-95250000D02*
X136250000Y-93026000D01*
%TO.N,Net-(U3-SEG4)*%
X134250000Y-96000000D02*
X134250000Y-93026000D01*
X140647500Y-96000000D02*
X134250000Y-96000000D01*
%TO.N,/COM1*%
X127224000Y-93026000D02*
X127250000Y-93026000D01*
X125750000Y-94500000D02*
X127224000Y-93026000D01*
%TO.N,/COM2*%
X126250000Y-95250000D02*
X128250000Y-93250000D01*
X128250000Y-93250000D02*
X128250000Y-93026000D01*
%TO.N,/COM3*%
X129224000Y-93026000D02*
X129250000Y-93026000D01*
X127000000Y-95250000D02*
X129224000Y-93026000D01*
X127000000Y-96750000D02*
X127000000Y-95250000D01*
%TD*%
M02*
