%TF.GenerationSoftware,KiCad,Pcbnew,9.0.6*%
%TF.CreationDate,2026-05-13T20:21:09-04:00*%
%TF.ProjectId,Caliper_Clock_V3,43616c69-7065-4725-9f43-6c6f636b5f56,rev?*%
%TF.SameCoordinates,Original*%
%TF.FileFunction,Legend,Top*%
%TF.FilePolarity,Positive*%
%FSLAX46Y46*%
G04 Gerber Fmt 4.6, Leading zero omitted, Abs format (unit mm)*
G04 Created by KiCad (PCBNEW 9.0.6) date 2026-05-13 20:21:09*
%MOMM*%
%LPD*%
G01*
G04 APERTURE LIST*
G04 Aperture macros list*
%AMRoundRect*
0 Rectangle with rounded corners*
0 $1 Rounding radius*
0 $2 $3 $4 $5 $6 $7 $8 $9 X,Y pos of 4 corners*
0 Add a 4 corners polygon primitive as box body*
4,1,4,$2,$3,$4,$5,$6,$7,$8,$9,$2,$3,0*
0 Add four circle primitives for the rounded corners*
1,1,$1+$1,$2,$3*
1,1,$1+$1,$4,$5*
1,1,$1+$1,$6,$7*
1,1,$1+$1,$8,$9*
0 Add four rect primitives between the rounded corners*
20,1,$1+$1,$2,$3,$4,$5,0*
20,1,$1+$1,$4,$5,$6,$7,0*
20,1,$1+$1,$6,$7,$8,$9,0*
20,1,$1+$1,$8,$9,$2,$3,0*%
%AMFreePoly0*
4,1,41,2.097500,-0.205000,1.500000,-0.205000,1.500000,-1.700000,1.496157,-1.739018,1.466294,-1.811114,1.411114,-1.866294,1.339018,-1.896157,1.260982,-1.896157,1.188886,-1.866294,1.133706,-1.811114,1.103843,-1.739018,1.100000,-1.700000,1.100000,-0.205000,0.200000,-0.205000,0.200000,-1.700000,0.196157,-1.739018,0.166294,-1.811114,0.111114,-1.866294,0.039018,-1.896157,-0.039018,-1.896157,
-0.111114,-1.866294,-0.166294,-1.811114,-0.196157,-1.739018,-0.200000,-1.700000,-0.200000,-0.205000,-1.000000,-0.205000,-1.000000,-1.700000,-1.003843,-1.739018,-1.033706,-1.811114,-1.088886,-1.866294,-1.160982,-1.896157,-1.239018,-1.896157,-1.311114,-1.866294,-1.366294,-1.811114,-1.396157,-1.739018,-1.400000,-1.700000,-1.400000,-0.205000,-2.097500,-0.205000,-2.097500,0.205000,2.097500,0.205000,
2.097500,-0.205000,2.097500,-0.205000,$1*%
%AMFreePoly1*
4,1,52,-1.791386,1.671294,-1.736206,1.616114,-1.706343,1.544018,-1.702500,1.505000,-1.702500,0.205000,-0.802500,0.205000,-0.802500,1.505000,-0.798657,1.544018,-0.768794,1.616114,-0.713614,1.671294,-0.641518,1.701157,-0.563482,1.701157,-0.491386,1.671294,-0.436206,1.616114,-0.406343,1.544018,-0.402500,1.505000,-0.402500,0.205000,0.497500,0.205000,0.497500,1.505000,0.501343,1.544018,
0.531206,1.616114,0.586386,1.671294,0.658482,1.701157,0.736518,1.701157,0.808614,1.671294,0.863794,1.616114,0.893657,1.544018,0.897500,1.505000,0.897500,0.205000,1.697500,0.205000,1.697500,1.505000,1.701343,1.544018,1.731206,1.616114,1.786386,1.671294,1.858482,1.701157,1.936518,1.701157,2.008614,1.671294,2.063794,1.616114,2.093657,1.544018,2.097500,1.505000,
2.097500,-0.205000,-2.097500,-0.205000,-2.097500,-0.036811,-2.098657,-0.034018,-2.102500,0.005000,-2.102500,1.505000,-2.098657,1.544018,-2.068794,1.616114,-2.013614,1.671294,-1.941518,1.701157,-1.863482,1.701157,-1.791386,1.671294,-1.791386,1.671294,$1*%
G04 Aperture macros list end*
%ADD10C,0.000000*%
%ADD11C,0.100000*%
%ADD12C,0.052916*%
%ADD13C,0.079374*%
%ADD14C,0.150000*%
%ADD15C,0.120000*%
%ADD16C,0.300000*%
%ADD17C,0.200000*%
%ADD18C,0.250000*%
%ADD19C,0.600000*%
%ADD20R,0.500000X1.500000*%
%ADD21RoundRect,0.140000X0.140000X0.170000X-0.140000X0.170000X-0.140000X-0.170000X0.140000X-0.170000X0*%
%ADD22R,4.000000X1.800000*%
%ADD23O,1.800000X0.900000*%
%ADD24O,2.000000X0.600000*%
%ADD25R,6.000000X2.500000*%
%ADD26RoundRect,0.093750X-0.093750X-0.106250X0.093750X-0.106250X0.093750X0.106250X-0.093750X0.106250X0*%
%ADD27R,1.000000X1.600000*%
%ADD28RoundRect,0.135000X0.135000X0.185000X-0.135000X0.185000X-0.135000X-0.185000X0.135000X-0.185000X0*%
%ADD29RoundRect,0.250000X-0.250000X-0.475000X0.250000X-0.475000X0.250000X0.475000X-0.250000X0.475000X0*%
%ADD30FreePoly0,0.000000*%
%ADD31FreePoly1,0.000000*%
%ADD32RoundRect,0.250000X0.475000X-0.250000X0.475000X0.250000X-0.475000X0.250000X-0.475000X-0.250000X0*%
%ADD33RoundRect,0.135000X0.185000X-0.135000X0.185000X0.135000X-0.185000X0.135000X-0.185000X-0.135000X0*%
%ADD34RoundRect,0.218750X0.218750X0.381250X-0.218750X0.381250X-0.218750X-0.381250X0.218750X-0.381250X0*%
%ADD35R,1.800000X1.000000*%
%ADD36R,1.700000X1.700000*%
%ADD37C,1.700000*%
%ADD38RoundRect,0.140000X0.170000X-0.140000X0.170000X0.140000X-0.170000X0.140000X-0.170000X-0.140000X0*%
%ADD39RoundRect,0.140000X-0.140000X-0.170000X0.140000X-0.170000X0.140000X0.170000X-0.140000X0.170000X0*%
%ADD40O,1.450000X0.299999*%
%ADD41O,0.299999X1.450000*%
%ADD42RoundRect,0.140000X-0.170000X0.140000X-0.170000X-0.140000X0.170000X-0.140000X0.170000X0.140000X0*%
G04 APERTURE END LIST*
D10*
G36*
X116838542Y-78057245D02*
G01*
X116839996Y-78057326D01*
X116841430Y-78057481D01*
X116842842Y-78057709D01*
X116844232Y-78058007D01*
X116845597Y-78058375D01*
X116846935Y-78058810D01*
X116848245Y-78059310D01*
X116849524Y-78059874D01*
X116850771Y-78060499D01*
X116851984Y-78061184D01*
X116853161Y-78061928D01*
X116854300Y-78062728D01*
X116855400Y-78063582D01*
X116856458Y-78064489D01*
X116857473Y-78065447D01*
X116858443Y-78066454D01*
X116859366Y-78067508D01*
X116860240Y-78068607D01*
X116861063Y-78069750D01*
X116861834Y-78070934D01*
X116862551Y-78072159D01*
X116863212Y-78073422D01*
X116863814Y-78074721D01*
X116864357Y-78076054D01*
X116864839Y-78077420D01*
X116865256Y-78078817D01*
X116865609Y-78080243D01*
X116865894Y-78081696D01*
X116866110Y-78083174D01*
X116866255Y-78084676D01*
X116866328Y-78086199D01*
X116866326Y-78087725D01*
X116866251Y-78089232D01*
X116866104Y-78090719D01*
X116865887Y-78092183D01*
X116865601Y-78093624D01*
X116865249Y-78095039D01*
X116864832Y-78096426D01*
X116864352Y-78097783D01*
X116863810Y-78099109D01*
X116863209Y-78100401D01*
X116862550Y-78101657D01*
X116861835Y-78102876D01*
X116861066Y-78104057D01*
X116860244Y-78105195D01*
X116859371Y-78106291D01*
X116858449Y-78107342D01*
X116857480Y-78108346D01*
X116856465Y-78109301D01*
X116855407Y-78110206D01*
X116854306Y-78111058D01*
X116853165Y-78111856D01*
X116851985Y-78112597D01*
X116850769Y-78113280D01*
X116849517Y-78113903D01*
X116848232Y-78114463D01*
X116846916Y-78114960D01*
X116845570Y-78115391D01*
X116844195Y-78115754D01*
X116842795Y-78116047D01*
X116841369Y-78116269D01*
X116839921Y-78116417D01*
X116838452Y-78116490D01*
X116836981Y-78116486D01*
X116835528Y-78116405D01*
X116834094Y-78116250D01*
X116832681Y-78116022D01*
X116831291Y-78115724D01*
X116829926Y-78115356D01*
X116828588Y-78114921D01*
X116827278Y-78114421D01*
X116825999Y-78113857D01*
X116824752Y-78113232D01*
X116823539Y-78112546D01*
X116822362Y-78111803D01*
X116821223Y-78111003D01*
X116820123Y-78110149D01*
X116819065Y-78109242D01*
X116818050Y-78108284D01*
X116817080Y-78107277D01*
X116816158Y-78106223D01*
X116815283Y-78105124D01*
X116814460Y-78103981D01*
X116813689Y-78102796D01*
X116812972Y-78101572D01*
X116812311Y-78100309D01*
X116811709Y-78099010D01*
X116811166Y-78097677D01*
X116810685Y-78096311D01*
X116810267Y-78094914D01*
X116809915Y-78093488D01*
X116809630Y-78092035D01*
X116809413Y-78090557D01*
X116809268Y-78089055D01*
X116809195Y-78087531D01*
X116809197Y-78086006D01*
X116809272Y-78084499D01*
X116809419Y-78083012D01*
X116809636Y-78081547D01*
X116809922Y-78080107D01*
X116810274Y-78078692D01*
X116810691Y-78077305D01*
X116811171Y-78075948D01*
X116811713Y-78074622D01*
X116812314Y-78073330D01*
X116812973Y-78072073D01*
X116813688Y-78070854D01*
X116814457Y-78069674D01*
X116815279Y-78068535D01*
X116816152Y-78067439D01*
X116817074Y-78066388D01*
X116818043Y-78065384D01*
X116819058Y-78064429D01*
X116820117Y-78063525D01*
X116821217Y-78062672D01*
X116822358Y-78061875D01*
X116823538Y-78061134D01*
X116824755Y-78060451D01*
X116826006Y-78059828D01*
X116827291Y-78059267D01*
X116828607Y-78058771D01*
X116829954Y-78058340D01*
X116831328Y-78057977D01*
X116832729Y-78057684D01*
X116834154Y-78057462D01*
X116835602Y-78057314D01*
X116837071Y-78057241D01*
X116838542Y-78057245D01*
G37*
D11*
X116104948Y-75359216D02*
X116115012Y-75359650D01*
X116125062Y-75360353D01*
X116135097Y-75361323D01*
X116145115Y-75362556D01*
X116155114Y-75364050D01*
X116165093Y-75365802D01*
X116175050Y-75367807D01*
X116184984Y-75370064D01*
X116218410Y-75379745D01*
X116251582Y-75392232D01*
X116284451Y-75407401D01*
X116316970Y-75425124D01*
X116349088Y-75445276D01*
X116380758Y-75467730D01*
X116442556Y-75519041D01*
X116501972Y-75578047D01*
X116558617Y-75643740D01*
X116612099Y-75715110D01*
X116662028Y-75791148D01*
X116708013Y-75870845D01*
X116749663Y-75953191D01*
X116786588Y-76037177D01*
X116818397Y-76121795D01*
X116844699Y-76206034D01*
X116865104Y-76288885D01*
X116879221Y-76369340D01*
X116886660Y-76446389D01*
X116893541Y-76610312D01*
X116897061Y-76755075D01*
X116897729Y-76882846D01*
X116896052Y-76995796D01*
X116892540Y-77096096D01*
X116887702Y-77185916D01*
X116876076Y-77342797D01*
X116875823Y-77350999D01*
X116876232Y-77358928D01*
X116877271Y-77366571D01*
X116878908Y-77373914D01*
X116881111Y-77380947D01*
X116883848Y-77387655D01*
X116887086Y-77394025D01*
X116890794Y-77400046D01*
X116894939Y-77405704D01*
X116899488Y-77410987D01*
X116904411Y-77415881D01*
X116909674Y-77420374D01*
X116915246Y-77424453D01*
X116921094Y-77428105D01*
X116927187Y-77431318D01*
X116933491Y-77434078D01*
X116939975Y-77436374D01*
X116946607Y-77438191D01*
X116953354Y-77439518D01*
X116960185Y-77440341D01*
X116967067Y-77440649D01*
X116973968Y-77440427D01*
X116980855Y-77439663D01*
X116987697Y-77438345D01*
X116994462Y-77436459D01*
X117001117Y-77433993D01*
X117007630Y-77430934D01*
X117013970Y-77427269D01*
X117020103Y-77422986D01*
X117025997Y-77418071D01*
X117031622Y-77412513D01*
X117036943Y-77406297D01*
X117104354Y-77322738D01*
X117178958Y-77236699D01*
X117219779Y-77192904D01*
X117263385Y-77148675D01*
X117310104Y-77104075D01*
X117360264Y-77059164D01*
X117414194Y-77014005D01*
X117472224Y-76968660D01*
X117534681Y-76923191D01*
X117601895Y-76877659D01*
X117674193Y-76832128D01*
X117751905Y-76786659D01*
X117835359Y-76741314D01*
X117924885Y-76696155D01*
X117984974Y-76668073D01*
X118043027Y-76643285D01*
X118099081Y-76621680D01*
X118153171Y-76603146D01*
X118205331Y-76587573D01*
X118255599Y-76574851D01*
X118304010Y-76564868D01*
X118350599Y-76557514D01*
X118395402Y-76552677D01*
X118438455Y-76550247D01*
X118479794Y-76550113D01*
X118519453Y-76552164D01*
X118557469Y-76556290D01*
X118593877Y-76562378D01*
X118628714Y-76570320D01*
X118662014Y-76580003D01*
X118693813Y-76591317D01*
X118724147Y-76604152D01*
X118753052Y-76618395D01*
X118780564Y-76633937D01*
X118806717Y-76650666D01*
X118831547Y-76668472D01*
X118855092Y-76687244D01*
X118877384Y-76706871D01*
X118898462Y-76727242D01*
X118918360Y-76748246D01*
X118937113Y-76769773D01*
X118954758Y-76791711D01*
X118986866Y-76836379D01*
X119014968Y-76881364D01*
X119029517Y-76908219D01*
X119042415Y-76935770D01*
X119053669Y-76963968D01*
X119063291Y-76992763D01*
X119071290Y-77022109D01*
X119077675Y-77051955D01*
X119082457Y-77082254D01*
X119085645Y-77112957D01*
X119087248Y-77144014D01*
X119087276Y-77175378D01*
X119085739Y-77206999D01*
X119082647Y-77238830D01*
X119078010Y-77270821D01*
X119071836Y-77302924D01*
X119064136Y-77335090D01*
X119054920Y-77367271D01*
X119044197Y-77399417D01*
X119031976Y-77431481D01*
X119018268Y-77463414D01*
X119003082Y-77495166D01*
X118986428Y-77526690D01*
X118968316Y-77557936D01*
X118948755Y-77588856D01*
X118927755Y-77619402D01*
X118905325Y-77649525D01*
X118881476Y-77679176D01*
X118856217Y-77708306D01*
X118829557Y-77736867D01*
X118801507Y-77764810D01*
X118772076Y-77792087D01*
X118741273Y-77818649D01*
X118709109Y-77844447D01*
X118635972Y-77899683D01*
X118564196Y-77951570D01*
X118493779Y-78000233D01*
X118424716Y-78045795D01*
X118357005Y-78088380D01*
X118290642Y-78128113D01*
X118225625Y-78165118D01*
X118161951Y-78199518D01*
X118099617Y-78231437D01*
X118038618Y-78261000D01*
X117978953Y-78288331D01*
X117920618Y-78313553D01*
X117863610Y-78336791D01*
X117807926Y-78358169D01*
X117700518Y-78395839D01*
X117695433Y-78397798D01*
X117690694Y-78400087D01*
X117686300Y-78402685D01*
X117682249Y-78405568D01*
X117678542Y-78408714D01*
X117675175Y-78412100D01*
X117672149Y-78415704D01*
X117669463Y-78419502D01*
X117667114Y-78423473D01*
X117665102Y-78427593D01*
X117663425Y-78431839D01*
X117662083Y-78436190D01*
X117661074Y-78440622D01*
X117660398Y-78445112D01*
X117660052Y-78449639D01*
X117660037Y-78454179D01*
X117660350Y-78458710D01*
X117660990Y-78463209D01*
X117661957Y-78467653D01*
X117663249Y-78472020D01*
X117664865Y-78476287D01*
X117666804Y-78480431D01*
X117669064Y-78484430D01*
X117671645Y-78488261D01*
X117674546Y-78491901D01*
X117677764Y-78495328D01*
X117681300Y-78498519D01*
X117685151Y-78501451D01*
X117689318Y-78504102D01*
X117693797Y-78506448D01*
X117698590Y-78508468D01*
X117703693Y-78510139D01*
X117775742Y-78531815D01*
X117841638Y-78553723D01*
X117902223Y-78576067D01*
X117958338Y-78599055D01*
X118010825Y-78622893D01*
X118060527Y-78647786D01*
X118108284Y-78673942D01*
X118154940Y-78701565D01*
X118201334Y-78730863D01*
X118248311Y-78762041D01*
X118347374Y-78830863D01*
X118458865Y-78909682D01*
X118589518Y-79000147D01*
X118637714Y-79034380D01*
X118683858Y-79070128D01*
X118727916Y-79107276D01*
X118769858Y-79145707D01*
X118809653Y-79185307D01*
X118847267Y-79225959D01*
X118882671Y-79267548D01*
X118915832Y-79309957D01*
X118946719Y-79353073D01*
X118975299Y-79396778D01*
X119001543Y-79440957D01*
X119025417Y-79485494D01*
X119046891Y-79530274D01*
X119065932Y-79575181D01*
X119082510Y-79620099D01*
X119096592Y-79664913D01*
X119108147Y-79709506D01*
X119117144Y-79753764D01*
X119123550Y-79797570D01*
X119127335Y-79840809D01*
X119128467Y-79883365D01*
X119126913Y-79925122D01*
X119122643Y-79965965D01*
X119115625Y-80005779D01*
X119105828Y-80044446D01*
X119093219Y-80081852D01*
X119077767Y-80117881D01*
X119059441Y-80152418D01*
X119038208Y-80185346D01*
X119014038Y-80216549D01*
X118986899Y-80245913D01*
X118956760Y-80273322D01*
X118920851Y-80299593D01*
X118882331Y-80321019D01*
X118841419Y-80337839D01*
X118798338Y-80350295D01*
X118753309Y-80358625D01*
X118706554Y-80363070D01*
X118658294Y-80363869D01*
X118608750Y-80361263D01*
X118558144Y-80355491D01*
X118506698Y-80346793D01*
X118454633Y-80335409D01*
X118402170Y-80321579D01*
X118296939Y-80287542D01*
X118192775Y-80246599D01*
X118091452Y-80200670D01*
X117994741Y-80151676D01*
X117904414Y-80101533D01*
X117822243Y-80052163D01*
X117750000Y-80005484D01*
X117689457Y-79963416D01*
X117642386Y-79927878D01*
X117610559Y-79900789D01*
X117491270Y-79787605D01*
X117389467Y-79689849D01*
X117303490Y-79605885D01*
X117231676Y-79534076D01*
X117172364Y-79472783D01*
X117123892Y-79420371D01*
X117103201Y-79396983D01*
X117084597Y-79375202D01*
X117067872Y-79354822D01*
X117052818Y-79335638D01*
X117049649Y-79331837D01*
X117046303Y-79328366D01*
X117042797Y-79325222D01*
X117039146Y-79322403D01*
X117035367Y-79319904D01*
X117031475Y-79317721D01*
X117027486Y-79315851D01*
X117023416Y-79314290D01*
X117019281Y-79313034D01*
X117015097Y-79312080D01*
X117010879Y-79311425D01*
X117006644Y-79311063D01*
X117002407Y-79310992D01*
X116998185Y-79311209D01*
X116993993Y-79311708D01*
X116989847Y-79312487D01*
X116985763Y-79313542D01*
X116981757Y-79314870D01*
X116977845Y-79316466D01*
X116974042Y-79318327D01*
X116970365Y-79320449D01*
X116966830Y-79322828D01*
X116963452Y-79325462D01*
X116960247Y-79328346D01*
X116957231Y-79331476D01*
X116954420Y-79334849D01*
X116951830Y-79338461D01*
X116949477Y-79342309D01*
X116947377Y-79346388D01*
X116945545Y-79350696D01*
X116943998Y-79355227D01*
X116942751Y-79359980D01*
X116930511Y-79409087D01*
X116915226Y-79461429D01*
X116896903Y-79516819D01*
X116875547Y-79575070D01*
X116851165Y-79635993D01*
X116823763Y-79699401D01*
X116793347Y-79765107D01*
X116759924Y-79832923D01*
X116723499Y-79902661D01*
X116684080Y-79974134D01*
X116641671Y-80047154D01*
X116596279Y-80121534D01*
X116547911Y-80197086D01*
X116496573Y-80273622D01*
X116442270Y-80350955D01*
X116385010Y-80428897D01*
X116335697Y-80490681D01*
X116282163Y-80550653D01*
X116224924Y-80608265D01*
X116164496Y-80662970D01*
X116101395Y-80714222D01*
X116036138Y-80761472D01*
X115969240Y-80804173D01*
X115901219Y-80841779D01*
X115832590Y-80873742D01*
X115763869Y-80899514D01*
X115729636Y-80909908D01*
X115695573Y-80918549D01*
X115661746Y-80925369D01*
X115628219Y-80930299D01*
X115595055Y-80933271D01*
X115562321Y-80934217D01*
X115530080Y-80933068D01*
X115498397Y-80929755D01*
X115467336Y-80924211D01*
X115436963Y-80916367D01*
X115407341Y-80906155D01*
X115378535Y-80893505D01*
X115349024Y-80877319D01*
X115321206Y-80858594D01*
X115295066Y-80837435D01*
X115270591Y-80813944D01*
X115247768Y-80788226D01*
X115226583Y-80760383D01*
X115207024Y-80730520D01*
X115189076Y-80698739D01*
X115157963Y-80629839D01*
X115133136Y-80554512D01*
X115114488Y-80473585D01*
X115101913Y-80387887D01*
X115095303Y-80298244D01*
X115094552Y-80205485D01*
X115099552Y-80110438D01*
X115110197Y-80013931D01*
X115126380Y-79916791D01*
X115147994Y-79819847D01*
X115174931Y-79723926D01*
X115207085Y-79629855D01*
X115234979Y-79559451D01*
X115264545Y-79492619D01*
X115295568Y-79429235D01*
X115327834Y-79369175D01*
X115361129Y-79312314D01*
X115395240Y-79258529D01*
X115429953Y-79207696D01*
X115465053Y-79159691D01*
X115500327Y-79114389D01*
X115535561Y-79071667D01*
X115570540Y-79031401D01*
X115605051Y-78993466D01*
X115638880Y-78957739D01*
X115671813Y-78924096D01*
X115734134Y-78862564D01*
X115737296Y-78859320D01*
X115740041Y-78855953D01*
X115742382Y-78852478D01*
X115744329Y-78848915D01*
X115745895Y-78845281D01*
X115747092Y-78841595D01*
X115747930Y-78837875D01*
X115748422Y-78834138D01*
X115748579Y-78830402D01*
X115748413Y-78826686D01*
X115747935Y-78823008D01*
X115747157Y-78819385D01*
X115746091Y-78815836D01*
X115744748Y-78812378D01*
X115743140Y-78809031D01*
X115741278Y-78805811D01*
X115739175Y-78802736D01*
X115736841Y-78799826D01*
X115734289Y-78797097D01*
X115731530Y-78794568D01*
X115728575Y-78792257D01*
X115725437Y-78790181D01*
X115722127Y-78788360D01*
X115718656Y-78786810D01*
X115715037Y-78785550D01*
X115711280Y-78784599D01*
X115707398Y-78783973D01*
X115703401Y-78783691D01*
X115699303Y-78783771D01*
X115695113Y-78784231D01*
X115690845Y-78785089D01*
X115686509Y-78786364D01*
X115560336Y-78832517D01*
X115493814Y-78855885D01*
X115422455Y-78878571D01*
X115344349Y-78899918D01*
X115302170Y-78909883D01*
X115257587Y-78919267D01*
X115210362Y-78927988D01*
X115160257Y-78935963D01*
X115107033Y-78943110D01*
X115050451Y-78949347D01*
X114992531Y-78954436D01*
X114935098Y-78958001D01*
X114878220Y-78960047D01*
X114821963Y-78960584D01*
X114766392Y-78959616D01*
X114711574Y-78957151D01*
X114657576Y-78953197D01*
X114604463Y-78947759D01*
X114552302Y-78940846D01*
X114501159Y-78932464D01*
X114451101Y-78922620D01*
X114402193Y-78911321D01*
X114354502Y-78898575D01*
X114308095Y-78884387D01*
X114263037Y-78868765D01*
X114219395Y-78851716D01*
X114177235Y-78833247D01*
X114136623Y-78813365D01*
X114097626Y-78792076D01*
X114060310Y-78769389D01*
X114024741Y-78745310D01*
X113990986Y-78719845D01*
X113959110Y-78693002D01*
X113929180Y-78664788D01*
X113901263Y-78635209D01*
X113875424Y-78604274D01*
X113851730Y-78571988D01*
X113830247Y-78538358D01*
X113811041Y-78503393D01*
X113794179Y-78467098D01*
X113779727Y-78429480D01*
X113767751Y-78390547D01*
X113762725Y-78368531D01*
X113759488Y-78346369D01*
X113757947Y-78324104D01*
X113758005Y-78301784D01*
X113759568Y-78279452D01*
X113762540Y-78257155D01*
X113766826Y-78234938D01*
X113772332Y-78212846D01*
X113778961Y-78190925D01*
X113786619Y-78169220D01*
X113795211Y-78147775D01*
X113804642Y-78126638D01*
X113814816Y-78105852D01*
X113825638Y-78085463D01*
X113837013Y-78065518D01*
X113848846Y-78046060D01*
X113873505Y-78008789D01*
X113898854Y-77974014D01*
X113924132Y-77942099D01*
X113948577Y-77913404D01*
X113971429Y-77888294D01*
X113991926Y-77867131D01*
X114009306Y-77850278D01*
X114022809Y-77838097D01*
X114066853Y-77805005D01*
X114118382Y-77774773D01*
X114176744Y-77747384D01*
X114241289Y-77722821D01*
X114311365Y-77701068D01*
X114386322Y-77682107D01*
X114465508Y-77665920D01*
X114548272Y-77652492D01*
X114633963Y-77641804D01*
X114721929Y-77633841D01*
X114811521Y-77628584D01*
X114902086Y-77626017D01*
X114992973Y-77626123D01*
X115083532Y-77628884D01*
X115173111Y-77634284D01*
X115261059Y-77642305D01*
X115563743Y-77673394D01*
X115603385Y-77678531D01*
X115643548Y-77685019D01*
X115691698Y-77694063D01*
X115755301Y-77706864D01*
X115762180Y-77708584D01*
X115770482Y-77710882D01*
X115775761Y-77712435D01*
X115781759Y-77714272D01*
X115792018Y-77716901D01*
X115802141Y-77718657D01*
X115812103Y-77719574D01*
X115821881Y-77719684D01*
X115831449Y-77719020D01*
X115840784Y-77717616D01*
X115849860Y-77715504D01*
X115858654Y-77712718D01*
X115867141Y-77709289D01*
X115875296Y-77705252D01*
X115883096Y-77700639D01*
X115890515Y-77695483D01*
X115897530Y-77689816D01*
X115904116Y-77683673D01*
X115910249Y-77677085D01*
X115915903Y-77670087D01*
X115921055Y-77662710D01*
X115925681Y-77654987D01*
X115929755Y-77646953D01*
X115933254Y-77638639D01*
X115936153Y-77630078D01*
X115938427Y-77621304D01*
X115940053Y-77612349D01*
X115941005Y-77603246D01*
X115941260Y-77594029D01*
X115940793Y-77584730D01*
X115939579Y-77575382D01*
X115937595Y-77566019D01*
X115934815Y-77556672D01*
X115931215Y-77547375D01*
X115926772Y-77538162D01*
X115921459Y-77529064D01*
X115855028Y-77419460D01*
X115786886Y-77296561D01*
X115753002Y-77230281D01*
X115719686Y-77160863D01*
X115687269Y-77088369D01*
X115656082Y-77012862D01*
X115626459Y-76934403D01*
X115598730Y-76853054D01*
X115573227Y-76768877D01*
X115550282Y-76681934D01*
X115530227Y-76592288D01*
X115513393Y-76500000D01*
X115500113Y-76405133D01*
X115490718Y-76307747D01*
X115486348Y-76224220D01*
X115486073Y-76142172D01*
X115490092Y-76061990D01*
X115493774Y-76022720D01*
X115498605Y-75984063D01*
X115504610Y-75946065D01*
X115511813Y-75908777D01*
X115520240Y-75872246D01*
X115529915Y-75836520D01*
X115540864Y-75801649D01*
X115553111Y-75767681D01*
X115566682Y-75734663D01*
X115581602Y-75702645D01*
X115597895Y-75671675D01*
X115615587Y-75641802D01*
X115634702Y-75613073D01*
X115655266Y-75585538D01*
X115677303Y-75559245D01*
X115700839Y-75534242D01*
X115725898Y-75510577D01*
X115752506Y-75488300D01*
X115780688Y-75467458D01*
X115810468Y-75448100D01*
X115841871Y-75430275D01*
X115874924Y-75414030D01*
X115909649Y-75399415D01*
X115946074Y-75386478D01*
X115984221Y-75375267D01*
X116024118Y-75365831D01*
X116034238Y-75363995D01*
X116044356Y-75362453D01*
X116054472Y-75361203D01*
X116064582Y-75360241D01*
X116074687Y-75359565D01*
X116084784Y-75359171D01*
X116094871Y-75359055D01*
X116104948Y-75359216D01*
D10*
G36*
X116296533Y-78451967D02*
G01*
X116298000Y-78452077D01*
X116299450Y-78452257D01*
X116300882Y-78452507D01*
X116302293Y-78452824D01*
X116303681Y-78453207D01*
X116305043Y-78453654D01*
X116306378Y-78454163D01*
X116307684Y-78454732D01*
X116308958Y-78455361D01*
X116310199Y-78456046D01*
X116311403Y-78456786D01*
X116312570Y-78457580D01*
X116313697Y-78458426D01*
X116314781Y-78459321D01*
X116315821Y-78460265D01*
X116316814Y-78461255D01*
X116317759Y-78462290D01*
X116318653Y-78463369D01*
X116319494Y-78464488D01*
X116320280Y-78465647D01*
X116321009Y-78466844D01*
X116321678Y-78468076D01*
X116322286Y-78469343D01*
X116322831Y-78470643D01*
X116323310Y-78471973D01*
X116323721Y-78473333D01*
X116324062Y-78474720D01*
X116324331Y-78476132D01*
X116324526Y-78477568D01*
X116324644Y-78479027D01*
X116324684Y-78480505D01*
X116324647Y-78481987D01*
X116324538Y-78483454D01*
X116324357Y-78484905D01*
X116324108Y-78486337D01*
X116323790Y-78487747D01*
X116323408Y-78489135D01*
X116322961Y-78490498D01*
X116322452Y-78491833D01*
X116321882Y-78493139D01*
X116321254Y-78494413D01*
X116320569Y-78495653D01*
X116319829Y-78496858D01*
X116319035Y-78498024D01*
X116318189Y-78499151D01*
X116317294Y-78500235D01*
X116316350Y-78501275D01*
X116315360Y-78502269D01*
X116314324Y-78503213D01*
X116313246Y-78504107D01*
X116312127Y-78504948D01*
X116310968Y-78505734D01*
X116309771Y-78506463D01*
X116308538Y-78507133D01*
X116307271Y-78507741D01*
X116305972Y-78508286D01*
X116304641Y-78508764D01*
X116303282Y-78509175D01*
X116301895Y-78509517D01*
X116300482Y-78509786D01*
X116299046Y-78509980D01*
X116297588Y-78510099D01*
X116296109Y-78510139D01*
X116294627Y-78510102D01*
X116293160Y-78509992D01*
X116291710Y-78509812D01*
X116290278Y-78509562D01*
X116288867Y-78509245D01*
X116287480Y-78508862D01*
X116286117Y-78508415D01*
X116284782Y-78507906D01*
X116283476Y-78507337D01*
X116282202Y-78506709D01*
X116280961Y-78506024D01*
X116279757Y-78505283D01*
X116278590Y-78504489D01*
X116277464Y-78503644D01*
X116276379Y-78502748D01*
X116275339Y-78501804D01*
X116274346Y-78500814D01*
X116273401Y-78499779D01*
X116272507Y-78498701D01*
X116271666Y-78497581D01*
X116270880Y-78496422D01*
X116270151Y-78495226D01*
X116269482Y-78493993D01*
X116268874Y-78492726D01*
X116268329Y-78491426D01*
X116267850Y-78490096D01*
X116267439Y-78488736D01*
X116267098Y-78487349D01*
X116266829Y-78485937D01*
X116266634Y-78484501D01*
X116266516Y-78483042D01*
X116266476Y-78481564D01*
X116266513Y-78480082D01*
X116266622Y-78478615D01*
X116266803Y-78477164D01*
X116267053Y-78475733D01*
X116267370Y-78474322D01*
X116267753Y-78472934D01*
X116268199Y-78471571D01*
X116268708Y-78470236D01*
X116269278Y-78468930D01*
X116269906Y-78467656D01*
X116270591Y-78466416D01*
X116271331Y-78465211D01*
X116272125Y-78464045D01*
X116272971Y-78462918D01*
X116273866Y-78461834D01*
X116274810Y-78460794D01*
X116275801Y-78459801D01*
X116276836Y-78458856D01*
X116277914Y-78457962D01*
X116279033Y-78457121D01*
X116280192Y-78456335D01*
X116281389Y-78455606D01*
X116282622Y-78454936D01*
X116283889Y-78454328D01*
X116285188Y-78453784D01*
X116286519Y-78453305D01*
X116287878Y-78452894D01*
X116289265Y-78452552D01*
X116290678Y-78452283D01*
X116292114Y-78452089D01*
X116293572Y-78451970D01*
X116295051Y-78451930D01*
X116296533Y-78451967D01*
G37*
D12*
X116694043Y-78327047D02*
X116575509Y-78419122D01*
X116522593Y-78237089D01*
X116694043Y-78327047D01*
G36*
X116694043Y-78327047D02*
G01*
X116575509Y-78419122D01*
X116522593Y-78237089D01*
X116694043Y-78327047D01*
G37*
D13*
X116974864Y-78255154D02*
X116979228Y-78255472D01*
X116983625Y-78256032D01*
X116988057Y-78256829D01*
X116992524Y-78257860D01*
X116997028Y-78259122D01*
X117001570Y-78260610D01*
X117006152Y-78262323D01*
X117015436Y-78266405D01*
X117024892Y-78271339D01*
X117034527Y-78277099D01*
X117044351Y-78283655D01*
X117048183Y-78286657D01*
X117051743Y-78290093D01*
X117055030Y-78293948D01*
X117058045Y-78298203D01*
X117060788Y-78302841D01*
X117063259Y-78307844D01*
X117067386Y-78318878D01*
X117070428Y-78331164D01*
X117072386Y-78344563D01*
X117073263Y-78358936D01*
X117073058Y-78374143D01*
X117071775Y-78390044D01*
X117069414Y-78406500D01*
X117065977Y-78423372D01*
X117061466Y-78440520D01*
X117055882Y-78457804D01*
X117049227Y-78475085D01*
X117041502Y-78492224D01*
X117032709Y-78509080D01*
X117024836Y-78522649D01*
X117017101Y-78535576D01*
X117009518Y-78547864D01*
X117002100Y-78559516D01*
X116994863Y-78570536D01*
X116987819Y-78580927D01*
X116980983Y-78590691D01*
X116974369Y-78599832D01*
X116967990Y-78608353D01*
X116961861Y-78616257D01*
X116955995Y-78623547D01*
X116950407Y-78630226D01*
X116945111Y-78636298D01*
X116940120Y-78641765D01*
X116935448Y-78646630D01*
X116931109Y-78650897D01*
X116920032Y-78660782D01*
X116904204Y-78674015D01*
X116883540Y-78689778D01*
X116871367Y-78698353D01*
X116857952Y-78707253D01*
X116843284Y-78716377D01*
X116827353Y-78725621D01*
X116810148Y-78734884D01*
X116791657Y-78744063D01*
X116771871Y-78753057D01*
X116750777Y-78761761D01*
X116728366Y-78770076D01*
X116704626Y-78777897D01*
X116662712Y-78790233D01*
X116642530Y-78795645D01*
X116622919Y-78800387D01*
X116603923Y-78804335D01*
X116585582Y-78807365D01*
X116567939Y-78809353D01*
X116559392Y-78809918D01*
X116551035Y-78810176D01*
X116542874Y-78810112D01*
X116534913Y-78809709D01*
X116527158Y-78808953D01*
X116519614Y-78807828D01*
X116512286Y-78806318D01*
X116505180Y-78804409D01*
X116498300Y-78802084D01*
X116491653Y-78799328D01*
X116485242Y-78796126D01*
X116479075Y-78792461D01*
X116473154Y-78788320D01*
X116467487Y-78783685D01*
X116462078Y-78778541D01*
X116456932Y-78772874D01*
X116452054Y-78766667D01*
X116447451Y-78759905D01*
X116442634Y-78751754D01*
X116438186Y-78742869D01*
X116434228Y-78733381D01*
X116430881Y-78723426D01*
X116429475Y-78718314D01*
X116428266Y-78713135D01*
X116427271Y-78707906D01*
X116426503Y-78702644D01*
X116425980Y-78697364D01*
X116425714Y-78692084D01*
X116425723Y-78686820D01*
X116426020Y-78681589D01*
X116426621Y-78676407D01*
X116427541Y-78671292D01*
X116428794Y-78666260D01*
X116430398Y-78661327D01*
X116432365Y-78656511D01*
X116434712Y-78651828D01*
X116437454Y-78647294D01*
X116440605Y-78642926D01*
X116444181Y-78638742D01*
X116448197Y-78634757D01*
X116452667Y-78630988D01*
X116457608Y-78627452D01*
X116463035Y-78624166D01*
X116468961Y-78621146D01*
X116475403Y-78618409D01*
X116482376Y-78615972D01*
X116549745Y-78594195D01*
X116578203Y-78584799D01*
X116603621Y-78576102D01*
X116626336Y-78567883D01*
X116646682Y-78559920D01*
X116664994Y-78551990D01*
X116673492Y-78547969D01*
X116681607Y-78543873D01*
X116689381Y-78539675D01*
X116696856Y-78535347D01*
X116704073Y-78530861D01*
X116711075Y-78526189D01*
X116717903Y-78521305D01*
X116724600Y-78516179D01*
X116731206Y-78510785D01*
X116737765Y-78505095D01*
X116744317Y-78499081D01*
X116750905Y-78492715D01*
X116764356Y-78478817D01*
X116778451Y-78463179D01*
X116793526Y-78445580D01*
X116804006Y-78432718D01*
X116813320Y-78420664D01*
X116821617Y-78409336D01*
X116829046Y-78398650D01*
X116835756Y-78388522D01*
X116841895Y-78378868D01*
X116853057Y-78360649D01*
X116863723Y-78343323D01*
X116869242Y-78334785D01*
X116875084Y-78326220D01*
X116881397Y-78317543D01*
X116888329Y-78308671D01*
X116896031Y-78299519D01*
X116904651Y-78290005D01*
X116908626Y-78285691D01*
X116912615Y-78281678D01*
X116916618Y-78277962D01*
X116920638Y-78274539D01*
X116924674Y-78271406D01*
X116928729Y-78268560D01*
X116932803Y-78265996D01*
X116936897Y-78263712D01*
X116941013Y-78261704D01*
X116945152Y-78259968D01*
X116949316Y-78258501D01*
X116953504Y-78257300D01*
X116957719Y-78256361D01*
X116961961Y-78255680D01*
X116966232Y-78255254D01*
X116970532Y-78255080D01*
X116974864Y-78255154D01*
D11*
X116665423Y-77715645D02*
X116700248Y-77717487D01*
X116734608Y-77721055D01*
X116768459Y-77726308D01*
X116801756Y-77733203D01*
X116834456Y-77741699D01*
X116866514Y-77751753D01*
X116897886Y-77763323D01*
X116928529Y-77776367D01*
X116958398Y-77790843D01*
X116987450Y-77806709D01*
X117015640Y-77823922D01*
X117042924Y-77842441D01*
X117069259Y-77862222D01*
X117094600Y-77883225D01*
X117118903Y-77905407D01*
X117142125Y-77928726D01*
X117164221Y-77953139D01*
X117185147Y-77978605D01*
X117204860Y-78005082D01*
X117223315Y-78032526D01*
X117240468Y-78060897D01*
X117256275Y-78090152D01*
X117270692Y-78120248D01*
X117283676Y-78151145D01*
X117295181Y-78182799D01*
X117305165Y-78215168D01*
X117313583Y-78248210D01*
X117320391Y-78281884D01*
X117325545Y-78316147D01*
X117329002Y-78350956D01*
X117330716Y-78386271D01*
X117330649Y-78421626D01*
X117328818Y-78456559D01*
X117325266Y-78491025D01*
X117320034Y-78524979D01*
X117313164Y-78558378D01*
X117304700Y-78591177D01*
X117294681Y-78623333D01*
X117283151Y-78654801D01*
X117270152Y-78685536D01*
X117255724Y-78715496D01*
X117239912Y-78744635D01*
X117222756Y-78772909D01*
X117204298Y-78800275D01*
X117184581Y-78826689D01*
X117163646Y-78852105D01*
X117141536Y-78876480D01*
X117118293Y-78899770D01*
X117093958Y-78921931D01*
X117068573Y-78942918D01*
X117042181Y-78962688D01*
X117014823Y-78981196D01*
X116986543Y-78998398D01*
X116957380Y-79014249D01*
X116927378Y-79028707D01*
X116896579Y-79041726D01*
X116865024Y-79053263D01*
X116832756Y-79063273D01*
X116799816Y-79071712D01*
X116766247Y-79078536D01*
X116732091Y-79083701D01*
X116697389Y-79087163D01*
X116662184Y-79088878D01*
X116626937Y-79088805D01*
X116592111Y-79086964D01*
X116557751Y-79083396D01*
X116523900Y-79078143D01*
X116490603Y-79071247D01*
X116457904Y-79062751D01*
X116425846Y-79052697D01*
X116394474Y-79041127D01*
X116363831Y-79028083D01*
X116333961Y-79013607D01*
X116304910Y-78997742D01*
X116276720Y-78980529D01*
X116249435Y-78962010D01*
X116223100Y-78942228D01*
X116197759Y-78921225D01*
X116173456Y-78899043D01*
X116150234Y-78875725D01*
X116128138Y-78851311D01*
X116107212Y-78825845D01*
X116087499Y-78799369D01*
X116069045Y-78771924D01*
X116051892Y-78743554D01*
X116036085Y-78714299D01*
X116021667Y-78684202D01*
X116008684Y-78653306D01*
X115997178Y-78621652D01*
X115987194Y-78589283D01*
X115978776Y-78556240D01*
X115971968Y-78522566D01*
X115966814Y-78488304D01*
X115963358Y-78453494D01*
X115961644Y-78418180D01*
X115961711Y-78382824D01*
X115963541Y-78347891D01*
X115967094Y-78313426D01*
X115972326Y-78279471D01*
X115979195Y-78246072D01*
X115987660Y-78213273D01*
X115997678Y-78181118D01*
X116009208Y-78149650D01*
X116022208Y-78118914D01*
X116036635Y-78088955D01*
X116052448Y-78059816D01*
X116069604Y-78031541D01*
X116088061Y-78004175D01*
X116107778Y-77977762D01*
X116128713Y-77952346D01*
X116150823Y-77927970D01*
X116174067Y-77904680D01*
X116198402Y-77882519D01*
X116223786Y-77861532D01*
X116250178Y-77841763D01*
X116277536Y-77823255D01*
X116305817Y-77806053D01*
X116334979Y-77790201D01*
X116364981Y-77775744D01*
X116395781Y-77762725D01*
X116427335Y-77751188D01*
X116459603Y-77741178D01*
X116492543Y-77732739D01*
X116526112Y-77725914D01*
X116560269Y-77720749D01*
X116594971Y-77717287D01*
X116630176Y-77715573D01*
X116665423Y-77715645D01*
D14*
X130108333Y-88859580D02*
X130060714Y-88907200D01*
X130060714Y-88907200D02*
X129917857Y-88954819D01*
X129917857Y-88954819D02*
X129822619Y-88954819D01*
X129822619Y-88954819D02*
X129679762Y-88907200D01*
X129679762Y-88907200D02*
X129584524Y-88811961D01*
X129584524Y-88811961D02*
X129536905Y-88716723D01*
X129536905Y-88716723D02*
X129489286Y-88526247D01*
X129489286Y-88526247D02*
X129489286Y-88383390D01*
X129489286Y-88383390D02*
X129536905Y-88192914D01*
X129536905Y-88192914D02*
X129584524Y-88097676D01*
X129584524Y-88097676D02*
X129679762Y-88002438D01*
X129679762Y-88002438D02*
X129822619Y-87954819D01*
X129822619Y-87954819D02*
X129917857Y-87954819D01*
X129917857Y-87954819D02*
X130060714Y-88002438D01*
X130060714Y-88002438D02*
X130108333Y-88050057D01*
X130965476Y-88288152D02*
X130965476Y-88954819D01*
X130727381Y-87907200D02*
X130489286Y-88621485D01*
X130489286Y-88621485D02*
X131108333Y-88621485D01*
X133238095Y-79104819D02*
X133238095Y-79914342D01*
X133238095Y-79914342D02*
X133285714Y-80009580D01*
X133285714Y-80009580D02*
X133333333Y-80057200D01*
X133333333Y-80057200D02*
X133428571Y-80104819D01*
X133428571Y-80104819D02*
X133619047Y-80104819D01*
X133619047Y-80104819D02*
X133714285Y-80057200D01*
X133714285Y-80057200D02*
X133761904Y-80009580D01*
X133761904Y-80009580D02*
X133809523Y-79914342D01*
X133809523Y-79914342D02*
X133809523Y-79104819D01*
X134809523Y-80104819D02*
X134238095Y-80104819D01*
X134523809Y-80104819D02*
X134523809Y-79104819D01*
X134523809Y-79104819D02*
X134428571Y-79247676D01*
X134428571Y-79247676D02*
X134333333Y-79342914D01*
X134333333Y-79342914D02*
X134238095Y-79390533D01*
X99823333Y-91124819D02*
X99490000Y-90648628D01*
X99251905Y-91124819D02*
X99251905Y-90124819D01*
X99251905Y-90124819D02*
X99632857Y-90124819D01*
X99632857Y-90124819D02*
X99728095Y-90172438D01*
X99728095Y-90172438D02*
X99775714Y-90220057D01*
X99775714Y-90220057D02*
X99823333Y-90315295D01*
X99823333Y-90315295D02*
X99823333Y-90458152D01*
X99823333Y-90458152D02*
X99775714Y-90553390D01*
X99775714Y-90553390D02*
X99728095Y-90601009D01*
X99728095Y-90601009D02*
X99632857Y-90648628D01*
X99632857Y-90648628D02*
X99251905Y-90648628D01*
X100156667Y-90124819D02*
X100775714Y-90124819D01*
X100775714Y-90124819D02*
X100442381Y-90505771D01*
X100442381Y-90505771D02*
X100585238Y-90505771D01*
X100585238Y-90505771D02*
X100680476Y-90553390D01*
X100680476Y-90553390D02*
X100728095Y-90601009D01*
X100728095Y-90601009D02*
X100775714Y-90696247D01*
X100775714Y-90696247D02*
X100775714Y-90934342D01*
X100775714Y-90934342D02*
X100728095Y-91029580D01*
X100728095Y-91029580D02*
X100680476Y-91077200D01*
X100680476Y-91077200D02*
X100585238Y-91124819D01*
X100585238Y-91124819D02*
X100299524Y-91124819D01*
X100299524Y-91124819D02*
X100204286Y-91077200D01*
X100204286Y-91077200D02*
X100156667Y-91029580D01*
X137220833Y-79179580D02*
X137173214Y-79227200D01*
X137173214Y-79227200D02*
X137030357Y-79274819D01*
X137030357Y-79274819D02*
X136935119Y-79274819D01*
X136935119Y-79274819D02*
X136792262Y-79227200D01*
X136792262Y-79227200D02*
X136697024Y-79131961D01*
X136697024Y-79131961D02*
X136649405Y-79036723D01*
X136649405Y-79036723D02*
X136601786Y-78846247D01*
X136601786Y-78846247D02*
X136601786Y-78703390D01*
X136601786Y-78703390D02*
X136649405Y-78512914D01*
X136649405Y-78512914D02*
X136697024Y-78417676D01*
X136697024Y-78417676D02*
X136792262Y-78322438D01*
X136792262Y-78322438D02*
X136935119Y-78274819D01*
X136935119Y-78274819D02*
X137030357Y-78274819D01*
X137030357Y-78274819D02*
X137173214Y-78322438D01*
X137173214Y-78322438D02*
X137220833Y-78370057D01*
X138173214Y-79274819D02*
X137601786Y-79274819D01*
X137887500Y-79274819D02*
X137887500Y-78274819D01*
X137887500Y-78274819D02*
X137792262Y-78417676D01*
X137792262Y-78417676D02*
X137697024Y-78512914D01*
X137697024Y-78512914D02*
X137601786Y-78560533D01*
X130067080Y-81916666D02*
X130114700Y-81964285D01*
X130114700Y-81964285D02*
X130162319Y-82107142D01*
X130162319Y-82107142D02*
X130162319Y-82202380D01*
X130162319Y-82202380D02*
X130114700Y-82345237D01*
X130114700Y-82345237D02*
X130019461Y-82440475D01*
X130019461Y-82440475D02*
X129924223Y-82488094D01*
X129924223Y-82488094D02*
X129733747Y-82535713D01*
X129733747Y-82535713D02*
X129590890Y-82535713D01*
X129590890Y-82535713D02*
X129400414Y-82488094D01*
X129400414Y-82488094D02*
X129305176Y-82440475D01*
X129305176Y-82440475D02*
X129209938Y-82345237D01*
X129209938Y-82345237D02*
X129162319Y-82202380D01*
X129162319Y-82202380D02*
X129162319Y-82107142D01*
X129162319Y-82107142D02*
X129209938Y-81964285D01*
X129209938Y-81964285D02*
X129257557Y-81916666D01*
X129257557Y-81535713D02*
X129209938Y-81488094D01*
X129209938Y-81488094D02*
X129162319Y-81392856D01*
X129162319Y-81392856D02*
X129162319Y-81154761D01*
X129162319Y-81154761D02*
X129209938Y-81059523D01*
X129209938Y-81059523D02*
X129257557Y-81011904D01*
X129257557Y-81011904D02*
X129352795Y-80964285D01*
X129352795Y-80964285D02*
X129448033Y-80964285D01*
X129448033Y-80964285D02*
X129590890Y-81011904D01*
X129590890Y-81011904D02*
X130162319Y-81583332D01*
X130162319Y-81583332D02*
X130162319Y-80964285D01*
X133172319Y-84416666D02*
X132696128Y-84749999D01*
X133172319Y-84988094D02*
X132172319Y-84988094D01*
X132172319Y-84988094D02*
X132172319Y-84607142D01*
X132172319Y-84607142D02*
X132219938Y-84511904D01*
X132219938Y-84511904D02*
X132267557Y-84464285D01*
X132267557Y-84464285D02*
X132362795Y-84416666D01*
X132362795Y-84416666D02*
X132505652Y-84416666D01*
X132505652Y-84416666D02*
X132600890Y-84464285D01*
X132600890Y-84464285D02*
X132648509Y-84511904D01*
X132648509Y-84511904D02*
X132696128Y-84607142D01*
X132696128Y-84607142D02*
X132696128Y-84988094D01*
X132267557Y-84035713D02*
X132219938Y-83988094D01*
X132219938Y-83988094D02*
X132172319Y-83892856D01*
X132172319Y-83892856D02*
X132172319Y-83654761D01*
X132172319Y-83654761D02*
X132219938Y-83559523D01*
X132219938Y-83559523D02*
X132267557Y-83511904D01*
X132267557Y-83511904D02*
X132362795Y-83464285D01*
X132362795Y-83464285D02*
X132458033Y-83464285D01*
X132458033Y-83464285D02*
X132600890Y-83511904D01*
X132600890Y-83511904D02*
X133172319Y-84083332D01*
X133172319Y-84083332D02*
X133172319Y-83464285D01*
X137220833Y-84754819D02*
X136744643Y-84754819D01*
X136744643Y-84754819D02*
X136744643Y-83754819D01*
X138077976Y-84754819D02*
X137506548Y-84754819D01*
X137792262Y-84754819D02*
X137792262Y-83754819D01*
X137792262Y-83754819D02*
X137697024Y-83897676D01*
X137697024Y-83897676D02*
X137601786Y-83992914D01*
X137601786Y-83992914D02*
X137506548Y-84040533D01*
X129753628Y-95476190D02*
X130229819Y-95476190D01*
X129229819Y-95809523D02*
X129753628Y-95476190D01*
X129753628Y-95476190D02*
X129229819Y-95142857D01*
X130229819Y-94285714D02*
X130229819Y-94857142D01*
X130229819Y-94571428D02*
X129229819Y-94571428D01*
X129229819Y-94571428D02*
X129372676Y-94666666D01*
X129372676Y-94666666D02*
X129467914Y-94761904D01*
X129467914Y-94761904D02*
X129515533Y-94857142D01*
X96166666Y-94584819D02*
X96166666Y-95299104D01*
X96166666Y-95299104D02*
X96119047Y-95441961D01*
X96119047Y-95441961D02*
X96023809Y-95537200D01*
X96023809Y-95537200D02*
X95880952Y-95584819D01*
X95880952Y-95584819D02*
X95785714Y-95584819D01*
X96595238Y-94680057D02*
X96642857Y-94632438D01*
X96642857Y-94632438D02*
X96738095Y-94584819D01*
X96738095Y-94584819D02*
X96976190Y-94584819D01*
X96976190Y-94584819D02*
X97071428Y-94632438D01*
X97071428Y-94632438D02*
X97119047Y-94680057D01*
X97119047Y-94680057D02*
X97166666Y-94775295D01*
X97166666Y-94775295D02*
X97166666Y-94870533D01*
X97166666Y-94870533D02*
X97119047Y-95013390D01*
X97119047Y-95013390D02*
X96547619Y-95584819D01*
X96547619Y-95584819D02*
X97166666Y-95584819D01*
X124974580Y-91666666D02*
X125022200Y-91714285D01*
X125022200Y-91714285D02*
X125069819Y-91857142D01*
X125069819Y-91857142D02*
X125069819Y-91952380D01*
X125069819Y-91952380D02*
X125022200Y-92095237D01*
X125022200Y-92095237D02*
X124926961Y-92190475D01*
X124926961Y-92190475D02*
X124831723Y-92238094D01*
X124831723Y-92238094D02*
X124641247Y-92285713D01*
X124641247Y-92285713D02*
X124498390Y-92285713D01*
X124498390Y-92285713D02*
X124307914Y-92238094D01*
X124307914Y-92238094D02*
X124212676Y-92190475D01*
X124212676Y-92190475D02*
X124117438Y-92095237D01*
X124117438Y-92095237D02*
X124069819Y-91952380D01*
X124069819Y-91952380D02*
X124069819Y-91857142D01*
X124069819Y-91857142D02*
X124117438Y-91714285D01*
X124117438Y-91714285D02*
X124165057Y-91666666D01*
X124069819Y-91333332D02*
X124069819Y-90666666D01*
X124069819Y-90666666D02*
X125069819Y-91095237D01*
X97833333Y-91359580D02*
X97785714Y-91407200D01*
X97785714Y-91407200D02*
X97642857Y-91454819D01*
X97642857Y-91454819D02*
X97547619Y-91454819D01*
X97547619Y-91454819D02*
X97404762Y-91407200D01*
X97404762Y-91407200D02*
X97309524Y-91311961D01*
X97309524Y-91311961D02*
X97261905Y-91216723D01*
X97261905Y-91216723D02*
X97214286Y-91026247D01*
X97214286Y-91026247D02*
X97214286Y-90883390D01*
X97214286Y-90883390D02*
X97261905Y-90692914D01*
X97261905Y-90692914D02*
X97309524Y-90597676D01*
X97309524Y-90597676D02*
X97404762Y-90502438D01*
X97404762Y-90502438D02*
X97547619Y-90454819D01*
X97547619Y-90454819D02*
X97642857Y-90454819D01*
X97642857Y-90454819D02*
X97785714Y-90502438D01*
X97785714Y-90502438D02*
X97833333Y-90550057D01*
X98738095Y-90454819D02*
X98261905Y-90454819D01*
X98261905Y-90454819D02*
X98214286Y-90931009D01*
X98214286Y-90931009D02*
X98261905Y-90883390D01*
X98261905Y-90883390D02*
X98357143Y-90835771D01*
X98357143Y-90835771D02*
X98595238Y-90835771D01*
X98595238Y-90835771D02*
X98690476Y-90883390D01*
X98690476Y-90883390D02*
X98738095Y-90931009D01*
X98738095Y-90931009D02*
X98785714Y-91026247D01*
X98785714Y-91026247D02*
X98785714Y-91264342D01*
X98785714Y-91264342D02*
X98738095Y-91359580D01*
X98738095Y-91359580D02*
X98690476Y-91407200D01*
X98690476Y-91407200D02*
X98595238Y-91454819D01*
X98595238Y-91454819D02*
X98357143Y-91454819D01*
X98357143Y-91454819D02*
X98261905Y-91407200D01*
X98261905Y-91407200D02*
X98214286Y-91359580D01*
X128608333Y-85429580D02*
X128560714Y-85477200D01*
X128560714Y-85477200D02*
X128417857Y-85524819D01*
X128417857Y-85524819D02*
X128322619Y-85524819D01*
X128322619Y-85524819D02*
X128179762Y-85477200D01*
X128179762Y-85477200D02*
X128084524Y-85381961D01*
X128084524Y-85381961D02*
X128036905Y-85286723D01*
X128036905Y-85286723D02*
X127989286Y-85096247D01*
X127989286Y-85096247D02*
X127989286Y-84953390D01*
X127989286Y-84953390D02*
X128036905Y-84762914D01*
X128036905Y-84762914D02*
X128084524Y-84667676D01*
X128084524Y-84667676D02*
X128179762Y-84572438D01*
X128179762Y-84572438D02*
X128322619Y-84524819D01*
X128322619Y-84524819D02*
X128417857Y-84524819D01*
X128417857Y-84524819D02*
X128560714Y-84572438D01*
X128560714Y-84572438D02*
X128608333Y-84620057D01*
X128941667Y-84524819D02*
X129560714Y-84524819D01*
X129560714Y-84524819D02*
X129227381Y-84905771D01*
X129227381Y-84905771D02*
X129370238Y-84905771D01*
X129370238Y-84905771D02*
X129465476Y-84953390D01*
X129465476Y-84953390D02*
X129513095Y-85001009D01*
X129513095Y-85001009D02*
X129560714Y-85096247D01*
X129560714Y-85096247D02*
X129560714Y-85334342D01*
X129560714Y-85334342D02*
X129513095Y-85429580D01*
X129513095Y-85429580D02*
X129465476Y-85477200D01*
X129465476Y-85477200D02*
X129370238Y-85524819D01*
X129370238Y-85524819D02*
X129084524Y-85524819D01*
X129084524Y-85524819D02*
X128989286Y-85477200D01*
X128989286Y-85477200D02*
X128941667Y-85429580D01*
X133134580Y-91122857D02*
X133182200Y-91170476D01*
X133182200Y-91170476D02*
X133229819Y-91313333D01*
X133229819Y-91313333D02*
X133229819Y-91408571D01*
X133229819Y-91408571D02*
X133182200Y-91551428D01*
X133182200Y-91551428D02*
X133086961Y-91646666D01*
X133086961Y-91646666D02*
X132991723Y-91694285D01*
X132991723Y-91694285D02*
X132801247Y-91741904D01*
X132801247Y-91741904D02*
X132658390Y-91741904D01*
X132658390Y-91741904D02*
X132467914Y-91694285D01*
X132467914Y-91694285D02*
X132372676Y-91646666D01*
X132372676Y-91646666D02*
X132277438Y-91551428D01*
X132277438Y-91551428D02*
X132229819Y-91408571D01*
X132229819Y-91408571D02*
X132229819Y-91313333D01*
X132229819Y-91313333D02*
X132277438Y-91170476D01*
X132277438Y-91170476D02*
X132325057Y-91122857D01*
X132229819Y-90789523D02*
X133229819Y-90122857D01*
X132229819Y-90122857D02*
X133229819Y-90789523D01*
X133229819Y-89218095D02*
X133229819Y-89789523D01*
X133229819Y-89503809D02*
X132229819Y-89503809D01*
X132229819Y-89503809D02*
X132372676Y-89599047D01*
X132372676Y-89599047D02*
X132467914Y-89694285D01*
X132467914Y-89694285D02*
X132515533Y-89789523D01*
X132172319Y-84416666D02*
X131696128Y-84749999D01*
X132172319Y-84988094D02*
X131172319Y-84988094D01*
X131172319Y-84988094D02*
X131172319Y-84607142D01*
X131172319Y-84607142D02*
X131219938Y-84511904D01*
X131219938Y-84511904D02*
X131267557Y-84464285D01*
X131267557Y-84464285D02*
X131362795Y-84416666D01*
X131362795Y-84416666D02*
X131505652Y-84416666D01*
X131505652Y-84416666D02*
X131600890Y-84464285D01*
X131600890Y-84464285D02*
X131648509Y-84511904D01*
X131648509Y-84511904D02*
X131696128Y-84607142D01*
X131696128Y-84607142D02*
X131696128Y-84988094D01*
X132172319Y-83464285D02*
X132172319Y-84035713D01*
X132172319Y-83749999D02*
X131172319Y-83749999D01*
X131172319Y-83749999D02*
X131315176Y-83845237D01*
X131315176Y-83845237D02*
X131410414Y-83940475D01*
X131410414Y-83940475D02*
X131458033Y-84035713D01*
X120761904Y-89545180D02*
X120761904Y-88735657D01*
X120761904Y-88735657D02*
X120714285Y-88640419D01*
X120714285Y-88640419D02*
X120666666Y-88592800D01*
X120666666Y-88592800D02*
X120571428Y-88545180D01*
X120571428Y-88545180D02*
X120380952Y-88545180D01*
X120380952Y-88545180D02*
X120285714Y-88592800D01*
X120285714Y-88592800D02*
X120238095Y-88640419D01*
X120238095Y-88640419D02*
X120190476Y-88735657D01*
X120190476Y-88735657D02*
X120190476Y-89545180D01*
X119761904Y-89449942D02*
X119714285Y-89497561D01*
X119714285Y-89497561D02*
X119619047Y-89545180D01*
X119619047Y-89545180D02*
X119380952Y-89545180D01*
X119380952Y-89545180D02*
X119285714Y-89497561D01*
X119285714Y-89497561D02*
X119238095Y-89449942D01*
X119238095Y-89449942D02*
X119190476Y-89354704D01*
X119190476Y-89354704D02*
X119190476Y-89259466D01*
X119190476Y-89259466D02*
X119238095Y-89116609D01*
X119238095Y-89116609D02*
X119809523Y-88545180D01*
X119809523Y-88545180D02*
X119190476Y-88545180D01*
X130767485Y-96292180D02*
X130767485Y-97292180D01*
X130767485Y-97292180D02*
X130529390Y-97292180D01*
X130529390Y-97292180D02*
X130386533Y-97244561D01*
X130386533Y-97244561D02*
X130291295Y-97149323D01*
X130291295Y-97149323D02*
X130243676Y-97054085D01*
X130243676Y-97054085D02*
X130196057Y-96863609D01*
X130196057Y-96863609D02*
X130196057Y-96720752D01*
X130196057Y-96720752D02*
X130243676Y-96530276D01*
X130243676Y-96530276D02*
X130291295Y-96435038D01*
X130291295Y-96435038D02*
X130386533Y-96339800D01*
X130386533Y-96339800D02*
X130529390Y-96292180D01*
X130529390Y-96292180D02*
X130767485Y-96292180D01*
X129386533Y-96339800D02*
X129481771Y-96292180D01*
X129481771Y-96292180D02*
X129672247Y-96292180D01*
X129672247Y-96292180D02*
X129767485Y-96339800D01*
X129767485Y-96339800D02*
X129815104Y-96435038D01*
X129815104Y-96435038D02*
X129815104Y-96815990D01*
X129815104Y-96815990D02*
X129767485Y-96911228D01*
X129767485Y-96911228D02*
X129672247Y-96958847D01*
X129672247Y-96958847D02*
X129481771Y-96958847D01*
X129481771Y-96958847D02*
X129386533Y-96911228D01*
X129386533Y-96911228D02*
X129338914Y-96815990D01*
X129338914Y-96815990D02*
X129338914Y-96720752D01*
X129338914Y-96720752D02*
X129815104Y-96625514D01*
X128957961Y-96339800D02*
X128862723Y-96292180D01*
X128862723Y-96292180D02*
X128672247Y-96292180D01*
X128672247Y-96292180D02*
X128577009Y-96339800D01*
X128577009Y-96339800D02*
X128529390Y-96435038D01*
X128529390Y-96435038D02*
X128529390Y-96482657D01*
X128529390Y-96482657D02*
X128577009Y-96577895D01*
X128577009Y-96577895D02*
X128672247Y-96625514D01*
X128672247Y-96625514D02*
X128815104Y-96625514D01*
X128815104Y-96625514D02*
X128910342Y-96673133D01*
X128910342Y-96673133D02*
X128957961Y-96768371D01*
X128957961Y-96768371D02*
X128957961Y-96815990D01*
X128957961Y-96815990D02*
X128910342Y-96911228D01*
X128910342Y-96911228D02*
X128815104Y-96958847D01*
X128815104Y-96958847D02*
X128672247Y-96958847D01*
X128672247Y-96958847D02*
X128577009Y-96911228D01*
X128100818Y-96292180D02*
X128100818Y-96958847D01*
X128100818Y-97292180D02*
X128148437Y-97244561D01*
X128148437Y-97244561D02*
X128100818Y-97196942D01*
X128100818Y-97196942D02*
X128053199Y-97244561D01*
X128053199Y-97244561D02*
X128100818Y-97292180D01*
X128100818Y-97292180D02*
X128100818Y-97196942D01*
X127196057Y-96958847D02*
X127196057Y-96149323D01*
X127196057Y-96149323D02*
X127243676Y-96054085D01*
X127243676Y-96054085D02*
X127291295Y-96006466D01*
X127291295Y-96006466D02*
X127386533Y-95958847D01*
X127386533Y-95958847D02*
X127529390Y-95958847D01*
X127529390Y-95958847D02*
X127624628Y-96006466D01*
X127196057Y-96339800D02*
X127291295Y-96292180D01*
X127291295Y-96292180D02*
X127481771Y-96292180D01*
X127481771Y-96292180D02*
X127577009Y-96339800D01*
X127577009Y-96339800D02*
X127624628Y-96387419D01*
X127624628Y-96387419D02*
X127672247Y-96482657D01*
X127672247Y-96482657D02*
X127672247Y-96768371D01*
X127672247Y-96768371D02*
X127624628Y-96863609D01*
X127624628Y-96863609D02*
X127577009Y-96911228D01*
X127577009Y-96911228D02*
X127481771Y-96958847D01*
X127481771Y-96958847D02*
X127291295Y-96958847D01*
X127291295Y-96958847D02*
X127196057Y-96911228D01*
X126719866Y-96958847D02*
X126719866Y-96292180D01*
X126719866Y-96863609D02*
X126672247Y-96911228D01*
X126672247Y-96911228D02*
X126577009Y-96958847D01*
X126577009Y-96958847D02*
X126434152Y-96958847D01*
X126434152Y-96958847D02*
X126338914Y-96911228D01*
X126338914Y-96911228D02*
X126291295Y-96815990D01*
X126291295Y-96815990D02*
X126291295Y-96292180D01*
X125386533Y-96292180D02*
X125386533Y-96815990D01*
X125386533Y-96815990D02*
X125434152Y-96911228D01*
X125434152Y-96911228D02*
X125529390Y-96958847D01*
X125529390Y-96958847D02*
X125719866Y-96958847D01*
X125719866Y-96958847D02*
X125815104Y-96911228D01*
X125386533Y-96339800D02*
X125481771Y-96292180D01*
X125481771Y-96292180D02*
X125719866Y-96292180D01*
X125719866Y-96292180D02*
X125815104Y-96339800D01*
X125815104Y-96339800D02*
X125862723Y-96435038D01*
X125862723Y-96435038D02*
X125862723Y-96530276D01*
X125862723Y-96530276D02*
X125815104Y-96625514D01*
X125815104Y-96625514D02*
X125719866Y-96673133D01*
X125719866Y-96673133D02*
X125481771Y-96673133D01*
X125481771Y-96673133D02*
X125386533Y-96720752D01*
X125053199Y-96958847D02*
X124672247Y-96958847D01*
X124910342Y-97292180D02*
X124910342Y-96435038D01*
X124910342Y-96435038D02*
X124862723Y-96339800D01*
X124862723Y-96339800D02*
X124767485Y-96292180D01*
X124767485Y-96292180D02*
X124672247Y-96292180D01*
X124196056Y-96292180D02*
X124291294Y-96339800D01*
X124291294Y-96339800D02*
X124338913Y-96387419D01*
X124338913Y-96387419D02*
X124386532Y-96482657D01*
X124386532Y-96482657D02*
X124386532Y-96768371D01*
X124386532Y-96768371D02*
X124338913Y-96863609D01*
X124338913Y-96863609D02*
X124291294Y-96911228D01*
X124291294Y-96911228D02*
X124196056Y-96958847D01*
X124196056Y-96958847D02*
X124053199Y-96958847D01*
X124053199Y-96958847D02*
X123957961Y-96911228D01*
X123957961Y-96911228D02*
X123910342Y-96863609D01*
X123910342Y-96863609D02*
X123862723Y-96768371D01*
X123862723Y-96768371D02*
X123862723Y-96482657D01*
X123862723Y-96482657D02*
X123910342Y-96387419D01*
X123910342Y-96387419D02*
X123957961Y-96339800D01*
X123957961Y-96339800D02*
X124053199Y-96292180D01*
X124053199Y-96292180D02*
X124196056Y-96292180D01*
X123434151Y-96292180D02*
X123434151Y-96958847D01*
X123434151Y-96768371D02*
X123386532Y-96863609D01*
X123386532Y-96863609D02*
X123338913Y-96911228D01*
X123338913Y-96911228D02*
X123243675Y-96958847D01*
X123243675Y-96958847D02*
X123148437Y-96958847D01*
X122767484Y-96292180D02*
X122577008Y-96292180D01*
X122577008Y-96292180D02*
X122481770Y-96339800D01*
X122481770Y-96339800D02*
X122434151Y-96387419D01*
X122434151Y-96387419D02*
X122338913Y-96530276D01*
X122338913Y-96530276D02*
X122291294Y-96720752D01*
X122291294Y-96720752D02*
X122291294Y-97101704D01*
X122291294Y-97101704D02*
X122338913Y-97196942D01*
X122338913Y-97196942D02*
X122386532Y-97244561D01*
X122386532Y-97244561D02*
X122481770Y-97292180D01*
X122481770Y-97292180D02*
X122672246Y-97292180D01*
X122672246Y-97292180D02*
X122767484Y-97244561D01*
X122767484Y-97244561D02*
X122815103Y-97196942D01*
X122815103Y-97196942D02*
X122862722Y-97101704D01*
X122862722Y-97101704D02*
X122862722Y-96863609D01*
X122862722Y-96863609D02*
X122815103Y-96768371D01*
X122815103Y-96768371D02*
X122767484Y-96720752D01*
X122767484Y-96720752D02*
X122672246Y-96673133D01*
X122672246Y-96673133D02*
X122481770Y-96673133D01*
X122481770Y-96673133D02*
X122386532Y-96720752D01*
X122386532Y-96720752D02*
X122338913Y-96768371D01*
X122338913Y-96768371D02*
X122291294Y-96863609D01*
X133294580Y-94142857D02*
X133342200Y-94190476D01*
X133342200Y-94190476D02*
X133389819Y-94333333D01*
X133389819Y-94333333D02*
X133389819Y-94428571D01*
X133389819Y-94428571D02*
X133342200Y-94571428D01*
X133342200Y-94571428D02*
X133246961Y-94666666D01*
X133246961Y-94666666D02*
X133151723Y-94714285D01*
X133151723Y-94714285D02*
X132961247Y-94761904D01*
X132961247Y-94761904D02*
X132818390Y-94761904D01*
X132818390Y-94761904D02*
X132627914Y-94714285D01*
X132627914Y-94714285D02*
X132532676Y-94666666D01*
X132532676Y-94666666D02*
X132437438Y-94571428D01*
X132437438Y-94571428D02*
X132389819Y-94428571D01*
X132389819Y-94428571D02*
X132389819Y-94333333D01*
X132389819Y-94333333D02*
X132437438Y-94190476D01*
X132437438Y-94190476D02*
X132485057Y-94142857D01*
X132389819Y-93809523D02*
X133389819Y-93142857D01*
X132389819Y-93142857D02*
X133389819Y-93809523D01*
X132485057Y-92809523D02*
X132437438Y-92761904D01*
X132437438Y-92761904D02*
X132389819Y-92666666D01*
X132389819Y-92666666D02*
X132389819Y-92428571D01*
X132389819Y-92428571D02*
X132437438Y-92333333D01*
X132437438Y-92333333D02*
X132485057Y-92285714D01*
X132485057Y-92285714D02*
X132580295Y-92238095D01*
X132580295Y-92238095D02*
X132675533Y-92238095D01*
X132675533Y-92238095D02*
X132818390Y-92285714D01*
X132818390Y-92285714D02*
X133389819Y-92857142D01*
X133389819Y-92857142D02*
X133389819Y-92238095D01*
D15*
%TO.C,C4*%
X128362836Y-88140000D02*
X128147164Y-88140000D01*
X128362836Y-88860000D02*
X128147164Y-88860000D01*
%TO.C,CL_1*%
D11*
X140100000Y-89500000D02*
X136100000Y-89500000D01*
X136100000Y-86500000D01*
X140100000Y-86500000D01*
X140100000Y-89500000D01*
D16*
X144400000Y-82750000D02*
X140100000Y-86500000D01*
X144400000Y-93250000D02*
X140100000Y-89500000D01*
%TO.C,CL_2*%
D17*
X142500000Y-80887500D02*
X149500000Y-80887500D01*
X149500000Y-94787500D01*
X142500000Y-94787500D01*
X142500000Y-80887500D01*
D15*
%TO.C,U1*%
X133300748Y-80490000D02*
X135110000Y-80490000D01*
X135110000Y-82710000D02*
X132890000Y-82710000D01*
X133010000Y-80480000D02*
X132870000Y-80290000D01*
X133150000Y-80290000D01*
X133010000Y-80480000D01*
G36*
X133010000Y-80480000D02*
G01*
X132870000Y-80290000D01*
X133150000Y-80290000D01*
X133010000Y-80480000D01*
G37*
%TO.C,R3*%
X100143641Y-89880000D02*
X99836359Y-89880000D01*
X100143641Y-89120000D02*
X99836359Y-89120000D01*
%TO.C,C1*%
X137126248Y-79765000D02*
X137648752Y-79765000D01*
X137126248Y-81235000D02*
X137648752Y-81235000D01*
%TO.C,C2*%
X130652500Y-82011252D02*
X130652500Y-81488748D01*
X132122500Y-82011252D02*
X132122500Y-81488748D01*
%TO.C,R2*%
X133507500Y-84403641D02*
X133507500Y-84096359D01*
X134267500Y-84403641D02*
X134267500Y-84096359D01*
%TO.C,L1*%
X137787122Y-83310000D02*
X136987878Y-83310000D01*
X137787122Y-82190000D02*
X136987878Y-82190000D01*
%TO.C,Y1*%
X128900000Y-92675000D02*
X128900000Y-91325000D01*
X130650000Y-92675000D02*
X130650000Y-91325000D01*
%TO.C,J2*%
X97880000Y-94130000D02*
X96500000Y-94130000D01*
X97880000Y-92750000D02*
X97880000Y-94130000D01*
X97880000Y-91480000D02*
X97880000Y-83750000D01*
X97880000Y-91480000D02*
X95120000Y-91480000D01*
X97880000Y-83750000D02*
X95120000Y-83750000D01*
X95120000Y-91480000D02*
X95120000Y-83750000D01*
%TO.C,C7*%
X126915000Y-91357836D02*
X126915000Y-91142164D01*
X127635000Y-91357836D02*
X127635000Y-91142164D01*
%TO.C,C5*%
X99892164Y-90640000D02*
X100107836Y-90640000D01*
X99892164Y-91360000D02*
X100107836Y-91360000D01*
%TO.C,C3*%
X128513748Y-86015000D02*
X129036252Y-86015000D01*
X128513748Y-87485000D02*
X129036252Y-87485000D01*
%TO.C,CX1*%
X131415000Y-90587836D02*
X131415000Y-90372164D01*
X132135000Y-90587836D02*
X132135000Y-90372164D01*
%TO.C,R1*%
X132507500Y-84403641D02*
X132507500Y-84096359D01*
X133267500Y-84403641D02*
X133267500Y-84096359D01*
D17*
%TO.C,U2*%
X124249999Y-84750001D02*
X124249999Y-93250002D01*
X115749998Y-84750001D02*
X115749998Y-93250002D01*
X124249999Y-93250002D02*
X115749998Y-93250002D01*
X124249999Y-84750001D02*
X115749998Y-84750001D01*
D18*
X125675000Y-93450001D02*
G75*
G02*
X125424998Y-93450001I-125001J0D01*
G01*
X125424998Y-93450001D02*
G75*
G02*
X125675000Y-93450001I125001J0D01*
G01*
D19*
X123549999Y-92250001D02*
G75*
G02*
X122949999Y-92250001I-300000J0D01*
G01*
X122949999Y-92250001D02*
G75*
G02*
X123549999Y-92250001I300000J0D01*
G01*
D15*
%TO.C,CX2*%
X132135000Y-93392164D02*
X132135000Y-93607836D01*
X131415000Y-93392164D02*
X131415000Y-93607836D01*
%TD*%
%LPC*%
%TO.C,SW2*%
G36*
X104475000Y-97887500D02*
G01*
X104875000Y-97887500D01*
X104875000Y-99787500D01*
X104475000Y-99787500D01*
X104475000Y-97887500D01*
G37*
D10*
G36*
X106175000Y-99387500D02*
G01*
X107075000Y-99387500D01*
X107075000Y-97887500D01*
X107475000Y-97887500D01*
X107475000Y-99387500D01*
X108275000Y-99387500D01*
X108275000Y-97887500D01*
X108675000Y-97887500D01*
X108675000Y-99587500D01*
X108675000Y-99787500D01*
X104475000Y-99787500D01*
X104475000Y-99387500D01*
X105775000Y-99387500D01*
X105775000Y-97887500D01*
X106175000Y-97887500D01*
X106175000Y-99387500D01*
G37*
G36*
X108675000Y-97587500D02*
G01*
X108075000Y-97587500D01*
X108075000Y-99287500D01*
X107675000Y-99287500D01*
X107675000Y-97587500D01*
X106775000Y-97587500D01*
X106775000Y-99287500D01*
X106375000Y-99287500D01*
X106375000Y-97587500D01*
X105575000Y-97587500D01*
X105575000Y-99287500D01*
X105175000Y-99287500D01*
X105175000Y-97587500D01*
X104475000Y-97587500D01*
X104475000Y-97187500D01*
X108675000Y-97187500D01*
X108675000Y-97587500D01*
G37*
%TO.C,SW1*%
G36*
X119975000Y-75887500D02*
G01*
X120375000Y-75887500D01*
X120375000Y-77787500D01*
X119975000Y-77787500D01*
X119975000Y-75887500D01*
G37*
G36*
X121675000Y-77387500D02*
G01*
X122575000Y-77387500D01*
X122575000Y-75887500D01*
X122975000Y-75887500D01*
X122975000Y-77387500D01*
X123775000Y-77387500D01*
X123775000Y-75887500D01*
X124175000Y-75887500D01*
X124175000Y-77587500D01*
X124175000Y-77787500D01*
X119975000Y-77787500D01*
X119975000Y-77387500D01*
X121275000Y-77387500D01*
X121275000Y-75887500D01*
X121675000Y-75887500D01*
X121675000Y-77387500D01*
G37*
G36*
X124175000Y-75587500D02*
G01*
X123575000Y-75587500D01*
X123575000Y-77287500D01*
X123175000Y-77287500D01*
X123175000Y-75587500D01*
X122275000Y-75587500D01*
X122275000Y-77287500D01*
X121875000Y-77287500D01*
X121875000Y-75587500D01*
X121075000Y-75587500D01*
X121075000Y-77287500D01*
X120675000Y-77287500D01*
X120675000Y-75587500D01*
X119975000Y-75587500D01*
X119975000Y-75187500D01*
X124175000Y-75187500D01*
X124175000Y-75587500D01*
G37*
%TO.C,SW3*%
G36*
X119475000Y-97887500D02*
G01*
X119875000Y-97887500D01*
X119875000Y-99787500D01*
X119475000Y-99787500D01*
X119475000Y-97887500D01*
G37*
G36*
X121175000Y-99387500D02*
G01*
X122075000Y-99387500D01*
X122075000Y-97887500D01*
X122475000Y-97887500D01*
X122475000Y-99387500D01*
X123275000Y-99387500D01*
X123275000Y-97887500D01*
X123675000Y-97887500D01*
X123675000Y-99587500D01*
X123675000Y-99787500D01*
X119475000Y-99787500D01*
X119475000Y-99387500D01*
X120775000Y-99387500D01*
X120775000Y-97887500D01*
X121175000Y-97887500D01*
X121175000Y-99387500D01*
G37*
G36*
X123675000Y-97587500D02*
G01*
X123075000Y-97587500D01*
X123075000Y-99287500D01*
X122675000Y-99287500D01*
X122675000Y-97587500D01*
X121775000Y-97587500D01*
X121775000Y-99287500D01*
X121375000Y-99287500D01*
X121375000Y-97587500D01*
X120575000Y-97587500D01*
X120575000Y-99287500D01*
X120175000Y-99287500D01*
X120175000Y-97587500D01*
X119475000Y-97587500D01*
X119475000Y-97187500D01*
X123675000Y-97187500D01*
X123675000Y-97587500D01*
G37*
%TD*%
D20*
%TO.C,J1*%
X112750000Y-78900000D03*
X111750000Y-78900000D03*
X110750000Y-78900000D03*
X109750000Y-78900000D03*
X108750000Y-78900000D03*
X107750000Y-78900000D03*
X106750000Y-78900000D03*
X105750000Y-78900000D03*
X104750000Y-78900000D03*
X103750000Y-78900000D03*
X102750000Y-78900000D03*
X101750000Y-78900000D03*
X100750000Y-78900000D03*
X99750000Y-78900000D03*
X98750000Y-78900000D03*
%TD*%
D21*
%TO.C,C4*%
X127775000Y-88500000D03*
X128735000Y-88500000D03*
%TD*%
D22*
%TO.C,CL_1*%
X137600000Y-88000000D03*
D23*
X137250000Y-86350000D03*
X137250000Y-89650000D03*
%TD*%
D24*
%TO.C,CL_2*%
X146000000Y-93187500D03*
X146000000Y-82487500D03*
D25*
X146000000Y-93037500D03*
X146000000Y-82637500D03*
%TD*%
D26*
%TO.C,U1*%
X133112500Y-80950000D03*
X133112500Y-81600000D03*
X133112500Y-82250000D03*
X134887500Y-82250000D03*
X134887500Y-81600000D03*
X134887500Y-80950000D03*
D27*
X134000000Y-81600000D03*
%TD*%
D28*
%TO.C,R3*%
X100500000Y-89500000D03*
X99480000Y-89500000D03*
%TD*%
D29*
%TO.C,C1*%
X136437500Y-80500000D03*
X138337500Y-80500000D03*
%TD*%
D30*
%TO.C,SW2*%
X106575000Y-97387500D03*
D31*
X106577500Y-99592500D03*
%TD*%
D32*
%TO.C,C2*%
X131387500Y-82700000D03*
X131387500Y-80800000D03*
%TD*%
D33*
%TO.C,R2*%
X133887500Y-84760000D03*
X133887500Y-83740000D03*
%TD*%
D34*
%TO.C,L1*%
X138450000Y-82750000D03*
X136325000Y-82750000D03*
%TD*%
D35*
%TO.C,Y1*%
X129775000Y-90750000D03*
X129775000Y-93250000D03*
%TD*%
D36*
%TO.C,J2*%
X96500000Y-92750000D03*
D37*
X96500000Y-90210000D03*
X96500000Y-87670000D03*
X96500000Y-85130000D03*
%TD*%
D38*
%TO.C,C7*%
X127275000Y-91730000D03*
X127275000Y-90770000D03*
%TD*%
D39*
%TO.C,C5*%
X99520000Y-91000000D03*
X100480000Y-91000000D03*
%TD*%
D29*
%TO.C,C3*%
X127825000Y-86750000D03*
X129725000Y-86750000D03*
%TD*%
D30*
%TO.C,SW1*%
X122075000Y-75387500D03*
D31*
X122077500Y-77592500D03*
%TD*%
D30*
%TO.C,SW3*%
X121575000Y-97387500D03*
D31*
X121577500Y-99592500D03*
%TD*%
D38*
%TO.C,CX1*%
X131775000Y-90960000D03*
X131775000Y-90000000D03*
%TD*%
D33*
%TO.C,R1*%
X132887500Y-84760000D03*
X132887500Y-83740000D03*
%TD*%
D40*
%TO.C,U2*%
X125725000Y-92750000D03*
X125725000Y-92250001D03*
X125725000Y-91750000D03*
X125725000Y-91250001D03*
X125725000Y-90749999D03*
X125725000Y-90250000D03*
X125725000Y-89750001D03*
X125725000Y-89250000D03*
X125725000Y-88750000D03*
X125725000Y-88249999D03*
X125725000Y-87750000D03*
X125725000Y-87250001D03*
X125725000Y-86749999D03*
X125725000Y-86250000D03*
X125725000Y-85749999D03*
X125725000Y-85250000D03*
D41*
X123750000Y-83275000D03*
X123250001Y-83275000D03*
X122750000Y-83275000D03*
X122250001Y-83275000D03*
X121749999Y-83275000D03*
X121250000Y-83275000D03*
X120750001Y-83275000D03*
X120250000Y-83275000D03*
X119750000Y-83275000D03*
X119249999Y-83275000D03*
X118750000Y-83275000D03*
X118250001Y-83275000D03*
X117749999Y-83275000D03*
X117250000Y-83275000D03*
X116749999Y-83275000D03*
X116250000Y-83275000D03*
D40*
X114275000Y-85250000D03*
X114275000Y-85749999D03*
X114275000Y-86250000D03*
X114275000Y-86749999D03*
X114275000Y-87250001D03*
X114275000Y-87750000D03*
X114275000Y-88249999D03*
X114275000Y-88750000D03*
X114275000Y-89250000D03*
X114275000Y-89750001D03*
X114275000Y-90250000D03*
X114275000Y-90749999D03*
X114275000Y-91250001D03*
X114275000Y-91750000D03*
X114275000Y-92250001D03*
X114275000Y-92750000D03*
D41*
X116250000Y-94725000D03*
X116749999Y-94725000D03*
X117250000Y-94725000D03*
X117749999Y-94725000D03*
X118250001Y-94725000D03*
X118750000Y-94725000D03*
X119249999Y-94725000D03*
X119750000Y-94725000D03*
X120250000Y-94725000D03*
X120750001Y-94725000D03*
X121250000Y-94725000D03*
X121749999Y-94725000D03*
X122250001Y-94725000D03*
X122750000Y-94725000D03*
X123250001Y-94725000D03*
X123750000Y-94725000D03*
%TD*%
D42*
%TO.C,CX2*%
X131775000Y-93020000D03*
X131775000Y-93980000D03*
%TD*%
%LPD*%
M02*
