%TF.GenerationSoftware,KiCad,Pcbnew,9.0.6*%
%TF.CreationDate,2026-05-13T20:21:09-04:00*%
%TF.ProjectId,Caliper_Clock_V3,43616c69-7065-4725-9f43-6c6f636b5f56,rev?*%
%TF.SameCoordinates,Original*%
%TF.FileFunction,Copper,L1,Top*%
%TF.FilePolarity,Positive*%
%FSLAX46Y46*%
G04 Gerber Fmt 4.6, Leading zero omitted, Abs format (unit mm)*
G04 Created by KiCad (PCBNEW 9.0.6) date 2026-05-13 20:21:09*
%MOMM*%
%LPD*%
G01*
G04 APERTURE LIST*
G04 Aperture macros list*
%AMRoundRect*
0 Rectangle with rounded corners*
0 $1 Rounding radius*
0 $2 $3 $4 $5 $6 $7 $8 $9 X,Y pos of 4 corners*
0 Add a 4 corners polygon primitive as box body*
4,1,4,$2,$3,$4,$5,$6,$7,$8,$9,$2,$3,0*
0 Add four circle primitives for the rounded corners*
1,1,$1+$1,$2,$3*
1,1,$1+$1,$4,$5*
1,1,$1+$1,$6,$7*
1,1,$1+$1,$8,$9*
0 Add four rect primitives between the rounded corners*
20,1,$1+$1,$2,$3,$4,$5,0*
20,1,$1+$1,$4,$5,$6,$7,0*
20,1,$1+$1,$6,$7,$8,$9,0*
20,1,$1+$1,$8,$9,$2,$3,0*%
%AMFreePoly0*
4,1,41,2.097500,-0.205000,1.500000,-0.205000,1.500000,-1.700000,1.496157,-1.739018,1.466294,-1.811114,1.411114,-1.866294,1.339018,-1.896157,1.260982,-1.896157,1.188886,-1.866294,1.133706,-1.811114,1.103843,-1.739018,1.100000,-1.700000,1.100000,-0.205000,0.200000,-0.205000,0.200000,-1.700000,0.196157,-1.739018,0.166294,-1.811114,0.111114,-1.866294,0.039018,-1.896157,-0.039018,-1.896157,
-0.111114,-1.866294,-0.166294,-1.811114,-0.196157,-1.739018,-0.200000,-1.700000,-0.200000,-0.205000,-1.000000,-0.205000,-1.000000,-1.700000,-1.003843,-1.739018,-1.033706,-1.811114,-1.088886,-1.866294,-1.160982,-1.896157,-1.239018,-1.896157,-1.311114,-1.866294,-1.366294,-1.811114,-1.396157,-1.739018,-1.400000,-1.700000,-1.400000,-0.205000,-2.097500,-0.205000,-2.097500,0.205000,2.097500,0.205000,
2.097500,-0.205000,2.097500,-0.205000,$1*%
%AMFreePoly1*
4,1,52,-1.791386,1.671294,-1.736206,1.616114,-1.706343,1.544018,-1.702500,1.505000,-1.702500,0.205000,-0.802500,0.205000,-0.802500,1.505000,-0.798657,1.544018,-0.768794,1.616114,-0.713614,1.671294,-0.641518,1.701157,-0.563482,1.701157,-0.491386,1.671294,-0.436206,1.616114,-0.406343,1.544018,-0.402500,1.505000,-0.402500,0.205000,0.497500,0.205000,0.497500,1.505000,0.501343,1.544018,
0.531206,1.616114,0.586386,1.671294,0.658482,1.701157,0.736518,1.701157,0.808614,1.671294,0.863794,1.616114,0.893657,1.544018,0.897500,1.505000,0.897500,0.205000,1.697500,0.205000,1.697500,1.505000,1.701343,1.544018,1.731206,1.616114,1.786386,1.671294,1.858482,1.701157,1.936518,1.701157,2.008614,1.671294,2.063794,1.616114,2.093657,1.544018,2.097500,1.505000,
2.097500,-0.205000,-2.097500,-0.205000,-2.097500,-0.036811,-2.098657,-0.034018,-2.102500,0.005000,-2.102500,1.505000,-2.098657,1.544018,-2.068794,1.616114,-2.013614,1.671294,-1.941518,1.701157,-1.863482,1.701157,-1.791386,1.671294,-1.791386,1.671294,$1*%
G04 Aperture macros list end*
%TA.AperFunction,Conductor*%
%ADD10C,0.200000*%
%TD*%
%TA.AperFunction,SMDPad,CuDef*%
%ADD11R,0.500000X1.500000*%
%TD*%
%TA.AperFunction,SMDPad,CuDef*%
%ADD12RoundRect,0.140000X0.140000X0.170000X-0.140000X0.170000X-0.140000X-0.170000X0.140000X-0.170000X0*%
%TD*%
%TA.AperFunction,SMDPad,CuDef*%
%ADD13R,4.000000X1.800000*%
%TD*%
%TA.AperFunction,ComponentPad*%
%ADD14O,1.800000X0.900000*%
%TD*%
%TA.AperFunction,ComponentPad*%
%ADD15O,2.000000X0.600000*%
%TD*%
%TA.AperFunction,SMDPad,CuDef*%
%ADD16R,6.000000X2.500000*%
%TD*%
%TA.AperFunction,SMDPad,CuDef*%
%ADD17RoundRect,0.093750X-0.093750X-0.106250X0.093750X-0.106250X0.093750X0.106250X-0.093750X0.106250X0*%
%TD*%
%TA.AperFunction,HeatsinkPad*%
%ADD18R,1.000000X1.600000*%
%TD*%
%TA.AperFunction,SMDPad,CuDef*%
%ADD19RoundRect,0.135000X0.135000X0.185000X-0.135000X0.185000X-0.135000X-0.185000X0.135000X-0.185000X0*%
%TD*%
%TA.AperFunction,SMDPad,CuDef*%
%ADD20RoundRect,0.250000X-0.250000X-0.475000X0.250000X-0.475000X0.250000X0.475000X-0.250000X0.475000X0*%
%TD*%
%TA.AperFunction,SMDPad,CuDef*%
%ADD21FreePoly0,0.000000*%
%TD*%
%TA.AperFunction,SMDPad,CuDef*%
%ADD22FreePoly1,0.000000*%
%TD*%
%TA.AperFunction,SMDPad,CuDef*%
%ADD23RoundRect,0.250000X0.475000X-0.250000X0.475000X0.250000X-0.475000X0.250000X-0.475000X-0.250000X0*%
%TD*%
%TA.AperFunction,SMDPad,CuDef*%
%ADD24RoundRect,0.135000X0.185000X-0.135000X0.185000X0.135000X-0.185000X0.135000X-0.185000X-0.135000X0*%
%TD*%
%TA.AperFunction,SMDPad,CuDef*%
%ADD25RoundRect,0.218750X0.218750X0.381250X-0.218750X0.381250X-0.218750X-0.381250X0.218750X-0.381250X0*%
%TD*%
%TA.AperFunction,SMDPad,CuDef*%
%ADD26R,1.800000X1.000000*%
%TD*%
%TA.AperFunction,ComponentPad*%
%ADD27R,1.700000X1.700000*%
%TD*%
%TA.AperFunction,ComponentPad*%
%ADD28C,1.700000*%
%TD*%
%TA.AperFunction,SMDPad,CuDef*%
%ADD29RoundRect,0.140000X0.170000X-0.140000X0.170000X0.140000X-0.170000X0.140000X-0.170000X-0.140000X0*%
%TD*%
%TA.AperFunction,SMDPad,CuDef*%
%ADD30RoundRect,0.140000X-0.140000X-0.170000X0.140000X-0.170000X0.140000X0.170000X-0.140000X0.170000X0*%
%TD*%
%TA.AperFunction,SMDPad,CuDef*%
%ADD31O,1.450000X0.299999*%
%TD*%
%TA.AperFunction,SMDPad,CuDef*%
%ADD32O,0.299999X1.450000*%
%TD*%
%TA.AperFunction,SMDPad,CuDef*%
%ADD33RoundRect,0.140000X-0.170000X0.140000X-0.170000X-0.140000X0.170000X-0.140000X0.170000X0.140000X0*%
%TD*%
%TA.AperFunction,ViaPad*%
%ADD34C,0.600000*%
%TD*%
%TA.AperFunction,Conductor*%
%ADD35C,0.400000*%
%TD*%
G04 APERTURE END LIST*
D10*
%TO.N,/LCD_COM3*%
X98750000Y-79300000D02*
X98750000Y-80500000D01*
%TO.N,/LCD_COM2*%
X101750000Y-79500000D02*
X101750000Y-80500000D01*
%TD*%
D11*
%TO.P,J1,15,Pin_15*%
%TO.N,/LCD_SEG10*%
X112750000Y-78900000D03*
%TO.P,J1,14,Pin_14*%
%TO.N,/LCD_SEG9*%
X111750000Y-78900000D03*
%TO.P,J1,13,Pin_13*%
%TO.N,/LCD_SEG8*%
X110750000Y-78900000D03*
%TO.P,J1,12,Pin_12*%
%TO.N,/LCD_SEG7*%
X109750000Y-78900000D03*
%TO.P,J1,11,Pin_11*%
%TO.N,/LCD_SEG6*%
X108750000Y-78900000D03*
%TO.P,J1,10,Pin_10*%
%TO.N,/LCD_SEG5*%
X107750000Y-78900000D03*
%TO.P,J1,9,Pin_9*%
%TO.N,/LCD_SEG4*%
X106750000Y-78900000D03*
%TO.P,J1,8,Pin_8*%
%TO.N,/LCD_SEG3*%
X105750000Y-78900000D03*
%TO.P,J1,7,Pin_7*%
%TO.N,/LCD_SEG2*%
X104750000Y-78900000D03*
%TO.P,J1,6,Pin_6*%
%TO.N,/LCD_SEG1*%
X103750000Y-78900000D03*
%TO.P,J1,5,Pin_5*%
%TO.N,/LCD_SEG0*%
X102750000Y-78900000D03*
%TO.P,J1,4,Pin_4*%
%TO.N,/LCD_COM2*%
X101750000Y-78900000D03*
%TO.P,J1,3,Pin_3*%
%TO.N,/LCD_COM1*%
X100750000Y-78900000D03*
%TO.P,J1,2,Pin_2*%
%TO.N,/LCD_COM0*%
X99750000Y-78900000D03*
%TO.P,J1,1,Pin_1*%
%TO.N,/LCD_COM3*%
X98750000Y-78900000D03*
%TD*%
D12*
%TO.P,C4,2*%
%TO.N,GND*%
X127775000Y-88500000D03*
%TO.P,C4,1*%
%TO.N,+3V0*%
X128735000Y-88500000D03*
%TD*%
D13*
%TO.P,CL_1,3*%
%TO.N,N/C*%
X137600000Y-88000000D03*
D14*
%TO.P,CL_1,2*%
X137250000Y-86350000D03*
%TO.P,CL_1,1*%
X137250000Y-89650000D03*
%TD*%
D15*
%TO.P,CL_2,3*%
%TO.N,N/C*%
X146000000Y-93187500D03*
X146000000Y-82487500D03*
D16*
%TO.P,CL_2,2*%
X146000000Y-93037500D03*
%TO.P,CL_2,1*%
X146000000Y-82637500D03*
%TD*%
D17*
%TO.P,U1,1,GND*%
%TO.N,GND*%
X133112500Y-80950000D03*
%TO.P,U1,2,VOUT*%
%TO.N,+3V0*%
X133112500Y-81600000D03*
%TO.P,U1,3,FB*%
%TO.N,Net-(U1-FB)*%
X133112500Y-82250000D03*
%TO.P,U1,4,EN*%
%TO.N,+BATT*%
X134887500Y-82250000D03*
%TO.P,U1,5,SW*%
%TO.N,Net-(U1-SW)*%
X134887500Y-81600000D03*
%TO.P,U1,6,VIN*%
%TO.N,+BATT*%
X134887500Y-80950000D03*
D18*
%TO.P,U1,7,PAD/GND*%
%TO.N,GND*%
X134000000Y-81600000D03*
%TD*%
D19*
%TO.P,R3,1*%
%TO.N,+3V0*%
X100500000Y-89500000D03*
%TO.P,R3,2*%
%TO.N,/RST_n*%
X99480000Y-89500000D03*
%TD*%
D20*
%TO.P,C1,1*%
%TO.N,+BATT*%
X136437500Y-80500000D03*
%TO.P,C1,2*%
%TO.N,GND*%
X138337500Y-80500000D03*
%TD*%
D21*
%TO.P,SW2,1,1*%
%TO.N,/BTN_HOUR*%
X106575000Y-97387500D03*
D22*
%TO.P,SW2,2,2*%
%TO.N,GND*%
X106577500Y-99592500D03*
%TD*%
D23*
%TO.P,C2,1*%
%TO.N,+3V0*%
X131387500Y-82700000D03*
%TO.P,C2,2*%
%TO.N,GND*%
X131387500Y-80800000D03*
%TD*%
D24*
%TO.P,R2,1*%
%TO.N,Net-(U1-FB)*%
X133887500Y-84760000D03*
%TO.P,R2,2*%
%TO.N,GND*%
X133887500Y-83740000D03*
%TD*%
D25*
%TO.P,L1,1*%
%TO.N,+3V0*%
X138450000Y-82750000D03*
%TO.P,L1,2*%
%TO.N,Net-(U1-SW)*%
X136325000Y-82750000D03*
%TD*%
D26*
%TO.P,Y1,1,1*%
%TO.N,/XIN*%
X129775000Y-90750000D03*
%TO.P,Y1,2,2*%
%TO.N,/XOUT*%
X129775000Y-93250000D03*
%TD*%
D27*
%TO.P,J2,1,Pin_1*%
%TO.N,+3V0*%
X96500000Y-92750000D03*
D28*
%TO.P,J2,2,Pin_2*%
%TO.N,/RST_n*%
X96500000Y-90210000D03*
%TO.P,J2,3,Pin_3*%
%TO.N,/TEST_SBWTCK*%
X96500000Y-87670000D03*
%TO.P,J2,4,Pin_4*%
%TO.N,GND*%
X96500000Y-85130000D03*
%TD*%
D29*
%TO.P,C7,1*%
%TO.N,Net-(U2-P4.4_LCDCAP1)*%
X127275000Y-91730000D03*
%TO.P,C7,2*%
%TO.N,Net-(U2-P4.3_LCDCAP0)*%
X127275000Y-90770000D03*
%TD*%
D30*
%TO.P,C5,1*%
%TO.N,/RST_n*%
X99520000Y-91000000D03*
%TO.P,C5,2*%
%TO.N,GND*%
X100480000Y-91000000D03*
%TD*%
D20*
%TO.P,C3,1*%
%TO.N,+3V0*%
X127825000Y-86750000D03*
%TO.P,C3,2*%
%TO.N,GND*%
X129725000Y-86750000D03*
%TD*%
D21*
%TO.P,SW1,1,1*%
%TO.N,/BTN_MODE*%
X122075000Y-75387500D03*
D22*
%TO.P,SW1,2,2*%
%TO.N,GND*%
X122077500Y-77592500D03*
%TD*%
D21*
%TO.P,SW3,1,1*%
%TO.N,/BTN_MIN*%
X121575000Y-97387500D03*
D22*
%TO.P,SW3,2,2*%
%TO.N,GND*%
X121577500Y-99592500D03*
%TD*%
D29*
%TO.P,CX1,1*%
%TO.N,/XIN*%
X131775000Y-90960000D03*
%TO.P,CX1,2*%
%TO.N,GND*%
X131775000Y-90000000D03*
%TD*%
D24*
%TO.P,R1,1*%
%TO.N,+3V0*%
X132887500Y-84760000D03*
%TO.P,R1,2*%
%TO.N,Net-(U1-FB)*%
X132887500Y-83740000D03*
%TD*%
D31*
%TO.P,U2,1,P4.7_R13*%
%TO.N,unconnected-(U2-P4.7_R13-Pad1)*%
X125725000Y-92750000D03*
%TO.P,U2,2,P4.6_R23*%
%TO.N,unconnected-(U2-P4.6_R23-Pad2)*%
X125725000Y-92250001D03*
%TO.P,U2,3,P4.5_R33*%
%TO.N,unconnected-(U2-P4.5_R33-Pad3)*%
X125725000Y-91750000D03*
%TO.P,U2,4,P4.4_LCDCAP1*%
%TO.N,Net-(U2-P4.4_LCDCAP1)*%
X125725000Y-91250001D03*
%TO.P,U2,5,P4.3_LCDCAP0*%
%TO.N,Net-(U2-P4.3_LCDCAP0)*%
X125725000Y-90749999D03*
%TO.P,U2,6,P4.2_XOUT*%
%TO.N,/XOUT*%
X125725000Y-90250000D03*
%TO.P,U2,7,P4.1_XIN*%
%TO.N,/XIN*%
X125725000Y-89750001D03*
%TO.P,U2,8,DVSS*%
%TO.N,GND*%
X125725000Y-89250000D03*
%TO.P,U2,9,DVCC*%
%TO.N,+3V0*%
X125725000Y-88750000D03*
%TO.P,U2,10,RST_NMI_SBWTDIO_N*%
%TO.N,/RST_n*%
X125725000Y-88249999D03*
%TO.P,U2,11,TEST_SBWTCK*%
%TO.N,/TEST_SBWTCK*%
X125725000Y-87750000D03*
%TO.P,U2,12,P4.0_TA1.1*%
%TO.N,unconnected-(U2-P4.0_TA1.1-Pad12)*%
X125725000Y-87250001D03*
%TO.P,U2,13,P8.3_TA1.2*%
%TO.N,unconnected-(U2-P8.3_TA1.2-Pad13)*%
X125725000Y-86749999D03*
%TO.P,U2,14,P8.2_TA1CLK*%
%TO.N,unconnected-(U2-P8.2_TA1CLK-Pad14)*%
X125725000Y-86250000D03*
%TO.P,U2,15,P8.1_ACLK_A9*%
%TO.N,unconnected-(U2-P8.1_ACLK_A9-Pad15)*%
X125725000Y-85749999D03*
%TO.P,U2,16,P8.0_SMCLK_A8*%
%TO.N,unconnected-(U2-P8.0_SMCLK_A8-Pad16)*%
X125725000Y-85250000D03*
D32*
%TO.P,U2,17,P1.7_TA0.1_TDO_A7*%
%TO.N,unconnected-(U2-P1.7_TA0.1_TDO_A7-Pad17)*%
X123750000Y-83275000D03*
%TO.P,U2,18,P1.6_TA0.2_TDI_TCLK_A6*%
%TO.N,unconnected-(U2-P1.6_TA0.2_TDI_TCLK_A6-Pad18)*%
X123250001Y-83275000D03*
%TO.P,U2,19,P1.5_TA0CLK_TMS_A5*%
%TO.N,unconnected-(U2-P1.5_TA0CLK_TMS_A5-Pad19)*%
X122750000Y-83275000D03*
%TO.P,U2,20,P1.4_MCLK_TCK_A4_VREF+*%
%TO.N,unconnected-(U2-P1.4_MCLK_TCK_A4_VREF+-Pad20)*%
X122250001Y-83275000D03*
%TO.P,U2,21,P1.3_UCA0STE_A3*%
%TO.N,unconnected-(U2-P1.3_UCA0STE_A3-Pad21)*%
X121749999Y-83275000D03*
%TO.P,U2,22,P1.2_UCA0CLK_A2*%
%TO.N,/BTN_MIN*%
X121250000Y-83275000D03*
%TO.P,U2,23,P1.1_UCA0RXD_UCA0SOMI_A1_Veref+*%
%TO.N,/BTN_HOUR*%
X120750001Y-83275000D03*
%TO.P,U2,24,P1.0_UCA0TXD_UCA0SIMO_A0_Veref-*%
%TO.N,/BTN_MODE*%
X120250000Y-83275000D03*
%TO.P,U2,25,P5.7_L39*%
%TO.N,unconnected-(U2-P5.7_L39-Pad25)*%
X119750000Y-83275000D03*
%TO.P,U2,26,P5.6_L38*%
%TO.N,unconnected-(U2-P5.6_L38-Pad26)*%
X119249999Y-83275000D03*
%TO.P,U2,27,P5.5_L37*%
%TO.N,unconnected-(U2-P5.5_L37-Pad27)*%
X118750000Y-83275000D03*
%TO.P,U2,28,P5.4_L36*%
%TO.N,unconnected-(U2-P5.4_L36-Pad28)*%
X118250001Y-83275000D03*
%TO.P,U2,29,P5.3_UCB0SOMI_UCB0SCL_L35*%
%TO.N,unconnected-(U2-P5.3_UCB0SOMI_UCB0SCL_L35-Pad29)*%
X117749999Y-83275000D03*
%TO.P,U2,30,P5.2_UCB0SIMO_UCB0SDA_L34*%
%TO.N,unconnected-(U2-P5.2_UCB0SIMO_UCB0SDA_L34-Pad30)*%
X117250000Y-83275000D03*
%TO.P,U2,31,P5.1_UCB0CLK_L33*%
%TO.N,unconnected-(U2-P5.1_UCB0CLK_L33-Pad31)*%
X116749999Y-83275000D03*
%TO.P,U2,32,P5.0_UCB0STE_L32*%
%TO.N,unconnected-(U2-P5.0_UCB0STE_L32-Pad32)*%
X116250000Y-83275000D03*
D31*
%TO.P,U2,33,P2.7_L31*%
%TO.N,unconnected-(U2-P2.7_L31-Pad33)*%
X114275000Y-85250000D03*
%TO.P,U2,34,P2.6_L30*%
%TO.N,unconnected-(U2-P2.6_L30-Pad34)*%
X114275000Y-85749999D03*
%TO.P,U2,35,P2.5_L29*%
%TO.N,unconnected-(U2-P2.5_L29-Pad35)*%
X114275000Y-86250000D03*
%TO.P,U2,36,P2.4_L28*%
%TO.N,unconnected-(U2-P2.4_L28-Pad36)*%
X114275000Y-86749999D03*
%TO.P,U2,37,P2.3_L27*%
%TO.N,unconnected-(U2-P2.3_L27-Pad37)*%
X114275000Y-87250001D03*
%TO.P,U2,38,P2.2_L26*%
%TO.N,unconnected-(U2-P2.2_L26-Pad38)*%
X114275000Y-87750000D03*
%TO.P,U2,39,P2.1_L25*%
%TO.N,unconnected-(U2-P2.1_L25-Pad39)*%
X114275000Y-88249999D03*
%TO.P,U2,40,P2.0_L24*%
%TO.N,unconnected-(U2-P2.0_L24-Pad40)*%
X114275000Y-88750000D03*
%TO.P,U2,41,P6.7_L23*%
%TO.N,unconnected-(U2-P6.7_L23-Pad41)*%
X114275000Y-89250000D03*
%TO.P,U2,42,P6.6_L22*%
%TO.N,unconnected-(U2-P6.6_L22-Pad42)*%
X114275000Y-89750001D03*
%TO.P,U2,43,P6.5_L21*%
%TO.N,unconnected-(U2-P6.5_L21-Pad43)*%
X114275000Y-90250000D03*
%TO.P,U2,44,P6.4_L20*%
%TO.N,unconnected-(U2-P6.4_L20-Pad44)*%
X114275000Y-90749999D03*
%TO.P,U2,45,P6.3_L19*%
%TO.N,unconnected-(U2-P6.3_L19-Pad45)*%
X114275000Y-91250001D03*
%TO.P,U2,46,P6.2_L18*%
%TO.N,/LCD_SEG10*%
X114275000Y-91750000D03*
%TO.P,U2,47,P6.1_L17*%
%TO.N,/LCD_SEG9*%
X114275000Y-92250001D03*
%TO.P,U2,48,P6.0_L16*%
%TO.N,/LCD_SEG8*%
X114275000Y-92750000D03*
D32*
%TO.P,U2,49,P3.7_L15*%
%TO.N,/LCD_SEG7*%
X116250000Y-94725000D03*
%TO.P,U2,50,P3.6_L14*%
%TO.N,/LCD_SEG6*%
X116749999Y-94725000D03*
%TO.P,U2,51,P3.5_L13*%
%TO.N,/LCD_SEG5*%
X117250000Y-94725000D03*
%TO.P,U2,52,P3.4_L12*%
%TO.N,/LCD_SEG4*%
X117749999Y-94725000D03*
%TO.P,U2,53,P3.3_L11*%
%TO.N,/LCD_SEG3*%
X118250001Y-94725000D03*
%TO.P,U2,54,P3.2_L10*%
%TO.N,/LCD_SEG2*%
X118750000Y-94725000D03*
%TO.P,U2,55,P3.1_L9*%
%TO.N,/LCD_SEG1*%
X119249999Y-94725000D03*
%TO.P,U2,56,P3.0_L8*%
%TO.N,/LCD_SEG0*%
X119750000Y-94725000D03*
%TO.P,U2,57,P7.7_L7*%
%TO.N,unconnected-(U2-P7.7_L7-Pad57)*%
X120250000Y-94725000D03*
%TO.P,U2,58,P7.6_L6*%
%TO.N,unconnected-(U2-P7.6_L6-Pad58)*%
X120750001Y-94725000D03*
%TO.P,U2,59,P7.5_L5*%
%TO.N,unconnected-(U2-P7.5_L5-Pad59)*%
X121250000Y-94725000D03*
%TO.P,U2,60,P7.4_L4*%
%TO.N,unconnected-(U2-P7.4_L4-Pad60)*%
X121749999Y-94725000D03*
%TO.P,U2,61,P7.3_L3*%
%TO.N,/LCD_COM3*%
X122250001Y-94725000D03*
%TO.P,U2,62,P7.2_L2*%
%TO.N,/LCD_COM2*%
X122750000Y-94725000D03*
%TO.P,U2,63,P7.1_L1*%
%TO.N,/LCD_COM1*%
X123250001Y-94725000D03*
%TO.P,U2,64,P7.0_L0*%
%TO.N,/LCD_COM0*%
X123750000Y-94725000D03*
%TD*%
D33*
%TO.P,CX2,1*%
%TO.N,/XOUT*%
X131775000Y-93020000D03*
%TO.P,CX2,2*%
%TO.N,GND*%
X131775000Y-93980000D03*
%TD*%
D34*
%TO.N,GND*%
X134000000Y-81600000D03*
%TO.N,/LCD_COM3*%
X98800000Y-84400000D03*
%TO.N,/LCD_COM2*%
X101800000Y-85200000D03*
%TO.N,/LCD_COM1*%
X100700000Y-84200000D03*
%TO.N,/LCD_COM0*%
X99700000Y-83399997D03*
%TO.N,/LCD_COM2*%
X118800000Y-91200000D03*
%TO.N,/LCD_COM3*%
X117800000Y-91700000D03*
%TO.N,/LCD_COM1*%
X119700000Y-90500000D03*
%TO.N,/LCD_COM0*%
X120600000Y-90000000D03*
%TO.N,+3V0*%
X128000000Y-85100000D03*
X122000000Y-89400000D03*
X116700000Y-89300000D03*
X102000000Y-89400000D03*
%TO.N,/RST_n*%
X124500000Y-88600000D03*
X122500000Y-88400000D03*
X116700000Y-88400000D03*
X101000000Y-88400000D03*
%TO.N,/TEST_SBWTCK*%
X124500000Y-87700000D03*
X123100000Y-87700000D03*
X116700000Y-87599997D03*
X100200000Y-87700000D03*
%TO.N,GND*%
X103400000Y-97500000D03*
%TO.N,/BTN_HOUR*%
X110000000Y-97200000D03*
X121000000Y-81400000D03*
%TO.N,GND*%
X98621000Y-90121000D03*
%TO.N,+BATT*%
X139500000Y-86000000D03*
X139500000Y-84000000D03*
%TO.N,+3V0*%
X131500000Y-84500000D03*
X136500000Y-84000000D03*
%TD*%
D35*
%TO.N,+3V0*%
X138450000Y-82750000D02*
X138450000Y-83850000D01*
X138450000Y-83850000D02*
X138300000Y-84000000D01*
X138300000Y-84000000D02*
X136500000Y-84000000D01*
X132887500Y-84760000D02*
X132260000Y-84760000D01*
X132063750Y-84563750D02*
X132063750Y-83936250D01*
X132260000Y-84760000D02*
X132063750Y-84563750D01*
%TO.N,+BATT*%
X137387500Y-81700000D02*
X139000000Y-81700000D01*
X135087500Y-80750000D02*
X136437500Y-80750000D01*
X134887500Y-80950000D02*
X135087500Y-80750000D01*
X136437500Y-80750000D02*
X137387500Y-81700000D01*
X139000000Y-81700000D02*
X139500000Y-82200000D01*
X139500000Y-82200000D02*
X139500000Y-84000000D01*
D10*
%TO.N,GND*%
X138337500Y-80750000D02*
X136887500Y-79300000D01*
X136887500Y-79300000D02*
X135300000Y-79300000D01*
X135300000Y-79300000D02*
X134000000Y-80600000D01*
X134000000Y-80600000D02*
X134000000Y-81600000D01*
%TO.N,/LCD_COM3*%
X98800000Y-84400000D02*
X98800000Y-80650000D01*
X98800000Y-80650000D02*
X98700000Y-80550000D01*
%TO.N,/LCD_COM0*%
X99700000Y-83399997D02*
X99700000Y-80250000D01*
%TO.N,/LCD_COM1*%
X100700000Y-84200000D02*
X100700000Y-80550000D01*
X100700000Y-80550000D02*
X100750000Y-80500000D01*
%TO.N,/LCD_COM2*%
X101800000Y-85200000D02*
X101800000Y-80550000D01*
X101800000Y-80550000D02*
X101750000Y-80500000D01*
%TO.N,/LCD_COM1*%
X100750000Y-80500000D02*
X100750000Y-80100000D01*
X100800000Y-80150000D02*
X100750000Y-80100000D01*
%TO.N,/LCD_COM0*%
X99750000Y-78750000D02*
X99750000Y-80200000D01*
X99700000Y-80250000D02*
X99750000Y-80200000D01*
%TO.N,/LCD_COM3*%
X98700000Y-80550000D02*
X98750000Y-80500000D01*
X122250001Y-94725000D02*
X122250001Y-94012192D01*
X122250001Y-94012192D02*
X120137809Y-91900000D01*
X120137809Y-91900000D02*
X118000000Y-91900000D01*
X118000000Y-91900000D02*
X117800000Y-91700000D01*
%TO.N,/LCD_COM1*%
X123250001Y-94725000D02*
X123250001Y-93877992D01*
X123250001Y-93877992D02*
X119872008Y-90500000D01*
X119872008Y-90500000D02*
X119700000Y-90500000D01*
X119700000Y-90500000D02*
X119500000Y-90700000D01*
%TO.N,/LCD_COM0*%
X120600000Y-90000000D02*
X120500000Y-90000000D01*
X120932900Y-90000000D02*
X120600000Y-90000000D01*
X123750000Y-92817100D02*
X120932900Y-90000000D01*
X123750000Y-94725000D02*
X123750000Y-92817100D01*
%TO.N,/BTN_MIN*%
X121575000Y-97387500D02*
X124412500Y-97387500D01*
X124412500Y-97387500D02*
X125600000Y-96200000D01*
X123900000Y-84400000D02*
X121400000Y-84400000D01*
X124700000Y-95300000D02*
X124700000Y-93200000D01*
X125600000Y-96200000D02*
X124700000Y-95300000D01*
X124700000Y-93200000D02*
X123900000Y-92400000D01*
X123900000Y-92400000D02*
X123900000Y-84400000D01*
X121400000Y-84400000D02*
X121200000Y-84200000D01*
X121250000Y-84150000D02*
X121250000Y-83275000D01*
X121200000Y-84200000D02*
X121250000Y-84150000D01*
%TO.N,/LCD_COM2*%
X120004909Y-91200000D02*
X118800000Y-91200000D01*
X122750000Y-93945091D02*
X120004909Y-91200000D01*
X122750000Y-94725000D02*
X122750000Y-93945091D01*
%TO.N,+3V0*%
X122000000Y-89400000D02*
X121900000Y-89300000D01*
X121900000Y-89300000D02*
X120000000Y-89300000D01*
X116700000Y-89300000D02*
X121900000Y-89300000D01*
%TO.N,/TEST_SBWTCK*%
X116800003Y-87700000D02*
X123100000Y-87700000D01*
X116700000Y-87599997D02*
X116800003Y-87700000D01*
%TO.N,/RST_n*%
X116700000Y-88400000D02*
X122500000Y-88400000D01*
%TO.N,/LCD_SEG0*%
X119750000Y-94725000D02*
X119750000Y-95840410D01*
X102750000Y-86608811D02*
X102750000Y-78900000D01*
X119750000Y-95840410D02*
X117433410Y-98157000D01*
X117433410Y-98157000D02*
X114298189Y-98157000D01*
X114298189Y-98157000D02*
X102750000Y-86608811D01*
%TO.N,GND*%
X119500000Y-98500000D02*
X118601000Y-99399000D01*
X118601000Y-99399000D02*
X108279094Y-99399000D01*
%TO.N,/LCD_SEG1*%
X119249999Y-94725000D02*
X119249999Y-95773311D01*
X119249999Y-95773311D02*
X117267310Y-97756000D01*
X114464289Y-97756000D02*
X103750000Y-87041711D01*
X117267310Y-97756000D02*
X114464289Y-97756000D01*
X103750000Y-87041711D02*
X103750000Y-78750000D01*
%TO.N,/LCD_SEG2*%
X118750000Y-94725000D02*
X118750000Y-95706210D01*
X114630389Y-97355000D02*
X104750000Y-87474611D01*
X118750000Y-95706210D02*
X117101210Y-97355000D01*
X117101210Y-97355000D02*
X114630389Y-97355000D01*
X104750000Y-87474611D02*
X104750000Y-78750000D01*
%TO.N,/LCD_SEG3*%
X118250001Y-94725000D02*
X118250001Y-95639109D01*
X118250001Y-95639109D02*
X116935110Y-96954000D01*
X116935110Y-96954000D02*
X114796489Y-96954000D01*
X105750000Y-87907511D02*
X105750000Y-78750000D01*
X114796489Y-96954000D02*
X105750000Y-87907511D01*
%TO.N,/LCD_SEG4*%
X117749999Y-94725000D02*
X117749999Y-95572011D01*
X117749999Y-95572011D02*
X116769010Y-96553000D01*
X114962589Y-96553000D02*
X106750000Y-88340411D01*
X116769010Y-96553000D02*
X114962589Y-96553000D01*
X106750000Y-88340411D02*
X106750000Y-78750000D01*
%TO.N,/LCD_SEG5*%
X117250000Y-94725000D02*
X117250000Y-95504910D01*
X107750000Y-88773311D02*
X107750000Y-78750000D01*
X117250000Y-95504910D02*
X116602910Y-96152000D01*
X116602910Y-96152000D02*
X115128689Y-96152000D01*
X115128689Y-96152000D02*
X107750000Y-88773311D01*
%TO.N,/LCD_SEG6*%
X116749999Y-94725000D02*
X116749999Y-95437811D01*
X116749999Y-95437811D02*
X116436810Y-95751000D01*
X116436810Y-95751000D02*
X115294789Y-95751000D01*
X115294789Y-95751000D02*
X108750000Y-89206211D01*
X108750000Y-89206211D02*
X108750000Y-78750000D01*
%TO.N,/LCD_SEG7*%
X116250000Y-94725000D02*
X114835889Y-94725000D01*
X114835889Y-94725000D02*
X109750000Y-89639111D01*
X109750000Y-89639111D02*
X109750000Y-78750000D01*
%TO.N,/LCD_SEG8*%
X114275000Y-92750000D02*
X113427989Y-92750000D01*
X113427989Y-92750000D02*
X110750000Y-90072011D01*
X110750000Y-90072011D02*
X110750000Y-78750000D01*
%TO.N,/LCD_SEG9*%
X114275000Y-92250001D02*
X113495090Y-92250001D01*
X113495090Y-92250001D02*
X111750000Y-90504911D01*
X111750000Y-90504911D02*
X111750000Y-78750000D01*
%TO.N,/LCD_SEG10*%
X114275000Y-91750000D02*
X113562189Y-91750000D01*
X113562189Y-91750000D02*
X112750000Y-90937811D01*
X112750000Y-90937811D02*
X112750000Y-78750000D01*
D35*
%TO.N,+3V0*%
X128000000Y-85100000D02*
X128000000Y-86575000D01*
D10*
X128000000Y-86575000D02*
X127825000Y-86750000D01*
X101900000Y-89500000D02*
X102000000Y-89400000D01*
X100500000Y-89500000D02*
X101900000Y-89500000D01*
%TO.N,/RST_n*%
X125725000Y-88249999D02*
X124850001Y-88249999D01*
X124850001Y-88249999D02*
X124500000Y-88600000D01*
X100580000Y-88400000D02*
X101000000Y-88400000D01*
X99480000Y-89500000D02*
X100580000Y-88400000D01*
%TO.N,/TEST_SBWTCK*%
X124500000Y-87700000D02*
X125675000Y-87700000D01*
X125675000Y-87700000D02*
X125725000Y-87750000D01*
X123100000Y-87700000D02*
X123300000Y-87700000D01*
X100200000Y-87700000D02*
X100300000Y-87700000D01*
X99200000Y-87700000D02*
X100200000Y-87700000D01*
X98200000Y-87700000D02*
X99200000Y-87700000D01*
X98170000Y-87670000D02*
X98200000Y-87700000D01*
%TO.N,GND*%
X103400000Y-97500000D02*
X103400000Y-97828094D01*
X103400000Y-97828094D02*
X104970906Y-99399000D01*
%TO.N,/BTN_HOUR*%
X110000000Y-97200000D02*
X109812500Y-97387500D01*
X109812500Y-97387500D02*
X106575000Y-97387500D01*
X120750001Y-81649999D02*
X121000000Y-81400000D01*
X120750001Y-83275000D02*
X120750001Y-81649999D01*
%TO.N,GND*%
X99601000Y-90121000D02*
X98621000Y-90121000D01*
X100480000Y-91000000D02*
X99601000Y-90121000D01*
%TO.N,+3V0*%
X100500000Y-89500000D02*
X101061000Y-90061000D01*
X101061000Y-90061000D02*
X101061000Y-91356550D01*
X101061000Y-91356550D02*
X99667550Y-92750000D01*
X99667550Y-92750000D02*
X96500000Y-92750000D01*
%TO.N,/RST_n*%
X99480000Y-89500000D02*
X97210000Y-89500000D01*
X97210000Y-89500000D02*
X96500000Y-90210000D01*
X99520000Y-91000000D02*
X97290000Y-91000000D01*
X97290000Y-91000000D02*
X96500000Y-90210000D01*
%TO.N,GND*%
X131775000Y-90000000D02*
X133400000Y-91625000D01*
X133400000Y-91625000D02*
X133400000Y-92355000D01*
X133400000Y-92355000D02*
X131775000Y-93980000D01*
D35*
%TO.N,+3V0*%
X127825000Y-86750000D02*
X130075000Y-84500000D01*
X130075000Y-84500000D02*
X131500000Y-84500000D01*
D10*
%TO.N,GND*%
X129725000Y-86750000D02*
X134750000Y-86750000D01*
X134750000Y-86750000D02*
X136500000Y-85000000D01*
X128953100Y-89361000D02*
X128941101Y-89349001D01*
X128941101Y-89349001D02*
X128624001Y-89349001D01*
X128624001Y-89349001D02*
X127775000Y-88500000D01*
X131775000Y-90000000D02*
X131136000Y-89361000D01*
X131136000Y-89361000D02*
X128953100Y-89361000D01*
%TO.N,+3V0*%
X125725000Y-88750000D02*
X126450000Y-88750000D01*
X127825000Y-87375000D02*
X127825000Y-86750000D01*
X126450000Y-88750000D02*
X127825000Y-87375000D01*
D35*
X128735000Y-88750000D02*
X128735000Y-87660000D01*
X128735000Y-87660000D02*
X127825000Y-86750000D01*
D10*
%TO.N,GND*%
X127775000Y-88750000D02*
X127275000Y-89250000D01*
X127275000Y-89250000D02*
X125725000Y-89250000D01*
X131775000Y-90000000D02*
X131775000Y-88800000D01*
X131775000Y-88800000D02*
X129725000Y-86750000D01*
%TO.N,/XOUT*%
X129775000Y-93250000D02*
X127886000Y-91361000D01*
X127886000Y-91361000D02*
X127886000Y-90437001D01*
X127886000Y-90437001D02*
X127600000Y-90151001D01*
X126437811Y-90250000D02*
X125725000Y-90250000D01*
X127600000Y-90151001D02*
X126536810Y-90151001D01*
X126536810Y-90151001D02*
X126437811Y-90250000D01*
%TO.N,/XIN*%
X129775000Y-90750000D02*
X128775001Y-89750001D01*
X128775001Y-89750001D02*
X125725000Y-89750001D01*
%TO.N,Net-(U2-P4.3_LCDCAP0)*%
X127275000Y-90770000D02*
X125745001Y-90770000D01*
X125745001Y-90770000D02*
X125725000Y-90749999D01*
%TO.N,Net-(U2-P4.4_LCDCAP1)*%
X127275000Y-91730000D02*
X126795001Y-91250001D01*
X126795001Y-91250001D02*
X125725000Y-91250001D01*
%TO.N,/XIN*%
X131775000Y-90960000D02*
X129985000Y-90960000D01*
X129985000Y-90960000D02*
X129775000Y-90750000D01*
%TO.N,/XOUT*%
X129775000Y-93250000D02*
X131545000Y-93250000D01*
X131545000Y-93250000D02*
X131775000Y-93020000D01*
%TO.N,GND*%
X131775000Y-93980000D02*
X126356000Y-99399000D01*
X126356000Y-99399000D02*
X123279094Y-99399000D01*
%TO.N,/BTN_MODE*%
X120250000Y-83275000D02*
X120250000Y-78500250D01*
X120250000Y-78500250D02*
X119000000Y-77250250D01*
X119000000Y-77250250D02*
X119000000Y-75601000D01*
X119000000Y-75601000D02*
X119945906Y-75601000D01*
%TO.N,GND*%
X123975000Y-77587500D02*
X123975000Y-77975000D01*
X123975000Y-77975000D02*
X126800000Y-80800000D01*
X126800000Y-80800000D02*
X131387500Y-80800000D01*
%TO.N,+BATT*%
X139500000Y-88000000D02*
X139000000Y-88500000D01*
D35*
X139500000Y-86000000D02*
X139500000Y-88000000D01*
%TO.N,+3V0*%
X131500000Y-84500000D02*
X132063750Y-83936250D01*
D10*
%TO.N,GND*%
X146000000Y-86000000D02*
X145000000Y-85000000D01*
X145000000Y-85000000D02*
X136500000Y-85000000D01*
X136500000Y-85000000D02*
X134000000Y-82500000D01*
X134000000Y-82500000D02*
X134000000Y-81600000D01*
D35*
%TO.N,Net-(U1-SW)*%
X136325000Y-82750000D02*
X135175000Y-81600000D01*
X135175000Y-81600000D02*
X134887500Y-81600000D01*
%TO.N,+3V0*%
X132063750Y-83936250D02*
X131387500Y-83260000D01*
D10*
X131387500Y-83260000D02*
X131387500Y-82700000D01*
%TO.N,GND*%
X133887500Y-83740000D02*
X133887500Y-81712500D01*
X133887500Y-81712500D02*
X134000000Y-81600000D01*
%TO.N,Net-(U1-FB)*%
X133887500Y-84760000D02*
X133887500Y-84740000D01*
X133887500Y-84740000D02*
X132887500Y-83740000D01*
X132887500Y-83740000D02*
X132887500Y-82475000D01*
X132887500Y-82475000D02*
X133112500Y-82250000D01*
%TO.N,+3V0*%
X131387500Y-82700000D02*
X132487500Y-81600000D01*
X132487500Y-81600000D02*
X133112500Y-81600000D01*
%TO.N,GND*%
X133112500Y-80950000D02*
X131537500Y-80950000D01*
X131537500Y-80950000D02*
X131387500Y-80800000D01*
X133112500Y-80950000D02*
X133350000Y-80950000D01*
X133350000Y-80950000D02*
X134000000Y-81600000D01*
X146000000Y-86000000D02*
X146000000Y-93150000D01*
X106086500Y-99399000D02*
X106075000Y-99387500D01*
X147801000Y-81949000D02*
X146869653Y-81949000D01*
X146869653Y-81949000D02*
X146919653Y-81999000D01*
X148087500Y-81662500D02*
X147801000Y-81949000D01*
X146869653Y-83251000D02*
X146000000Y-83251000D01*
X146000000Y-93150000D02*
X144850000Y-93150000D01*
X146948942Y-81999000D02*
X147301000Y-82351058D01*
X147301000Y-82351058D02*
X147301000Y-82848942D01*
X146000000Y-82750000D02*
X146000000Y-85250000D01*
X147301000Y-82848942D02*
X146948942Y-83201000D01*
X146000000Y-85250000D02*
X146000000Y-86000000D01*
X146948942Y-83201000D02*
X146919653Y-83201000D01*
X146919653Y-83201000D02*
X146869653Y-83251000D01*
X146919653Y-81999000D02*
X146948942Y-81999000D01*
X148075000Y-81650000D02*
X148087500Y-81662500D01*
%TO.N,/LCD_COM0*%
X99750000Y-80200000D02*
X99750000Y-80500000D01*
%TO.N,/LCD_COM1*%
X100750000Y-80100000D02*
X100750000Y-78750000D01*
%TO.N,/TEST_SBWTCK*%
X98170000Y-87670000D02*
X96500000Y-87670000D01*
%TD*%
M02*
