M48
; DRILL file {KiCad 9.0.6} date 2026-05-13T20:21:41-0400
; FORMAT={-:-/ absolute / metric / decimal}
; #@! TF.CreationDate,2026-05-13T20:21:41-04:00
; #@! TF.GenerationSoftware,Kicad,Pcbnew,9.0.6
; #@! TF.FileFunction,MixedPlating,1,2
FMAT,2
METRIC
; #@! TA.AperFunction,Plated,PTH,ViaDrill
T1C0.300
; #@! TA.AperFunction,Plated,PTH,ComponentDrill
T2C0.500
; #@! TA.AperFunction,Plated,PTH,ComponentDrill
T3C0.600
; #@! TA.AperFunction,Plated,PTH,ComponentDrill
T4C1.000
%
G90
G05
T1
X98.621Y-90.121
X98.8Y-84.4
X99.7Y-83.4
X100.2Y-87.7
X100.7Y-84.2
X101.0Y-88.4
X101.8Y-85.2
X102.0Y-89.4
X103.4Y-97.5
X110.0Y-97.2
X116.7Y-87.6
X116.7Y-88.4
X116.7Y-89.3
X117.8Y-91.7
X118.8Y-91.2
X119.7Y-90.5
X120.6Y-90.0
X121.0Y-81.4
X122.0Y-89.4
X122.5Y-88.4
X123.1Y-87.7
X124.5Y-87.7
X124.5Y-88.6
X128.0Y-85.1
X131.5Y-84.5
X134.0Y-81.6
X136.5Y-84.0
X139.5Y-84.0
X139.5Y-86.0
T4
X96.5Y-85.13
X96.5Y-87.67
X96.5Y-90.21
X96.5Y-92.75
T2
G00X136.85Y-86.35
M15
G01X137.65Y-86.35
M16
G05
G00X136.85Y-89.65
M15
G01X137.65Y-89.65
M16
G05
T3
G00X145.4Y-82.487
M15
G01X146.6Y-82.487
M16
G05
G00X145.4Y-93.188
M15
G01X146.6Y-93.188
M16
G05
M30
