M48
; DRILL file {KiCad 9.0.4} date 2025-08-25T21:49:45-0700
; FORMAT={-:-/ absolute / metric / decimal}
; #@! TF.CreationDate,2025-08-25T21:49:45-07:00
; #@! TF.GenerationSoftware,Kicad,Pcbnew,9.0.4
; #@! TF.FileFunction,Plated,1,2,PTH
FMAT,2
METRIC
; #@! TA.AperFunction,Plated,PTH,ViaDrill
T1C0.300
; #@! TA.AperFunction,Plated,PTH,ComponentDrill
T2C1.000
%
G90
G05
T1
X126.5Y-100.5
X127.25Y-96.5
X128.5Y-96.0
X129.25Y-95.25
X130.25Y-94.25
X131.25Y-94.25
X132.25Y-94.0
X133.25Y-94.75
X134.25Y-96.25
X135.25Y-93.0
X136.25Y-93.0
X137.25Y-93.0
X138.25Y-93.0
X139.25Y-93.0
X140.25Y-93.0
X164.25Y-97.25
X168.25Y-97.5
T2
X126.92Y-106.5
X129.46Y-106.5
X132.0Y-106.5
X134.54Y-106.5
X137.08Y-106.5
X139.62Y-106.5
X143.42Y-106.5
X145.96Y-106.5
X148.5Y-106.5
X151.04Y-106.5
X153.58Y-106.5
X156.12Y-106.5
X160.08Y-106.5
X162.62Y-106.5
X165.16Y-106.5
X167.7Y-106.5
X170.24Y-106.5
X172.78Y-106.5
M30
