%TF.GenerationSoftware,KiCad,Pcbnew,9.0.4*%
%TF.CreationDate,2025-08-25T21:49:37-07:00*%
%TF.ProjectId,Caliper_Clock_Test_Board,43616c69-7065-4725-9f43-6c6f636b5f54,rev?*%
%TF.SameCoordinates,Original*%
%TF.FileFunction,Profile,NP*%
%FSLAX46Y46*%
G04 Gerber Fmt 4.6, Leading zero omitted, Abs format (unit mm)*
G04 Created by KiCad (PCBNEW 9.0.4) date 2025-08-25 21:49:37*
%MOMM*%
%LPD*%
G01*
G04 APERTURE LIST*
%TA.AperFunction,Profile*%
%ADD10C,0.050000*%
%TD*%
G04 APERTURE END LIST*
D10*
X164350000Y-89250000D02*
G75*
G02*
X162150000Y-89250000I-1100000J0D01*
G01*
X162150000Y-89250000D02*
G75*
G02*
X164350000Y-89250000I1100000J0D01*
G01*
X177500000Y-87500000D02*
X177500000Y-112500000D01*
X177500000Y-112500000D02*
X122500000Y-112500000D01*
X128900000Y-110600000D02*
G75*
G02*
X126700000Y-110600000I-1100000J0D01*
G01*
X126700000Y-110600000D02*
G75*
G02*
X128900000Y-110600000I1100000J0D01*
G01*
X125100000Y-110600000D02*
G75*
G02*
X122900000Y-110600000I-1100000J0D01*
G01*
X122900000Y-110600000D02*
G75*
G02*
X125100000Y-110600000I1100000J0D01*
G01*
X128880776Y-89300000D02*
G75*
G02*
X126680776Y-89300000I-1100000J0D01*
G01*
X126680776Y-89300000D02*
G75*
G02*
X128880776Y-89300000I1100000J0D01*
G01*
X176700000Y-110600000D02*
G75*
G02*
X174500000Y-110600000I-1100000J0D01*
G01*
X174500000Y-110600000D02*
G75*
G02*
X176700000Y-110600000I1100000J0D01*
G01*
X159800000Y-110600000D02*
G75*
G02*
X157600000Y-110600000I-1100000J0D01*
G01*
X157600000Y-110600000D02*
G75*
G02*
X159800000Y-110600000I1100000J0D01*
G01*
X164300000Y-110600000D02*
G75*
G02*
X162100000Y-110600000I-1100000J0D01*
G01*
X162100000Y-110600000D02*
G75*
G02*
X164300000Y-110600000I1100000J0D01*
G01*
X122500000Y-112500000D02*
X122500000Y-87500000D01*
X126480776Y-89300000D02*
G75*
G02*
X124280776Y-89300000I-1100000J0D01*
G01*
X124280776Y-89300000D02*
G75*
G02*
X126480776Y-89300000I1100000J0D01*
G01*
X122500000Y-87500000D02*
X177500000Y-87500000D01*
M02*
