%TF.GenerationSoftware,KiCad,Pcbnew,9.0.0*%
%TF.CreationDate,2025-04-02T19:24:59-07:00*%
%TF.ProjectId,Caliper_Clock,43616c69-7065-4725-9f43-6c6f636b2e6b,rev?*%
%TF.SameCoordinates,Original*%
%TF.FileFunction,Copper,L1,Top*%
%TF.FilePolarity,Positive*%
%FSLAX46Y46*%
G04 Gerber Fmt 4.6, Leading zero omitted, Abs format (unit mm)*
G04 Created by KiCad (PCBNEW 9.0.0) date 2025-04-02 19:24:59*
%MOMM*%
%LPD*%
G01*
G04 APERTURE LIST*
G04 Aperture macros list*
%AMRoundRect*
0 Rectangle with rounded corners*
0 $1 Rounding radius*
0 $2 $3 $4 $5 $6 $7 $8 $9 X,Y pos of 4 corners*
0 Add a 4 corners polygon primitive as box body*
4,1,4,$2,$3,$4,$5,$6,$7,$8,$9,$2,$3,0*
0 Add four circle primitives for the rounded corners*
1,1,$1+$1,$2,$3*
1,1,$1+$1,$4,$5*
1,1,$1+$1,$6,$7*
1,1,$1+$1,$8,$9*
0 Add four rect primitives between the rounded corners*
20,1,$1+$1,$2,$3,$4,$5,0*
20,1,$1+$1,$4,$5,$6,$7,0*
20,1,$1+$1,$6,$7,$8,$9,0*
20,1,$1+$1,$8,$9,$2,$3,0*%
G04 Aperture macros list end*
%TA.AperFunction,Conductor*%
%ADD10C,0.200000*%
%TD*%
%TA.AperFunction,EtchedComponent*%
%ADD11C,0.400000*%
%TD*%
%TA.AperFunction,SMDPad,CuDef*%
%ADD12R,6.000000X2.500000*%
%TD*%
%TA.AperFunction,ComponentPad*%
%ADD13O,2.000000X0.600000*%
%TD*%
%TA.AperFunction,SMDPad,CuDef*%
%ADD14R,0.500000X1.500000*%
%TD*%
%TA.AperFunction,SMDPad,CuDef*%
%ADD15RoundRect,0.200000X0.275000X-0.200000X0.275000X0.200000X-0.275000X0.200000X-0.275000X-0.200000X0*%
%TD*%
%TA.AperFunction,SMDPad,CuDef*%
%ADD16RoundRect,0.200000X0.200000X0.275000X-0.200000X0.275000X-0.200000X-0.275000X0.200000X-0.275000X0*%
%TD*%
%TA.AperFunction,ComponentPad*%
%ADD17R,1.700000X1.700000*%
%TD*%
%TA.AperFunction,ComponentPad*%
%ADD18O,1.700000X1.700000*%
%TD*%
%TA.AperFunction,SMDPad,CuDef*%
%ADD19RoundRect,0.225000X-0.250000X0.225000X-0.250000X-0.225000X0.250000X-0.225000X0.250000X0.225000X0*%
%TD*%
%TA.AperFunction,SMDPad,CuDef*%
%ADD20RoundRect,0.200000X-0.275000X0.200000X-0.275000X-0.200000X0.275000X-0.200000X0.275000X0.200000X0*%
%TD*%
%TA.AperFunction,SMDPad,CuDef*%
%ADD21RoundRect,0.075000X0.075000X-0.662500X0.075000X0.662500X-0.075000X0.662500X-0.075000X-0.662500X0*%
%TD*%
%TA.AperFunction,SMDPad,CuDef*%
%ADD22RoundRect,0.075000X0.662500X-0.075000X0.662500X0.075000X-0.662500X0.075000X-0.662500X-0.075000X0*%
%TD*%
%TA.AperFunction,SMDPad,CuDef*%
%ADD23RoundRect,0.225000X0.225000X0.250000X-0.225000X0.250000X-0.225000X-0.250000X0.225000X-0.250000X0*%
%TD*%
%TA.AperFunction,SMDPad,CuDef*%
%ADD24RoundRect,0.150000X0.150000X-1.450000X0.150000X1.450000X-0.150000X1.450000X-0.150000X-1.450000X0*%
%TD*%
%TA.AperFunction,SMDPad,CuDef*%
%ADD25RoundRect,0.151250X0.151250X-1.448750X0.151250X1.448750X-0.151250X1.448750X-0.151250X-1.448750X0*%
%TD*%
%TA.AperFunction,SMDPad,CuDef*%
%ADD26RoundRect,0.148750X0.148750X-1.451250X0.148750X1.451250X-0.148750X1.451250X-0.148750X-1.451250X0*%
%TD*%
%TA.AperFunction,ComponentPad*%
%ADD27O,1.800000X0.900000*%
%TD*%
%TA.AperFunction,SMDPad,CuDef*%
%ADD28R,4.000000X1.800000*%
%TD*%
%TA.AperFunction,ViaPad*%
%ADD29C,0.600000*%
%TD*%
G04 APERTURE END LIST*
D10*
%TO.N,Net-(HT1-COM0)*%
X149500000Y-103200000D02*
X149500000Y-103100000D01*
X126250000Y-108500000D02*
X137200000Y-108500000D01*
X149500000Y-103100000D02*
X145400000Y-103100000D01*
X126250000Y-91800000D02*
X126250000Y-108500000D01*
%TO.N,Net-(HT1-SEG0)*%
X129250000Y-102400000D02*
X129600000Y-103000000D01*
%TO.N,Net-(HT1-COM0)*%
X137200000Y-108500000D02*
X137200000Y-109600000D01*
X137200000Y-109600000D02*
X146300000Y-109600000D01*
%TO.N,Net-(HT1-SEG0)*%
X129250000Y-92000000D02*
X129250000Y-102400000D01*
D11*
%TD*%
%TO.C,TP16*%
X132675000Y-88587500D02*
X132675000Y-90087500D01*
%TO.C,TP16*%
X133375000Y-88087500D02*
X133375000Y-89587500D01*
X133975000Y-90087500D02*
X133975000Y-88587500D01*
X134575000Y-88087500D02*
X134575000Y-89587500D01*
X135275000Y-90087500D02*
X135275000Y-88587500D01*
X135875000Y-88087500D02*
X135875000Y-89587500D01*
X136475000Y-87887500D02*
X132675000Y-87887500D01*
X136475000Y-90087500D02*
X132725000Y-90087500D01*
X136475000Y-90087500D02*
X136475000Y-88587500D01*
%TO.C,TP17*%
X132175000Y-110587500D02*
X132175000Y-112087500D01*
X132875000Y-110087500D02*
X132875000Y-111587500D01*
X133475000Y-112087500D02*
X133475000Y-110587500D01*
X134075000Y-110087500D02*
X134075000Y-111587500D01*
X134775000Y-112087500D02*
X134775000Y-110587500D01*
X135375000Y-110087500D02*
X135375000Y-111587500D01*
X135975000Y-109887500D02*
X132175000Y-109887500D01*
X135975000Y-112087500D02*
X132225000Y-112087500D01*
X135975000Y-112087500D02*
X135975000Y-110587500D01*
%TO.C,TP19*%
X147175000Y-110587500D02*
X147175000Y-112087500D01*
X147875000Y-110087500D02*
X147875000Y-111587500D01*
X148475000Y-112087500D02*
X148475000Y-110587500D01*
X149075000Y-110087500D02*
X149075000Y-111587500D01*
X149775000Y-112087500D02*
X149775000Y-110587500D01*
X150375000Y-110087500D02*
X150375000Y-111587500D01*
X150975000Y-109887500D02*
X147175000Y-109887500D01*
X150975000Y-112087500D02*
X147225000Y-112087500D01*
X150975000Y-112087500D02*
X150975000Y-110587500D01*
%TO.C,TP18*%
X147675000Y-88587500D02*
X147675000Y-90087500D01*
X148375000Y-88087500D02*
X148375000Y-89587500D01*
X148975000Y-90087500D02*
X148975000Y-88587500D01*
X149575000Y-88087500D02*
X149575000Y-89587500D01*
X150275000Y-90087500D02*
X150275000Y-88587500D01*
X150875000Y-88087500D02*
X150875000Y-89587500D01*
X151475000Y-87887500D02*
X147675000Y-87887500D01*
X151475000Y-90087500D02*
X147725000Y-90087500D01*
X151475000Y-90087500D02*
X151475000Y-88587500D01*
%TD*%
D12*
%TO.P,CL_2,1*%
%TO.N,N/C*%
X173500000Y-95250000D03*
%TO.P,CL_2,2*%
X173500000Y-105650000D03*
D13*
%TO.P,CL_2,3*%
X173500000Y-95100000D03*
X173500000Y-105800000D03*
%TD*%
D14*
%TO.P,TP7,1,1*%
%TO.N,Net-(HT1-SEG3)*%
X132250000Y-91400000D03*
%TD*%
D15*
%TO.P,R2,1*%
%TO.N,Net-(U1-XTAL1{slash}PB3)*%
X150400000Y-93700000D03*
%TO.P,R2,2*%
X150400000Y-92050000D03*
%TD*%
D16*
%TO.P,R6,1*%
%TO.N,VCC*%
X157000000Y-90600000D03*
%TO.P,R6,2*%
%TO.N,Net-(J2-Pin_5)*%
X155350000Y-90600000D03*
%TD*%
D17*
%TO.P,J2,1,Pin_1*%
%TO.N,Net-(HT1-WR)*%
X154460000Y-107700000D03*
D18*
%TO.P,J2,2,Pin_2*%
%TO.N,VCC*%
X157000000Y-107700000D03*
%TO.P,J2,3,Pin_3*%
%TO.N,Net-(HT1-DATA)*%
X159540000Y-107700000D03*
%TO.P,J2,4,Pin_4*%
%TO.N,Net-(HT1-CS)*%
X162080000Y-107700000D03*
%TO.P,J2,5,Pin_5*%
%TO.N,Net-(J2-Pin_5)*%
X164620000Y-107700000D03*
%TO.P,J2,6,Pin_6*%
%TO.N,GND*%
X167160000Y-107700000D03*
%TD*%
D19*
%TO.P,C1,1*%
%TO.N,VCC*%
X160750000Y-99750000D03*
%TO.P,C1,2*%
%TO.N,GND*%
X160750000Y-101300000D03*
%TD*%
D20*
%TO.P,R4,1*%
%TO.N,Net-(U1-XTAL1{slash}PB3)*%
X150425000Y-98425000D03*
%TO.P,R4,2*%
X150425000Y-100075000D03*
%TD*%
D14*
%TO.P,TP3,1,1*%
%TO.N,Net-(HT1-COM2)*%
X128250000Y-91400000D03*
%TD*%
D16*
%TO.P,R1,1*%
%TO.N,VCC*%
X157000000Y-88900000D03*
%TO.P,R1,2*%
%TO.N,Net-(U1-XTAL1{slash}PB3)*%
X155350000Y-88900000D03*
%TD*%
D21*
%TO.P,HT1,1,CS*%
%TO.N,Net-(HT1-CS)*%
X138050000Y-104462500D03*
%TO.P,HT1,2,RD*%
%TO.N,Net-(HT1-RD)*%
X138550000Y-104462500D03*
%TO.P,HT1,3,WR*%
%TO.N,Net-(HT1-WR)*%
X139050000Y-104462500D03*
%TO.P,HT1,4,DATA*%
%TO.N,Net-(HT1-DATA)*%
X139550000Y-104462500D03*
%TO.P,HT1,5,VSS*%
%TO.N,GND*%
X140050000Y-104462500D03*
%TO.P,HT1,6,OSCO*%
%TO.N,unconnected-(HT1-OSCO-Pad6)*%
X140550000Y-104462500D03*
%TO.P,HT1,7,OSCI*%
%TO.N,unconnected-(HT1-OSCI-Pad7)*%
X141050000Y-104462500D03*
%TO.P,HT1,8,VLCD*%
%TO.N,VCC*%
X141550000Y-104462500D03*
%TO.P,HT1,9,VDD*%
%TO.N,Net-(HT1-VDD)*%
X142050000Y-104462500D03*
%TO.P,HT1,10,IRQ_*%
%TO.N,unconnected-(HT1-IRQ_-Pad10)*%
X142550000Y-104462500D03*
%TO.P,HT1,11,BZ*%
%TO.N,unconnected-(HT1-BZ-Pad11)*%
X143050000Y-104462500D03*
%TO.P,HT1,12,BZ_*%
%TO.N,unconnected-(HT1-BZ_-Pad12)*%
X143550000Y-104462500D03*
D22*
%TO.P,HT1,13,COM0*%
%TO.N,Net-(HT1-COM0)*%
X144962500Y-103050000D03*
%TO.P,HT1,14,COM1*%
%TO.N,Net-(HT1-COM1)*%
X144962500Y-102550000D03*
%TO.P,HT1,15,COM2*%
%TO.N,Net-(HT1-COM2)*%
X144962500Y-102050000D03*
%TO.P,HT1,16,COM3*%
%TO.N,unconnected-(HT1-COM3-Pad16)*%
X144962500Y-101550000D03*
%TO.P,HT1,17,SEG31*%
%TO.N,unconnected-(HT1-SEG31-Pad17)*%
X144962500Y-101050000D03*
%TO.P,HT1,18,SEG30*%
%TO.N,unconnected-(HT1-SEG30-Pad18)*%
X144962500Y-100550000D03*
%TO.P,HT1,19,SEG29*%
%TO.N,unconnected-(HT1-SEG29-Pad19)*%
X144962500Y-100050000D03*
%TO.P,HT1,20,SEG28*%
%TO.N,unconnected-(HT1-SEG28-Pad20)*%
X144962500Y-99550000D03*
%TO.P,HT1,21,SEG27*%
%TO.N,unconnected-(HT1-SEG27-Pad21)*%
X144962500Y-99050000D03*
%TO.P,HT1,22,SEG26*%
%TO.N,unconnected-(HT1-SEG26-Pad22)*%
X144962500Y-98550000D03*
%TO.P,HT1,23,SEG25*%
%TO.N,unconnected-(HT1-SEG25-Pad23)*%
X144962500Y-98050000D03*
%TO.P,HT1,24,SEG24*%
%TO.N,unconnected-(HT1-SEG24-Pad24)*%
X144962500Y-97550000D03*
D21*
%TO.P,HT1,25,SEG23*%
%TO.N,unconnected-(HT1-SEG23-Pad25)*%
X143550000Y-96137500D03*
%TO.P,HT1,26,SEG22*%
%TO.N,unconnected-(HT1-SEG22-Pad26)*%
X143050000Y-96137500D03*
%TO.P,HT1,27,SEG21*%
%TO.N,unconnected-(HT1-SEG21-Pad27)*%
X142550000Y-96137500D03*
%TO.P,HT1,28,SEG20*%
%TO.N,unconnected-(HT1-SEG20-Pad28)*%
X142050000Y-96137500D03*
%TO.P,HT1,29,SEG19*%
%TO.N,unconnected-(HT1-SEG19-Pad29)*%
X141550000Y-96137500D03*
%TO.P,HT1,30,SEG18*%
%TO.N,unconnected-(HT1-SEG18-Pad30)*%
X141050000Y-96137500D03*
%TO.P,HT1,31,SEG17*%
%TO.N,unconnected-(HT1-SEG17-Pad31)*%
X140550000Y-96137500D03*
%TO.P,HT1,32,SEG16*%
%TO.N,unconnected-(HT1-SEG16-Pad32)*%
X140050000Y-96137500D03*
%TO.P,HT1,33,SEG15*%
%TO.N,unconnected-(HT1-SEG15-Pad33)*%
X139550000Y-96137500D03*
%TO.P,HT1,34,SEG14*%
%TO.N,unconnected-(HT1-SEG14-Pad34)*%
X139050000Y-96137500D03*
%TO.P,HT1,35,SEG13*%
%TO.N,unconnected-(HT1-SEG13-Pad35)*%
X138550000Y-96137500D03*
%TO.P,HT1,36,SEG12*%
%TO.N,unconnected-(HT1-SEG12-Pad36)*%
X138050000Y-96137500D03*
D22*
%TO.P,HT1,37,SEG11*%
%TO.N,Net-(HT1-SEG11)*%
X136637500Y-97550000D03*
%TO.P,HT1,38,SEG10*%
%TO.N,Net-(HT1-SEG10)*%
X136637500Y-98050000D03*
%TO.P,HT1,39,SEG9*%
%TO.N,Net-(HT1-SEG9)*%
X136637500Y-98550000D03*
%TO.P,HT1,40,SEG8*%
%TO.N,Net-(HT1-SEG8)*%
X136637500Y-99050000D03*
%TO.P,HT1,41,SEG7*%
%TO.N,Net-(HT1-SEG7)*%
X136637500Y-99550000D03*
%TO.P,HT1,42,SEG6*%
%TO.N,Net-(HT1-SEG6)*%
X136637500Y-100050000D03*
%TO.P,HT1,43,SEG5*%
%TO.N,Net-(HT1-SEG5)*%
X136637500Y-100550000D03*
%TO.P,HT1,44,SEG4*%
%TO.N,Net-(HT1-SEG4)*%
X136637500Y-101050000D03*
%TO.P,HT1,45,SEG3*%
%TO.N,Net-(HT1-SEG3)*%
X136637500Y-101550000D03*
%TO.P,HT1,46,SEG2*%
%TO.N,Net-(HT1-SEG2)*%
X136637500Y-102050000D03*
%TO.P,HT1,47,SEG1*%
%TO.N,Net-(HT1-SEG1)*%
X136637500Y-102550000D03*
%TO.P,HT1,48,SEG0*%
%TO.N,Net-(HT1-SEG0)*%
X136637500Y-103050000D03*
%TD*%
D14*
%TO.P,TP2,1,1*%
%TO.N,Net-(HT1-COM1)*%
X127250000Y-91400000D03*
%TD*%
%TO.P,TP10,1,1*%
%TO.N,Net-(HT1-SEG6)*%
X135250000Y-91400000D03*
%TD*%
%TO.P,TP5,1,1*%
%TO.N,Net-(HT1-SEG1)*%
X130250000Y-91400000D03*
%TD*%
D23*
%TO.P,C2,1*%
%TO.N,Net-(HT1-VDD)*%
X142300000Y-106750000D03*
%TO.P,C2,2*%
%TO.N,GND*%
X140750000Y-106750000D03*
%TD*%
D14*
%TO.P,TP13,1,1*%
%TO.N,Net-(HT1-SEG9)*%
X138250000Y-91400000D03*
%TD*%
D15*
%TO.P,R7,1*%
%TO.N,VCC*%
X132500000Y-106500000D03*
%TO.P,R7,2*%
%TO.N,Net-(HT1-RD)*%
X132500000Y-104850000D03*
%TD*%
D24*
%TO.P,U1,1,~{RESET}/PB5*%
%TO.N,Net-(J2-Pin_5)*%
X154295000Y-102200000D03*
%TO.P,U1,2,XTAL1/PB3*%
%TO.N,Net-(U1-XTAL1{slash}PB3)*%
X155565000Y-102200000D03*
%TO.P,U1,3,NC*%
%TO.N,unconnected-(U1-NC-Pad3)*%
X156835000Y-102200000D03*
D25*
%TO.P,U1,4,GND*%
%TO.N,GND*%
X158102500Y-102200000D03*
%TO.P,U1,5,AREF/PB0*%
%TO.N,Net-(HT1-CS)*%
X158102500Y-96000000D03*
D24*
%TO.P,U1,6,PB1*%
%TO.N,Net-(HT1-WR)*%
X156835000Y-96000000D03*
%TO.P,U1,7,PB2*%
%TO.N,Net-(HT1-DATA)*%
X155565000Y-96000000D03*
D26*
%TO.P,U1,8,VCC*%
%TO.N,VCC*%
X154297500Y-96000000D03*
%TD*%
D14*
%TO.P,TP12,1,1*%
%TO.N,Net-(HT1-SEG8)*%
X137250000Y-91400000D03*
%TD*%
%TO.P,TP14,1,1*%
%TO.N,Net-(HT1-SEG10)*%
X139250000Y-91400000D03*
%TD*%
%TO.P,TP11,1,1*%
%TO.N,Net-(HT1-SEG7)*%
X136250000Y-91400000D03*
%TD*%
%TO.P,TP9,1,1*%
%TO.N,Net-(HT1-SEG5)*%
X134250000Y-91400000D03*
%TD*%
%TO.P,TP1,1,1*%
%TO.N,Net-(HT1-COM0)*%
X126250000Y-91400000D03*
%TD*%
%TO.P,TP15,1,1*%
%TO.N,Net-(HT1-SEG11)*%
X140250000Y-91400000D03*
%TD*%
%TO.P,TP8,1,1*%
%TO.N,Net-(HT1-SEG4)*%
X133250000Y-91400000D03*
%TD*%
%TO.P,TP4,1,1*%
%TO.N,Net-(HT1-SEG0)*%
X129250000Y-91400000D03*
%TD*%
D27*
%TO.P,CL_1,1*%
%TO.N,N/C*%
X164750000Y-102175000D03*
%TO.P,CL_1,2*%
X164750000Y-98875000D03*
D28*
%TO.P,CL_1,3*%
X165100000Y-100525000D03*
%TD*%
D15*
%TO.P,R5,1*%
%TO.N,VCC*%
X136250000Y-106500000D03*
%TO.P,R5,2*%
%TO.N,Net-(HT1-CS)*%
X136250000Y-104850000D03*
%TD*%
D20*
%TO.P,R3,1*%
%TO.N,Net-(U1-XTAL1{slash}PB3)*%
X150400000Y-95250000D03*
%TO.P,R3,2*%
X150400000Y-96900000D03*
%TD*%
D14*
%TO.P,TP6,1,1*%
%TO.N,Net-(HT1-SEG2)*%
X131250000Y-91400000D03*
%TD*%
D29*
%TO.N,Net-(U1-XTAL1{slash}PB3)*%
X153000000Y-99400000D03*
X151700000Y-99400000D03*
X138700000Y-111899000D03*
X153200000Y-110600000D03*
X151750000Y-92500000D03*
X143592024Y-89787500D03*
X147750000Y-98000000D03*
X138750000Y-110500000D03*
%TO.N,GND*%
X151500000Y-105650000D03*
X145000000Y-105750000D03*
%TO.N,Net-(HT1-DATA)*%
X146750000Y-97000000D03*
X161000000Y-98300000D03*
X139550000Y-106700000D03*
X146750000Y-99750000D03*
X163200000Y-105800000D03*
%TO.N,Net-(J2-Pin_5)*%
X155300000Y-91800000D03*
%TO.N,Net-(HT1-WR)*%
X138750000Y-106000000D03*
X160500000Y-97499000D03*
X155900000Y-105425000D03*
%TO.N,VCC*%
X157100000Y-105600000D03*
X144000000Y-106500000D03*
X144000000Y-108250000D03*
X153500000Y-105000000D03*
X159000000Y-102600000D03*
%TO.N,Net-(HT1-RD)*%
X134000000Y-104000000D03*
X138000000Y-106000000D03*
%TO.N,Net-(HT1-COM2)*%
X148250000Y-103750000D03*
X148250000Y-102000000D03*
%TO.N,Net-(HT1-SEG10)*%
X139250000Y-93000000D03*
X134750000Y-98000000D03*
%TO.N,Net-(HT1-SEG9)*%
X138250000Y-93000000D03*
X135250000Y-98500000D03*
%TO.N,Net-(HT1-COM1)*%
X149000000Y-102500000D03*
X149000000Y-103750000D03*
%TO.N,Net-(HT1-SEG6)*%
X134750000Y-100000000D03*
X135250000Y-93000000D03*
%TO.N,Net-(HT1-SEG11)*%
X140250000Y-93000000D03*
X135250000Y-97500000D03*
%TO.N,Net-(HT1-SEG8)*%
X137250000Y-93000000D03*
X134750000Y-99000000D03*
%TO.N,Net-(HT1-SEG7)*%
X136250000Y-93000000D03*
X135250000Y-99500000D03*
%TO.N,Net-(HT1-CS)*%
X159700000Y-98220000D03*
X134250000Y-105250000D03*
%TD*%
D10*
%TO.N,Net-(U1-XTAL1{slash}PB3)*%
X155600000Y-99500000D02*
X155565000Y-99535000D01*
X155500000Y-99400000D02*
X155600000Y-99500000D01*
X153000000Y-99400000D02*
X155500000Y-99400000D01*
X155565000Y-99535000D02*
X155565000Y-102200000D01*
X151700000Y-99400000D02*
X151700000Y-97300000D01*
%TO.N,Net-(J2-Pin_5)*%
X152400000Y-94700000D02*
X155300000Y-91800000D01*
X152400000Y-100800000D02*
X152400000Y-94700000D01*
X153375000Y-101775000D02*
X152400000Y-100800000D01*
X154295000Y-101775000D02*
X153375000Y-101775000D01*
%TO.N,Net-(U1-XTAL1{slash}PB3)*%
X151700000Y-97300000D02*
X151800000Y-97300000D01*
X151000000Y-102000000D02*
X151700000Y-101300000D01*
X151750000Y-97250000D02*
X151750000Y-92500000D01*
X152900000Y-109500000D02*
X151000000Y-107600000D01*
X151000000Y-107600000D02*
X151000000Y-102000000D01*
X151700000Y-101300000D02*
X151700000Y-99400000D01*
X151800000Y-97300000D02*
X151750000Y-97250000D01*
X133575000Y-111887500D02*
X133586500Y-111899000D01*
X133586500Y-111899000D02*
X136000000Y-111899000D01*
X136000000Y-111899000D02*
X138700000Y-111899000D01*
X153200000Y-110600000D02*
X153200000Y-109800000D01*
X153200000Y-109800000D02*
X152900000Y-109500000D01*
X152900000Y-109600000D02*
X152900000Y-109500000D01*
X151912500Y-110587500D02*
X152900000Y-109600000D01*
X150975000Y-110587500D02*
X151912500Y-110587500D01*
X151750000Y-92500000D02*
X151750000Y-91050000D01*
X151750000Y-91050000D02*
X151900000Y-90900000D01*
X151475000Y-90475000D02*
X151900000Y-90900000D01*
X151475000Y-90087500D02*
X151475000Y-90475000D01*
X136625000Y-89787500D02*
X143592024Y-89787500D01*
%TO.N,GND*%
X152700000Y-104200000D02*
X152700000Y-105091479D01*
X152600000Y-105191479D02*
X152600000Y-105501000D01*
X157800000Y-104200000D02*
X152700000Y-104200000D01*
X152700000Y-105091479D02*
X152600000Y-105191479D01*
X158102500Y-102200000D02*
X158102500Y-103897500D01*
X158102500Y-103897500D02*
X157800000Y-104200000D01*
X158580000Y-101300000D02*
X160750000Y-101300000D01*
X158105000Y-101775000D02*
X158580000Y-101300000D01*
%TO.N,VCC*%
X153900000Y-104600000D02*
X153500000Y-105000000D01*
X159000000Y-104600000D02*
X153900000Y-104600000D01*
X159000000Y-102600000D02*
X159000000Y-104600000D01*
%TO.N,GND*%
X153707521Y-105501000D02*
X152600000Y-105501000D01*
X154001000Y-105207521D02*
X153707521Y-105501000D01*
X155392479Y-105207521D02*
X154001000Y-105207521D01*
X155516479Y-105100000D02*
X155500000Y-105100000D01*
X155692479Y-104924000D02*
X155516479Y-105100000D01*
X155500000Y-105100000D02*
X155392479Y-105207521D01*
X166650000Y-105100000D02*
X156283521Y-105100000D01*
X156107521Y-104924000D02*
X155692479Y-104924000D01*
X156283521Y-105100000D02*
X156107521Y-104924000D01*
X167200000Y-105650000D02*
X166650000Y-105100000D01*
%TO.N,Net-(HT1-DATA)*%
X161440000Y-105800000D02*
X159540000Y-107700000D01*
X163200000Y-105800000D02*
X161440000Y-105800000D01*
%TO.N,Net-(HT1-WR)*%
X154460000Y-106865000D02*
X154460000Y-107700000D01*
X155900000Y-105425000D02*
X154460000Y-106865000D01*
%TO.N,Net-(U1-XTAL1{slash}PB3)*%
X146800000Y-91900000D02*
X146800000Y-88600000D01*
X151800000Y-88200000D02*
X151701000Y-88101000D01*
X147100000Y-93700000D02*
X145500000Y-92100000D01*
X138207357Y-109957357D02*
X138750000Y-110500000D01*
X150400000Y-96900000D02*
X148850000Y-96900000D01*
X136800000Y-88200000D02*
X136701000Y-88101000D01*
X147200000Y-88300000D02*
X147399000Y-88101000D01*
X147100000Y-88300000D02*
X147200000Y-88300000D01*
X136800000Y-88200000D02*
X137752000Y-88200000D01*
X150250000Y-91900000D02*
X146800000Y-91900000D01*
X155350000Y-88900000D02*
X154500000Y-88900000D01*
X150425000Y-100075000D02*
X150425000Y-108975000D01*
X155565000Y-101775000D02*
X155565000Y-102035000D01*
X150400000Y-93700000D02*
X150400000Y-95250000D01*
X153825000Y-88225000D02*
X153800000Y-88200000D01*
X146800000Y-88600000D02*
X147100000Y-88300000D01*
X150400000Y-93700000D02*
X147100000Y-93700000D01*
X150375000Y-109025000D02*
X150375000Y-110087500D01*
X150425000Y-108975000D02*
X150375000Y-109025000D01*
X145500000Y-88400000D02*
X145201000Y-88101000D01*
X153800000Y-88200000D02*
X151876000Y-88200000D01*
X145500000Y-92100000D02*
X145500000Y-88400000D01*
X137752000Y-88200000D02*
X137851000Y-88101000D01*
X150400000Y-96900000D02*
X150400000Y-98400000D01*
X151701000Y-88101000D02*
X151475000Y-88101000D01*
X147399000Y-88101000D02*
X147725000Y-88101000D01*
X150400000Y-92050000D02*
X150250000Y-91900000D01*
X136142643Y-109957357D02*
X138207357Y-109957357D01*
X148850000Y-96900000D02*
X147750000Y-98000000D01*
X145201000Y-88101000D02*
X137851000Y-88101000D01*
X154500000Y-88900000D02*
X153825000Y-88225000D01*
X136701000Y-88101000D02*
X136475000Y-88101000D01*
X150400000Y-98400000D02*
X150425000Y-98425000D01*
%TO.N,GND*%
X144750000Y-107500000D02*
X141500000Y-107500000D01*
X140050000Y-106050000D02*
X140750000Y-106750000D01*
X167160000Y-107700000D02*
X167160000Y-105690000D01*
X173500000Y-97750000D02*
X173500000Y-105650000D01*
X151649000Y-105501000D02*
X151500000Y-105650000D01*
X167160000Y-105690000D02*
X167200000Y-105650000D01*
X173500000Y-95250000D02*
X173500000Y-97750000D01*
X152600000Y-105501000D02*
X151649000Y-105501000D01*
X141500000Y-107500000D02*
X140750000Y-106750000D01*
X173500000Y-105650000D02*
X167200000Y-105650000D01*
X140050000Y-104462500D02*
X140050000Y-106050000D01*
X145000000Y-107250000D02*
X144750000Y-107500000D01*
X145000000Y-105750000D02*
X145000000Y-107250000D01*
%TO.N,Net-(HT1-DATA)*%
X160579000Y-98721000D02*
X161000000Y-98300000D01*
X155758521Y-94700000D02*
X155482521Y-94976000D01*
X155565000Y-97765000D02*
X156521000Y-98721000D01*
X146750000Y-99750000D02*
X146750000Y-97000000D01*
X155565000Y-96625000D02*
X155565000Y-97765000D01*
X139550000Y-104462500D02*
X139550000Y-106700000D01*
X156521000Y-98721000D02*
X160579000Y-98721000D01*
%TO.N,Net-(J2-Pin_5)*%
X155350000Y-91750000D02*
X155350000Y-90600000D01*
X155300000Y-91800000D02*
X155350000Y-91750000D01*
%TO.N,Net-(HT1-WR)*%
X156835000Y-96625000D02*
X156835000Y-95650001D01*
X159600000Y-97100000D02*
X159999000Y-97499000D01*
X138750000Y-106000000D02*
X139050000Y-105700000D01*
X159999000Y-97499000D02*
X160500000Y-97499000D01*
X158900000Y-94000000D02*
X159000000Y-94100000D01*
X159600000Y-95800000D02*
X159600000Y-97100000D01*
X156835000Y-94400001D02*
X156835000Y-96000000D01*
X159000000Y-94100000D02*
X159000000Y-95200000D01*
X158900000Y-94000000D02*
X157235001Y-94000000D01*
X157235001Y-94000000D02*
X156835000Y-94400001D01*
X159000000Y-95200000D02*
X159600000Y-95800000D01*
X139050000Y-105700000D02*
X139050000Y-104462500D01*
%TO.N,VCC*%
X157000000Y-90650000D02*
X157000000Y-88900000D01*
X160250000Y-96465000D02*
X160250000Y-95100000D01*
X165862500Y-98112500D02*
X165862500Y-100199000D01*
X154297500Y-96000000D02*
X154297500Y-93400000D01*
X157000000Y-105700000D02*
X157100000Y-105600000D01*
X165291479Y-98000000D02*
X164750000Y-97458521D01*
X161800000Y-98700000D02*
X161800000Y-96800000D01*
X141600000Y-104512500D02*
X141550000Y-104462500D01*
X144000000Y-103782598D02*
X144000000Y-106500000D01*
X143741402Y-103524000D02*
X144000000Y-103782598D01*
X157000000Y-91800000D02*
X157000000Y-90600000D01*
X141751001Y-103524000D02*
X143741402Y-103524000D01*
X154295000Y-95850001D02*
X154295000Y-96825000D01*
X160250000Y-93300000D02*
X154397500Y-93300000D01*
X165862500Y-100500000D02*
X166000000Y-100637500D01*
X161800000Y-96800000D02*
X160250000Y-96800000D01*
X164750000Y-97458521D02*
X164750000Y-96800000D01*
X144000000Y-108250000D02*
X138102000Y-108250000D01*
X166000000Y-100637500D02*
X166000000Y-103200000D01*
X154397500Y-93300000D02*
X154297500Y-93400000D01*
X160450000Y-103200000D02*
X159850000Y-102600000D01*
X132500000Y-106500000D02*
X136250000Y-106500000D01*
X165750000Y-98000000D02*
X165862500Y-98112500D01*
X160250000Y-95100000D02*
X160250000Y-93300000D01*
X166000000Y-103200000D02*
X160450000Y-103200000D01*
X165750000Y-98000000D02*
X165291479Y-98000000D01*
X136250000Y-106500000D02*
X136725000Y-106500000D01*
X159850000Y-102600000D02*
X159000000Y-102600000D01*
X155400000Y-93400000D02*
X157000000Y-91800000D01*
X138102000Y-107877000D02*
X138102000Y-108250000D01*
X141550000Y-104462500D02*
X141550000Y-103725001D01*
X154300000Y-96800000D02*
X154250000Y-96750000D01*
X141550000Y-103725001D02*
X141751001Y-103524000D01*
X160250000Y-96465000D02*
X160250000Y-96800000D01*
X136725000Y-106500000D02*
X138102000Y-107877000D01*
X164750000Y-96800000D02*
X160250000Y-96800000D01*
X157000000Y-107700000D02*
X157000000Y-105700000D01*
X160750000Y-99750000D02*
X161800000Y-98700000D01*
X154297500Y-93400000D02*
X155400000Y-93400000D01*
%TO.N,Net-(HT1-RD)*%
X133350000Y-104000000D02*
X132500000Y-104850000D01*
X138550000Y-104462500D02*
X138550000Y-105450000D01*
X134000000Y-104000000D02*
X133350000Y-104000000D01*
X138550000Y-105450000D02*
X138000000Y-106000000D01*
%TO.N,Net-(HT1-COM2)*%
X137648000Y-107898000D02*
X128250000Y-107898000D01*
X147300000Y-102000000D02*
X147250000Y-102050000D01*
X128250000Y-107898000D02*
X128250000Y-91250000D01*
X145500000Y-106500000D02*
X145500000Y-108949000D01*
X145500000Y-108949000D02*
X137801000Y-108949000D01*
X147250000Y-102050000D02*
X147491479Y-102050000D01*
X137801000Y-108051000D02*
X137648000Y-107898000D01*
X148250000Y-103750000D02*
X145500000Y-106500000D01*
X144962500Y-102050000D02*
X147250000Y-102050000D01*
X137801000Y-108949000D02*
X137801000Y-108051000D01*
X148250000Y-102000000D02*
X147300000Y-102000000D01*
%TO.N,Net-(HT1-SEG10)*%
X136587500Y-98000000D02*
X136637500Y-98050000D01*
X134750000Y-98000000D02*
X136587500Y-98000000D01*
X139250000Y-93000000D02*
X139250000Y-91250000D01*
%TO.N,Net-(HT1-SEG9)*%
X138250000Y-93000000D02*
X138250000Y-91250000D01*
X135250000Y-98500000D02*
X136587500Y-98500000D01*
X136587500Y-98500000D02*
X136637500Y-98550000D01*
%TO.N,Net-(HT1-SEG1)*%
X130250000Y-91250000D02*
X130250000Y-102500000D01*
X130250000Y-102500000D02*
X134750000Y-102500000D01*
X134750000Y-102500000D02*
X134800000Y-102550000D01*
X134800000Y-102550000D02*
X136637500Y-102550000D01*
%TO.N,Net-(HT1-SEG3)*%
X134800000Y-101550000D02*
X136637500Y-101550000D01*
X134750000Y-101500000D02*
X134800000Y-101550000D01*
X132250000Y-91250000D02*
X132250000Y-101500000D01*
X132250000Y-101500000D02*
X134750000Y-101500000D01*
%TO.N,Net-(HT1-COM1)*%
X137500000Y-109250000D02*
X145900000Y-109250000D01*
X145900000Y-106850000D02*
X149000000Y-103750000D01*
X137500000Y-108250000D02*
X137500000Y-109250000D01*
X137449000Y-108199000D02*
X137500000Y-108250000D01*
X148950000Y-102550000D02*
X149000000Y-102500000D01*
X144962500Y-102550000D02*
X148950000Y-102550000D01*
X127250000Y-91250000D02*
X127250000Y-108199000D01*
X127250000Y-108199000D02*
X137449000Y-108199000D01*
X145900000Y-109250000D02*
X145900000Y-106850000D01*
%TO.N,Net-(HT1-SEG4)*%
X133250000Y-101000000D02*
X135000000Y-101000000D01*
X135050000Y-101050000D02*
X136637500Y-101050000D01*
X133250000Y-91250000D02*
X133250000Y-101000000D01*
X135000000Y-101000000D02*
X135050000Y-101050000D01*
%TO.N,Net-(HT1-SEG5)*%
X134300000Y-100550000D02*
X136637500Y-100550000D01*
X134250000Y-91250000D02*
X134250000Y-100500000D01*
X134250000Y-100500000D02*
X134300000Y-100550000D01*
%TO.N,Net-(HT1-SEG6)*%
X134750000Y-100000000D02*
X136587500Y-100000000D01*
X136587500Y-100000000D02*
X136637500Y-100050000D01*
X135250000Y-91250000D02*
X135250000Y-93000000D01*
%TO.N,Net-(HT1-SEG0)*%
X136637500Y-103050000D02*
X129650000Y-103050000D01*
X129650000Y-103050000D02*
X129600000Y-103000000D01*
%TO.N,Net-(HT1-SEG2)*%
X131250000Y-102000000D02*
X135000000Y-102000000D01*
X135050000Y-102050000D02*
X136637500Y-102050000D01*
X131250000Y-91250000D02*
X131250000Y-102000000D01*
X135000000Y-102000000D02*
X135050000Y-102050000D01*
%TO.N,Net-(HT1-SEG11)*%
X135300000Y-97550000D02*
X135250000Y-97500000D01*
X140250000Y-93000000D02*
X140250000Y-91250000D01*
X136637500Y-97550000D02*
X135300000Y-97550000D01*
%TO.N,Net-(HT1-COM0)*%
X146300000Y-109600000D02*
X146300000Y-107200000D01*
X149500000Y-104000000D02*
X149500000Y-103200000D01*
X146300000Y-107200000D02*
X149500000Y-104000000D01*
%TO.N,Net-(HT1-SEG8)*%
X134750000Y-99000000D02*
X136587500Y-99000000D01*
X136587500Y-99000000D02*
X136637500Y-99050000D01*
X137250000Y-91250000D02*
X137250000Y-93000000D01*
%TO.N,Net-(HT1-SEG7)*%
X135250000Y-99500000D02*
X136587500Y-99500000D01*
X136250000Y-91250000D02*
X136250000Y-93000000D01*
X136587500Y-99500000D02*
X136637500Y-99550000D01*
%TO.N,Net-(HT1-VDD)*%
X142050000Y-104462500D02*
X142050000Y-106500000D01*
X142050000Y-106500000D02*
X142300000Y-106750000D01*
%TO.N,Net-(HT1-CS)*%
X136250000Y-104850000D02*
X134650000Y-104850000D01*
X134650000Y-104850000D02*
X134250000Y-105250000D01*
X138050000Y-104462500D02*
X136637500Y-104462500D01*
X136637500Y-104462500D02*
X136250000Y-104850000D01*
X158105000Y-96625000D02*
X159700000Y-98220000D01*
%TD*%
M02*
