%TF.GenerationSoftware,KiCad,Pcbnew,9.0.0*%
%TF.CreationDate,2025-03-31T21:31:39-07:00*%
%TF.ProjectId,Caliper_Clock,43616c69-7065-4725-9f43-6c6f636b2e6b,rev?*%
%TF.SameCoordinates,Original*%
%TF.FileFunction,Copper,L2,Bot*%
%TF.FilePolarity,Positive*%
%FSLAX46Y46*%
G04 Gerber Fmt 4.6, Leading zero omitted, Abs format (unit mm)*
G04 Created by KiCad (PCBNEW 9.0.0) date 2025-03-31 21:31:39*
%MOMM*%
%LPD*%
G01*
G04 APERTURE LIST*
%TA.AperFunction,ComponentPad*%
%ADD10O,2.000000X0.600000*%
%TD*%
%TA.AperFunction,ComponentPad*%
%ADD11O,1.800000X0.900000*%
%TD*%
%TA.AperFunction,ComponentPad*%
%ADD12R,1.700000X1.700000*%
%TD*%
%TA.AperFunction,ComponentPad*%
%ADD13O,1.700000X1.700000*%
%TD*%
%TA.AperFunction,ViaPad*%
%ADD14C,0.600000*%
%TD*%
%TA.AperFunction,Conductor*%
%ADD15C,0.200000*%
%TD*%
G04 APERTURE END LIST*
D10*
%TO.P,CL_2,3*%
%TO.N,N/C*%
X173500000Y-95100000D03*
X173500000Y-105800000D03*
%TD*%
D11*
%TO.P,CL_1,1*%
%TO.N,N/C*%
X164750000Y-102175000D03*
%TO.P,CL_1,2*%
X164750000Y-98875000D03*
%TD*%
D12*
%TO.P,J2,1,Pin_1*%
%TO.N,Net-(HT1-WR)*%
X154460000Y-107700000D03*
D13*
%TO.P,J2,2,Pin_2*%
%TO.N,VCC*%
X157000000Y-107700000D03*
%TO.P,J2,3,Pin_3*%
%TO.N,Net-(HT1-DATA)*%
X159540000Y-107700000D03*
%TO.P,J2,4,Pin_4*%
%TO.N,Net-(HT1-CS)*%
X162080000Y-107700000D03*
%TO.P,J2,5,Pin_5*%
%TO.N,Net-(J2-Pin_5)*%
X164620000Y-107700000D03*
%TO.P,J2,6,Pin_6*%
%TO.N,GND*%
X167160000Y-107700000D03*
%TD*%
D14*
%TO.N,Net-(J2-Pin_5)*%
X155300000Y-91800000D03*
%TO.N,Net-(U1-XTAL1{slash}PB3)*%
X143592024Y-89787500D03*
X151750000Y-92500000D03*
X153200000Y-110600000D03*
X147750000Y-98000000D03*
X138700000Y-111899000D03*
X138750000Y-110500000D03*
%TO.N,GND*%
X151500000Y-105650000D03*
X145000000Y-105750000D03*
%TO.N,Net-(HT1-DATA)*%
X146750000Y-97000000D03*
X161000000Y-98300000D03*
X139550000Y-106700000D03*
X146750000Y-99750000D03*
X163300000Y-104800000D03*
%TO.N,Net-(HT1-WR)*%
X138750000Y-106000000D03*
X160500000Y-97499000D03*
X155100000Y-104600000D03*
%TO.N,VCC*%
X157100000Y-105600000D03*
X144000000Y-106500000D03*
X144000000Y-108250000D03*
X153500000Y-105000000D03*
X159000000Y-102600000D03*
%TO.N,Net-(HT1-RD)*%
X134000000Y-104000000D03*
X138000000Y-106000000D03*
%TO.N,Net-(HT1-COM2)*%
X148250000Y-103750000D03*
X148250000Y-102000000D03*
%TO.N,Net-(HT1-SEG10)*%
X139250000Y-93000000D03*
X134750000Y-98000000D03*
%TO.N,Net-(HT1-SEG9)*%
X138250000Y-93000000D03*
X135250000Y-98500000D03*
%TO.N,Net-(HT1-COM1)*%
X149000000Y-102500000D03*
X149000000Y-103750000D03*
%TO.N,Net-(HT1-SEG6)*%
X134750000Y-100000000D03*
X135250000Y-93000000D03*
%TO.N,Net-(HT1-SEG11)*%
X140250000Y-93000000D03*
X135250000Y-97500000D03*
%TO.N,Net-(HT1-SEG8)*%
X137250000Y-93000000D03*
X134750000Y-99000000D03*
%TO.N,Net-(HT1-SEG7)*%
X136250000Y-93000000D03*
X135250000Y-99500000D03*
%TO.N,Net-(HT1-CS)*%
X159700000Y-98220000D03*
X134250000Y-105250000D03*
%TD*%
D15*
%TO.N,Net-(J2-Pin_5)*%
X168500000Y-98300000D02*
X168500000Y-103820000D01*
X158075000Y-94475000D02*
X164675000Y-94475000D01*
X168500000Y-103820000D02*
X164620000Y-107700000D01*
X155350000Y-91750000D02*
X158075000Y-94475000D01*
X164675000Y-94475000D02*
X168500000Y-98300000D01*
%TO.N,Net-(HT1-DATA)*%
X162500000Y-104000000D02*
X163300000Y-104800000D01*
X162500000Y-99000000D02*
X162500000Y-104000000D01*
X164000000Y-97500000D02*
X162500000Y-99000000D01*
%TO.N,Net-(U1-XTAL1{slash}PB3)*%
X147750000Y-101750000D02*
X143250000Y-106250000D01*
X147750000Y-98000000D02*
X147750000Y-101750000D01*
X143250000Y-106250000D02*
X139000000Y-110500000D01*
X143592024Y-89787500D02*
X149037500Y-89787500D01*
X138700000Y-111899000D02*
X151901000Y-111899000D01*
X149037500Y-89787500D02*
X151750000Y-92500000D01*
X151901000Y-111899000D02*
X153200000Y-110600000D01*
X139000000Y-110500000D02*
X138750000Y-110500000D01*
%TO.N,GND*%
X151500000Y-105650000D02*
X151400000Y-105750000D01*
X151400000Y-105750000D02*
X145000000Y-105750000D01*
%TO.N,Net-(HT1-DATA)*%
X161800000Y-97500000D02*
X164000000Y-97500000D01*
X164000000Y-96100000D02*
X164000000Y-97500000D01*
X161000000Y-98300000D02*
X161800000Y-97500000D01*
X158608521Y-96100000D02*
X164000000Y-96100000D01*
X146750000Y-97000000D02*
X157708521Y-97000000D01*
X139550000Y-106700000D02*
X146500000Y-99750000D01*
X157708521Y-97000000D02*
X158608521Y-96100000D01*
X146500000Y-99750000D02*
X146750000Y-99750000D01*
%TO.N,Net-(HT1-WR)*%
X153700000Y-97499000D02*
X153700000Y-103200000D01*
X147542479Y-97499000D02*
X153700000Y-97499000D01*
X139000000Y-106041479D02*
X147542479Y-97499000D01*
X153700000Y-97499000D02*
X160500000Y-97499000D01*
X153700000Y-103200000D02*
X155100000Y-104600000D01*
X138791479Y-106041479D02*
X139000000Y-106041479D01*
X138750000Y-106000000D02*
X138791479Y-106041479D01*
%TO.N,VCC*%
X152000000Y-106500000D02*
X153500000Y-105000000D01*
X144000000Y-106500000D02*
X152000000Y-106500000D01*
X159000000Y-102600000D02*
X157100000Y-104500000D01*
X144000000Y-106500000D02*
X144000000Y-108250000D01*
X157100000Y-104500000D02*
X157100000Y-105600000D01*
%TO.N,Net-(HT1-RD)*%
X135250000Y-104000000D02*
X134000000Y-104000000D01*
X138000000Y-106000000D02*
X137250000Y-106000000D01*
X137250000Y-106000000D02*
X135250000Y-104000000D01*
%TO.N,Net-(HT1-COM2)*%
X148250000Y-102000000D02*
X148250000Y-103750000D01*
%TO.N,Net-(HT1-SEG10)*%
X139250000Y-93000000D02*
X139250000Y-94500000D01*
X137500000Y-94500000D02*
X134750000Y-97250000D01*
X134750000Y-97250000D02*
X134750000Y-98000000D01*
X139250000Y-94500000D02*
X137500000Y-94500000D01*
%TO.N,Net-(HT1-SEG9)*%
X138250000Y-93000000D02*
X138250000Y-94250000D01*
X137000000Y-94250000D02*
X134250000Y-97000000D01*
X134250000Y-97000000D02*
X134250000Y-98500000D01*
X138250000Y-94250000D02*
X137000000Y-94250000D01*
X134250000Y-98500000D02*
X135250000Y-98500000D01*
%TO.N,Net-(HT1-COM1)*%
X149000000Y-102500000D02*
X149000000Y-103750000D01*
%TO.N,Net-(HT1-SEG6)*%
X135250000Y-93501000D02*
X135250000Y-93000000D01*
X135250000Y-93750000D02*
X135250000Y-93501000D01*
X132750000Y-100000000D02*
X132750000Y-96250000D01*
X132750000Y-96250000D02*
X135250000Y-93750000D01*
X134750000Y-100000000D02*
X132750000Y-100000000D01*
%TO.N,Net-(HT1-SEG11)*%
X135250000Y-97500000D02*
X137750000Y-95000000D01*
X140500000Y-93250000D02*
X140250000Y-93000000D01*
X137750000Y-95000000D02*
X140500000Y-95000000D01*
X140500000Y-95000000D02*
X140500000Y-93250000D01*
%TO.N,Net-(HT1-SEG8)*%
X134750000Y-99000000D02*
X133750000Y-99000000D01*
X133750000Y-97000000D02*
X137250000Y-93500000D01*
X133750000Y-98801000D02*
X133750000Y-97000000D01*
X137250000Y-93500000D02*
X137250000Y-93000000D01*
X133750000Y-99000000D02*
X133750000Y-98801000D01*
%TO.N,Net-(HT1-SEG7)*%
X136250000Y-93750000D02*
X136250000Y-93000000D01*
X135250000Y-99500000D02*
X133250000Y-99500000D01*
X133250000Y-96750000D02*
X136250000Y-93750000D01*
X133250000Y-99500000D02*
X133250000Y-96750000D01*
%TO.N,Net-(HT1-CS)*%
X156500000Y-105900000D02*
X156425000Y-105825000D01*
X156425000Y-105825000D02*
X156425000Y-103825000D01*
X156475000Y-105925000D02*
X156500000Y-105900000D01*
X159225000Y-101025000D02*
X162080000Y-103880000D01*
X136500000Y-111250000D02*
X134250000Y-109000000D01*
X154325000Y-105925000D02*
X156475000Y-105925000D01*
X159700000Y-98220000D02*
X159700000Y-100500000D01*
X134250000Y-109000000D02*
X134250000Y-105250000D01*
X162080000Y-103880000D02*
X162080000Y-107700000D01*
X154325000Y-105925000D02*
X149000000Y-111250000D01*
X159725000Y-100525000D02*
X156425000Y-103825000D01*
X159700000Y-100500000D02*
X159725000Y-100525000D01*
X159725000Y-100525000D02*
X159225000Y-101025000D01*
X149000000Y-111250000D02*
X136500000Y-111250000D01*
%TD*%
M02*
